<?xml version="1.0" encoding="UTF-8"?>
<!-- Generator: Adobe Illustrator 25.2.0, SVG Export Plug-In . SVG Version: 6.00 Build 0)  -->
<svg xmlns="http://www.w3.org/2000/svg" xmlns:xlink="http://www.w3.org/1999/xlink" version="1.1" id="Capa_1" x="0px" y="0px" viewBox="0 0 500 500" style="enable-background:new 0 0 500 500;" xml:space="preserve" width="512" height="512">
<g>
	<g>
		<path d="M440.683,291.832c0.206,0.744,0.143,1.537-0.127,2.26c-0.245,0.656-0.508,1.34-0.889,1.952    c-3.956,6.364-6.259,13.331-7.696,20.629c-0.119,0.606-0.292,1.203-0.475,1.794c-0.316,1.019-1.095,2.065-2.277,1.955    c-1.605-0.15-2.74-1.378-3.457-2.71c-3.573-6.632-7.062-13.311-10.761-19.872c-1.404-2.491-1.642-5.467-0.615-8.136    c2.96-7.688,5.843-15.406,8.756-23.113c0.517-1.368,1.236-2.592,2.875-2.663c1.718-0.074,2.521,1.146,3.165,2.524    c2.947,6.31,5.93,12.603,8.851,18.925c0.929,2.011,1.719,4.087,2.546,6.144C440.62,291.621,440.654,291.724,440.683,291.832z"/>
		<path d="M0.755,291.423c-0.177-0.357-0.201-0.774-0.046-1.141c0.419-0.991,0.713-1.938,1.319-2.598    c5.459-5.95,8.706-13.127,11.615-20.508c0.595-1.511,1.188-3.141,3.237-2.996c2.114,0.15,2.394,1.908,2.898,3.513    c0.523,1.667,1.093,3.353,1.908,4.89c2.393,4.517,4.836,9.013,7.425,13.421c1.313,2.236,1.347,4.213-0.095,6.342    c-1.853,2.737-3.613,5.537-5.422,8.304c-2.011,3.077-3.875,6.215-4.727,9.857c-0.33,1.414-1.01,2.652-2.696,2.798    c-1.642,0.142-2.593-0.892-3.271-2.174c-1.037-1.962-1.794-4.095-3.002-5.938c-2.375-3.624-5.014-7.073-7.467-10.647    C1.777,293.595,1.302,292.522,0.755,291.423z"/>
		<path d="M472.71,166.001c-0.352-0.911-0.366-1.923-0.031-2.84c0.262-0.717,0.538-1.408,0.974-1.974    c4.814-6.252,8.739-13.014,11.957-20.204c0.576-1.286,1.418-2.342,3.021-2.224c1.685,0.125,2.413,1.352,2.692,2.782    c1.518,7.775,4.793,14.899,8.024,22.047c1.064,2.354,0.896,2.502-1.022,4.479c-3.554,3.663-6.272,7.922-8.508,12.491    c-0.793,1.621-1.36,3.368-2.292,4.898c-0.499,0.82-1.529,1.763-2.365,1.808c-0.842,0.045-1.79-0.889-2.593-1.521    c-0.371-0.292-0.511-0.881-0.744-1.34c-2.687-5.289-5.389-10.569-8.042-15.874C473.379,167.724,473.051,166.883,472.71,166.001z"/>
		<path d="M18.137,361.748c-0.399-1.019-0.406-2.153-0.014-3.175c0.201-0.524,0.423-1.012,0.748-1.419    c4.349-5.455,6.898-11.839,9.567-18.167c0.65-1.542,1.289-3.208,3.36-3.133c2.13,0.077,2.754,1.773,3.209,3.458    c1.512,5.6,4.181,10.647,7.237,15.526c0.654,1.045,1.398,2.136,1.644,3.302c0.226,1.071,0.22,2.524-0.341,3.376    c-3.961,6.016-7.27,12.344-9.803,19.084c-0.421,1.121-1.2,2.214-2.44,2.008c-0.984-0.163-2.181-0.847-2.7-1.669    c-1.43-2.261-2.509-4.741-3.81-7.088c-1.927-3.477-3.954-6.898-5.877-10.377C18.614,362.929,18.372,362.349,18.137,361.748z"/>
		<path d="M227.728,103.348c-0.381-0.767-0.454-1.65-0.201-2.468c0.263-0.852,0.488-1.594,0.866-2.246    c3.4-5.866,6.319-11.95,8.633-18.325c0.456-1.257,1.354-2.106,2.768-2.12c1.402-0.014,2.456,0.767,2.837,2.027    c1.888,6.251,5.829,11.356,9.201,16.781c0.245,0.394,0.438,0.819,0.675,1.219c1.341,2.264,1.434,4.239-0.51,6.427    c-3.965,4.463-5.548,10.051-6.708,15.768c-0.331,1.631-0.54,3.44-2.666,3.679c-2.115,0.237-2.707-1.455-3.424-2.977    c-2.639-5.599-6.334-10.506-10.082-15.386C228.555,104.994,228.131,104.158,227.728,103.348z"/>
		<path d="M273.273,364.795c0.681,1.223,0.795,2.723,0.156,3.968c-0.058,0.113-0.121,0.221-0.19,0.325    c-3.252,4.844-5.51,10.149-7.384,15.64c-0.199,0.584-0.413,1.177-0.721,1.708c-1.309,2.261-3.664,2.28-4.976,0.05    c-2.12-3.603-4.232-7.211-6.335-10.824c-1.195-2.052-2.325-4.142-3.559-6.17c-1.047-1.721-1.093-3.391-0.054-5.104    c0.241-0.397,0.443-0.822,0.714-1.196c3.308-4.563,5.494-9.676,7.365-14.947c0.275-0.776,0.528-1.579,0.936-2.286    c1.123-1.942,3.08-1.951,4.216-0.017c0.294,0.5,0.506,1.072,0.637,1.64c1.397,6.033,4.538,11.135,8.344,15.91    C272.746,363.899,273.021,364.344,273.273,364.795z"/>
		<path d="M151.684,100.34c1.614,0.099,2.159,1.3,2.696,2.586c1.43,3.422,2.789,6.883,4.413,10.213    c1.218,2.497,2.809,4.811,4.225,7.211c1.208,2.046,1.053,2.98-0.309,4.937c-2.722,3.91-4.981,8.07-6.437,12.637    c-0.344,1.078-0.7,2.176-1.236,3.163c-0.796,1.463-2.359,1.537-3.446,0.269c-0.134-0.156-0.245-0.333-0.356-0.506    c-3.252-5.084-6.432-10.217-9.785-15.233c-1.61-2.409-1.777-4.635-0.136-7.013c3.373-4.888,5.471-10.393,7.658-15.855    C149.467,101.508,150.084,100.388,151.684,100.34z"/>
		<path d="M178.692,402.205c-0.666,1.43-0.992,2.684-1.728,3.613c-3.266,4.126-5.919,8.567-7.67,13.548    c-0.533,1.517-1.637,2.537-3.388,2.44c-1.681-0.094-2.559-1.209-3.051-2.676c-1.708-5.1-4.134-9.756-7.857-13.73    c-1.896-2.024-1.688-4.044,0.275-5.852c3.63-3.343,5.792-7.603,7.586-12.083c0.557-1.392,1.223-2.564,2.889-2.579    c1.479-0.013,2.384,0.898,2.875,2.204c1.689,4.485,4.408,8.241,7.821,11.58C177.411,399.617,177.948,401.004,178.692,402.205z"/>
		<path d="M114.36,317.01c0.044-5.148,3.274-8.725,7.883-8.727c4.469-0.002,8.151,3.723,8.148,8.244    c-0.003,4.525-3.704,8.201-8.207,8.15C117.613,324.627,114.322,321.401,114.36,317.01z"/>
		<path d="M347.141,91.739c4.364-0.022,8.236,3.677,8.216,7.848c-0.019,3.881-3.243,7.001-7.221,6.989    c-4.228-0.013-7.86-3.676-7.903-7.971C340.195,94.779,343.233,91.759,347.141,91.739z"/>
		<path d="M475.74,283.2c-3.854,0.011-7.47-3.597-7.468-7.452c0.002-4.055,3.393-7.482,7.378-7.454    c4.029,0.028,7.38,3.509,7.373,7.659C483.016,280.077,479.89,283.188,475.74,283.2z"/>
		<path d="M109.748,401.44c-0.003,4.029-2.956,7.099-6.82,7.091c-4.268-0.009-7.754-3.352-7.747-7.428    c0.007-4.052,3.231-7.374,7.191-7.41C106.466,393.657,109.751,397.107,109.748,401.44z"/>
		<path d="M63.993,130.442c-0.012-3.845,2.931-6.856,6.714-6.867c3.778-0.011,7.012,3.138,7.023,6.839    c0.01,3.64-3.287,6.888-7.004,6.899C66.992,137.324,64.005,134.276,63.993,130.442z"/>
		<path d="M301.107,93.988c-3.453,0.021-6.213-2.682-6.263-6.135c-0.056-3.814,3.152-6.917,7.202-6.966    c3.716-0.046,6.72,2.707,6.776,6.208C308.88,90.791,305.331,93.962,301.107,93.988z"/>
		<path d="M491.082,225.129c-3.461,0.012-6.261-2.704-6.305-6.115c-0.044-3.323,2.539-6.012,5.776-6.016    c3.735-0.004,6.9,2.691,6.943,5.913C497.54,222.259,494.592,225.117,491.082,225.129z"/>
		<path d="M464.751,106.14c-3.004,0.016-5.456-2.362-5.492-5.327c-0.036-3.007,2.309-5.326,5.411-5.349    c3.237-0.024,5.712,2.26,5.688,5.249C470.333,103.695,467.823,106.124,464.751,106.14z"/>
		<path d="M198.559,106.577c3.076,0.009,5.523,2.465,5.481,5.501c-0.04,2.932-2.398,5.278-5.336,5.309    c-3.032,0.031-5.573-2.542-5.573-5.645C193.13,108.861,195.54,106.568,198.559,106.577z"/>
		<path d="M226.702,387.072c-2.878,0.021-5.23-2.31-5.227-5.182c0.003-2.837,2.284-5.157,5.071-5.156    c2.641,0,5.11,2.561,5.167,5.358C231.768,384.83,229.535,387.05,226.702,387.072z"/>
		<path d="M182.702,313.2c-2.881,0.021-5.21-2.191-5.244-4.98c-0.032-2.626,2.051-4.821,4.602-4.848    c2.606-0.028,5.496,2.741,5.532,5.302C187.626,311.172,185.457,313.18,182.702,313.2z"/>
		<path d="M414.94,360.078c-2.78,0.005-4.963-2.147-4.949-4.876c0.013-2.581,2.113-4.744,4.574-4.713    c2.216,0.028,4.803,2.936,4.845,5.445C419.448,358.268,417.501,360.074,414.94,360.078z"/>
		<path d="M304.366,363.476c0.001,2.454-1.763,4.222-4.183,4.193c-2.45-0.029-4.429-1.991-4.459-4.419    c-0.029-2.413,1.868-4.371,4.252-4.388C302.459,358.845,304.365,360.848,304.366,363.476z"/>
		<path d="M107.993,120.558c0.033,2.17-1.679,3.952-3.856,4.018c-2.179,0.065-3.987-1.651-4.025-3.82    c-0.039-2.162,1.682-3.944,3.865-4.002C106.2,116.694,107.959,118.36,107.993,120.558z"/>
		<path d="M285.509,305.376c1.299-0.603,2.461-1.152,3.631-1.685c12.738-5.801,25.377-11.83,38.872-15.783    c8.323-2.438,16.702-4.277,25.458-3.817c16.505,0.868,24.204,16.028,21.166,27.62c-0.903,3.446-2.816,6.304-5.184,8.879    c-9.842,10.707-22.016,15.842-36.562,14.933c-13.167-0.823-24.939-5.537-35.365-13.538c-5.304-4.07-9.293-9.235-11.655-15.562    C285.764,306.139,285.672,305.85,285.509,305.376z M303.339,308.239c2.022,1.829,3.746,3.69,5.757,5.156    c10.697,7.803,22.785,9.665,35.529,7.53c7.025-1.177,12.674-4.927,16.19-11.365c2.389-4.373,1.518-8.174-2.528-11.119    c-4.175-3.04-8.927-4.506-14.045-4.713c-4.531-0.182-8.735,1.372-12.972,2.712C321.736,299.456,312.66,303.542,303.339,308.239z"/>
	</g>
	<g>
		<path d="M234.949,196.689c4.079-0.467,7.841-1.56,11.082-4.068c6.111-4.73,9.563-11.212,11.59-18.45    c2.427-8.666,3.089-17.575,2.842-26.556c-0.045-1.653-0.049-3.309-0.028-4.963c0.021-1.619,0.776-2.917,2.357-3.241    c5.707-1.172,11.413-2.426,17.179-3.202c3.633-0.489,4.147,0.225,4.611,3.928c0.228,1.821,0.248,3.669,0.386,5.88    c0.624-0.759,1.011-1.217,1.383-1.686c6.26-7.901,14.152-13.233,24.136-15.195c8.28-1.626,15.911,0.328,23.058,4.504    c8.037,4.696,13.794,11.585,18.443,19.502c8.405,14.314,11.522,29.846,10.67,46.297c-0.611,11.8-3.502,22.956-9.384,33.261    c-3.294,5.771-7.456,10.821-12.908,14.679c-12.158,8.601-24.84,9.332-37.94,2.265c-4.223-2.278-7.869-5.325-11.139-8.823    c-0.345-0.369-0.621-0.803-1.167-1.097c0.109,14.902,1.158,29.629,3.634,44.441c0.753-0.322,1.359-0.57,1.956-0.837    c12.57-5.624,25.423-10.4,38.933-13.289c12.369-2.645,23.831-0.276,34.512,6.18c2.899,1.752,5.698,3.811,8.148,6.145    c10.871,10.353,13.697,24.273,7.038,38.334c-7.221,15.25-19.089,25.11-36.128,27.88c-16.14,2.624-31.526-0.094-46.467-6.495    c-10.13-4.34-18.145-10.969-23.989-20.274c-0.081-0.128-0.199-0.233-0.378-0.437c-0.482,0.222-0.984,0.448-1.481,0.684    c-26.123,12.424-52.176,24.999-78.396,37.214c-14.387,6.702-29.267,12.188-44.766,15.853c-18.434,4.359-36.854,4.654-55.239-0.173    c-7.249-1.903-14.016-5.023-20.243-9.17c-2.555-1.702-4.75-3.954-7.069-5.999c-1.113-0.981-1.235-1.973-0.322-3.364    c3.544-5.395,6.934-10.891,10.381-16.351c1.315-2.083,2.239-2.346,4.281-0.984c14.509,9.678,30.622,12.915,47.805,12.17    c11.799-0.511,23.223-2.452,34.376-6.589c19.708-7.31,38.621-16.328,57.375-25.722c14.827-7.427,29.589-14.982,44.401-22.44    c0.993-0.5,1.249-0.995,1.157-2.124c-0.725-8.912-1.345-17.832-2.003-26.749c-0.986-13.351-1.977-26.701-2.963-40.052    c-0.491-6.649-0.975-13.297-1.465-19.946c-0.075-1.021-0.166-2.041-0.281-3.446c-0.505,0.647-0.816,1.011-1.09,1.402    c-5.864,8.365-13.314,14.659-23.224,17.703c-1.008,0.31-0.983,0.951-1.043,1.759c-0.888,12.029-3.882,23.434-10.376,33.723    c-5.587,8.853-13.018,15.519-23.282,18.437c-11.545,3.283-21.85,0.243-31.228-6.691c-2.354-1.74-4.464-3.81-6.542-5.603    c-1.904,3.102-3.634,6.42-5.829,9.395c-5.187,7.034-11.811,12.134-20.579,13.909c-7.824,1.584-14.994-0.045-21.428-4.765    c-3.294-2.417-5.527-5.657-7.105-9.409c-3.053-7.256-4.198-14.91-4.638-22.674c-0.722-12.748-1.168-25.512-1.931-38.257    c-0.314-5.248-1.062-10.476-1.797-15.688c-0.21-1.488-0.91-2.971-1.656-4.304c-1.148-2.051-2.647-2.37-4.699-1.213    c-2.462,1.389-4.176,3.487-5.548,5.919c-3.901,6.913-6.486,14.323-7.838,22.102c-2.581,14.857-5.098,29.729-7.332,44.641    c-1.519,10.14-1.657,20.383-0.948,30.625c0.074,1.074-0.104,2.163-0.07,3.242c0.047,1.463-0.825,2.064-2.06,2.243    c-5.009,0.725-10.018,1.463-15.042,2.072c-2.209,0.268-3.238-0.626-3.545-2.929c-1.148-8.605-2.279-17.213-3.338-25.83    c-1.897-15.438-3.425-30.929-5.707-46.309c-1.62-10.917-4.201-21.692-6.422-32.516c-0.308-1.499-0.904-2.969-1.559-4.362    c-1.242-2.644-3.922-3.442-6.501-2.027c-2.142,1.177-3.636,2.993-4.282,5.297c-1.238,4.42-2.377,8.875-3.364,13.358    c-1.251,5.685-1.546,11.457-1.111,17.27c0.22,2.937-0.494,3.658-3.413,3.894c-4.429,0.357-8.854,0.756-13.281,1.14    c-3.099,0.269-4.393-0.709-4.592-3.786c-0.609-9.4-0.994-18.828,0.621-28.154c2.219-12.816,8.669-22.834,20.566-28.695    c7.461-3.676,15.191-4.069,22.899-0.46c5.363,2.511,8.907,6.832,11.498,11.954c3.581,7.078,6.099,14.565,7.999,22.261    c0.899,3.64,1.816,7.276,2.98,10.917c0.865-4.522,1.804-9.031,2.582-13.568c1.725-10.07,5.088-19.469,11.119-27.806    c2.933-4.054,6.365-7.612,10.547-10.399c3.412-2.274,7.159-3.753,11.235-4.142c7.235-0.69,12.907,2.134,17.022,8.073    c4.064,5.865,6.29,12.509,7.124,19.477c1.307,10.921,2.206,21.894,3.117,32.858c0.8,9.628,1.086,19.307,3.148,28.795    c0.721,3.318,1.921,6.429,4.051,9.126c2.989,3.784,6.629,4.115,10.084,0.813c3.403-3.252,5.113-7.466,6.351-11.881    c0.18-0.642-0.211-1.492-0.466-2.2c-7.176-19.904-7.552-39.862-0.136-59.754c3.706-9.941,9.55-18.442,18.619-24.342    c6.017-3.914,12.574-6.259,19.853-6.067c9.22,0.242,17.036,3.995,23.758,10.053c9.389,8.462,15.255,19.15,19.017,31.09    C234.39,194.777,234.642,195.663,234.949,196.689z M64.745,283.493c-0.432-2.978-0.919-5.715-1.213-8.473    c-1.57-14.739-3.152-29.476-4.61-44.226c-1.29-13.049-3.658-25.872-7.601-38.386c-1.246-3.955-2.716-7.829-5.297-11.142    c-4.765-6.115-13.183-9.433-21.69-3.679c-6.812,4.608-10.37,11.287-12.626,18.752c-2.309,7.637-1.899,15.52-0.954,23.357    c0.051,0.421,0.124,1.136,0.565,1.212c0.365,0.063,0.665-1.121,0.646-1.636c-0.06-1.546-0.228-3.088-0.267-4.634    c-0.242-9.575,1.336-18.689,6.417-27.043c2.223-3.655,5.067-6.49,8.797-8.492c3.742-2.009,7.504-2.302,11.419-0.367    c3.682,1.821,6.165,4.751,7.662,8.409c1.6,3.908,2.937,7.94,4.124,11.996c4.652,15.892,6.511,32.253,8.063,48.67    c1.045,11.049,2.25,22.083,3.507,33.11c0.391,3.429,1.135,6.822,1.844,10.206c0.108,0.513,0.752,1.427,1.39,1.315    c0.549-0.097,0.704-0.968,0.754-1.481c0.376-3.833,0.509-7.696,1.035-11.506c0.881-6.383,2.015-12.732,3.012-19.1    c2.283-14.595,4.49-29.202,6.844-43.785c1.136-7.037,2.509-14.026,5.225-20.69c2.689-6.6,5.678-13.023,10.842-18.079    c1.884-1.845,4.172-3.345,6.461-4.688c2.143-1.257,4.485-0.943,6.684,0.204c3.094,1.614,4.811,4.296,5.785,7.529    c1.605,5.329,2.273,10.806,2.44,16.35c0.427,14.204,0.673,28.416,1.3,42.611c0.401,9.065,2.292,17.916,5.263,26.513    c1.099,3.181,2.823,5.959,5.229,8.323c4.478,4.401,10.24,5.541,15.996,3.037c7.188-3.128,12.241-8.642,15.891-15.323    c3.228-5.909,5.822-12.164,8.623-18.112c-0.242-0.264-0.148-0.2-0.109-0.112c0.316,0.707,0.608,1.425,0.932,2.128    c3.808,8.253,8.819,15.564,16.527,20.681c9.062,6.016,19.505,5.791,27.491-0.872c2.779-2.319,5.389-5.075,7.35-8.101    c7.819-12.067,10.424-25.571,10.197-39.755c-0.021-1.324-0.003-2.649-0.003-4.014c0.439-0.092,0.786-0.17,1.134-0.238    c5.369-1.051,10.508-2.682,15.023-5.907c9.495-6.781,16.877-15.458,22.796-25.441c1.097-1.851,2.123-3.744,3.182-5.617    c0.15,0.016,0.3,0.032,0.45,0.048c0,1.415,0.023,2.831-0.003,4.246c-0.294,15.982,0.262,31.942,1.315,47.885    c0.97,14.69,1.909,29.385,3.156,44.052c0.532,6.259,1.654,12.483,2.805,18.668c0.761,4.089,2.052,8.08,3.126,12.194    c-0.475,0.232-0.979,0.48-1.484,0.726c-6.087,2.954-12.23,5.8-18.251,8.883c-12.367,6.332-24.59,12.949-37.016,19.159    c-16.678,8.336-33.491,16.407-50.936,23.057c-12.894,4.916-26.093,8.638-39.956,9.382c-10.221,0.548-20.334-0.251-30.244-3.038    c-6.511-1.831-12.467-4.928-18.506-7.853c-0.622-0.301-2.041-0.96-2.414-0.264c-0.429,0.799,1.189,1.766,1.959,2.137    c5.528,2.66,10.967,5.593,16.702,7.711c7.11,2.625,14.662,3.353,22.234,3.652c7.302,0.289,14.567,0.06,21.774-1.211    c11.336-2,22.257-5.408,32.95-9.635c20.058-7.929,39.403-17.375,58.568-27.223c13.78-7.081,27.604-14.079,41.418-21.095    c1.359-0.69,2.785-1.25,4.253-1.902c0.301,0.702,0.534,1.213,0.743,1.734c2.759,6.903,7.168,12.573,13.156,16.912    c10.999,7.972,23.36,12.222,36.925,12.862c11.448,0.541,21.926-2.106,30.9-9.623c4.183-3.503,8.231-7.112,10.811-12.024    c6.792-12.932-1.739-30.489-16.442-33.916c-6.508-1.517-13.057-1.269-19.561-0.188c-8.589,1.428-16.931,3.923-24.96,7.226    c-9.355,3.85-18.512,8.183-27.753,12.308c-0.631,0.282-1.254,0.582-1.926,0.895c-0.192-0.523-0.308-0.807-0.401-1.1    c-4.118-12.949-5.734-26.319-6.6-39.801c-0.418-6.497-0.541-13.013-0.89-19.515c-0.374-6.966-1.013-13.922-1.259-20.891    c-0.413-11.724-0.616-23.456-0.891-35.185c-0.174-7.388-0.402-14.777-0.448-22.166c-0.033-5.267,0.219-10.535,0.283-15.804    c0.01-0.846-0.324-2.557-0.894-2.552c-0.508,0.005-0.578,0.958-0.615,1.45c-0.569,7.464-1.096,14.931-1.669,22.395    c-0.066,0.856-0.169,1.793-0.563,2.528c-4.599,8.577-9.6,16.864-16.284,24.062c-6.625,7.134-14.003,12.858-23.918,14.471    c-0.694,0.113-1.402,0.138-2.161,0.209c-0.115-0.645-0.232-1.143-0.289-1.648c-0.988-8.799-3.405-17.197-7.071-25.245    c-3.737-8.204-8.81-15.321-16.649-20.112c-9.317-5.694-19.106-4.898-27.402,2.17c-4.448,3.789-7.666,8.506-10.125,13.755    c-3.978,8.492-5.786,17.476-6.3,26.816c-0.61,11.066,0.641,21.856,3.888,32.44c0.236,0.771,0.237,1.728,0.018,2.506    c-1.897,6.748-5.002,12.969-8.401,19.065c-2.482,4.453-5.798,8.225-9.745,11.336c-2.097,1.652-4.669,2.875-7.214,3.742    c-3.683,1.254-7.144,0.3-10.094-2.279c-2.579-2.255-4.499-4.951-5.589-8.236c-2.517-7.588-4.254-15.372-4.813-23.32    c-0.703-9.994-0.884-20.023-1.335-30.035c-0.376-8.36-0.697-16.725-1.283-25.071c-0.256-3.656-1.301-7.205-3.042-10.505    c-2.599-4.926-9.6-9.433-16.763-4.916c-2.495,1.574-4.83,3.566-6.818,5.749c-5.864,6.438-9.222,14.321-11.819,22.468    c-3.101,9.727-4.2,19.887-5.619,29.956c-1.065,7.564-1.886,15.162-2.882,22.736C67.601,262.556,66.18,272.87,64.745,283.493z     M286.483,188.68c0.328,12.017,2.656,23.624,8.313,34.416c3.205,6.115,7.319,11.51,12.966,15.601    c9.277,6.722,20.514,6.086,29.001-1.614c4.647-4.216,7.855-9.411,10.261-15.145c5.085-12.117,5.936-24.775,4.655-37.665    c-0.639-6.428-2.032-12.711-4.373-18.762c-3.123-8.072-7.446-15.313-14.19-20.933c-9.623-8.019-21.88-7.769-31.14,0.677    c-3.636,3.316-6.434,7.252-8.611,11.652C288.419,166.901,286.922,177.636,286.483,188.68z"/>
		<path d="M395.741,182.962c0.063,0.917,0.03,1.742,0.188,2.528c0.958,4.752,1.424,9.691,3.067,14.199    c2.881,7.906,8.158,13.73,17.082,14.791c5.635,0.67,11.129-0.341,16.333-2.69c6.475-2.923,12.115-6.898,16.163-12.873    c0.318-0.469,0.685-0.91,1.065-1.331c1.056-1.168,2.233-1.294,3.153-0.066c3.558,4.751,7.019,9.575,10.511,14.375    c0.729,1.002,0.604,2.002,0.025,3.043c-5.901,10.61-14.031,18.64-25.963,22.126c-7.21,2.107-14.545,3.809-22.116,3.4    c-3.575-0.193-7.186-0.83-10.646-1.763c-5.63-1.519-10.713-4.339-15.526-7.608c-5.731-3.893-10.034-9.057-13.169-15.189    c-3.844-7.518-6.474-15.419-7.288-23.878c-0.967-10.044-1.803-20.109-0.795-30.179c1.115-11.145,2.919-22.206,8.434-32.179    c4.731-8.555,10.437-16.385,18.529-22.192c16.746-12.018,36.681-3.913,45.076,7.704c14.899,20.617,6.74,49.689-13.643,61.494    c-8.124,4.705-16.784,7.153-26.194,6.75C398.652,183.367,397.284,183.134,395.741,182.962z M382.863,170.964    c0.368,0.191,0.546,0.28,0.72,0.376c7.392,4.078,15.155,5.954,23.545,3.85c8.812-2.21,15.915-7.192,21.998-13.77    c10.838-11.721,10.964-28.043,4.85-39.016c-5.077-9.112-14.464-10.963-22.458-7.489c-5.615,2.44-9.89,6.583-13.43,11.42    c-6.271,8.568-10.736,18.087-14.166,28.113c-2.68,7.833-4.207,15.831-4.098,24.154c0.105,8.04,1.045,15.974,2.647,23.827    c1.512,7.411,4.518,14.17,9.655,19.827c8.571,9.437,19.49,11.118,31.375,9.192c6.743-1.093,12.324-4.621,17.299-9.117    c2.562-2.315,4.96-4.821,7.321-7.344c0.681-0.728,2.13-1.96,1.447-2.74c-0.185-0.212-1.302,0.248-1.637,0.589    c-2.423,2.464-4.77,5.008-7.262,7.4c-8.062,7.738-17.627,10.925-28.773,9.584c-10.847-1.304-18.119-7.354-22.974-16.77    c-2.637-5.115-3.924-10.639-4.774-16.282C382.871,188.277,381.919,179.769,382.863,170.964z"/>
		<path d="M226.298,214.553c0,2.91,0.097,5.749-0.018,8.579c-0.325,7.981-1.482,15.831-4.283,23.354    c-2.487,6.681-6.053,12.695-11.707,17.21c-7.499,5.99-16.244,6.39-24.333,1.213c-6.476-4.145-10.78-10.163-14.242-16.85    c-5.131-9.91-7.837-20.497-8.674-31.601c-0.879-11.67,0.584-22.996,4.99-33.866c2.375-5.86,5.633-11.182,10.678-15.166    c5.779-4.564,12.222-6.029,19.36-3.779c0.241,0.076,0.47,0.191,0.666,0.271c-0.79,3.025-1.702,5.968-2.315,8.973    c-1.402,6.875-2.143,13.787-0.166,20.7c1.22,4.267,3.084,8.195,5.953,11.636c4.892,5.866,11.422,8.275,18.752,9.025    C222.595,214.421,224.245,214.442,226.298,214.553z M188.603,177.731c-2.695,0.622-4.6,2.379-6.228,4.49    c-3.128,4.055-4.828,8.76-5.943,13.679c-2.047,9.028-1.575,18.089,0.133,27.089c1.552,8.179,4.153,15.993,9.119,22.834    c1.778,2.449,3.841,4.606,6.494,6.122c3.868,2.211,7.961,2.039,11.194-0.985c1.957-1.831,3.677-4.088,4.943-6.453    c3.226-6.031,4.213-12.681,4.674-19.428c0.079-1.147-0.356-1.579-1.409-1.931c-10.154-3.391-17.587-10.002-21.931-19.712    C185.945,195.162,185.254,186.55,188.603,177.731z"/>
		<path d="M225.961,211.091c-4.499,0.126-8.51-0.656-12.442-1.99c-5.97-2.024-9.771-6.342-12.522-11.781    c-3.633-7.183-4.246-14.697-2.442-22.47c0.766-3.301,1.545-6.6,2.346-10.018c4.28,2.147,7.53,5.131,10.393,8.574    c7.003,8.422,11.054,18.204,13.183,28.849C225.048,205.119,225.449,208.017,225.961,211.091z"/>
		<path d="M350.458,193.268c-0.348,9.998-1.829,19.678-5.928,28.839c-1.804,4.032-4.111,7.759-7.158,10.982    c-9.116,9.642-20.939,10.145-30.842,1.279c-6.046-5.414-9.83-12.289-12.538-19.826c-3.851-10.718-5.047-21.793-4.284-33.099    c0.705-10.444,3.532-20.243,9.633-28.867c1.679-2.374,3.74-4.584,5.987-6.432c6.732-5.537,14.617-6.075,22.251-1.846    c5.06,2.803,8.837,6.91,11.948,11.697c5.242,8.066,8.172,16.984,9.606,26.427C349.679,186.022,350.022,189.652,350.458,193.268z     M300.014,185.39c0.481,4.257,0.755,8.55,1.486,12.764c1.441,8.31,3.936,16.273,8.85,23.286c1.798,2.565,3.9,4.827,6.648,6.403    c3.887,2.229,7.846,1.991,11.226-0.938c1.5-1.299,2.823-2.892,3.911-4.558c2.403-3.679,3.713-7.83,4.609-12.106    c1.926-9.191,1.664-18.388-0.11-27.559c-1.506-7.785-4.086-15.161-8.692-21.719c-1.806-2.572-3.929-4.802-6.721-6.309    c-4.369-2.357-8.856-1.821-12.106,1.911c-1.937,2.225-3.584,4.821-4.841,7.495C301.116,170.777,300.208,177.997,300.014,185.39z"/>
		<path d="M400.785,173.887c-5.64-0.228-10.78-2.017-15.813-4.263c-1.436-0.641-1.876-1.493-1.562-3.132    c2.043-10.652,5.863-20.635,11.147-30.068c1.714-3.06,3.596-6.032,5.517-8.969c2.88-4.403,6.682-7.892,11.282-10.409    c7.197-3.937,16.052-2.969,20.935,5.93c6.233,11.358,5.465,26.484-4.486,37.262c-5.454,5.907-11.76,10.552-19.702,12.519    C405.717,173.348,403.227,173.522,400.785,173.887z M399.855,158.374c0.386,0,0.593,0.026,0.792-0.004    c1.276-0.193,2.567-0.324,3.821-0.611c9.431-2.156,16.171-7.53,19.64-16.683c1.179-3.112,0.845-6.214-0.733-9.137    c-1.84-3.409-5.19-4.564-8.684-2.963c-1.066,0.489-2.082,1.16-2.992,1.905c-4.204,3.441-7.176,7.849-9.407,12.725    C400.181,148.225,399.268,153.114,399.855,158.374z"/>
	</g>
</g>















</svg>
