<?xml version="1.0" encoding="UTF-8"?>
<!-- Generator: Adobe Illustrator 25.2.0, SVG Export Plug-In . SVG Version: 6.00 Build 0)  -->
<svg xmlns="http://www.w3.org/2000/svg" xmlns:xlink="http://www.w3.org/1999/xlink" version="1.1" id="Capa_1" x="0px" y="0px" viewBox="0 0 500 500" style="enable-background:new 0 0 500 500;" xml:space="preserve" width="512" height="512">
<g>
	<g>
		<path d="M305.915,411.112c-0.428-0.839-0.473-1.826-0.123-2.7c0.339-0.848,0.657-1.632,1.162-2.269    c6.396-8.057,11.07-17.138,15.785-26.201c0.683-1.314,1.609-2.335,3.262-2.157c1.56,0.168,2.288,1.28,2.723,2.629    c0.296,0.919,0.6,1.849,0.759,2.797c1.224,7.289,4.34,13.804,8.125,20.051c0.808,1.333,1.546,2.713,2.414,4.005    c1.533,2.281,1.191,4.525-0.484,6.377c-6.268,6.932-10.736,14.871-13.764,23.67c-0.428,1.244-1.184,2.194-2.638,2.244    c-1.595,0.055-2.421-0.956-3-2.264c-1.847-4.171-3.437-8.481-5.606-12.478c-2.17-3.997-4.938-7.668-7.397-11.511    C306.685,412.61,306.302,411.872,305.915,411.112z"/>
		<path d="M487.173,234.56c1.735,0.133,2.36,1.004,2.613,2.205c0.587,2.784,1.128,5.578,1.711,8.363    c1.262,6.029,3.93,11.452,7.191,16.617c0.967,1.532,1.733,3.111,1.05,4.986c-0.143,0.394-0.27,0.84-0.542,1.135    c-5.878,6.374-8.951,14.204-11.581,22.262c-0.471,1.443-0.745,3.134-2.726,3.049c-1.915-0.082-2.183-1.758-2.628-3.209    c-2.5-8.145-5.471-16.062-10.819-22.872c-1.594-2.03-1.688-3.61-0.127-5.417c6.002-6.945,9.771-15.116,13.199-23.493    c0.325-0.794,0.627-1.63,1.128-2.308C486.086,235.281,486.791,234.877,487.173,234.56z"/>
		<path d="M46.872,198.624c-0.691-1.3-0.818-2.877-0.166-4.198c0.003-0.007,0.007-0.014,0.011-0.021    c4.486-8.934,7.574-18.339,9.545-28.125c0.053-0.263,0.125-0.521,0.189-0.782c0.32-1.314,1.007-2.33,2.47-2.351    c1.447-0.02,2.212,0.952,2.588,2.245c0.825,2.835,1.621,5.678,2.439,8.515c1.823,6.324,4.69,12.111,8.864,17.228    c0.405,0.496,0.786,1.019,1.106,1.573c1.175,2.034,1.077,2.641-0.529,4.363c-2.976,3.192-4.638,7.107-5.771,11.213    c-1.04,3.77-1.75,7.632-2.547,11.466c-0.27,1.298-0.659,2.459-2.145,2.651c-1.573,0.204-2.307-0.869-2.822-2.145    c-0.622-1.543-1.277-3.075-1.849-4.636c-2.118-5.783-5.93-10.406-10.007-14.876C47.8,200.254,47.291,199.413,46.872,198.624z"/>
		<path d="M35.228,431.459c-0.566,1.24-0.874,2.499-1.606,3.421c-4.216,5.315-7.074,11.256-8.645,17.844    c-0.399,1.674-1.308,2.983-3.203,3.166c-1.934,0.187-3.102-0.939-3.968-2.491c-0.235-0.422-0.459-0.856-0.627-1.308    c-2.106-5.654-5.295-10.671-9.006-15.386c-0.764-0.971-1.517-1.956-2.21-2.979c-1.725-2.549-1.638-4.91,0.621-6.958    c3.831-3.474,6.074-7.88,7.919-12.566c0.748-1.9,1.434-3.824,2.161-5.732c0.645-1.693,1.759-2.84,3.671-2.905    c1.671-0.056,3.137,1,3.746,3.013c2.081,6.872,5.691,12.967,9.397,19.03C34.19,428.773,34.623,430.107,35.228,431.459z"/>
		<path d="M360.439,102.363c0.314,0.537,0.351,1.198,0.083,1.759c-0.145,0.304-0.291,0.566-0.505,0.75    c-3.045,2.629-5.078,6.012-6.695,9.57c-0.877,1.93-1.594,3.928-2.276,5.933c-0.337,0.991-0.666,1.986-1.003,2.977    c-0.153,0.452-0.311,0.902-0.47,1.351c-0.393,1.107-0.843,2.969-2.287,3.158c-0.537,0.07-1.47-0.789-1.776-1.445    c-0.926-1.991-1.599-4.097-2.432-6.134c-2.005-4.901-5.067-9.079-8.838-12.76c-2.372-2.315-2.548-3.451-0.617-6.128    c5.064-7.022,8.524-14.761,10.579-23.153c0.204-0.832,0.357-1.739,0.813-2.426c0.395-0.595,1.223-1.323,1.795-1.273    c0.674,0.06,1.582,0.771,1.849,1.421c0.545,1.323,0.737,2.793,1.059,4.205c1.726,7.583,4.473,14.681,9.675,20.641    C359.797,101.273,360.116,101.811,360.439,102.363z"/>
		<path d="M25.011,218.921c0.287,0.172,0.544,0.346,0.772,0.552c0.348,0.314,0.683,0.98,0.789,1.436    c1.52,6.523,5.38,11.851,8.837,17.385c0.171,0.274,0.348,0.543,0.516,0.818c1.771,2.916,1.731,4.158-0.667,6.55    c-4.488,4.475-6.972,9.981-8.557,15.988c-0.178,0.674-0.133,1.484-0.503,2.011c-0.507,0.723-1.268,1.643-2.004,1.726    c-0.747,0.084-1.723-0.615-2.36-1.223c-0.5-0.477-0.659-1.327-0.926-2.028c-2.361-6.192-4.854-12.284-9.733-17.069    c-1.64-1.608-1.578-3.315-0.355-5.293c0.141-0.228,0.281-0.463,0.456-0.664c4.491-5.163,7.223-11.264,9.439-17.645    c0.21-0.604,0.417-1.284,0.84-1.72c0.282-0.289,0.609-0.534,0.958-0.77C23.26,218.473,24.238,218.457,25.011,218.921z"/>
		<path d="M442.775,397.97c-0.757,0.577-1.828,0.489-2.491-0.194c-0.391-0.402-0.716-0.779-0.912-1.214    c-0.923-2.053-1.487-4.272-2.457-6.299c-1.553-3.244-3.282-6.407-5.009-9.564c-0.759-1.387-0.849-2.675,0.193-3.884    c3.516-4.079,5.873-8.854,8.264-13.612c0.249-0.496,0.476-1.009,0.797-1.459c1.368-1.922,3.353-1.668,4.375,0.459    c0.818,1.704,1.405,3.521,2.203,5.236c1.426,3.063,2.872,6.12,4.439,9.111c0.754,1.438,0.77,2.568-0.077,4.033    c-1.661,2.87-3.049,5.899-4.528,8.873c-1.219,2.451-2.324,4.963-3.653,7.352C443.675,397.247,443.267,397.595,442.775,397.97z"/>
		<path d="M438.058,196.625c-0.096-0.326-0.075-0.674,0.053-0.989c0.255-0.631,0.493-1.258,0.816-1.838    c2.423-4.362,4.832-8.734,7.368-13.031c0.416-0.706,1.391-1.382,2.189-1.494c1.187-0.166,1.698,0.912,1.956,1.967    c0.407,1.669,0.775,3.347,1.2,5.012c0.713,2.793,1.953,5.312,3.745,7.599c1.943,2.48,1.787,2.643-0.026,5.203    c-2.556,3.608-4.682,7.461-5.893,11.757c-0.158,0.559-0.264,1.144-0.52,1.66c-0.746,1.502-2.188,1.601-3.128,0.211    c-0.62-0.917-1.06-1.978-1.458-3.021c-1.553-4.067-3.026-8.163-5.747-11.66C438.329,197.638,438.212,197.146,438.058,196.625z"/>
		<path d="M276.743,421.985c-0.033,5.329-4.589,10.088-9.592,10.021c-5.074-0.068-9.325-4.468-9.319-9.646    c0.006-5.37,4.657-9.89,10.108-9.825C272.869,412.595,276.775,416.788,276.743,421.985z"/>
		<path d="M98.493,153.661c-5.227-0.003-9.364-4.116-9.344-9.292c0.02-5.263,4.213-9.494,9.392-9.478    c5.103,0.015,9.54,4.409,9.531,9.437C108.063,149.433,103.72,153.664,98.493,153.661z"/>
		<path d="M16.559,378.437c-0.001,4.512-4.063,8.904-8.27,8.941c-4.535,0.04-8.308-3.645-8.289-8.098    c0.02-4.675,4.125-8.814,8.726-8.799C13.042,370.495,16.56,374.068,16.559,378.437z"/>
		<path d="M301.086,108.448c0.03,4.53-3.49,8.09-8.046,8.14c-4.665,0.051-8.569-3.579-8.631-8.025    c-0.064-4.559,3.781-8.429,8.4-8.455C297.375,100.082,301.056,103.791,301.086,108.448z"/>
		<path d="M490.058,197.491c-4.291-0.016-7.761-3.322-7.772-7.405c-0.011-3.955,3.307-7.235,7.327-7.245    c4.37-0.011,8.612,3.626,8.566,7.343C498.129,194.16,494.409,197.507,490.058,197.491z"/>
		<path d="M53.726,446.155c4.151,0.102,7.371,3.668,7.289,8.072c-0.077,4.168-3.171,7.448-6.968,7.387    c-4.211-0.068-7.927-3.969-7.862-8.255C46.246,449.29,49.634,446.054,53.726,446.155z"/>
		<path d="M391.378,393.063c-3.984-0.031-7.111-3.223-7.081-7.23c0.029-3.907,3.325-7.048,7.33-6.986    c3.916,0.061,7.034,3.24,7.001,7.139C398.595,389.937,395.362,393.093,391.378,393.063z"/>
		<path d="M415.723,410.317c3.509-0.025,6.596,2.904,6.655,6.315c0.06,3.437-2.723,6.193-6.245,6.186    c-3.519-0.007-6.376-2.8-6.431-6.288C409.648,413.088,412.308,410.342,415.723,410.317z"/>
		<path d="M231.78,436.217c-0.022,3.483-3.011,6.4-6.564,6.406c-3.424,0.006-6.298-2.748-6.2-6.095    c0.119-4.058,3.066-6.01,7.211-6.263C229.166,430.085,231.8,433.051,231.78,436.217z"/>
		<path d="M152.92,125.917c0.003,3.296-2.651,5.919-5.956,5.887c-3.239-0.032-5.814-2.63-5.81-5.863    c0.004-3.297,2.66-5.924,5.958-5.893C150.345,120.079,152.917,122.677,152.92,125.917z"/>
		<path d="M377.295,114.427c3.177,0.048,5.709,2.647,5.68,5.83c-0.029,3.187-2.639,5.741-5.809,5.684    c-3.141-0.056-5.709-2.696-5.691-5.85C371.494,116.915,374.1,114.379,377.295,114.427z"/>
		<path d="M493.121,134.692c-0.021,3.233-2.716,6.174-5.631,6.144c-2.765-0.028-4.936-2.314-4.878-5.135    c0.062-3.022,2.874-5.702,5.917-5.641C491.118,130.113,493.138,132.151,493.121,134.692z"/>
		<path d="M468.608,154.153c2.559,0.03,4.596,2.127,4.538,4.669c-0.057,2.477-2.105,4.424-4.626,4.399    c-2.504-0.025-4.537-2.034-4.548-4.493C463.961,156.196,466.061,154.124,468.608,154.153z"/>
	</g>
	<g>
		<path d="M381.307,171.157c-1.953-0.001-3.45-0.057-4.943,0.007c-18.966,0.811-37.846-0.611-56.738-2.021    c-14.804-1.105-29.622-2.373-44.452-2.692c-24.965-0.538-49.817,1.227-74.19,7.032c-3.773,0.899-7.516,1.93-11.216,3.091    c-3.693,1.159-7.345,2.449-10.947,3.865c-3.593,1.413-7.135,2.951-10.621,4.61c-3.492,1.662-6.926,3.444-10.297,5.339    c-3.39,1.906-6.716,3.927-9.973,6.053c-1.703,1.112-3.417,2.192-5.01,3.46c-1.587,1.264-3.135,2.579-4.638,3.942    c-2.335,2.117-4.549,4.357-6.683,6.675c-0.253,0.275-0.507,0.552-0.723,0.858c-0.213,0.301-0.323,0.66-0.543,0.95    c-0.738,0.971-1.997,0.872-3.062,0.625c-4.603-1.069-9.205-2.148-13.786-3.305c-1.66-0.419-3.324-0.935-4.872-1.653    c-1.862-0.863-1.858-1.409-0.867-3.165c3.54-6.274,7.959-11.871,12.968-17.018c8.223-8.45,17.294-15.817,27.637-21.546    c25.509-14.13,53.056-21.265,81.936-23.719c16.998-1.444,34.023-2.586,51.095-1.903c12.846,0.513,25.676,1.395,38.52,1.941    c14.671,0.624,29.348,1.129,44.027,1.544c7.255,0.205,14.52,0.05,21.779,0.154c1.573,0.023,2.085-0.605,2.4-2.042    c3.705-16.934,8.319-33.604,14.547-49.806c6.576-17.107,15.767-32.469,29.555-44.822c4.471-4.006,9.301-7.528,15.256-8.652    c10.718-2.022,19.634,1.311,26.331,10.064c5.293,6.918,7.645,14.96,7.893,23.481c0.486,16.732-2.26,33.062-9.555,48.133    c-9.807,20.261-25.577,34.456-46.882,42.147c-5.897,2.129-11.967,3.775-17.925,5.743c-0.584,0.193-1.186,1.028-1.355,1.676    c-2.772,10.658-5.534,21.32-8.177,32.012c-1.985,8.03-4.039,16.055-5.601,24.172c-1.043,5.415-1.469,10.973-1.812,16.49    c-0.289,4.632,0.282,9.293,1.883,13.664c1.038,2.835,2.425,5.66,4.208,8.082c4.624,6.28,11.293,7.99,18.617,5.243    c6.174-2.315,10.854-6.471,14.566-11.788c1.753-2.511,3.312-5.156,4.974-7.73c0.407-0.63,0.851-1.241,1.321-1.825    c0.842-1.045,1.63-1.129,2.643-0.063c2.297,2.416,4.694,4.736,7.063,7.082c4.141,4.099,4.814,8.639,1.854,13.714    c-2.165,3.714-3.978,7.664-6.426,11.176c-6.686,9.589-15.837,15.744-27.174,18.678c-7.4,1.916-14.798,2.831-22.256,0.411    c-13.087-4.246-20.804-13.319-23.926-26.577c-1.834-7.787-1.502-15.61-0.522-23.43c1.002-8.004,2.221-15.981,3.34-23.97    c0.078-0.558,0.122-1.12,0.191-1.774c-2.681,2.545-5.053,5.222-7.857,7.32c-2.129,1.592-2.649,3.264-2.621,5.783    c0.233,20.905-5.087,40.209-17.148,57.445c-5.114,7.308-11.409,13.44-19.125,18.016c-18.076,10.719-38.264,7.067-51.409-9.346    c-7.286-9.097-11.095-19.682-12.997-31.05c-0.202-1.209-0.378-2.422-0.593-3.804c-1.943,1.638-3.657,3.261-5.55,4.638    c-2.603,1.894-5.285,3.696-8.048,5.345c-1.149,0.685-1.615,1.325-1.672,2.702c-0.763,18.619-5.805,35.907-16.364,51.404    c-5.304,7.785-11.83,14.35-19.989,19.173c-18.022,10.656-38.155,7.003-51.288-9.334c-7.16-8.907-11.194-19.237-12.888-30.404    c-4.112-27.102,1.572-51.963,17.849-74.178c4.922-6.718,11.097-12.133,18.463-16.106c17.892-9.649,37.536-5.553,50.112,10.43    c4.51,5.731,7.62,12.195,9.981,19.052c0.191,0.555,0.378,1.111,0.633,1.863c0.644-0.221,1.235-0.4,1.807-0.626    c5.516-2.176,9.894-5.949,14.233-9.862c2.712-2.445,4.198-5.204,5.038-8.794c3.605-15.397,10.295-29.296,21.332-40.819    c6.95-7.256,15.16-12.597,25.155-14.578c14.735-2.919,26.887,1.907,36.798,12.887c3.485,3.861,6.148,8.278,8.347,12.981    c0.269,0.574,0.558,1.138,0.935,1.905c0.675-0.629,1.257-1.156,1.821-1.7c6.834-6.59,12.931-13.815,18.502-21.493    c1.548-2.133,3.26-4.157,4.68-6.369C379.859,174.719,380.47,172.948,381.307,171.157z M346.076,222.794    c-0.261-1.011-0.443-1.675-0.603-2.344c-1.548-6.475-3.928-12.615-7.469-18.269c-2.213-3.534-4.872-6.702-8.194-9.259    c-8.827-6.795-20.006-6.777-29.505,0.063c-5.832,4.2-10.157,9.709-13.624,15.936c-5.021,9.019-8.114,18.706-10.016,28.815    c-0.169,0.898-0.475,1.975-1.101,2.553c-13.048,12.022-28.012,20.955-44.509,27.383c-0.51,0.199-1.062,0.292-1.682,0.458    c-0.042-0.56-0.065-0.879-0.09-1.198c-0.759-9.633-2.272-19.032-7.4-27.526c-2.186-3.62-4.418-7.14-7.693-9.859    c-7.426-6.166-15.624-7.396-24.343-3.225c-2.917,1.395-5.652,3.362-8.114,5.482c-7.754,6.68-12.8,15.296-16.708,24.606    c-4.678,11.146-7.252,22.802-8.166,34.852c-0.729,9.613-0.36,19.137,2,28.516c1.969,7.824,5.078,15.092,10.914,20.897    c4.643,4.618,10.196,7.12,16.835,6.769c5.273-0.278,9.878-2.401,14.095-5.448c6.211-4.488,11.009-10.269,14.859-16.813    c9.448-16.059,13.622-33.553,13.721-52.082c0.009-1.637,0.534-2.247,2.009-2.825c15.89-6.224,30.675-14.307,43.223-26.084    c0.326-0.306,0.694-0.565,1.153-0.936c0,0.656,0.044,1.09-0.007,1.513c-1.078,8.928-0.855,17.829,0.714,26.675    c1.673,9.436,4.794,18.305,10.845,25.91c9.856,12.389,24.07,14.077,36.516,4.32c6.34-4.971,11.048-11.311,14.555-18.489    c8.814-18.039,11.345-37.057,8.415-56.85c-0.159-1.074,0.121-1.423,1.037-1.903c3.752-1.966,7.584-3.84,11.105-6.172    c7.93-5.25,14.88-11.65,21.275-18.7c2.601-2.868,5.692-5.292,8.56-7.919c-0.438,0.325-0.596,0.996-0.783,1.658    c-5.467,19.265-10.275,38.647-11.005,58.806c-0.244,6.736-0.397,13.46,1.176,20.061c3.319,13.927,17.976,22.648,31.299,18.545    c9.555-2.942,17.572-8.108,22.519-17.129c2.087-3.807,3.896-7.769,5.734-11.706c0.224-0.479,0.342-1.661-0.261-1.871    c-0.536-0.187-0.981,0.69-1.233,1.162c-1.568,2.937-3.04,5.925-4.594,8.869c-4.273,8.093-10.701,13.687-19.268,16.983    c-10.13,3.896-20.473,1.134-27.177-7.401c-3.568-4.542-4.707-9.848-5.002-15.391c-0.722-13.56,0.641-26.976,3.384-40.235    c4.511-21.807,10.897-43.141,16.521-64.668c0.464-1.776,1.273-2.56,3.019-2.52c0.215,0.005,0.43-0.018,0.644-0.04    c9.142-0.942,18.025-2.911,26.467-6.645c16.311-7.214,27.131-19.944,34.366-35.682c5.72-12.441,8.096-25.798,7.325-39.594    c-0.373-6.68-2.219-12.741-6.758-17.885c-5.843-6.621-14.843-8.287-22.336-3.858c-3.708,2.192-6.837,5.052-9.091,8.763    c-5.091,8.377-9.618,17.052-13.159,26.197c-3.591,9.27-7.226,18.537-10.381,27.959c-4.111,12.277-7.787,24.7-11.59,37.078    c-0.359,1.168-0.811,1.644-2.078,1.654c-3.224,0.027-6.451,0.391-9.67,0.316c-12.523-0.291-25.05-0.561-37.564-1.115    c-7.836-0.347-15.64-1.45-23.476-1.747c-14.027-0.531-28.066-0.802-42.103-1.007c-14.257-0.208-28.51,0.156-42.709,1.535    c-9.088,0.883-18.192,1.771-27.211,3.162c-13.548,2.089-26.513,6.397-39.298,11.263c-8.146,3.1-16.225,6.315-23.708,10.87    c-7.854,4.781-14.719,10.826-21.632,16.804c-1.558,1.347-4.194,4.758-3.827,5.236c0.399,0.52,1.328-0.34,1.815-0.73    c3.9-3.129,7.777-6.288,11.623-9.483c6.153-5.113,12.708-9.706,20.069-12.792c10.251-4.297,20.628-8.353,31.145-11.944    c13.678-4.67,27.827-7.379,42.259-8.468c8.684-0.655,17.364-1.509,26.061-1.796c10.101-0.334,20.221-0.038,30.33-0.206    c24.716-0.411,49.316,1.671,73.952,3.128c9.376,0.554,18.815,0.064,28.225,0.011c2.106-0.012,4.211-0.182,6.268-0.277    c-1.952,7.831-3.931,15.473-5.744,23.155c-0.997,4.226-3.072,7.745-6.099,10.788c-4.059,4.081-8.116,8.166-12.115,12.306    c-5.609,5.807-12.135,10.455-18.848,14.837C351.713,220.198,348.949,221.323,346.076,222.794z"/>
		<path d="M61.993,351.559c0.029,9.862,1.632,18.696,5.372,26.969c6.118,13.531,16.924,21.413,31.156,25.031    c9.355,2.378,18.659,1.716,28.014,0.195c19.918-3.24,38.592-10.24,56.758-18.754c19.175-8.987,38.229-18.237,57.49-27.034    c20.923-9.556,42.013-18.76,63.722-26.429c19.98-7.058,40.214-13.244,61.089-17.139c15.787-2.945,31.714-4.57,47.748-5.254    c12.59-0.537,25.172-0.487,37.73,0.642c9.778,0.88,19.355,2.706,28.614,6.114c3.141,1.156,4.162,3.092,3.009,6.037    c-2.625,6.704-5.283,13.395-7.929,20.091c-0.63,1.595-1.263,3.19-1.9,4.783c-0.379,0.949-0.933,1.445-2.097,1.215    c-7.643-1.506-15.286-3.019-22.951-4.408c-9.42-1.706-18.936-1.891-28.465-1.397c-51.298,2.658-100.164,15.446-146.979,36.143    c-23.293,10.298-46.159,21.564-69.185,32.463c-18.465,8.74-37.004,17.299-56.362,23.925c-10.697,3.662-21.523,6.768-32.873,7.743    c-19.554,1.68-37.405-2.496-52.912-15.008c-7.151-5.77-13.05-12.651-17.797-20.491c-14.305-23.627-20.541-49.13-17.604-76.721    c1.409-13.233,3.312-26.405,7.838-38.975c6.436-17.878,16.716-33.375,30.03-46.909c8.994-9.143,19.314-16.229,31.309-20.839    c6.159-2.367,12.514-3.485,19.113-3.108c9.454,0.54,17.069,4.63,22.607,12.251c5.417,7.454,8.099,15.937,8.484,25.143    c0.109,2.619-0.85,4.565-3.079,6.138c-5.228,3.688-10.33,7.556-15.445,11.401c-1.465,1.101-3.027,1.886-4.853,1.698    c-0.524-0.054-1.274-0.793-1.401-1.339c-0.571-2.456-0.945-4.958-1.408-7.44c-0.68-3.645-1.928-7.052-4.311-9.956    c-2.79-3.399-5.805-4.36-9.889-2.735c-2.113,0.84-4.12,2.105-5.941,3.486c-3.887,2.95-7.084,6.593-9.698,10.716    c-14.528,22.908-22.889,48.011-26.494,74.787C62.16,347.149,62.121,349.743,61.993,351.559z M45.891,347.855    c-0.026-16.322,1.815-30.269,5.736-43.875c5.284-18.335,14.315-34.728,26.539-49.366c3.881-4.647,8.206-8.853,13.243-12.219    c5.922-3.957,12.47-6.54,19.635-5.117c9.043,1.796,14.669,7.838,17.773,16.357c0.202,0.554,0.286,1.158,0.541,1.681    c0.14,0.287,0.534,0.638,0.793,0.624c0.253-0.015,0.643-0.435,0.687-0.721c0.12-0.781,0.222-1.606,0.097-2.376    c-1.507-9.336-12.433-18.363-22.399-18.488c-8.257-0.104-15.587,2.517-22.185,7.471c-9.12,6.847-15.909,15.775-21.819,25.272    c-13.221,21.244-19.71,44.706-21.582,69.534c-0.592,7.848-0.455,15.688,0.286,23.524c0.974,10.305,3.221,20.344,7.692,29.661    c7.399,15.42,20.204,25.108,35.749,31.136c13.185,5.112,26.962,4.846,40.725,2.484c16.319-2.8,32.077-7.523,47.527-13.48    c20.694-7.979,40.813-17.224,60.581-27.211c31.106-15.715,63.191-29.023,96.26-39.96c15.154-5.012,30.442-9.615,46.175-12.528    c12.274-2.272,24.65-3.674,37.106-4.479c11.745-0.759,23.43-0.292,35.075,1.308c5.375,0.739,10.726,1.646,16.097,2.417    c0.997,0.143,2.46,0.587,2.72-0.861c0.272-1.513-1.268-1.64-2.318-1.892c-10.537-2.527-21.214-4.091-32.049-4.446    c-11.254-0.369-22.459,0.325-33.649,1.536c-13.216,1.429-26.309,3.536-39.226,6.683c-26.498,6.455-52.064,15.771-77.161,26.245    c-18.437,7.695-36.41,16.518-54.467,25.098c-20.105,9.553-40.242,18.99-61.129,26.767c-16.498,6.143-33.327,10.909-50.902,12.396    c-14.736,1.247-28.809-1.114-41.633-9.126c-12.674-7.918-21.624-18.516-25.849-33.122C47.42,367.928,45.72,356.979,45.891,347.855    z"/>
		<path d="M217.596,236.034c-5.507,4.38-8.139,10.25-9.949,16.602c-1.08,3.791-1.192,7.639-0.425,11.494    c1.128,5.675,4.655,8.688,10.483,8.741c2.874,0.026,5.752-0.349,8.579-0.539c-0.001,2.372,0.176,4.948-0.033,7.493    c-1.015,12.31-3.811,24.19-8.955,35.461c-3.552,7.783-7.877,15.066-14.172,20.993c-4.349,4.096-9.257,7.182-15.345,7.945    c-5.954,0.746-10.882-1.433-15.038-5.509c-4.939-4.843-7.713-10.943-9.66-17.454c-3.076-10.286-3.749-20.81-2.894-31.46    c1.162-14.461,5.147-28.093,12.282-40.744c4.053-7.187,8.994-13.67,15.979-18.309c3.767-2.501,7.837-4.262,12.458-4.394    c6.686-0.191,11.523,3.167,15.527,8.109C216.834,234.959,217.193,235.488,217.596,236.034z M198.741,243.568    c-0.12-0.168-0.24-0.336-0.36-0.504c-1.663,1.108-3.628,1.944-4.925,3.383c-2.394,2.657-4.831,5.438-6.488,8.57    c-8.954,16.916-11.401,34.898-7.923,53.667c0.925,4.99,2.603,9.788,5.938,13.786c3.756,4.504,8.273,5.136,13.133,1.889    c3.199-2.137,5.541-5.071,7.53-8.303c4.222-6.861,6.748-14.379,8.402-22.208c0.639-3.026,1.047-6.102,1.56-9.151    C196.416,281.507,186.061,260.763,198.741,243.568z"/>
		<path d="M323.276,192.055c-4.285,5.211-6.518,10.828-7.353,17.035c-0.445,3.308-0.247,6.552,0.953,9.684    c2.847,7.433,8.957,10.399,17.779,9.44c3.016-0.328,5.972-1.205,9.202-1.883c0.288,2.884,0.737,5.895,0.866,8.921    c0.657,15.433-1.679,30.332-8.268,44.419c-3.122,6.675-6.976,12.856-12.556,17.803c-4.372,3.876-9.302,6.639-15.253,6.978    c-5.924,0.338-10.931-1.962-15.177-5.96c-5.641-5.311-8.977-12.01-11.25-19.288c-3.063-9.807-4.041-19.853-3.561-30.107    c0.534-11.417,2.902-22.368,7.748-32.729c3.477-7.433,8.002-14.15,14.449-19.358c5.031-4.063,10.648-6.724,17.348-6.039    C319.779,191.131,321.321,191.626,323.276,192.055z M306.816,210.906c-0.234,0.285-0.497,0.552-0.696,0.859    c-0.906,1.397-1.908,2.748-2.673,4.221c-8.819,16.983-11.337,34.923-7.857,53.688c0.925,4.989,2.604,9.786,5.939,13.782    c3.756,4.502,8.272,5.133,13.131,1.885c3.244-2.169,5.609-5.152,7.612-8.44c4.45-7.304,7.015-15.31,8.642-23.643    c0.529-2.709,0.851-5.459,1.275-8.243C314.31,245.632,301.148,229.243,306.816,210.906z"/>
		<path d="M401.642,154.043c1.202-3.703,2.397-7.371,3.584-11.041c3.553-10.992,7.025-22.012,10.686-32.968    c1.889-5.655,4.16-11.18,6.173-16.795c3.792-10.58,9.018-20.449,14.828-30.024c2.108-3.473,5.078-6.12,8.697-7.973    c5.446-2.789,12.177-1.569,16.784,2.978c4.269,4.213,6.239,9.437,6.704,15.313c1.142,14.43-1.536,28.326-7.593,41.265    c-10.519,22.473-28.376,35.505-53.158,38.7c-2.024,0.261-4.057,0.464-6.087,0.682    C402.112,154.194,401.953,154.115,401.642,154.043z M413.555,141.377c5.692-1.336,10.657-2.899,15.261-5.335    c13.861-7.333,24.049-18.084,29.849-32.777c3.145-7.967,5.392-16.109,4.361-24.82c-1.193-10.083-10.103-14.842-18.784-9.063    c-3.266,2.174-5.534,5.211-7.547,8.483c-5.215,8.475-9.001,17.567-11.878,27.079C421.181,116.963,417.407,128.938,413.555,141.377    z"/>
		<path d="M343.399,223.575c-4.863,1.801-9.577,2.758-14.548,1.745c-5.125-1.044-8.338-4.185-9.529-9.162    c-2.053-8.577,0.761-16.035,5.688-23.177C336.504,200.134,340.654,211.352,343.399,223.575z"/>
		<path d="M226.447,269.572c-3.304,0.1-6.355,0.451-9.36,0.218c-3.951-0.306-5.949-2.53-6.861-6.56    c-1.447-6.39,0.022-12.28,3.121-17.812c1.451-2.59,3.367-4.918,5.402-7.289C223.927,247.891,225.976,258.229,226.447,269.572z"/>
	</g>
</g>















</svg>
