<?xml version="1.0" encoding="UTF-8"?>
<!-- Generator: Adobe Illustrator 25.2.0, SVG Export Plug-In . SVG Version: 6.00 Build 0)  -->
<svg xmlns="http://www.w3.org/2000/svg" xmlns:xlink="http://www.w3.org/1999/xlink" version="1.1" id="Capa_1" x="0px" y="0px" viewBox="0 0 500 500" style="enable-background:new 0 0 500 500;" xml:space="preserve" width="512" height="512">
<g>
	<g>
		<path d="M279.443,393.608c0.621-0.324,1.292-0.391,1.887,0.089c0.955,0.771,1.613,1.55,2.118,2.683    c2.79,6.258,6.586,11.991,10.408,17.666c1.385,2.056,2.775,4.109,4.128,6.186c0.781,1.2,1.802,2.25,2.52,3.482    c0.3,0.515,0.271,1.381,0.074,1.982c-0.197,0.6-0.759,1.1-1.218,1.59c-3.579,3.817-6.607,8.143-8.898,12.851    c-1.144,2.351-2.104,4.789-2.88,7.285c-0.802,2.578-1.181,5.19-1.803,7.799c-0.041,0.173-0.085,0.344-0.137,0.514    c-0.345,1.139-1.063,2.257-2.183,2.659c-0.295,0.106-0.612,0.159-0.925,0.129c-0.447-0.042-0.865-0.25-1.231-0.511    c-1.895-1.35-2.014-4.047-2.681-6.101c-0.767-2.36-1.705-4.665-2.818-6.884c-2.234-4.455-5.176-8.531-8.661-12.091    c-2.807-2.868-3.353-7.305-1.079-10.611c3.798-5.522,6.471-11.708,8.651-18.021c0.548-1.587,1.067-3.183,1.57-4.785    c0.414-1.32,0.604-2.722,1.26-3.956C277.889,394.914,278.621,394.036,279.443,393.608z"/>
		<path d="M35.388,358.402c-0.89,0.539-2.042,0.326-2.82-0.364c-0.387-0.343-0.787-0.752-1.047-1.236    c-1.193-2.221-2.242-4.534-3.164-6.882c-2.064-5.261-5.391-9.698-8.887-14.04c-1.375-1.707-2.737-3.424-4.079-5.157    c-1.222-1.577-1.579-3.398-0.382-5.011c5.09-6.855,6.7-14.982,8.648-22.997c0.358-1.473,0.676-2.957,1.082-4.416    c0.367-1.321,1.132-2.596,2.571-2.51c1.09,0.065,2.475,0.652,3.131,1.481c1.877,2.371,3.549,4.923,5.121,7.514    c3.026,4.988,6.258,9.808,10.293,14.048c0.356,0.374,0.701,0.769,1.02,1.175c1.789,2.279,1.957,3.21,0.552,5.315    c-3.985,5.975-7.212,12.349-9.097,19.269c-0.962,3.533-1.173,7.282-1.574,10.95C36.604,356.917,36.237,357.888,35.388,358.402z"/>
		<path d="M318.051,65.258c-0.555-0.953-0.626-2.118-0.201-3.136c0.259-0.621,0.505-1.159,0.855-1.616    c5.612-7.322,9.235-15.637,12.275-24.253c0.468-1.329,1.3-2.659,2.933-2.673c1.107-0.009,2.082,0.662,2.613,1.634    c0.348,0.638,0.597,1.347,0.804,2.045c2.019,6.817,5.7,12.679,10.37,17.951c1.16,1.31,2.587,2.382,3.805,3.645    c0.262,0.271,0.33,0.971,0.177,1.346c-0.269,0.659-0.729,1.261-1.193,1.817c-6.332,7.579-10.212,16.325-12.335,25.902    c-0.637,2.872-1.512,4.129-3.217,4.141c-2.316,0.015-3.09-1.749-3.755-3.523c-0.65-1.734-1.183-3.512-1.823-5.25    c-2.219-6.027-5.339-11.487-9.912-16.085C318.89,66.642,318.458,65.955,318.051,65.258z"/>
		<path d="M18.475,132.079c0.136-0.358,0.273-1.179,0.706-1.792c5.295-7.488,7.797-16.113,10.186-24.79    c0.223-0.809,0.325-1.763,0.829-2.356c0.594-0.7,1.548-1.449,2.378-1.487c0.749-0.034,1.638,0.762,2.278,1.384    c0.394,0.382,0.485,1.114,0.629,1.709c1.809,7.483,4.514,14.574,8.935,20.951c0.757,1.092,1.319,2.354,1.775,3.61    c0.552,1.518,0.274,2.879-0.893,4.186c-0.953,1.067-1.564,2.447-2.281,3.715c-1.624,2.873-3.035,5.869-4.164,8.971    c-0.575,1.582-1.071,3.19-1.497,4.818c-0.427,1.629-0.689,4.853-2.95,5.103c-0.752,0.083-1.881-0.515-2.347-1.17    c-0.831-1.167-1.399-2.563-1.88-3.931c-1.92-5.461-4.931-10.176-9.209-14.1C19.695,135.732,18.437,134.454,18.475,132.079z"/>
		<path d="M221.486,84.273c0.176,0.36,0.172,0.782-0.005,1.141c-0.206,0.415-0.394,0.806-0.703,1.034    c-3.898,2.888-6.089,6.997-8.052,11.241c-1.058,2.287-1.895,4.68-2.768,7.048c-0.53,1.437-1.129,2.793-2.907,2.836    c-1.771,0.043-2.486-1.25-3.047-2.682c-2.47-6.313-6.184-11.82-10.883-16.678c-2.436-2.518-2.651-3.959-0.514-6.762    c3.986-5.228,6.006-11.392,8.498-17.336c0.347-0.828,0.525-1.824,1.107-2.43c0.71-0.739,1.768-1.58,2.668-1.57    c1.519,0.017,2.478,1.834,2.861,3.086c0.553,1.806,1.142,3.552,1.978,5.259c1.834,3.745,4.367,7.098,7.146,10.19    c1.352,1.504,2.696,3.016,3.996,4.564C221.116,83.516,221.295,83.882,221.486,84.273z"/>
		<path d="M441.667,271.441c0.32,0.729,0.322,1.572-0.047,2.277c-0.128,0.244-0.267,0.467-0.446,0.652    c-4.623,4.793-7.529,10.566-9.702,16.77c-0.162,0.464-0.322,0.938-0.558,1.365c-0.957,1.734-3.419,1.681-4.49,0.014    c-0.475-0.739-0.83-1.575-1.15-2.396c-2.014-5.164-4.757-9.897-8.162-14.269c-2.005-2.573-1.808-4.179,0.648-6.382    c3.219-2.888,5.605-6.406,7.766-10.106c1.217-2.083,2.452-4.158,3.731-6.203c0.688-1.1,1.64-1.893,3.059-1.649    c1.445,0.249,2.067,1.358,2.245,2.632c0.787,5.63,3.17,10.599,6.137,15.353C441.075,270.105,441.368,270.761,441.667,271.441z"/>
		<path d="M241.259,324.777c-6.029,0.026-10.474-4.011-10.476-9.514c-0.001-6.365,5.198-11.944,11.126-11.94    c5.662,0.005,10.685,4.9,10.702,10.431C252.629,319.659,247.386,324.75,241.259,324.777z"/>
		<path d="M96.902,106.619c0.006,5.776-5.146,11.168-10.696,11.195c-5.548,0.027-9.958-4.501-9.926-10.19    c0.033-5.996,5.028-10.941,11.021-10.913C92.668,96.736,96.896,101.1,96.902,106.619z"/>
		<path d="M399.929,422.857c-5.307,0.022-9.221-4.107-9.23-9.736c-0.009-5.686,4.519-10.293,10.101-10.275    c5.453,0.017,9.989,4.36,9.999,9.574C410.808,418.063,405.841,422.833,399.929,422.857z"/>
		<path d="M282.91,73.901c0.005,5.323-4.156,9.677-9.202,9.631c-5.065-0.046-9.482-4.647-9.505-9.903    c-0.023-5.17,4.117-9.251,9.35-9.217C278.749,64.445,282.905,68.659,282.91,73.901z"/>
		<path d="M20.782,256.676c0.012,4.529-3.947,8.533-8.488,8.584c-4.212,0.047-7.576-3.398-7.621-7.805    c-0.047-4.663,3.625-8.463,8.226-8.512C17.302,248.896,20.77,252.299,20.782,256.676z"/>
		<path d="M144.504,107.654c-3.987,0.014-7.518-3.119-7.533-6.682c-0.017-4.043,3.452-7.53,7.525-7.566    c3.982-0.035,7.252,3.174,7.254,7.119C151.752,104.474,148.533,107.64,144.504,107.654z"/>
		<path d="M350.664,419.613c0.023,3.916-3.132,7.132-6.999,7.136c-3.679,0.004-6.921-3.29-6.942-7.052    c-0.024-4.292,2.854-7.489,6.747-7.496C347.349,412.193,350.641,415.585,350.664,419.613z"/>
		<path d="M298.694,287.259c-0.02,3.674-3.103,6.6-6.918,6.565c-3.899-0.036-7.059-3.135-7.04-6.906    c0.018-3.583,2.84-6.401,6.431-6.421C295.436,280.474,298.715,283.419,298.694,287.259z"/>
		<path d="M455.134,393.722c0.003,3.654-3.121,6.855-6.704,6.869c-3.318,0.014-6.264-3.086-6.301-6.627    c-0.036-3.575,3.136-6.802,6.746-6.861C452.236,387.048,455.132,390.11,455.134,393.722z"/>
		<path d="M387.424,49.147c0.026,3.448-2.494,6.133-5.8,6.181c-3.251,0.047-5.909-2.551-5.963-5.829    c-0.056-3.376,2.691-6.197,6.024-6.187C384.882,43.322,387.4,45.881,387.424,49.147z"/>
		<path d="M65.805,337.153c0.012-3.178,2.505-5.625,5.697-5.593c3.239,0.033,5.787,2.603,5.742,5.79    c-0.045,3.129-2.605,5.654-5.72,5.64C68.356,342.976,65.792,340.36,65.805,337.153z"/>
		<path d="M193.302,315.298c0.047,3.065-2.424,5.575-5.51,5.597c-3.036,0.022-5.487-2.386-5.497-5.398    c-0.01-3.113,2.435-5.613,5.495-5.62C190.795,309.871,193.256,312.291,193.302,315.298z"/>
		<path d="M426.024,38.905c2.901,0.007,5.248,2.358,5.249,5.259c0.001,2.965-2.423,5.355-5.388,5.311    c-2.855-0.042-5.122-2.317-5.149-5.166C420.708,41.312,423.07,38.898,426.024,38.905z"/>
	</g>
	<g>
		<path d="M146.964,170.217c0.432,0.751,0.637,1.141,0.871,1.511c14.403,22.804,19.105,47.639,15.318,74.171    c-2.062,14.447-6.925,27.893-15.276,39.968c-3.871,5.597-8.537,10.435-13.984,14.517c-17.162,12.865-37.899,13.647-55.985,2.128    c-10.338-6.585-18.547-15.283-24.123-26.108c-16.695-32.409-17.641-65.572-3.732-99.173c2.896-6.995,7.039-13.303,12.038-19.029    c16.498-18.896,39.421-22.763,61.145-10.221c2.961,1.71,5.737,3.738,9.211,6.022c0.216-0.366,0.496-1.075,0.971-1.612    c5.227-5.924,11.663-10.393,18.175-14.71c5.258-3.487,11.133-5.708,17.417-6.422c11.533-1.309,22.955,5.375,28.004,16.554    c2.166,4.794,3.627,9.906,5.405,14.875c0.166,0.464,0.305,0.937,0.666,1.395c0.247-2.975,0.378-5.965,0.762-8.922    c1.633-12.556,6.56-23.528,15.917-32.269c3.188-2.978,6.849-5.29,10.927-6.891c9.22-3.62,17.448-1.782,24.685,4.729    c3.835,3.45,6.269,7.9,8.172,12.647c0.27,0.673,0.545,1.344,1.158,2.069c0.172-0.708,0.32-1.422,0.518-2.122    c3.259-11.485,8.288-21.924,17.282-30.16c10.719-9.816,24.387-6.963,32.234,2.358c4.689,5.571,7.329,12.163,8.814,19.122    c2.203,10.328,4.082,20.733,5.793,31.155c2.124,12.935,4.339,25.835,8.434,38.328c0.612,1.866,1.301,3.715,2.097,5.51    c0.543,1.223,1.23,2.413,2.03,3.486c3.563,4.775,7.165,5.147,11.679,1.286c2.482-2.123,2.479-2.122,1.122-5.049    c-5.44-11.729-8.147-24.132-9.147-36.961c-1.464-18.765,1.09-36.899,8.433-54.297c4.734-11.216,11.195-21.119,21.057-28.579    c19.881-15.039,45.033-13.442,62.779,4.091c1.741,1.72,3.369,3.554,5.416,5.723c-0.508-3.348-0.968-6.198-1.366-9.056    c-0.318-2.282-0.636-4.569-0.821-6.864c-0.264-3.286,0.946-5.076,4.324-5.471c9.601-1.124,19.108-2.868,28.351-5.816    c0.533-0.17,1.088-0.307,1.643-0.367c1.805-0.195,3.021,0.838,3.203,2.65c0.805,8.042,1.432,16.107,2.468,24.119    c1.493,11.536,3.327,23.028,4.939,34.55c2.712,19.377,5.503,38.744,7.997,58.149c2.057,16.003,4.234,32.017,5.464,48.095    c1.926,25.174-1.186,49.835-9.751,73.695c-3.404,9.482-7.049,18.855-12.8,27.237c-8.532,12.434-18.494,23.487-30.946,32.153    c-5.147,3.582-10.58,6.636-16.438,8.869c-13.451,5.128-26.965,10.09-41.153,12.844c-8.404,1.631-16.901,2.489-25.474,2.585    c-11.201,0.126-22.377-0.188-33.514-1.473c-15.743-1.817-31.483-3.664-47.235-5.397c-5.079-0.559-10.195-0.776-15.291-1.196    c-1.382-0.114-2.451,0.352-3.557,1.157c-16.503,12.006-32.749,24.395-49.631,35.845c-21.758,14.757-44.605,27.721-69.188,37.289    c-19.835,7.72-40.452,12.129-61.715,13.376c-13.039,0.765-25.174-2.341-36.127-9.387c-15.259-9.817-22.4-23.976-21.354-42.113    c0.255-4.422,1.972-8.518,3.882-12.491c2.974-6.185,6.906-11.709,11.585-16.709c12.844-13.725,28.457-23.076,46.092-29.289    c16.638-5.862,33.861-8.545,51.375-9.707c18.04-1.197,36.088-0.777,54.133-0.124c18.601,0.674,37.201,1.382,55.799,2.127    c1.763,0.071,3.258-0.241,4.737-1.252c14.667-10.023,29.3-20.098,44.071-29.965c17.667-11.802,35.352-23.586,53.245-35.039    c8.849-5.664,18.322-10.288,28.218-13.939c1.942-0.716,3.913-1.589,6.043-0.871c1.075,0.362,2.334,0.711,3.053,1.488    c1.745,1.888,3.381,3.921,4.774,6.08c2.955,4.58,5.732,9.275,8.567,13.932c0.349,0.573,0.671,1.179,0.897,1.809    c0.748,2.073,0.162,3.573-1.875,4.363c-2.301,0.892-4.647,1.692-7.018,2.377c-9.71,2.806-18.928,6.816-27.794,11.594    c-22.077,11.895-42.737,25.983-62.798,40.979c-0.214,0.16-0.41,0.346-0.804,0.681c0.578,0.102,0.926,0.206,1.278,0.22    c16.939,0.639,33.859,0.561,50.678-1.881c22.048-3.202,43.086-9.689,62.736-20.237c12.185-6.541,22.373-15.509,29.561-27.473    c6.746-11.227,10.744-23.497,12.483-36.443c1.833-13.645,1.448-27.389,1.214-41.107c-0.161-9.444-0.581-18.884-0.897-28.325    c-0.029-0.873-0.143-1.743-0.506-2.652c-0.243,0.547-0.502,1.087-0.725,1.641c-4.391,10.93-10.454,20.781-18.94,29.025    c-8.552,8.308-18.619,13.483-30.661,14.332c-10.215,0.721-19.461-2.166-27.878-7.838c-2.556-1.723-4.952-3.684-7.53-5.618    c-0.311,0.52-0.655,1.079-0.984,1.646c-3.238,5.574-7.369,10.334-12.74,13.959c-11.227,7.576-25.617,6.182-35.237-3.406    c-7.613-7.587-12.128-16.968-14.418-27.226c-2.174-9.743-3.282-19.723-4.885-29.594c-1.666-10.259-3.209-20.542-5.145-30.75    c-0.56-2.955-2.017-5.846-3.551-8.482c-1.738-2.987-4.003-3.271-6.554-0.903c-1.598,1.483-2.928,3.414-3.901,5.38    c-2.978,6.016-3.965,12.608-5.095,19.145c-2.596,15.028-3.316,30.184-2.598,45.378c0.387,8.19,1.53,16.345,2.331,24.516    c0.598,6.1,1.195,12.2,1.79,18.3c0.286,2.929-0.866,4.714-3.829,5.733c-4.144,1.425-8.322,2.75-12.463,4.184    c-2.972,1.029-5.916,2.141-8.856,3.26c-4.187,1.593-6.031,0.491-6.392-4.008c-0.491-6.109-0.809-12.233-1.342-18.339    c-1.874-21.465-4.574-42.827-8.32-64.048c-1.64-9.292-3.438-18.557-5.228-27.822c-0.252-1.306-0.759-2.596-1.347-3.796    c-0.814-1.662-1.949-1.919-3.178-0.578c-1.235,1.348-2.339,2.89-3.177,4.513c-3.013,5.843-4.596,12.177-6.063,18.539    c-3.999,17.341-7.068,34.84-7.956,52.631c-0.267,5.351,0.515,10.763,0.94,16.138c0.87,10.989,1.824,21.97,2.738,32.956    c0.051,0.615,0.076,1.237,0.055,1.854c-0.111,3.197-1.318,4.933-4.437,5.74c-5.928,1.532-11.897,2.903-17.852,4.331    c-1.093,0.262-2.192,0.501-3.297,0.705c-3.473,0.641-5.263-0.632-5.675-4.162c-0.631-5.417-1.289-10.835-1.743-16.268    c-1.51-18.044-2.839-36.103-4.426-54.14c-0.99-11.257-2.182-22.518-5.35-33.424c-0.886-3.048-2.112-6.076-3.68-8.831    c-2.94-5.167-7.672-6.572-12.952-3.844C153.839,165.648,150.486,168.031,146.964,170.217z M261.151,205.124    c-0.015-0.049-0.139-0.299-0.166-0.56c-0.812-7.711-1.505-15.436-2.443-23.131c-1.38-11.319-2.822-22.633-4.462-33.917    c-0.763-5.248-2.376-10.317-5.461-14.743c-3.852-5.526-10.187-8.945-18.08-4.682c-5.981,3.23-10.382,8.002-13.577,13.918    c-4.22,7.812-7.232,16.087-8.972,24.788c-1.782,8.916-3.615,17.833-4.987,26.816c-0.939,6.149-1.155,12.411-1.643,18.626    c-0.684,8.734-1.329,17.47-1.973,26.207c-0.187,2.531-0.312,5.067-0.466,7.602c-0.273-0.225-0.373-0.472-0.392-0.726    c-0.817-10.81-1.609-21.621-2.442-32.43c-0.643-8.346-1.217-16.7-2.035-25.029c-0.83-8.448-1.995-16.866-4.393-25.039    c-1.88-6.407-4.735-12.276-10.198-16.501c-2.526-1.953-5.333-3.041-8.57-3.018c-5.455,0.038-10.317,2.022-15.034,4.484    c-8.331,4.348-15.672,10.098-22.785,16.166c-0.964,0.822-1.957,1.608-2.645,2.171c-3.626-3.064-6.862-6.226-10.515-8.795    c-7.161-5.037-14.978-7.546-23.985-6.024c-7.796,1.317-14.371,4.613-19.974,10.05c-7.248,7.034-11.651,15.772-14.828,25.188    c-5.192,15.386-6.471,31.162-4.546,47.253c1.502,12.553,4.669,24.606,10.542,35.856c4.718,9.038,10.694,17.067,19.307,22.795    c7.75,5.155,16.194,7.41,25.489,5.519c8.342-1.697,14.934-6.311,20.466-12.565c6.83-7.722,11.267-16.758,14.096-26.598    c4.239-14.744,5.107-29.742,3.076-44.924c-2.034-15.205-6.849-29.395-15.454-42.195c-0.556-0.826-1.134-1.638-1.742-2.513    c7.36-6.025,14.541-12.076,22.639-16.899c3.921-2.335,7.958-4.418,12.505-5.311c4.461-0.876,8.301,0.082,11.573,3.397    c3.539,3.586,5.675,7.929,7.191,12.623c2.499,7.737,3.779,15.751,4.611,23.786c1.393,13.457,2.366,26.957,3.483,40.442    c0.584,7.052,1.051,14.114,1.66,21.163c0.639,7.384,1.364,14.761,2.114,22.135c0.093,0.917,0.012,2.414,1.367,2.325    c1.486-0.098,0.974-1.582,0.891-2.464c-0.492-5.209-0.67-10.375,0.05-15.61c0.703-5.108,0.826-10.295,1.259-15.443    c0.593-7.053,1.245-14.102,1.857-21.154c0.613-7.052,0.905-14.148,1.886-21.147c1.324-9.449,3.087-18.841,4.818-28.229    c1.756-9.522,4.907-18.586,9.907-26.907c3.227-5.371,7.618-9.556,13.604-11.857c3.206-1.232,6.133-0.814,8.952,1.106    c3.437,2.341,5.262,5.782,6.616,9.527c2.21,6.113,3.266,12.491,4.03,18.912c1.108,9.312,2.163,18.632,3.131,27.959    c1.148,11.058,2.244,22.123,3.243,33.195c0.878,9.73,1.575,19.477,2.398,29.212c0.074,0.868-0.555,2.433,1.044,2.355    c1.615-0.079,1.23-1.71,1.172-2.704c-0.361-6.112-0.772-12.224-1.287-18.325c-0.639-7.568-1.145-15.129-0.1-22.698    c1.888-13.689,3.739-27.383,5.72-41.058c2.044-14.111,6.771-27.338,13.59-39.828c2.113-3.871,4.679-7.434,8.074-10.299    c3.463-2.922,7.067-2.645,10.097,0.704c0.712,0.787,1.34,1.667,1.907,2.566c2.554,4.044,4.145,8.508,5.023,13.153    c3.127,16.553,6.204,33.118,9.088,49.715c1.891,10.88,4.343,21.579,8.463,31.852c1.647,4.108,3.822,7.898,6.963,11.053    c2.193,2.204,4.794,3.731,7.948,4.071c8.722,0.941,15.607-2.486,20.9-9.202c4.717-5.984,8.535-12.524,11.132-19.731    c1.13-3.134,2.31-6.25,3.491-9.439c1.574,3.187,2.967,6.321,4.626,9.308c4.114,7.407,9.174,14.024,16.475,18.621    c4.007,2.523,8.324,4.134,13.112,4.405c7.82,0.443,14.409-2.395,20.153-7.471c7.141-6.309,11.648-14.368,14.941-23.143    c5.654-15.066,7.564-30.682,6.621-46.709c-0.611-10.376-2.317-20.537-5.576-30.411c-3.905-11.832-9.495-22.583-18.975-31.098    c-12.143-10.907-27.415-10.894-39.188,0.398c-6.216,5.962-10.319,13.269-13.369,21.223c-5.432,14.167-7.359,28.871-6.829,43.982    c0.411,11.692,2.06,23.17,5.842,34.25c0.975,2.858,0.81,5.193-0.287,7.939c-3.488,8.729-7.129,17.331-12.857,24.91    c-3.031,4.01-6.578,7.194-11.416,8.801c-6.825,2.268-12.635,0.534-16.799-5.288c-1.524-2.131-2.928-4.442-3.875-6.871    c-1.873-4.808-3.868-9.651-4.961-14.665c-2.846-13.06-5.232-26.22-7.803-39.341c-1.923-9.811-3.69-19.656-5.83-29.419    c-1.232-5.621-3.427-10.944-7.232-15.425c-3.06-3.604-6.78-4.597-10.867-2.72c-1.451,0.666-2.856,1.642-3.97,2.781    c-1.76,1.8-3.485,3.713-4.829,5.83c-7.557,11.9-12.712,24.866-15.107,38.692C264.814,175.461,263.176,190.376,261.151,205.124z     M385.275,281.033c0-0.607-2.513,0.265-3.725,0.572c-6.569,1.663-12.737,4.346-18.502,7.856    c-17.797,10.838-35.692,21.526-53.249,32.742c-21.259,13.581-42.212,27.64-63.296,41.495c-1.07,0.703-2.032,1.416-3.515,1.269    c-6.151-0.612-12.309-1.203-18.478-1.573c-15.204-0.913-30.408-1.99-45.629-2.429c-9.306-0.268-18.656,0.31-27.962,0.895    c-8.968,0.565-17.898,1.723-26.858,2.449c-13.054,1.058-25.838,3.461-38.282,7.516c-12.005,3.912-23.379,8.894-32.345,18.345    c-8.249,8.694-14.119,18.514-15.432,30.542c-0.954,8.742,1.338,16.6,8.088,22.759c6.183,5.642,13.78,7.62,21.774,7.588    c6.761-0.027,13.554-0.85,20.27-1.778c15.857-2.191,30.89-7.284,45.525-13.618c17.585-7.611,34.138-17.156,50.181-27.538    c19.577-12.668,38.869-25.775,58.315-38.646c0.817-0.541,1.965-0.919,2.923-0.854c6.279,0.425,12.543,1.084,18.823,1.495    c15.086,0.989,30.168,2.088,45.269,2.765c19.83,0.889,39.669,1.308,59.463-0.973c11.581-1.335,22.992-3.416,34.137-6.899    c10.671-3.335,20.998-7.465,30.255-13.805c19.062-13.056,32.448-30.667,40.368-52.27c5.285-14.415,8.001-29.468,9.251-44.774    c0.981-12.02,0.925-24.05,0.135-36.064c-0.648-9.865-1.491-19.725-2.537-29.556c-1.349-12.679-2.763-25.36-4.547-37.984    c-3.31-23.423-6.908-46.805-10.385-70.204c-0.223-1.501-0.333-3.028-0.696-4.493c-0.134-0.541-0.659-1.504-1.297-1.403    c-0.599,0.095-0.783,1.972-0.767,2.14c0.685,7.267,1.16,14.56,2.104,21.793c1.585,12.139,3.417,24.246,5.242,36.352    c1.541,10.218,3.444,20.387,4.776,30.63c1.427,10.968,2.537,21.984,3.483,33.005c0.865,10.074,1.545,20.175,1.913,30.279    c0.569,15.605-0.533,31.116-3.605,46.459c-2.659,13.279-6.359,26.136-13.073,38.08c-11.515,20.483-27.638,35.687-49.477,44.615    c-17.663,7.221-36.164,10.739-55.117,11.866c-9.812,0.583-19.669,0.815-29.495,0.629c-12.754-0.242-25.503-0.934-38.242-1.667    c-10.098-0.581-20.176-1.502-30.261-2.297c-4.006-0.316-8.006-0.698-12.345-1.079c0.695-0.522,1.107-0.867,1.553-1.161    c24.251-15.989,48.414-32.114,72.794-47.903c13.149-8.516,26.655-16.481,40.028-24.649c6.669-4.074,12.966-7.592,20.76-9.087    C384.944,282.085,385.275,281.51,385.275,281.033z"/>
		<path d="M6.999,205.359c-4.218,0.042-6.978-2.342-6.999-6.047c-0.022-3.734,2.975-6.736,6.723-6.737    c3.653-0.001,6.575,2.872,6.575,6.466C13.299,202.553,10.537,205.324,6.999,205.359z"/>
		<path d="M91.069,154.943c-0.722,3.313-1.692,6.592-2.119,9.94c-1.38,10.83,7.818,17.404,14.475,17.93    c4.261,0.336,8.297-1.008,12.012-2.855c4.207-2.092,8.151-4.716,12.187-7.145c0.811-0.488,1.524-1.139,2.426-1.824    c0.401,0.52,0.781,0.975,1.121,1.457c7.364,10.439,11.476,22.191,13.902,34.609c2.006,10.265,2.616,20.631,1.661,31.043    c-1.386,15.099-5.246,29.406-14.197,41.957c-2.662,3.733-5.859,6.972-9.601,9.639c-10.305,7.346-22.175,7.561-33.164,0.549    c-6.963-4.443-12.276-10.489-16.581-17.466c-7.112-11.526-11.162-24.141-12.955-37.481c-2.045-15.221-1.218-30.294,3.211-45.064    c3.098-10.331,8.091-19.614,15.757-27.324c3.076-3.094,6.58-5.613,10.557-7.443C90.249,155.241,90.757,155.067,91.069,154.943z     M82.197,190.244c-0.129,0.414-0.343,1.035-0.517,1.666c-3.627,13.142-4.246,26.489-2.519,39.954    c1.426,11.114,4.33,21.819,9.579,31.79c2.27,4.312,5.088,8.23,8.961,11.271c6.127,4.811,12.461,4.442,18.017-1.016    c0.72-0.708,1.402-1.462,2.036-2.248c3.109-3.859,5.266-8.245,6.768-12.925c7.119-22.183,6.316-44.27-0.974-66.25    c-0.099-0.298-0.298-0.563-0.492-0.919c-0.692,0.453-1.298,0.854-1.909,1.247c-4.369,2.814-8.958,5.164-14.028,6.439    c-7.007,1.762-13.785,1.665-19.64-3.23C85.506,194.372,83.963,192.205,82.197,190.244z"/>
		<path d="M448.791,154.205c-0.043,14.685-2.141,28.989-8.127,42.532c-3.261,7.378-7.549,14.065-13.918,19.199    c-9.129,7.36-19.608,7.787-29.303,1.175c-6.356-4.334-11.013-10.202-14.819-16.801c-6.356-11.018-9.846-23.006-11.577-35.502    c-2.357-17.014-1.384-33.863,3.525-50.38c2.797-9.41,7.022-18.111,13.719-25.439c2.949-3.227,6.347-5.89,10.384-7.634    c5.915-2.555,11.876-2.576,17.819-0.082c5.455,2.29,10.124,5.782,13.627,10.463c6.368,8.511,11.088,17.909,13.975,28.2    C447.24,131.15,448.897,142.548,448.791,154.205z M435.81,149.894c-0.307-2.854-0.671-8.529-1.575-14.116    c-1.425-8.814-4.049-17.279-8.664-25.018c-2.388-4.003-5.273-7.574-9.275-10.08c-5.725-3.586-11.03-3.212-16.103,1.243    c-1.591,1.397-3.174,2.957-4.253,4.748c-2.138,3.545-4.455,7.123-5.766,11.002c-7.964,23.568-6.334,46.681,4.066,69.201    c1.777,3.847,4.341,7.226,7.437,10.152c6.763,6.391,14.336,6.244,20.814-0.413c3.505-3.602,5.917-7.906,7.771-12.531    C434.299,174.017,435.62,163.469,435.81,149.894z"/>
		<path d="M127.904,168.194c-6.053,4.832-12.412,8.651-19.766,10.889c-7.772,2.366-15.853-5.039-15.984-11.97    c-0.08-4.22,0.645-8.278,1.817-12.275c0.163-0.555,1.021-1.176,1.642-1.285c5.29-0.93,10.39,0.027,15.355,1.848    C117.869,157.934,123.158,162.599,127.904,168.194z"/>
		<path d="M239.729,368.249c-5.744,3.919-11.003,7.656-16.409,11.167c-18.186,11.812-36.264,23.802-54.688,35.232    c-17.65,10.95-36.296,19.965-56.096,26.466c-12.553,4.122-25.421,6.537-38.56,7.704c-6.495,0.577-12.828-0.112-18.889-2.417    c-8.903-3.386-13.869-9.989-14.94-19.455c-0.631-5.57,0.647-10.826,2.917-15.874c4.177-9.291,10.205-17.159,18.154-23.55    c5.597-4.5,12.065-7.369,18.677-9.939c13.344-5.185,27.228-8.066,41.438-9.469c11.35-1.121,22.686-2.555,34.065-3.151    c10.931-0.573,21.91-0.398,32.865-0.263c6.907,0.086,13.813,0.626,20.71,1.101c7.68,0.529,15.348,1.216,23.022,1.833    C234.393,367.828,236.793,368.016,239.729,368.249z M208.658,375.979c-0.037-0.126-0.073-0.253-0.11-0.379    c-0.6-0.036-1.2-0.084-1.8-0.108c-3.82-0.153-7.643-0.246-11.459-0.46c-9.933-0.558-19.856-1.348-29.817-0.509    c-5.375,0.452-10.809,0.42-16.137,1.173c-15.237,2.152-30.437,4.495-45.259,8.889c-9.282,2.751-18.532,5.468-27.042,10.216    c-7.423,4.143-13.725,9.479-18.565,16.566c-6.421,9.403,1.219,22.257,8.971,24.302c7.451,1.965,14.81,1.75,22.219,0.377    c10.748-1.991,20.799-6.068,30.639-10.684c28.433-13.339,55.855-28.517,82.299-45.46    C204.624,378.604,206.638,377.287,208.658,375.979z"/>
	</g>
</g>















</svg>
