<?xml version="1.0" encoding="UTF-8"?>
<!-- Generator: Adobe Illustrator 25.2.0, SVG Export Plug-In . SVG Version: 6.00 Build 0)  -->
<svg xmlns="http://www.w3.org/2000/svg" xmlns:xlink="http://www.w3.org/1999/xlink" version="1.1" id="Capa_1" x="0px" y="0px" viewBox="0 0 500 500" style="enable-background:new 0 0 500 500;" xml:space="preserve" width="512" height="512">
<g>
	<g>
		<path d="M309.117,217.189c4.178-2.57,8.248-4.759,11.964-7.439c4.499-3.244,8.72-6.877,13-10.416    c0.535-0.442,0.909-1.314,0.995-2.03c3.611-30.012,9.453-59.617,16.448-88.997c3.153-13.244,6.442-26.474,10.25-39.541    c5.241-17.983,12.113-35.345,21.946-51.4c2.971-4.851,6.379-9.367,11.009-12.774c5.333-3.926,11.2-5.853,17.764-3.693    c5.21,1.714,8.657,5.625,11.52,10.099c3.83,5.984,5.145,12.712,5.774,19.646c1.187,13.074-0.722,25.84-3.863,38.469    c-6.884,27.679-17.057,54.067-31.034,78.97c-9.747,17.366-21.787,33.01-35.363,47.511c-3.016,3.221-6.219,6.266-9.28,9.446    c-0.47,0.488-0.849,1.248-0.912,1.917c-1.347,14.31-1.523,28.623,0.011,42.935c0.909,8.482,2.014,16.927,4.572,25.106    c2.311,7.388,6.133,13.926,11.822,19.156c5.819,5.351,11.896,6.372,18.83,2.724c6.338-3.335,11.207-8.119,14.906-14.168    c7.131-11.661,11.008-24.229,10.406-38.001c-0.189-4.315-1.337-8.305-4.477-11.517c-2.029-2.076-4.357-3.019-7.264-2.308    c-3.133,0.767-6.236,1.504-8.976,3.398c-3.396,2.348-7.661,1.764-10.076-1.17c-2.431-2.952-2.239-7.23,0.644-10.136    c1.169-1.178,2.577-2.208,4.047-2.983c4.476-2.363,9.305-3.74,14.321-4.251c8.432-0.86,14.873,2.862,20.039,9.196    c4.539,5.567,6.581,12.116,6.781,19.159c0.608,21.456-5.986,40.435-20.326,56.492c-4.922,5.511-11.184,9.295-18.13,11.879    c-9.077,3.377-17.607,1.758-25.632-3.096c-7.528-4.552-12.518-11.481-16.739-18.988c-4.464-7.94-6.54-16.661-8.024-25.551    c-2.408-14.43-3.346-28.957-2.821-43.577c0.015-0.432,0.002-0.865,0.002-1.576c-0.606,0.394-1.01,0.627-1.382,0.903    c-6.318,4.694-13.034,8.7-20.355,11.624c-1.024,0.409-0.982,1.039-0.958,1.854c0.361,12.24-0.54,24.384-2.765,36.43    c-2.688,14.554-6.932,28.601-13.778,41.773c-4.887,9.402-10.838,18.029-19.119,24.821c-6.5,5.332-13.795,8.809-22.38,8.776    c-9.2-0.036-16.59-4.125-22.758-10.675c-5.819-6.179-9.633-13.555-12.445-21.474c-5.488-15.455-6.998-31.473-6.589-47.749    c0.031-1.229,0.004-2.46,0.004-3.988c-0.49,0.541-0.85,0.957-1.229,1.355c-4.035,4.23-7.869,8.685-12.202,12.585    c-2.008,1.807-2.811,3.367-2.83,6.036c-0.156,22.765-4.306,44.752-13.516,65.653c-4.653,10.559-10.584,20.323-19.013,28.366    c-5.312,5.069-11.28,9.019-18.57,10.736c-8.994,2.118-17.116,0.226-24.466-5.175c-7.817-5.744-12.664-13.704-16.278-22.495    c-5.72-13.915-7.803-28.536-8.039-43.46c-0.346-21.896,3.203-43.151,11.128-63.595c4.658-12.018,10.765-23.22,19.837-32.566    c5.432-5.596,11.62-10.075,19.301-12.08c8.835-2.305,16.955-0.663,24.493,4.458c8.044,5.463,12.915,13.293,16.701,21.947    c3.436,7.854,5.451,16.119,6.815,24.556c0.037,0.229,0.088,0.456,0.179,0.922c0.783-0.79,1.453-1.413,2.063-2.09    c8.285-9.187,15.482-19.137,20.685-30.398c1.696-3.671,2.802-7.614,4.166-11.436c4.806-13.468,11.052-26.122,20.894-36.717    c4.326-4.657,9.221-8.606,15.096-11.15c10.728-4.645,20.844-3.53,30.38,3.303c7.103,5.089,11.602,12.123,15.181,19.859    c3.581,7.739,5.715,15.921,7.167,24.297C308.767,215.47,308.892,216.048,309.117,217.189z M270.74,180.05    c-0.339-0.156-0.466-0.253-0.602-0.269c-0.344-0.039-0.692-0.053-1.039-0.057c-4.257-0.046-7.931,1.63-11.303,4.009    c-5.609,3.957-9.719,9.278-13.409,14.981c-6.027,9.313-9.719,19.652-12.752,30.176c-5.34,18.529-7.028,37.478-5.073,56.694    c0.962,9.458,2.907,18.709,6.762,27.457c2.502,5.678,5.632,10.957,10.752,14.732c3.824,2.82,8.033,3.689,12.664,2.323    c4.465-1.317,8.064-3.983,11.307-7.18c6.673-6.577,11.377-14.491,15.105-22.985c8.808-20.071,12.509-41.164,12.29-63.009    c-0.005-0.48-0.075-0.959-0.108-1.367c-0.241-0.097-0.331-0.158-0.424-0.167c-0.395-0.034-0.792-0.044-1.187-0.078    c-12.389-1.074-21.865-6.736-27.077-18.215c-3.592-7.911-3.9-16.328-1.689-24.766C266.109,187.929,268.041,183.872,270.74,180.05z     M147.627,222.339c-0.68,0.255-1.183,0.409-1.658,0.626c-3.473,1.585-6.469,3.842-9.142,6.545    c-7.242,7.322-12.122,16.144-16.02,25.546c-6.873,16.574-10.275,33.913-10.977,51.794c-0.568,14.468,0.671,28.738,5.326,42.559    c2.187,6.493,5.123,12.599,9.966,17.581c4.718,4.852,10.248,6.832,16.877,4.357c3.156-1.178,5.9-3.051,8.381-5.293    c7.627-6.89,12.74-15.525,16.826-24.798c7.198-16.334,10.808-33.531,11.897-51.292c0.126-2.056,0.017-4.127,0.017-6.246    c-0.143-0.013-0.335-0.058-0.524-0.045c-10.139,0.655-17.927-3.748-24.152-11.355c-4.405-5.383-6.401-11.8-7.504-18.539    c-1.393-8.503-2.203-17.029-0.574-25.601C146.723,226.298,147.171,224.436,147.627,222.339z M352.618,180.684    c0.589-0.54,0.892-0.771,1.139-1.051c6.92-7.862,13.572-15.936,19.329-24.704c19.473-29.656,32.404-62.039,40.064-96.588    c2.182-9.843,2.948-19.81,1.508-29.861c-0.547-3.822-1.568-7.471-3.921-10.631c-2.482-3.334-4.266-3.702-7.295-0.867    c-2.256,2.111-4.352,4.517-6.021,7.111c-7.775,12.077-13.211,25.265-17.899,38.78c-6.456,18.614-10.944,37.766-15.133,56.973    c-3.649,16.731-6.776,33.576-10.084,50.38C353.649,173.558,353.217,176.933,352.618,180.684z M162.164,225.257    c-0.539,2.919-1.189,5.467-1.454,8.055c-0.757,7.376,0.222,14.639,1.874,21.813c1.055,4.58,3.334,8.452,7.216,11.263    c2.651,1.919,5.553,2.685,9.043,2.06c-0.4-2.988-0.708-5.881-1.187-8.746c-1.416-8.484-3.605-16.738-7.681-24.384    C168.034,231.676,165.726,228.298,162.164,225.257z M294.204,220.465c-1.948-11.614-4.609-22.34-11.232-31.844    c-0.285,0.384-0.444,0.57-0.573,0.774c-3.164,5.035-4.24,10.48-3.438,16.378c0.82,6.038,3.764,10.488,9.372,12.964    C290.056,219.497,291.972,219.823,294.204,220.465z"/>
		<path d="M15.677,341.371c-0.348,15.453,1.688,34.897,6.626,53.969c4.77,18.426,11.925,35.831,23.487,51.164    c9.854,13.069,22.073,23.274,36.967,30.179c15.376,7.129,31.458,9.675,48.276,7.384c13.324-1.816,25.94-6.003,38.232-11.326    c14.83-6.422,28.812-14.408,42.517-22.908c21.3-13.21,41.714-27.731,62.175-42.179c18.49-13.056,37.379-25.48,57.371-36.144    c14.295-7.626,29.106-14.019,44.751-18.387c13.421-3.747,27.082-5.659,41.014-5.178c15.058,0.521,29.346,4.032,42.319,11.945    c10.474,6.389,19.056,14.704,23.984,26.108c5.985,13.849,6.56,28.173,1.633,42.409c-7,20.223-20.199,35.313-39.359,44.914    c-10.133,5.078-20.938,6.998-32.232,4.934c-8.497-1.554-16.001-5.085-21.446-12.012c-5.137-6.535-6.922-14.256-7.215-22.415    c-0.28-7.799,1.857-15.018,5.317-21.883c4.678-9.282,10.383-17.932,16.566-26.273c1.53-2.064,3.35-3.774,5.836-4.67    c3.607-1.301,7.314-0.084,9.206,3.069c1.894,3.156,1.127,6.886-1.677,9.573c-1.593,1.526-3.07,3.259-4.239,5.125    c-4.26,6.802-8.579,13.583-12.47,20.596c-3.481,6.275-4.264,13.087-2.723,20.193c1.562,7.205,6.051,11.375,12.951,13.239    c8.816,2.382,17.324,1.037,25.286-2.973c16.727-8.424,28.277-21.617,32.803-39.831c4.438-17.864-0.941-33.261-15.676-44.207    c-9.458-7.026-20.199-10.674-31.735-12.082c-15.286-1.865-30.266,0.075-45.005,4.247c-15.151,4.289-29.415,10.698-43.217,18.196    c-21.926,11.911-42.418,26.04-62.735,40.451c-19.988,14.177-40.127,28.137-61.164,40.736    c-15.551,9.313-31.527,17.801-48.621,23.982c-14.256,5.155-28.855,8.637-44.132,8.683c-18.941,0.057-36.405-5.189-52.643-14.713    c-17.201-10.089-30.509-24.091-40.688-41.135C15.77,426.992,9.352,408.39,5.282,388.894c-4.937-23.651-5.467-47.525-3.961-71.529    c1.193-19.007,4.116-37.726,8.955-56.146c7.727-29.414,19.53-57.161,34.163-83.763c10.619-19.305,23.131-37.244,38.425-53.141    c11.33-11.777,23.995-21.815,39.056-28.518c12.735-5.667,25.96-7.892,39.785-5.354c24.909,4.574,47.202,28.045,42.548,59.319    c-0.335,2.252-0.739,4.51-1.34,6.702c-1.086,3.96-4.868,6.115-8.779,5.174c-3.821-0.92-6.275-4.709-5.416-8.672    c1.285-5.925,1.967-11.896,0.77-17.869c-2.575-12.851-10.128-21.916-21.946-27.285c-10.435-4.741-21.226-4.347-31.998-1.119    c-11.42,3.423-21.171,9.829-30.281,17.318c-12.366,10.165-22.471,22.376-31.735,35.322c-11.095,15.503-20.004,32.259-28.08,49.48    c-10.627,22.66-18.801,46.151-23.907,70.678C17.586,298.499,15.988,317.745,15.677,341.371z"/>
	</g>
	<g>
		<path d="M301.507,113.256c-4.801,0.033-8.254-4.154-7.312-9.237c0.666-3.596,1.829-7.097,2.688-10.66    c5.588-23.168,11.149-46.342,16.735-69.51c0.418-1.732,0.857-3.473,1.465-5.144c1.359-3.734,5.095-5.724,8.802-4.805    c3.664,0.908,6.144,4.324,5.504,8.209c-0.668,4.052-1.7,8.048-2.668,12.045c-5.439,22.442-10.904,44.877-16.371,67.312    c-0.481,1.973-1.012,3.936-1.573,5.888C307.706,111.081,305.032,113.232,301.507,113.256z"/>
		<path d="M238.725,114.828c-3.629,3.143-8.974,2.202-11.559-2.274c-1.829-3.167-3.219-6.584-4.88-9.852    c-10.798-21.246-21.62-42.479-32.42-63.723c-0.808-1.589-1.604-3.197-2.227-4.863c-1.392-3.722,0.156-7.662,3.573-9.371    c3.376-1.689,7.48-0.702,9.516,2.667c2.124,3.515,3.935,7.223,5.794,10.892c10.44,20.597,20.856,41.206,31.27,61.815    c0.916,1.813,1.786,3.65,2.628,5.499C242.026,109.148,241.39,112.52,238.725,114.828z"/>
		<path d="M275.119,96.539c-0.083,1.67-0.454,3.33-1.25,4.801c-1.693,3.128-4.43,4.503-7.34,4.13    c-3.95-0.506-6.793-3.655-6.512-7.712c1.041-15.012,0.041-30.014-0.121-45.018c-0.143-13.226-0.606-26.449-0.903-39.673    c-0.073-3.22,1.111-5.873,4.063-7.383c2.702-1.381,5.414-1.101,7.839,0.741c2.069,1.571,2.971,3.82,3.061,6.356    c0.221,6.238,0.419,12.477,0.546,18.717c0.364,17.831,0.746,35.662,0.989,53.495C275.549,89.157,275.279,93.325,275.119,96.539z"/>
	</g>
	<g>
		<path d="M454.59,246.469c0.463-3.288,1-6.966,1.496-10.649c1.456-10.81,2.862-21.626,4.35-32.431    c2.151-15.617,4.292-31.236,6.561-46.836c2.019-13.88,4.023-27.766,6.372-41.592c2.34-13.773,5.006-27.493,7.73-41.197    c0.857-4.313,2.286-8.521,3.59-12.735c1.649-5.33,6.556-7.484,11.078-4.98c2.97,1.645,4.296,5.128,3.359,8.754    c-1.673,6.475-3.614,12.897-4.932,19.444c-2.121,10.539-3.993,21.135-5.673,31.754c-3.159,19.973-6.204,39.966-9.109,59.977    c-2.293,15.798-4.293,31.639-6.449,47.458c-1.064,7.811-2.157,15.619-3.291,23.42c-0.614,4.229-3.012,7.008-6.331,7.528    C458.504,255.142,454.684,251.858,454.59,246.469z"/>
		<path d="M458.867,297.887c-4.676,0.012-8.502-3.486-8.494-7.764c0.009-4.537,4.014-8.55,8.567-8.584    c4.516-0.034,8.446,3.652,8.421,7.897C467.335,293.927,463.365,297.876,458.867,297.887z"/>
	</g>
</g>















</svg>
