<?xml version="1.0" encoding="UTF-8"?>
<!-- Generator: Adobe Illustrator 25.2.0, SVG Export Plug-In . SVG Version: 6.00 Build 0)  -->
<svg xmlns="http://www.w3.org/2000/svg" xmlns:xlink="http://www.w3.org/1999/xlink" version="1.1" id="Capa_1" x="0px" y="0px" viewBox="0 0 500 500" style="enable-background:new 0 0 500 500;" xml:space="preserve" width="512" height="512">
<g>
	<g>
		<path d="M106.834,500c-2.868-0.182-5.739-0.313-8.602-0.557c-7.721-0.659-15.295-2.015-22.511-4.972    c-3.742-1.533-7.261-3.46-10.422-5.996c-9.259-7.428-11.649-19.044-6.047-29.54c4.273-8.006,10.511-14.183,17.956-19.263    c10.276-7.013,21.622-11.594,33.548-14.814c23.507-6.348,47.526-8.365,71.786-8.36c20.508,0.004,40.914,1.502,61.244,4.074    c2.368,0.3,4.021-0.215,5.794-1.714c18.154-15.343,36.31-30.684,54.578-45.889c18.173-15.126,36.892-29.542,56.822-42.309    c14.563-9.329,29.63-17.737,45.716-24.196c1.122-0.45,1.457-1.002,1.431-2.207c-0.213-9.864,1.047-19.601,2.622-29.311    c2.34-14.421,5.437-28.684,8.909-42.868c4.015-16.404,8.116-32.786,12.017-49.217c1.497-6.306,2.683-12.699,2.655-19.239    c-0.016-3.603-0.513-7.106-2.117-10.379c-1.557-3.176-3.508-4.102-6.664-2.514c-2.619,1.318-5.149,3.002-7.337,4.951    c-7.594,6.767-13.255,15.073-18.207,23.873c-5.441,9.671-9.069,20.137-13.081,30.428c-3.168,8.125-6.329,16.255-9.308,24.45    c-3.676,10.113-5.897,20.617-8.042,31.139c-1.466,7.191-2.664,14.462-5.428,21.322c-0.455,1.129-1.041,2.265-1.812,3.196    c-2.057,2.485-4.653,3.902-7.971,2.984c-3.246-0.897-4.986-3.357-5.277-6.507c-0.338-3.668-0.317-7.391-0.165-11.078    c0.541-13.119,2.24-26.116,4.385-39.06c0.925-5.58,1.819-11.164,2.534-16.879c-0.581,0.724-1.155,1.454-1.743,2.172    c-5.844,7.127-11.991,13.96-19.874,18.918c-2.81,1.767-5.839,3.2-8.833,4.652c-0.93,0.451-1.245,0.922-1.274,1.926    c-0.478,16.563-3.383,32.684-9.11,48.248c-4.214,11.453-9.774,22.158-18.23,31.134c-4.437,4.71-9.481,8.607-15.654,10.797    c-9.903,3.514-18.906,1.688-26.97-4.881c-5.953-4.849-9.872-11.204-12.909-18.15c-3.933-8.996-6.021-18.468-7.084-28.18    c-1.293-11.822-1.069-23.637,0.502-35.422c0.362-2.714,0.858-5.41,1.283-8.116c0.06-0.384,0.068-0.776,0.124-1.445    c-2.183,1.774-4.158,3.379-6.132,4.983c-8.293,6.736-17.031,12.789-26.804,17.206c-2.574,1.163-5.254,2.108-7.93,3.024    c-0.902,0.308-1.145,0.665-1.18,1.608c-0.291,7.759-0.412,15.537-1.062,23.269c-1.032,12.269-3.524,24.299-6.989,36.11    c-4.147,14.133-9.745,27.647-17.613,40.152c-6.956,11.055-15.203,20.934-26.266,28.147c-7.893,5.146-16.452,8.357-26.012,8.184    c-11.536-0.209-21.085-5.035-29.189-12.982c-8.159-8.001-13.525-17.762-17.517-28.342c-4.614-12.228-7.051-24.932-8.126-37.926    c-1.108-13.396-0.802-26.765,0.923-40.085c2.862-22.092,8.736-43.294,19.182-63.08c6.498-12.308,14.472-23.499,25.304-32.434    c6.718-5.541,14.143-9.79,22.741-11.585c13.418-2.801,25.26,0.702,35.598,9.488c8.135,6.913,13.815,15.634,18.091,25.325    c4.585,10.391,7.428,21.271,9.052,32.488c0.359,2.478,0.679,4.962,1.048,7.664c1.211-0.478,2.351-0.881,3.453-1.37    c8.625-3.835,16.36-9.088,23.659-15.005c7.244-5.872,14.43-11.815,21.61-17.765c0.562-0.465,1.008-1.178,1.282-1.866    c4.197-10.506,9.382-20.419,17.124-28.814c4.294-4.657,9.157-8.573,15.095-10.918c11.045-4.361,20.892-2.115,29.528,5.788    c5.893,5.394,9.666,12.207,12.5,19.577c3.367,8.754,5.212,17.858,6.114,27.171c0.043,0.444,0.129,0.883,0.239,1.624    c2.035-1.371,3.984-2.484,5.707-3.878c9.875-7.99,17.601-17.758,23.521-28.958c2.603-4.924,4.941-9.988,7.525-14.923    c1.476-2.817,2.027-5.826,2.484-8.905c1.864-12.557,3.703-25.119,5.673-37.66c1.176-7.485,2.578-14.934,3.874-22.4    c0.061-0.354,0.079-0.715,0.139-1.287c-1.141,0.29-2.177,0.534-3.201,0.817c-9.826,2.718-19.82,4.626-29.884,6.186    c-21.758,3.373-43.71,4.522-65.656,5.767c-20.398,1.157-40.799,2.272-61.183,3.628c-14.313,0.952-28.58,2.49-42.738,4.862    c-17.839,2.988-35.289,7.415-51.978,14.507c-24.765,10.525-45.741,26.212-63.036,46.787    c-14.76,17.559-25.316,37.487-32.748,59.122c-2.567,7.473-4.998,14.993-6.364,22.797c-1.77,10.108-1.986,20.268-0.737,30.454    c0.094,0.767,0.333,1.516,0.487,2.276c0.574,2.831-0.592,5.62-2.974,7.134c-2.416,1.535-5.752,1.554-7.813-0.335    c-1.08-0.99-1.942-2.449-2.387-3.859c-1.471-4.663-1.569-9.541-1.786-14.38c-0.655-14.609,1.942-28.707,6.326-42.606    c5.668-17.972,13.358-35.012,23.552-50.81c19.605-30.381,45.904-53.162,78.935-68.046c14.427-6.501,29.515-10.933,44.949-14.269    c16.419-3.548,33.049-5.655,49.775-6.892c19.002-1.405,38.032-2.44,57.05-3.633c15.918-0.999,31.847-1.835,47.751-3.03    c18.656-1.401,37.154-3.981,55.298-8.694c3.309-0.86,6.532-2.048,9.828-2.967c1.281-0.357,1.772-1.029,2.042-2.304    c2.149-10.135,4.171-20.304,6.639-30.363c3.31-13.494,7.484-26.73,13.327-39.382c2.866-6.207,6.224-12.111,10.866-17.197    c4.887-5.356,10.826-8.525,18.207-8.396c6.809,0.12,12.316,2.965,16.12,8.641c5.064,7.555,6.789,16.064,5.943,24.978    c-1.822,19.197-10.276,35.417-23.084,49.522c-9.592,10.562-21.562,17.675-34.516,23.276c-1.193,0.515-1.753,1.159-1.971,2.427    c-2.365,13.768-4.884,27.51-7.146,41.295c-1.515,9.236-2.681,18.53-4.011,27.798c-1.517,10.57-3.042,21.139-4.596,31.932    c0.718-1.841,1.347-3.512,2.019-5.166c3.301-8.121,6.329-16.368,9.985-24.326c5.961-12.974,13.834-24.704,24.284-34.567    c3.887-3.668,8.164-6.766,13.272-8.541c9.441-3.282,18.461,0.427,22.947,9.357c3.235,6.439,4.111,13.29,3.692,20.376    c-0.539,9.117-2.559,17.984-4.687,26.821c-4.713,19.568-9.623,39.089-14.224,58.683c-2.945,12.541-5.216,25.225-6.575,38.05    c-0.369,3.485-0.521,6.993-0.788,10.693c1.783-0.391,3.281-0.751,4.792-1.046c7.174-1.405,14.362-2.086,21.645-0.748    c14.883,2.734,25.456,15.08,25.372,29.725c-0.067,11.684-8.501,23.487-19.784,27.688c-11.481,4.274-23.957,0.899-32.314-8.644    c-5.762-6.58-8.95-14.355-10.876-22.749c-0.385-1.679-0.737-3.366-1.151-5.264c-4.414,2.053-8.722,3.924-12.912,6.031    c-14.889,7.487-28.968,16.31-42.611,25.865c-19.42,13.6-37.695,28.638-55.726,43.994c-10.37,8.832-20.813,17.579-31.222,26.365    c-0.344,0.29-0.677,0.593-1.252,1.098c2.142,0.354,4.034,0.682,5.932,0.979c12.723,1.988,25.429,4.087,38.174,5.923    c14.642,2.11,29.35,3.309,44.127,1.489c9.257-1.141,18.257-3.265,26.433-8.001c5.162-2.99,9.677-6.738,12.977-11.783    c2.709-4.142,3.263-8.683,2.064-13.409c-1.143-4.503-5.125-6.82-10.066-5.564c-5.522,1.404-10.919,3.292-16.417,4.802    c-1.526,0.419-3.28,0.572-4.815,0.268c-2.811-0.557-4.702-3.12-4.954-6.038c-0.25-2.886,1.277-5.658,4.082-6.831    c2.606-1.089,5.299-2.004,8.01-2.805c3.978-1.176,7.955-2.463,12.022-3.211c13.701-2.52,25.213,6.503,26.5,20.435    c0.991,10.721-2.951,19.46-10.36,26.921c-7.904,7.959-17.476,12.926-28.176,15.96c-13.129,3.722-26.53,4.458-40.068,3.867    c-11.293-0.494-22.47-2.051-33.625-3.748c-15.303-2.328-30.587-4.782-45.886-7.137c-0.541-0.083-1.278,0.15-1.715,0.497    c-11.534,9.16-23.537,17.666-35.869,25.71c-18.941,12.355-38.849,22.767-60.416,29.788c-14.702,4.787-29.703,7.999-45.245,8.184    c-0.403,0.005-0.805,0.091-1.208,0.14C107.2,500,107.017,500,106.834,500z M179.989,269.102c-0.148-0.055-0.231-0.11-0.314-0.112    c-0.639-0.014-1.278-0.02-1.918-0.025c-11.452-0.076-21.896-3.429-31.182-10.063c-10.896-7.783-16.575-18.366-15.176-31.896    c1.143-11.05,5.985-20.524,14.289-28.062c1.815-1.648,3.801-3.109,5.738-4.681c-0.296-0.181-0.597-0.384-0.915-0.557    c-7.635-4.143-15.462-4.179-23.395-1c-7.286,2.92-13.166,7.808-18.414,13.507c-8.519,9.251-14.744,19.967-19.68,31.451    C79.54,259.731,75,282.862,74.58,306.82c-0.259,14.778,1.231,29.371,5.418,43.607c2.671,9.084,6.327,17.719,12.072,25.335    c4.049,5.368,8.863,9.848,15.229,12.381c7.838,3.118,15.407,2.02,22.767-1.596c7.792-3.829,13.93-9.654,19.325-16.322    c9.103-11.252,15.406-24.03,20.233-37.583c6.206-17.427,9.476-35.432,10.343-53.885    C180.117,275.571,179.989,272.374,179.989,269.102z M230.876,433.427c-0.028-0.117-0.056-0.234-0.084-0.35    c-3.628-0.346-7.252-0.738-10.884-1.029c-22.268-1.782-44.546-2.377-66.835-0.381c-13.58,1.216-27.008,3.328-40.146,7.06    c-10.841,3.079-21.118,7.37-30.23,14.159c-4.573,3.407-8.407,7.472-11.094,12.517c-2.596,4.874-1.546,9.252,2.871,12.548    c3.455,2.579,7.363,4.237,11.498,5.317c13.332,3.482,26.787,3.295,40.253,1.002c17.007-2.896,33.106-8.641,48.634-16.033    c16.389-7.801,31.65-17.502,46.444-27.962C224.507,438.01,227.686,435.711,230.876,433.427z M310.317,248.964    c-1.144,0-1.91-0.011-2.677,0.002c-14.081,0.235-22.71-9.476-25.675-18.585c-2.117-6.504-2.48-13.197-1.7-19.924    c0.943-8.131,3.252-15.677,10.363-20.789c-1.777-0.981-4.599-1.313-6.936-0.886c-3.906,0.713-7.149,2.699-10.066,5.268    c-5.539,4.879-9.577,10.896-12.915,17.404c-6.77,13.201-10.515,27.31-12.329,41.967c-1.671,13.508-1.624,26.987,1.078,40.38    c1.617,8.02,4.029,15.75,8.697,22.599c2.03,2.979,4.442,5.58,7.676,7.295c2.365,1.255,4.869,1.783,7.548,1.353    c3.921-0.629,7.211-2.533,10.17-5.066c6.6-5.65,11.014-12.885,14.701-20.605c5.399-11.305,8.644-23.267,10.437-35.626    C309.39,258.925,309.767,254.053,310.317,248.964z M391.483,89.953c0.385-0.046,0.484-0.035,0.561-0.071    c0.29-0.134,0.574-0.281,0.858-0.427c17.002-8.732,29.056-21.992,36.258-39.674c2.816-6.913,4.705-14.033,4.301-21.582    c-0.215-4.016-1.197-7.845-3.316-11.322c-1.042-1.71-2.531-2.741-4.546-2.902c-2.074-0.165-4.092,0.218-5.663,1.584    c-1.71,1.487-3.365,3.105-4.737,4.901c-4.343,5.682-7.107,12.219-9.697,18.813c-5.404,13.761-9.125,28.016-12.276,42.432    C392.636,84.414,392.079,87.131,391.483,89.953z M179.328,254.961c-0.046-0.7-0.063-1.283-0.127-1.859    c-0.81-7.317-2.104-14.542-4.114-21.63c-2.569-9.059-6.13-17.666-11.476-25.482c-0.606-0.885-1.248-1.199-2.14-0.818    c-1.251,0.534-2.55,1.054-3.645,1.837c-6.805,4.868-10.789,11.574-12.324,19.714c-1.316,6.977,0.704,12.984,5.76,17.984    c4.655,4.603,10.394,7.202,16.562,8.99C171.527,254.772,175.326,255.115,179.328,254.961z M422.991,315.453    c0.241,1.352,0.421,2.475,0.644,3.589c1.153,5.752,2.574,11.419,5.81,16.424c2.394,3.703,5.239,6.994,9.587,8.434    c9.223,3.054,19.419-3.499,20.607-13.18c0.111-0.901,0.191-1.833,0.091-2.73c-0.801-7.249-4.69-12.107-11.654-14.192    C439.612,311.262,431.377,313.302,422.991,315.453z M309.937,234.804c0-0.42,0.036-0.866-0.006-1.304    c-0.214-2.225-0.385-4.456-0.688-6.669c-1.027-7.481-2.634-14.81-5.665-21.78c-0.781-1.796-1.608-3.201-3.852-3.46    c-1.173-0.135-2.013-0.053-2.563,0.918c-0.715,1.261-1.472,2.549-1.882,3.923c-1.882,6.316-2.043,12.753-0.203,19.049    C297.051,232.232,302.37,235.977,309.937,234.804z"/>
	</g>
	<g>
		<path d="M266.538,20.393c2.232,0.132,3.974,1.151,5.531,2.583c5.686,5.226,11.428,10.394,17.043,15.695    c9.037,8.531,18.012,17.127,26.963,25.748c2.366,2.279,4.71,4.619,6.77,7.168c2.778,3.438,1.581,8.182-2.336,10.231    c-2.77,1.45-6.002,0.807-8.389-1.606c-4.819-4.872-9.544-9.847-14.52-14.555c-9.326-8.826-18.803-17.492-28.218-26.224    c-2.412-2.237-4.846-4.452-7.233-6.717c-3.921-3.721-3.031-9.623,1.762-11.649C264.734,20.719,265.659,20.612,266.538,20.393z"/>
		<path d="M318.116,17.279c0.138-3.147,2.163-5.836,5.125-6.653c3.115-0.859,6.332,0.43,7.92,3.41    c0.983,1.845,1.708,3.836,2.456,5.796c5.715,14.97,11.425,29.943,17.095,44.93c1.34,3.543,2.569,7.13,3.759,10.726    c1.299,3.922-0.436,7.619-4.089,8.938c-3.6,1.3-7.427-0.466-8.902-4.283c-1.942-5.023-3.711-10.113-5.615-15.152    c-5.019-13.282-10.071-26.551-15.113-39.825c-0.632-1.665-1.316-3.312-1.901-4.993C318.526,19.237,318.356,18.246,318.116,17.279z    "/>
		<path d="M229.623,55.076c1.956-1.512,4.608-1.68,6.923-0.815c0.146,0.055,0.29,0.114,0.432,0.179    c4.179,1.92,8.277,4.02,12.484,5.876c13.712,6.05,27.463,12.014,41.211,17.982c1.091,0.474,2.225,0.834,3.352,1.215    c3.747,1.265,5.645,4.896,4.547,8.676c-0.971,3.345-4.483,5.588-7.958,4.55c-4.051-1.21-8.017-2.774-11.907-4.446    c-14.337-6.162-28.63-12.427-42.933-18.669c-2.265-0.989-4.552-1.966-6.361-3.714c-1.496-1.445-2.408-3.386-2.393-5.465    C227.036,58.135,228.061,56.284,229.623,55.076z"/>
	</g>
	<g>
		<path d="M499.381,98.91c-0.52,2.642-1.295,6.439-2.012,10.247c-2.913,15.477-6.044,30.917-8.648,46.446    c-3.02,18.012-5.585,36.1-8.321,54.159c-1.238,8.173-2.399,16.357-3.617,24.533c-0.745,4.999-5.063,7.807-9.398,6.146    c-3.057-1.171-4.832-4.202-4.388-7.877c0.526-4.352,1.199-8.687,1.838-13.025c1.624-11.024,3.254-22.047,4.9-33.068    c3.259-21.811,6.628-43.603,10.954-65.235c1.486-7.431,3.007-14.855,4.504-22.283c0.153-0.76,0.266-1.529,0.371-2.297    c0.572-4.183,3.588-6.75,7.59-6.451C496.854,90.482,499.514,93.674,499.381,98.91z"/>
		<path d="M466.883,277.645c-3.993-0.014-8.042-4.07-8.056-8.069c-0.015-4.304,4.273-7.864,9.432-7.831    c3.811,0.024,7.012,3.252,6.974,7.031C475.185,273.486,471.255,277.66,466.883,277.645z"/>
	</g>
</g>















</svg>
