<?xml version="1.0" encoding="UTF-8"?>
<!-- Generator: Adobe Illustrator 25.2.0, SVG Export Plug-In . SVG Version: 6.00 Build 0)  -->
<svg xmlns="http://www.w3.org/2000/svg" xmlns:xlink="http://www.w3.org/1999/xlink" version="1.1" id="Capa_1" x="0px" y="0px" viewBox="0 0 500 500" style="enable-background:new 0 0 500 500;" xml:space="preserve" width="512" height="512">
<g>
	<path d="M328.291,372.105c-1.378-2.661-2.833-5.109-3.955-7.701c-4.159-9.608-8.228-19.256-12.293-28.905   c-4.107-9.751-8.216-19.502-13.732-28.57c-2.195-3.609-4.681-7.009-7.988-9.721c-4.079-3.345-8.802-4.571-13.987-4.213   c-0.551,0.038-1.119,0.318-1.614,0.6c-0.85,0.484-1.635,1.079-2.47,1.59c-3.605,2.204-4.483,2.474-8.707,2.69   c-0.183,2.004-0.411,4.032-0.549,6.066c-1.139,16.814-2.272,33.629-3.384,50.445c-0.592,8.942-1.123,17.889-1.729,26.831   c-0.082,1.209-0.338,2.429-0.686,3.593c-1.017,3.406-4.314,5.654-7.71,5.355c-3.716-0.327-6.686-2.949-6.912-6.621   c-0.175-2.861,0.219-5.757,0.349-8.638c0.585-12.967,1.228-25.933,1.735-38.903c0.681-17.439,2.274-34.8,4.263-52.131   c0.592-5.156,1.262-10.303,1.892-15.454c0.026-0.215,0.003-0.435,0.003-0.968c-1.263,2.117-2.31,3.985-3.463,5.785   c-9.404,14.686-21.826,25.944-37.827,33.075c-2.002,0.892-4.136,1.533-6.263,2.082c-1.083,0.28-1.5,0.675-1.626,1.8   c-1.272,11.362-3.406,22.556-6.618,33.541c-3.701,12.66-8.584,24.807-15.687,35.967c-5.657,8.889-12.374,16.819-21.491,22.394   c-7.703,4.711-15.982,6.886-25.014,5.211c-7.623-1.413-13.962-5.255-19.44-10.617c-6.513-6.374-11.111-14.03-14.721-22.316   c-5.227-11.999-8.144-24.603-9.764-37.55c-1.747-13.961-1.915-27.945-0.667-41.943c1.733-19.439,5.8-38.345,13.424-56.379   c5.072-11.998,11.463-23.188,20.774-32.487c4.545-4.538,9.596-8.392,15.566-10.881c13.133-5.476,25.121-3.21,36.032,5.583   c5.886,4.743,10.234,10.759,13.919,17.306c6.178,10.979,9.747,22.843,12.035,35.145c2.265,12.179,3.091,24.476,2.936,36.85   c-0.009,0.731-0.001,1.461-0.001,2.447c0.625-0.219,1.116-0.345,1.568-0.555c8.652-4.023,16.049-9.726,22.457-16.76   c7.855-8.622,13.09-18.801,17.093-29.6c4.202-11.335,8.048-22.806,11.844-34.285c0.813-2.459,0.816-5.205,1.063-7.831   c1.47-15.604,2.902-31.212,4.345-46.819c0.026-0.286,0.03-0.574,0.052-1.035c-0.714,0.147-1.317,0.236-1.901,0.399   c-14.435,4.037-29.083,7.124-43.902,9.292c-16.808,2.458-33.669,4.544-50.494,6.889c-14.058,1.959-28.15,3.745-42.129,6.172   c-17.715,3.076-34.603,8.739-50.21,17.89c-22.167,12.997-38.746,30.981-48.802,54.74c-2.978,7.035-4.609,14.443-5.033,22.091   c-0.387,6.987,1.443,13.384,5.245,19.226c3.34,5.133,7.247,9.746,12.386,13.199c1.257,0.845,2.537,1.245,4.133,1.041   c3.708-0.474,7.157,2.169,7.98,5.897c0.836,3.789-1.041,7.263-4.674,8.557c-4.213,1.502-8.283,0.951-12.26-0.914   c-5.716-2.68-10.217-6.876-14.32-11.537c-6.553-7.444-11.384-15.792-13.105-25.706c-1.524-8.774-0.417-17.394,1.766-25.9   c4.608-17.945,13.889-33.397,26.079-47.097c17.858-20.069,40.225-33.1,65.723-41.026c14.45-4.492,29.291-7.098,44.254-9.054   c16.411-2.146,32.856-4.041,49.262-6.226c18.637-2.482,37.199-5.447,55.47-9.97c5.031-1.246,9.99-2.78,14.995-4.133   c1.13-0.305,1.6-0.82,1.766-2.069c2.881-21.693,6.115-43.336,11.796-64.505c4.823-17.972,11.659-35.132,22.252-50.579   c5.07-7.393,11.275-13.689,19.207-18.069c17.658-9.751,33.762-0.887,41.299,10.375c7.039,10.518,9.655,22.16,8.463,34.674   c-1.604,16.827-6.56,32.605-15.507,46.987c-8.136,13.08-18.903,23.655-31.516,32.469c-12.733,8.898-26.359,15.983-41.026,21.073   c-0.826,0.287-1.275,0.655-1.369,1.606c-1.282,13.059-2.604,26.115-3.61,39.329c0.278-0.394,0.561-0.784,0.834-1.181   c6.112-8.88,12.863-17.193,21.48-23.798c5.353-4.103,11.035-7.69,17.63-9.463c17.307-4.651,33.716,5.38,37.869,23.352   c2.986,12.921,0.833,25.441-4.241,37.476c-5.696,13.509-14.009,25.299-24.073,35.945c-9.05,9.574-18.952,18.164-29.243,26.339   c-0.447,0.355-0.887,0.719-1.317,1.069c0.12,0.201,0.148,0.321,0.218,0.355c8.143,3.887,13.78,10.367,18.396,17.869   c6.311,10.255,10.934,21.326,15.581,32.389c3.961,9.429,8.015,18.819,12.102,28.194c0.914,2.097,2.135,4.06,3.292,6.229   c2.011-0.852,3.938-1.651,5.852-2.481c12.228-5.308,24.672-10.004,37.658-13.135c9.301-2.243,18.711-3.288,28.273-2.241   c4.707,0.516,9.265,1.621,13.441,3.951c10.507,5.863,14.742,17.253,10.6,28.568c-3.208,8.763-9.236,15.297-16.768,20.478   c-11.688,8.039-24.71,11.03-38.785,9.742c-13.843-1.267-26.119-6.269-36.518-15.533c-3.022-2.692-5.624-5.858-8.415-8.809   c-0.265-0.28-0.507-0.582-0.864-0.996c-3.001,1.568-5.993,3.105-8.963,4.687c-15.098,8.039-29.58,17.12-44.167,26.028   c-17.846,10.899-35.737,21.726-53.666,32.487c-4.951,2.971-10.108,5.597-15.17,8.385c-0.42,0.231-0.827,0.484-1.467,0.862   c3.866,1.337,7.471,2.685,11.139,3.832c11.345,3.549,22.656,7.226,34.088,10.473c15.076,4.281,30.373,7.676,45.874,10.038   c22.2,3.382,44.458,4.032,66.783,1.178c15.099-1.93,29.666-5.817,43.663-11.754c16.704-7.086,30.231-18.327,41.523-32.379   c8.372-10.418,15.414-21.635,19.588-34.417c5.075-15.539,6.677-31.432,4.432-47.694c-2.55-18.477-8.872-35.508-19.677-50.709   c-6.934-9.755-15.409-18.076-26.09-23.742c-16.636-8.825-33.099-7.816-49.002,1.882c-7.285,4.442-13.887,9.888-19.923,15.956   c-2.493,2.506-4.701,5.149-5.68,8.746c-0.91,3.344-4.326,5.261-7.813,4.921c-3.415-0.333-6.409-2.978-6.577-6.449   c-0.105-2.172,0.391-4.48,1.104-6.56c1.257-3.664,3.679-6.687,6.318-9.471c7.968-8.408,16.782-15.935,26.899-21.491   c22.79-12.517,45.522-11.931,67.414,2.361c13.777,8.994,24.477,21.025,32.402,35.46c5.746,10.465,10.394,21.37,13.085,33.062   c2.972,12.912,4.48,25.912,3.446,39.192c-1.65,21.177-8.332,40.531-20.321,58.079c-9.969,14.592-21.859,27.272-36.559,37.196   c-10.65,7.189-22.354,12.086-34.551,15.95c-25.827,8.184-52.313,9.945-79.167,8.324c-21.05-1.27-41.599-5.46-62-10.529   c-22.927-5.697-45.25-13.3-67.399-21.438c-1.455-0.535-2.603-0.488-4.009,0.148c-15.948,7.215-32.268,13.408-49.268,17.701   c-18.909,4.775-38.089,6.568-57.549,5.155c-12.659-0.92-24.934-3.423-36.316-9.31c-16.963-8.774-26.583-22.731-29.314-41.582   c-1.767-12.193,1.77-22.485,10.905-30.718c5.884-5.303,13.097-7.665,20.839-8.635c13.202-1.656,25.901,0.521,38.451,4.601   c21.769,7.078,42.325,16.966,62.986,26.642c12.94,6.06,25.954,11.961,38.917,17.972c1.219,0.566,2.195,0.528,3.421-0.075   c22.966-11.305,44.839-24.515,66.535-38.041c18.41-11.477,36.726-23.114,55.784-33.512   C321.03,375.911,324.593,374.067,328.291,372.105z M162.698,211.22c-3.845-2.847-8.179-4.198-13.027-3.629   c-6.131,0.72-10.962,4.003-15.341,8.06c-6.192,5.737-10.751,12.688-14.594,20.125c-7.055,13.652-11.399,28.211-14.05,43.285   c-3.182,18.099-3.982,36.3-1.826,54.588c1.383,11.726,3.824,23.195,8.507,34.092c3,6.982,6.764,13.469,12.357,18.77   c7.291,6.91,16.213,8.072,24.761,2.795c2.97-1.833,5.756-4.113,8.217-6.594c7.313-7.373,12.308-16.293,16.416-25.743   c5.441-12.517,8.899-25.602,11.12-39.036c0.396-2.393,0.692-4.803,1.047-7.292c-0.815-0.08-1.389-0.159-1.966-0.19   c-19.383-1.022-34.408-16.669-37.659-32.705c-2.222-10.961-2.705-21.978-0.952-33.013   C147.76,231.811,151.867,219.836,162.698,211.22z M174.599,458.745c-4.119-1.931-7.832-3.687-11.559-5.414   c-18.381-8.522-36.695-17.196-55.178-25.489c-10.135-4.548-20.641-8.241-31.434-10.971c-8.994-2.275-18.105-2.759-27.223-0.728   c-8.266,1.841-13.966,7.961-14.606,15.778c-0.197,2.407,0.055,4.906,0.467,7.3c1.903,11.058,7.235,19.94,16.834,26.076   c6.108,3.905,12.777,6.402,19.815,7.876c17.494,3.664,35.057,3.123,52.605,0.435c11.598-1.777,22.861-4.944,33.929-8.786   C163.605,462.962,168.883,460.878,174.599,458.745z M279.54,132.923c0.382-0.055,0.532-0.054,0.666-0.1   c0.37-0.128,0.734-0.273,1.098-0.417c12.849-5.077,24.561-12.141,35.414-20.616c10.437-8.151,18.916-17.997,24.939-29.872   c5.288-10.425,8.384-21.489,9.668-33.075c0.937-8.455-0.334-16.505-4.672-23.939c-3.135-5.372-7.508-9.1-13.922-9.559   c-4.568-0.327-8.465,1.727-12.011,4.414c-5.425,4.11-9.634,9.288-13.153,15.076c-9.352,15.384-15.508,32.048-19.323,49.55   c-2.686,12.324-4.775,24.78-7.052,37.191C280.513,125.273,280.101,129.017,279.54,132.923z M265.135,279.999   c1.85-0.694,3.658-0.979,4.986-1.932c13.191-9.463,25.977-19.44,37.448-30.977c8.067-8.113,15.607-16.659,21.055-26.853   c3.521-6.588,6.769-13.251,7.943-20.736c0.942-6.001,1.381-11.975-0.411-17.906c-2.635-8.718-10.552-13.101-19.219-10.404   c-6.306,1.962-11.467,5.915-16.189,10.384c-12.138,11.487-20.11,25.468-24.948,41.419c-4.592,15.135-7.433,30.602-9.581,46.224   C265.74,272.696,265.509,276.208,265.135,279.999z M350.865,378.296c0.475,0.544,0.816,0.951,1.174,1.342   c8.61,9.378,19.328,14.485,31.952,15.57c11.994,1.03,22.832-1.918,32.041-9.91c3.513-3.049,6.453-6.578,7.81-11.165   c1.033-3.49-0.031-6.806-3.141-8.675c-1.723-1.035-3.725-1.789-5.699-2.19c-6.964-1.417-13.946-0.906-20.87,0.391   c-11.156,2.09-21.822,5.799-32.309,10.054C358.206,375.18,354.619,376.723,350.865,378.296z M187.458,295.274   c0.063-0.492,0.122-0.776,0.132-1.062c0.64-18.533-0.996-36.799-6.878-54.486c-1.568-4.716-3.821-9.206-5.778-13.792   c-0.437-1.023-1.163-1.384-2.373-1.515c-2.266-0.245-3.323,1.156-4.37,2.621c-2.672,3.737-4.585,7.861-5.802,12.284   c-2.81,10.214-2.925,20.562-1.605,31.011c0.954,7.561,4.004,13.912,9.822,18.929C175.434,293.429,181.024,295.268,187.458,295.274z   "/>
	<g>
		<path d="M473.464,230.686c-5.796-0.706-10.996-1.336-16.194-1.972c-11.661-1.428-23.323-2.85-34.983-4.291    c-8.018-0.991-16.036-1.982-24.046-3.032c-2.999-0.393-5.395-1.792-6.562-4.746c-1.08-2.731-0.714-5.31,1.163-7.586    c1.804-2.186,4.24-2.933,6.974-2.643c4.772,0.505,9.536,1.081,14.3,1.659c11.711,1.421,23.419,2.861,35.129,4.292    c8.163,0.998,16.329,1.967,24.487,3.003c3.738,0.475,6.239,2.789,6.93,6.216c0.611,3.029-0.716,6.257-3.469,7.795    C475.911,230.099,474.384,230.377,473.464,230.686z"/>
		<path d="M397.511,192.171c-4.488-0.017-7.486-2.354-8.326-5.705c-0.833-3.325,0.618-6.846,3.832-8.429    c2.49-1.226,5.167-2.084,7.785-3.04c12.041-4.394,24.071-8.82,36.143-13.125c7.74-2.76,15.549-5.325,23.321-7.995    c1.572-0.54,3.085-1.267,4.677-1.729c5.623-1.632,10.778,3.035,9.665,8.753c-0.539,2.77-2.31,4.644-4.884,5.633    c-4.155,1.595-8.357,3.067-12.55,4.561c-17.927,6.389-35.855,12.774-53.789,19.143    C401.141,191.035,398.86,191.729,397.511,192.171z"/>
		<path d="M377.469,156.595c-0.061-2.494,1.112-4.43,2.798-6.103c4.034-4.003,8.122-7.951,12.132-11.977    c12.1-12.148,24.175-24.32,36.252-36.491c0.585-0.589,1.08-1.266,1.631-1.891c2.66-3.016,6.957-3.46,10.2-1.058    c3.278,2.428,4.199,6.649,1.798,10.001c-1.84,2.571-4.048,4.911-6.286,7.159c-14.306,14.374-28.663,28.696-43.013,43.027    c-1.176,1.175-2.321,2.418-3.654,3.391c-2.418,1.766-5.107,1.944-7.776,0.585C378.878,161.874,377.554,159.587,377.469,156.595z"/>
	</g>
</g>















</svg>
