<?xml version="1.0" encoding="UTF-8"?>
<!-- Generator: Adobe Illustrator 25.2.0, SVG Export Plug-In . SVG Version: 6.00 Build 0)  -->
<svg xmlns="http://www.w3.org/2000/svg" xmlns:xlink="http://www.w3.org/1999/xlink" version="1.1" id="Capa_1" x="0px" y="0px" viewBox="0 0 500 500" style="enable-background:new 0 0 500 500;" xml:space="preserve" width="512" height="512">
<g>
	<path d="M75.485,492.018c-2.048-0.42-4.15-0.667-6.135-1.289c-10.704-3.359-17.654-10.706-21.395-21.055   c-3.656-10.112-4.408-20.696-3.11-31.261c2.627-21.389,8.715-41.783,18.496-61.067c5.104-10.063,10.034-20.21,16.824-29.283   c7.326-9.789,14.595-19.687,24.098-27.524c8.484-6.997,17.313-13.577,25.962-20.377c0.447-0.351,0.893-1.034,0.9-1.568   c0.186-14.597,0.314-29.195,0.45-43.793c0.001-0.052-0.038-0.103-0.173-0.45c-0.43,1.337-0.783,2.448-1.144,3.556   c-2.717,8.35-6.011,16.411-11.82,23.178c-7.131,8.307-16.561,9.712-25.834,3.913c-6.756-4.224-10.633-10.553-12.738-17.985   c-1.425-5.031-2.306-10.216-3.434-15.332c-0.077-0.348-0.194-0.687-0.549-1.018c-1.023,5.355-1.991,10.721-3.079,16.062   c-2.7,13.26-5.323,26.544-9.919,39.327c-2.385,6.634-5.173,13.099-9.657,18.603c-2.108,2.587-4.544,5.029-7.223,7.008   c-8.042,5.941-16.864,5.904-25.174,0.349c-7.36-4.92-11.938-11.85-14.697-20.096c-6.221-18.597-7.537-37.614-4.737-56.964   c1.69-11.682,4.26-23.133,9.075-33.981c1.816-4.092,5.222-6.149,9.163-5.566c5.498,0.814,8.825,5.952,6.848,11.147   c-2.78,7.303-5.064,14.721-6.626,22.376c-3.721,18.228-3.75,36.353,1.58,54.298c0.89,2.997,1.986,6.044,3.617,8.677   c1.408,2.274,3.565,4.172,5.665,5.904c1.909,1.574,3.261,1.357,5.289-0.066c3.179-2.231,5.188-5.408,6.923-8.764   c3.884-7.514,6.347-15.556,8.189-23.752c2.663-11.848,5.188-23.734,7.413-35.672c4.898-26.284,9.592-52.606,14.323-78.921   c1.612-8.969,3.06-17.967,4.633-26.943c0.808-4.61,3.55-7.506,7.43-8.032c5.214-0.707,9.663,3.05,9.775,8.579   c0.067,3.301-0.484,6.61-0.606,9.921c-0.528,14.421-1.118,28.843-1.46,43.269c-0.304,12.822-0.55,25.654-0.372,38.475   c0.129,9.298,1.489,18.507,4.47,27.39c1.004,2.99,2.505,5.646,5.359,7.325c1.192,0.701,2.095,0.606,3.046-0.444   c2.756-3.044,4.575-6.64,6.132-10.369c3.941-9.441,6.029-19.383,7.679-29.424c3.86-23.487,5.609-47.197,7.37-70.903   c0.655-8.822,1.299-17.645,1.984-26.464c0.456-5.87,5.317-10.137,11.215-9.917c4.979,0.186,8.388,4.208,8.256,9.518   c-0.206,8.29-0.507,16.584-0.406,24.872c0.355,29.028,0.811,58.055,1.331,87.08c0.554,30.979-0.35,61.934-1.447,92.883   c-0.513,14.473-1.288,28.948-2.396,43.386c-1.264,16.454-4.548,32.589-8.88,48.51c-3.763,13.832-9.363,26.827-17.954,38.359   c-7.081,9.505-15.671,17.316-27.012,21.472c-3.288,1.205-6.83,1.718-10.256,2.547c-0.425,0.103-0.853,0.195-1.279,0.292   C78.14,492.018,76.813,492.018,75.485,492.018z M130.095,321.896c-0.066,0.039-0.307,0.155-0.523,0.306   c-15.828,11.049-28.781,24.93-38.979,41.193c-11.648,18.575-20.858,38.308-25.639,59.897c-2.157,9.742-4.155,19.474-3.05,29.535   c0.532,4.843,1.115,9.698,3.592,14.03c3.016,5.273,8.265,9.336,16.14,7.301c6.122-1.582,11.204-4.847,15.769-9.086   c8.86-8.227,14.475-18.559,18.518-29.701c6.731-18.549,10.262-37.856,11.912-57.46c1.135-13.492,1.607-27.043,2.223-40.575   C130.29,332.216,130.095,327.077,130.095,321.896z"/>
	<path d="M365.533,293.995c2.015-1.638,3.784-3.112,5.592-4.539c8.98-7.085,18.457-13.342,29.237-17.4   c9.516-3.583,19.315-5.377,29.435-3.667c12.332,2.084,21.428,8.46,25.213,20.865c2.909,9.533,1.067,18.693-3.588,27.215   c-7.333,13.427-18.824,21.733-33.417,25.871c-10.109,2.866-20.41,2.966-30.769,1.834c-8.587-0.938-16.991-2.783-25.287-5.153   c-0.471-0.134-0.956-0.219-1.333-0.304c-2.253,9.167-4.488,18.263-6.779,27.58c0.677,0.382,1.569,0.904,2.478,1.395   c12.36,6.666,24.844,13.07,38.238,17.463c9.877,3.239,19.955,4.77,30.372,3.436c12.356-1.582,22.906-6.977,31.799-15.477   c13.206-12.622,21.309-28.141,24.418-46.096c3.994-23.062,1.049-45.295-9.411-66.309c-6.332-12.722-15.714-22.638-28.645-28.942   c-10.136-4.941-20.612-5.698-31.477-2.849c-6.674,1.75-13.416,3.239-20.131,4.836c-0.914,0.217-1.836,0.413-2.764,0.552   c-4.802,0.715-9.043-2.117-9.983-6.645c-0.961-4.627,1.815-8.911,6.635-10.119c3.912-0.98,7.839-1.904,11.774-2.787   c6.462-1.45,12.882-3.204,19.417-4.187c12.908-1.943,25.07,0.875,36.489,6.976c17.963,9.597,29.979,24.488,37.602,43.08   c7.948,19.386,10.738,39.561,8.721,60.43c-2.03,21.013-9.679,39.712-22.921,56.107c-9.604,11.892-21.541,20.59-36.086,25.495   c-11.659,3.931-23.596,4.507-35.706,2.599c-14.937-2.354-28.589-8.326-42.02-14.903c-5.009-2.453-9.926-5.095-15.057-7.739   c-0.249,0.498-0.533,1.005-0.762,1.534c-5.487,12.667-12.561,24.376-21.51,34.886c-12.912,15.163-28.59,26.522-47.818,32.066   c-26.888,7.753-51.728,3.299-73.513-14.72c-13.146-10.874-20.749-25.372-25.277-41.581c-3.658-13.093-4.511-26.482-0.54-39.478   c8.134-26.616,24.123-46.615,50.96-56.558c11.096-4.111,22.66-5.253,34.422-4.982c11.741,0.271,23.249,2.203,34.402,5.681   c14.598,4.553,29.012,9.695,43.516,14.554c0.828,0.278,2.099,0.712,2.555,0.336c1.175-0.969,2.651-1.861,2.792-3.709   c0.341-4.466,0.823-8.922,1.086-13.391c1.026-17.443,1.989-34.889,2.973-52.334c0.012-0.218,0.001-0.438,0.001-1.165   c-0.575,0.794-0.869,1.265-1.226,1.684c-3.078,3.609-5.849,7.554-9.312,10.747c-10.832,9.986-24.769,7.008-33.007-0.368   c-4.278-3.83-7.224-8.609-9.761-14.123c-0.329,0.761-0.52,1.283-0.772,1.774c-2.611,5.107-4.896,10.423-7.968,15.237   c-2.066,3.238-4.958,6.129-7.987,8.536c-7.642,6.071-17.218,5.352-24.259-1.412c-5.657-5.434-9.022-12.234-11.513-19.524   c-3.431-10.042-4.384-20.5-5.065-30.998c-0.046-0.706-0.139-1.408-0.411-2.113c-0.713,4.487-1.363,8.985-2.153,13.459   c-2.222,12.595-5.093,25.027-10.665,36.627c-1.71,3.56-3.781,7.04-6.217,10.141c-8.671,11.037-22.648,13.181-34.323,5.325   c-9.333-6.28-15.262-15.069-18.149-25.907c-6.273-23.555-7.7-47.389-3.973-71.501c2.239-14.485,5.837-28.575,12.303-41.818   c4.049-8.291,8.758-16.134,15.454-22.615c10.121-9.797,22.449-12.022,35.259-6.147c3.541,1.624,6.826,3.806,10.345,5.797   c0.125-0.244,0.38-0.764,0.653-1.275c2.251-4.203,7.351-5.815,11.548-3.554c3.354,1.807,5.711,4.449,5.848,8.451   c0.268,7.846,0.494,15.696,0.597,23.545c0.281,21.233,0.392,42.469,0.768,63.701c0.172,9.728,0.901,19.444,3.177,28.953   c1.294,5.405,3.253,10.567,6.65,15.058c2.44,3.226,3.105,3.262,5.899,0.257c3.366-3.622,5.533-7.988,7.357-12.509   c4.483-11.116,7.152-22.73,9.221-34.496c2.516-14.307,5.247-28.582,7.44-42.94c2.116-13.856,2.934-27.827,1.15-41.814   c-0.361-2.826-1.008-5.684-2.026-8.334c-0.721-1.876-2.04-3.698-3.53-5.068c-3.375-3.105-4.284-7.641-1.891-11.37   c2.387-3.72,6.97-4.953,11.102-3.023c2.483,1.16,4.302,3.048,5.948,5.168c4.051,5.22,5.929,11.298,7.066,17.678   c1.316,7.384,1.114,14.858,1.497,22.307c0.656,12.762-2.005,25.187-3.059,37.769c-1.191,14.209-3.175,28.356-2.966,42.661   c0.119,8.125,1.691,15.861,6.575,22.544c1.255,1.717,3.059,3.206,4.915,4.266c2.519,1.439,5.127,0.956,7.365-0.997   c3.372-2.944,5.975-6.507,8.245-10.325c4.975-8.364,7.722-17.566,9.934-26.942c3.699-15.676,6.029-31.591,7.64-47.594   c2.076-20.624,3.835-41.28,5.742-61.921c0.249-2.695,0.531-5.388,0.858-8.075c0.582-4.771,8.409-9.65,13.149-7.879   c3.378,1.262,5.69,3.545,5.77,7.14c0.088,3.957-0.279,7.955-0.801,11.888c-3.081,23.187-5.518,46.433-6.828,69.794   c-1.643,29.315-3.352,58.627-5.022,87.941c-0.655,11.483-1.285,22.967-1.921,34.45   C365.507,292.553,365.533,293.103,365.533,293.995z M332.308,374.218c-4.57-2.364-9.077-4.587-13.468-7.019   c-1.768-0.98-2.885-0.818-4.448,0.514c-4.162,3.546-8.414,7.017-12.868,10.182c-11.617,8.253-24.105,14.601-38.489,16.369   c-7.94,0.976-15.724,0.34-22.913-3.471c-8.137-4.313-13.051-10.928-12.877-20.422c0.119-6.518,3.355-11.861,7.841-16.359   c13.291-13.325,29.68-17.702,47.98-16.135c9.988,0.856,19.527,3.64,28.792,7.384c1.042,0.421,1.67,0.263,2.44-0.516   c5.132-5.19,10.311-10.332,15.47-15.495c0.218-0.218,0.382-0.489,0.652-0.84c-0.623-0.255-1.115-0.482-1.624-0.66   c-8.03-2.803-16.024-5.714-24.102-8.372c-13.15-4.326-26.493-7.814-40.433-8.351c-10.933-0.421-21.636,0.711-31.869,4.858   c-13.867,5.621-23.869,15.529-31.087,28.399c-3.549,6.326-6.65,12.881-7.621,20.195c-2.528,19.047,2.559,36.162,14.114,51.179   c15.896,20.659,43.36,25.717,64.675,19.072c15.395-4.799,28.181-13.626,38.739-25.702   C320.203,398.743,327.07,387.13,332.308,374.218z M213.734,124.787c-0.386,0.02-0.771,0.038-1.157,0.06   c-4.056,0.229-7.006,2.528-9.635,5.298c-6.393,6.734-10.559,14.856-13.897,23.375c-6.541,16.697-9.484,34.123-9.693,52.011   c-0.178,15.225,1.565,30.226,5.984,44.843c1.828,6.046,5.506,10.807,10.772,14.262c3.892,2.554,7.9,1.966,10.752-1.626   c1.534-1.932,2.917-4.051,3.992-6.267c5.387-11.106,8.049-23.031,9.954-35.114c1.936-12.279,3.449-24.624,5.238-36.927   c2.074-14.269,4.253-28.523,6.357-42.788c0.109-0.738,0.139-1.603-0.141-2.261c-0.734-1.724-1.626-3.385-2.518-5.037   C226.307,128.256,220.392,125.923,213.734,124.787z M362.775,321.241c0.794,0.278,1.151,0.419,1.518,0.53   c10.452,3.165,21.075,5.456,32.025,5.827c9.304,0.315,18.348-0.939,26.522-5.754c8.062-4.749,14.078-11.207,15.936-20.752   c1.496-7.683-2.173-13.547-9.793-15.265c-2.868-0.647-5.924-0.835-8.869-0.695c-8.821,0.421-16.766,3.732-24.283,8.112   c-11.941,6.959-22.109,16.147-31.911,25.767C363.395,319.527,363.202,320.382,362.775,321.241z M298.608,358.959   c-0.623-0.367-0.754-0.482-0.906-0.529c-9.478-2.957-19.103-4.651-29.047-3.08c-8.547,1.351-16.033,4.882-21.887,11.387   c-3.595,3.994-2.831,7.018,2.106,9.207c0.403,0.178,0.814,0.349,1.235,0.476c4.05,1.222,8.165,1.249,12.301,0.586   c8.31-1.333,15.866-4.651,22.938-9.065C289.782,365.173,294.015,362.086,298.608,358.959z M338.208,357.909   c1.397-5.582,2.727-10.902,4.03-16.111c-4.053,3.905-8.08,7.784-12.23,11.783C332.712,355.007,335.288,356.367,338.208,357.909z"/>
	<g>
		<path d="M400.539,161.863c1.64-23.718,3.026-47.456,5-71.146c1.592-19.111,3.828-38.171,5.927-57.237    c0.579-5.261,1.549-10.494,2.626-15.68c0.449-2.164,1.357-4.363,2.566-6.213c2.286-3.498,6.74-4.513,10.451-2.767    c3.698,1.74,5.696,5.81,4.535,9.839c-2.262,7.855-3.098,15.946-3.962,24.008c-1.997,18.633-3.881,37.281-5.553,55.945    c-1.065,11.892-1.685,23.824-2.469,35.741c-0.614,9.324-1.166,18.652-1.766,27.978c-0.078,1.211-0.181,2.435-0.439,3.617    c-0.934,4.281-4.705,7.098-8.961,6.772c-4.279-0.328-7.537-3.649-7.839-8.03c-0.064-0.935-0.009-1.878-0.009-2.816    C400.611,161.87,400.575,161.867,400.539,161.863z"/>
		<path d="M406.455,182.979c4.756-0.035,8.577,3.697,8.631,8.43c0.062,5.446-4.065,10.066-9.079,10.163    c-4.765,0.092-8.83-3.953-8.896-8.853C397.042,187.656,401.494,183.015,406.455,182.979z"/>
	</g>
</g>















</svg>
