<?xml version="1.0" encoding="UTF-8"?>
<!-- Generator: Adobe Illustrator 25.2.0, SVG Export Plug-In . SVG Version: 6.00 Build 0)  -->
<svg xmlns="http://www.w3.org/2000/svg" xmlns:xlink="http://www.w3.org/1999/xlink" version="1.1" id="Capa_1" x="0px" y="0px" viewBox="0 0 500 500" style="enable-background:new 0 0 500 500;" xml:space="preserve" width="512" height="512">
<g>
	<g>
		<g>
			<path d="M79.399,316.066c0.182-0.278,0.386-0.544,0.542-0.835c8.33-15.575,16.88-31.038,24.904-46.769     c5.222-10.237,9.713-20.848,14.446-31.331c0.772-1.71,1.113-3.617,1.632-5.439c0.571-2.006,1.92-2.744,3.791-1.855     c3.22,1.529,6.478,3.015,9.555,4.805c5.429,3.158,9.073,7.945,10.522,13.982c2.334,9.723,4.306,19.538,6.253,29.349     c1.858,9.363,3.489,18.771,5.272,28.441c0.348-0.472,0.571-0.698,0.706-0.968c14.286-28.649,26.742-58.092,37.637-88.177     c4.459-12.313,8.069-24.934,12.052-37.419c0.549-1.72,1.698-2.748,3.293-2.349c6.538,1.635,12.768,3.878,17.384,9.211     c3.952,4.565,4.295,9.838,3.35,15.445c-1.655,9.821-5.313,19.016-8.626,28.339c-10.655,29.989-23.232,59.206-35.255,88.648     c-5.831,14.278-11.852,28.464-18.93,42.171c-1.294,2.506-3.155,4.773-5.032,6.906c-1.125,1.279-2.648,1.787-4.402,0.329     c-1.097-0.912-2.736-1.149-4.087-1.784c-2.808-1.321-5.621-2.639-8.372-4.075c-10.277-5.364-14.661-14.498-16.039-25.455     c-1.551-12.336-2.995-24.685-4.488-37.028c-0.033-0.269-0.097-0.534-0.226-1.231c-0.441,0.805-0.703,1.265-0.949,1.735     c-10.097,19.258-20.185,38.522-30.301,57.771c-1.097,2.086-2.312,4.115-3.561,6.115c-1.177,1.885-2.322,2.31-4.396,1.495     c-3.05-1.197-6.153-2.337-9.032-3.878c-7.96-4.259-15.857-8.64-23.699-13.114c-6.33-3.612-10.391-9.377-13.748-15.608     c-2.489-4.62-2.187-9.68-1.353-14.694c2.54-15.273,7.425-29.874,12.535-44.433c7.862-22.404,15.445-44.906,23.252-67.329     c4.081-11.721,8.416-23.354,12.571-35.05c0.883-2.486,1.512-5.065,2.202-7.616c0.332-1.227,1.061-2.049,2.309-1.867     c9.364,1.361,18.225,3.639,23.557,12.623c2.857,4.814,3.045,9.876,2.074,15.183c-2.024,11.059-5.25,21.795-8.669,32.476     c-5.593,17.47-11.375,34.882-16.849,52.389c-4.102,13.116-7.847,26.343-11.745,39.522c-0.125,0.423-0.191,0.863-0.284,1.295     C79.263,316.015,79.331,316.04,79.399,316.066z"/>
			<path d="M271.398,154.119c-4.614,0-9.042-0.045-13.468,0.008c-19.342,0.228-38.684,0.453-58.024,0.743     c-11.11,0.167-22.217,0.55-33.327,0.656c-6.971,0.067-13.927-0.342-20.707-2.245c-4.325-1.214-8.17-3.394-11.854-5.871     c-3.578-2.405-5.646-5.836-6.364-10.072c-0.813-4.804-0.903-9.623-0.12-14.438c0.436-2.682,1.852-3.561,4.431-2.642     c7.259,2.587,14.754,3.599,22.412,3.27c28.601-1.229,57.218-0.544,85.827-0.828c28.784-0.287,57.563-1.067,86.347-1.219     c16.628-0.088,33.264,0.538,49.89,1.047c6.909,0.212,13.701,1.457,20.388,3.346c12.026,3.397,18.964,11.412,21.647,23.362     c0.564,2.511,0.827,5.107,1.015,7.68c0.145,1.989-0.747,3.023-2.739,2.935c-5.279-0.233-10.591-0.388-15.813-1.122     c-10.275-1.445-20.578-2.279-30.936-2.799c-13.224-0.664-26.42-1.891-39.646-2.474c-8.781-0.388-17.592-0.073-26.354-0.073     c-0.64,3.844-0.976,7.402-1.849,10.822c-3.066,12.012-7.773,23.454-12.495,34.881c-8.701,21.052-16.672,42.379-24.38,63.813     c-9.931,27.614-21.541,54.561-32.72,81.679c-2.125,5.156-4.007,10.413-5.975,15.633c-0.24,0.637-0.373,1.326-0.467,2.004     c-0.238,1.718-1.043,2.464-2.661,2.014c-4.262-1.186-8.597-2.223-12.703-3.831c-7.657-2.998-11.487-10.58-10.139-19.109     c1.603-10.14,5.17-19.677,9.029-29.098c8.044-19.634,16.558-39.081,24.318-58.825c9.737-24.774,18.918-49.766,28.325-74.669     c2.987-7.907,5.932-15.83,8.891-23.747C271.273,154.687,271.322,154.408,271.398,154.119z"/>
			<path d="M341.874,245.091c3.695,0.24,7.2,0.28,10.652,0.73c6.834,0.892,13.661,1.878,20.446,3.082     c4.447,0.789,7.049,3.726,8.243,8.093c1.542,5.643,2.38,11.371,2.567,17.202c0.101,3.151-1.287,4.414-4.41,4.256     c-17.076-0.862-34.154-1.687-51.229-2.577c-1.395-0.073-2.178,0.297-2.799,1.594c-6.061,12.656-12.223,25.263-18.272,37.925     c-7.413,15.518-14.749,31.073-22.105,46.618c-0.811,1.715-1.491,3.492-2.303,5.207c-1.122,2.367-2.867,2.829-5.06,1.341     c-3.619-2.455-7.12-5.098-10.837-7.391c-6.189-3.817-7.851-9.607-6.584-16.126c1.189-6.119,3.141-12.117,5.109-18.052     c6.426-19.372,15.408-37.676,23.845-56.2c10.157-22.299,20.464-44.53,30.738-66.776c0.589-1.276,0.669-2.39,0.231-3.75     c-1.62-5.025-3.15-10.081-4.615-15.154c-0.806-2.795-0.287-3.486,2.547-3.567c8.855-0.252,17.715-0.346,26.565-0.699     c11.443-0.457,22.876-1.185,34.319-1.646c10.064-0.405,20.14-0.933,30.204-0.805c10.967,0.139,15.577,4.272,17.79,15.006     c0.718,3.482,1.062,7.053,1.391,10.6c0.253,2.715-1.223,4.087-3.838,3.748c-10.827-1.403-21.703-1.619-32.575-1.002     c-11.027,0.625-22.035,1.6-33.048,2.474c-0.485,0.038-1.242,0.511-1.345,0.916c-2.273,8.894-6.532,16.931-10.676,25.02     c-1.39,2.713-2.774,5.43-4.152,8.15C342.421,243.809,342.213,244.332,341.874,245.091z"/>
		</g>
		<g>
			<path d="M425.938,314.09c-3.745,11.156-7.481,22.328-11.25,33.489c-0.996,2.948-2.133,3.452-4.929,2.144     c-2.133-0.997-4.291-1.996-6.267-3.261c-5.736-3.67-8.299-9.73-6.434-16.274c3.277-11.5,6.908-22.899,10.331-34.358     c0.759-2.542,2.24-3.639,4.934-3.89c4.57-0.425,9.195-0.9,13.628-2.022c15.427-3.905,27.102-12.56,33.411-27.581     c1.72-4.097,2.667-8.404,3.169-12.95c-4.67-0.891-9.167-0.509-13.637,0.376c-10.976,2.173-20.495,7.023-28.166,15.316     c-2.564,2.771-4.288,2.765-7.01,0.125c-2.396-2.323-4.828-4.635-6.981-7.176c-3.31-3.907-5.576-8.385-4.1-13.632     c0.708-2.516,2.073-5.054,3.766-7.05c6.683-7.876,15.552-12.267,25.362-14.862c8.361-2.212,16.833-3.24,25.463-1.591     c5.566,1.063,9.844,3.84,12.767,8.803c5.248,8.909,9.783,18.119,12.457,28.152c1.781,6.684,1.316,13.153-1.631,19.516     c-9.542,20.603-25.731,32.499-47.81,36.668C430.693,314.469,428.222,314.09,425.938,314.09z"/>
			<path d="M384.904,373.167c0.218-1.067,0.447-2.904,0.98-4.647c1.227-4.006,2.564-7.979,3.93-11.94     c0.975-2.826,2.295-3.338,5.006-1.978c3.439,1.726,6.91,3.404,10.246,5.313c4.34,2.483,5.882,5.793,4.624,10.586     c-1.28,4.875-2.932,9.66-4.587,14.427c-0.848,2.443-2.218,3.073-4.59,2.183c-3.537-1.326-7.136-2.604-10.44-4.398     C386.768,380.92,384.945,377.854,384.904,373.167z"/>
		</g>
	</g>
	<g>
		<path d="M345.103,391.251c0.323,0.782,0.315,1.66-0.011,2.442c-0.178,0.428-0.362,0.799-0.643,1.068    c-6.444,6.15-10.207,13.968-13.771,21.916c-0.141,0.315-0.246,0.645-0.384,0.961c-0.484,1.112-1.135,2.03-2.518,2.005    c-1.379-0.025-2.072-0.924-2.429-2.093c-2.423-7.931-6.097-15.253-10.626-22.179c-1.086-1.661-0.89-3.837,0.459-5.293    c5.812-6.276,10.454-13.347,14.472-20.86c0.638-1.193,1.61-2.285,2.979-1.782c0.976,0.359,2.13,1.374,2.402,2.326    c1.869,6.541,4.738,12.572,8.492,18.23C344.187,388.99,344.638,390.127,345.103,391.251z"/>
		<path d="M50.994,164.321c-0.508,0.49-1.239,0.71-1.917,0.513c-1.153-0.335-1.63-1.114-2.062-1.993    c-1.75-3.559-3.426-7.162-5.351-10.626c-1.503-2.706-3.228-5.307-5.053-7.809c-1.491-2.044-1.646-3.974-0.295-6.05    c0.783-1.205,1.599-2.39,2.443-3.553c3.245-4.472,5.167-9.597,7.269-14.635c0.399-0.956,0.773-1.947,1.323-2.814    c1.276-2.014,3.535-1.985,4.685,0.103c0.358,0.65,0.611,1.377,0.796,2.098c1.989,7.761,6.572,14.247,10.301,21.156    c0.311,0.578,0.277,1.827-0.128,2.233c-5.598,5.597-8.334,12.717-10.948,19.939C51.852,163.445,51.408,163.922,50.994,164.321z"/>
		<path d="M16.71,265.654c-0.913,1.893-3.426,2.309-4.874,0.786c-0.249-0.262-0.465-0.541-0.62-0.851    c-0.918-1.835-1.583-3.823-2.139-5.808c-1.426-5.083-4.111-9.445-7.328-13.557c-2.548-3.257-2.207-4.21,0.347-7.483    c3.774-4.836,7.192-9.951,10.752-14.954c0.532-0.748,0.931-1.603,1.527-2.291c1.598-1.846,4.071-1.436,4.989,0.815    c0.279,0.683,0.42,1.435,0.535,2.169c0.804,5.167,2.91,9.774,5.943,13.992c0.671,0.934,1.331,1.876,1.971,2.832    c1.673,2.5,1.681,3.765-0.371,5.995c-4.714,5.124-7.869,11.142-10.384,17.552C16.942,265.144,16.827,265.411,16.71,265.654z"/>
		<path d="M122.35,414.092c-0.357-0.806-0.39-1.722-0.092-2.551c0.338-0.939,0.656-1.831,1.107-2.649    c3.47-6.283,7.012-12.526,10.522-18.787c0.652-1.162,1.431-2.156,2.938-1.965c1.598,0.202,2.221,1.413,2.369,2.79    c0.782,7.236,3.886,13.531,7.789,19.51c1.008,1.544,1.359,3.072,0.031,4.582c-4.485,5.095-7.14,11.213-9.776,17.348    c-0.619,1.441-0.934,3.351-3.006,3.311c-2.145-0.041-2.291-2.042-3.005-3.513c-2.506-5.16-5.11-10.273-7.655-15.414    C123.144,415.887,122.752,415.001,122.35,414.092z"/>
		<path d="M261.919,57.15c1.327-1.313,3.528-1.261,4.891,0.015c0.044,0.041,0.087,0.082,0.129,0.125    c0.414,0.414,0.624,1.106,0.762,1.711c1.372,6.004,3.942,11.512,6.857,16.891c1.062,1.959,0.722,4.387-0.873,5.943    c-1.575,1.536-3.068,3.255-4.215,5.13c-2.426,3.964-4.588,8.088-6.96,12.086c-0.377,0.636-1.31,1.36-1.938,1.318    c-0.725-0.048-1.704-0.753-2.027-1.432c-0.607-1.277-0.685-2.796-1.226-4.115c-1.983-4.832-3.992-9.656-6.146-14.414    c-0.919-2.032-1.172-3.912,0.341-5.628c4.097-4.643,6.772-10.105,9.291-15.673c0.307-0.678,0.588-1.432,1.093-1.939    C261.906,57.163,261.913,57.156,261.919,57.15z"/>
		<g>
			<path d="M36.436,398.247c-0.025,0.295,0.068,0.773-0.12,1.078c-0.339,0.549-0.789,1.298-1.301,1.395     c-0.472,0.089-1.334-0.436-1.59-0.921c-0.802-1.518-1.573-3.094-2.039-4.738c-1.066-3.757-1.996-7.556-2.847-11.368     c-0.136-0.611,0.422-1.378,0.659-2.072c0.671,0.288,1.77,0.416,1.947,0.889c1.828,4.89,3.511,9.835,5.219,14.77     C36.455,397.543,36.411,397.852,36.436,398.247z"/>
			<path d="M41.142,399.625c0.591-6.168,2.263-11.452,4.452-16.589c0.407-0.954,1.082-1.776,2.247-1.33     c1.167,0.447,1.044,1.458,0.771,2.483c-1.139,4.262-2.22,8.54-3.382,12.796c-0.269,0.986-0.639,2.001-1.216,2.825     c-0.389,0.555-1.262,1.139-1.847,1.073C41.682,400.828,41.303,399.842,41.142,399.625z"/>
			<path d="M52.334,407.193c-0.981-0.801-2.174-1.308-2.508-2.155c-0.52-1.319,0.673-2.154,1.813-2.445     c4.272-1.09,8.563-2.116,12.879-3.009c0.644-0.133,1.694,0.404,2.109,0.962c0.231,0.311-0.298,1.752-0.767,1.927     C61.473,404.109,57.025,405.582,52.334,407.193z"/>
			<path d="M31.587,413.678c-0.217,0.393-0.438,1.083-0.887,1.558c-1.452,1.539-2.965,3.023-4.497,4.484     c-1.866,1.78-3.725,3.574-5.7,5.227c-0.478,0.4-1.537,0.544-2.075,0.282c-0.373-0.181-0.421-1.26-0.404-1.933     c0.01-0.397,0.367-0.844,0.676-1.165c2.898-3.016,5.792-6.037,8.756-8.987c0.581-0.579,1.416-1.023,2.213-1.237     C30.799,411.604,31.564,412.117,31.587,413.678z"/>
			<path d="M41.433,432.161c-0.027,0.639-0.709,1.25-1.092,1.874c-0.598-0.438-1.626-0.796-1.725-1.326     c-0.825-4.448-1.537-8.921-2.139-13.405c-0.124-0.925-0.087-2.253,1.307-2.464c1.426-0.217,2.186,0.836,2.406,1.986     C40.717,421.577,41.503,430.506,41.433,432.161z"/>
			<path d="M16.423,400.022c2.743,0.283,5.497,0.496,8.225,0.886c0.927,0.133,1.888,0.581,2.646,1.139     c0.444,0.327,0.768,1.198,0.677,1.747c-0.068,0.411-0.864,0.948-1.373,0.99c-1.363,0.113-2.769,0.141-4.116-0.068     c-3.066-0.474-6.11-1.094-9.156-1.69c-0.941-0.184-2.006-0.604-1.636-1.736c0.181-0.553,1.236-0.986,1.968-1.15     c0.877-0.196,1.831-0.046,2.751-0.046C16.414,400.071,16.418,400.047,16.423,400.022z"/>
			<path d="M59.663,422.822c-0.204,1.348-0.948,1.895-1.866,1.434c-3.745-1.879-7.595-3.67-10.179-7.177     c-0.37-0.502-0.26-1.357-0.372-2.048c0.655-0.095,1.362-0.393,1.952-0.24c0.925,0.241,1.869,0.655,2.633,1.226     c2.349,1.755,4.636,3.595,6.901,5.459C59.181,421.845,59.425,422.466,59.663,422.822z"/>
		</g>
		<g>
			<path d="M238.376,422.096c-0.328-0.179-1.038-0.341-1.124-0.667c-0.139-0.525-0.072-1.36,0.271-1.709     c0.956-0.975,1.996-1.957,3.186-2.595c3.185-1.707,6.435-3.306,9.737-4.771c0.63-0.279,1.619,0.253,2.443,0.411     c-0.202,0.768-0.161,1.958-0.644,2.236c-4.116,2.369-8.323,4.579-12.517,6.811C239.389,421.993,238.949,421.982,238.376,422.096z     "/>
			<path d="M222.966,428.939c-0.153,0.353-0.361,1.082-0.752,1.695c-2.345,3.678-4.691,7.359-7.156,10.956     c-0.327,0.477-1.403,0.753-2.007,0.606c-0.35-0.085-0.824-1.395-0.603-1.821c2.131-4.107,4.376-8.156,6.653-12.186     c0.288-0.51,0.9-0.908,1.448-1.187C221.869,426.33,223.012,427.096,222.966,428.939z"/>
			<path d="M235.086,444.326c-0.04,1.394-1.079,1.993-2.165,1.341c-0.379-0.228-0.719-0.592-0.957-0.97     c-1.897-3.012-3.814-6.013-5.611-9.084c-0.535-0.913-0.875-2.016-1.01-3.069c-0.191-1.496,0.867-2.218,2.144-1.432     c0.997,0.614,2.042,1.458,2.576,2.46c1.75,3.287,3.282,6.69,4.882,10.056C235.064,443.879,235.06,444.187,235.086,444.326z"/>
			<path d="M212.995,418.493c0.531,0.386,1.571,0.755,1.729,1.356c0.185,0.702-0.282,1.674-0.694,2.398     c-0.248,0.436-0.899,0.711-1.425,0.911c-3.484,1.325-6.967,2.657-10.496,3.855c-0.523,0.177-1.637-0.168-1.838-0.583     c-0.239-0.49,0.137-1.351,0.404-1.985c0.133-0.315,0.597-0.524,0.948-0.708c2.795-1.464,5.582-2.945,8.411-4.342     C210.842,418.996,211.777,418.854,212.995,418.493z"/>
			<path d="M245.232,436.756c-0.684-0.339-1.316-0.521-1.782-0.905c-2.619-2.151-5.202-4.346-7.785-6.54     c-0.302-0.257-0.672-0.572-0.756-0.921c-0.185-0.773-0.559-1.992-0.216-2.287c0.536-0.462,1.713-0.612,2.417-0.35     c1.156,0.428,2.297,1.141,3.185,2.003c2.102,2.039,4.086,4.205,6.027,6.399c0.334,0.377,0.427,1.219,0.253,1.713     C246.436,436.263,245.722,436.455,245.232,436.756z"/>
			<path d="M214.916,414.777c-0.419-0.185-1.299-0.389-1.951-0.89c-2.585-1.989-5.156-4.006-7.591-6.172     c-0.514-0.458-0.43-1.589-0.622-2.41c0.822-0.069,1.825-0.474,2.433-0.146c2.366,1.273,4.677,2.679,6.864,4.238     c1.086,0.774,1.994,1.897,2.739,3.024C217.634,413.696,216.873,414.805,214.916,414.777z"/>
			<path d="M231.74,413.632c0.312-0.954,0.483-1.817,0.862-2.576c1.591-3.181,3.222-6.343,4.891-9.484     c0.469-0.882,1.174-1.765,2.326-1.168c1.098,0.568,0.674,1.566,0.319,2.43c-1.202,2.919-2.334,5.872-3.674,8.727     c-0.542,1.155-1.482,2.159-2.386,3.09c-0.29,0.298-1.113,0.311-1.572,0.137C232.149,414.653,231.981,414.024,231.74,413.632z"/>
			<path d="M223.264,399.536c0.034-0.493,0.586-0.951,0.901-1.425c0.516,0.349,1.447,0.658,1.484,1.053     c0.4,4.2,0.718,8.411,0.911,12.625c0.042,0.926-0.474,2.203-1.709,1.838c-0.68-0.201-1.439-1.306-1.538-2.083     C223.018,409.226,223.15,401.19,223.264,399.536z"/>
		</g>
		<g>
			<path d="M148.996,54.069c0.528,0.925,1.252,1.793,1.546,2.787c0.879,2.976,1.613,5.995,2.351,9.01     c0.189,0.772,0.386,1.639,0.213,2.376c-0.173,0.738-0.744,1.864-1.249,1.925c-0.695,0.084-1.73-0.497-2.185-1.114     c-0.583-0.79-0.89-1.875-1.042-2.874c-0.501-3.296-0.948-6.604-1.247-9.923c-0.063-0.696,0.596-1.457,0.922-2.188     C148.536,54.069,148.766,54.069,148.996,54.069z"/>
			<path d="M144.778,78.472c-0.246,0.36-0.533,1.133-1.089,1.532c-3.447,2.476-6.935,4.897-10.47,7.245     c-0.365,0.242-1.275,0.063-1.661-0.252c-0.31-0.254-0.219-1.009-0.284-1.544c-0.012-0.098,0.059-0.234,0.135-0.31     c3.227-3.259,6.336-6.691,10.704-8.475C143.571,76.072,144.802,76.879,144.778,78.472z"/>
			<path d="M157.29,70.445c0.522-1.495,0.823-2.861,1.451-4.055c1.761-3.35,3.648-6.634,5.508-9.931     c0.455-0.807,1.091-1.834,2.079-1.103c0.449,0.332,0.554,1.706,0.265,2.367c-1.86,4.254-3.871,8.443-5.837,12.65     c-0.121,0.259-0.223,0.589-0.436,0.731c-0.576,0.383-1.255,1-1.801,0.917C158.054,71.951,157.718,71.036,157.29,70.445z"/>
			<path d="M143.595,72.95c-1.762-0.661-3.228-1.146-4.641-1.756c-2.105-0.909-4.223-1.815-6.224-2.924     c-0.578-0.32-0.775-1.33-1.146-2.024c0.72-0.315,1.549-1.037,2.143-0.879c3.316,0.881,6.579,1.964,9.849,3.012     c0.423,0.136,0.922,0.388,1.137,0.739c0.444,0.725,1.165,1.716,0.951,2.295C145.41,72.102,144.294,72.472,143.595,72.95z"/>
			<path d="M144.858,95.985c0.972-4.029,1.828-7.764,2.801-11.469c0.238-0.906,0.827-2.135,1.987-1.59     c0.723,0.34,1.189,1.487,1.491,2.368c0.203,0.591,0.029,1.384-0.169,2.027c-0.929,3.012-1.848,6.032-2.956,8.98     c-0.25,0.664-1.238,1.051-1.886,1.565C145.694,97.227,145.263,96.587,144.858,95.985z"/>
			<path d="M156.856,85.868c0.31-1.428,0.997-2.055,2.063-1.756c1.066,0.299,2.196,0.798,2.995,1.536     c1.938,1.791,3.72,3.755,5.524,5.687c0.697,0.746,1.217,1.669,0.373,2.606c-0.876,0.972-1.811,0.409-2.608-0.193     c-2.063-1.56-4.166-3.082-6.098-4.795C158.175,88.129,157.595,86.909,156.856,85.868z"/>
			<path d="M163.919,78.91c-1.055-0.741-1.864-1.309-2.674-1.877c0.581-0.767,1.016-1.97,1.77-2.223     c2.973-1,6.033-1.762,9.095-2.457c0.531-0.121,1.696,0.438,1.751,0.806c0.095,0.632-0.272,1.76-0.762,1.983     C170.156,76.482,167.121,77.623,163.919,78.91z"/>
		</g>
		<g>
			<path d="M465.132,390.83c-1.922-0.031-2.524-0.949-1.85-2.099c0.424-0.723,1.038-1.403,1.715-1.9     c3.663-2.688,7.371-5.316,11.07-7.953c0.325-0.232,0.703-0.542,1.058-0.544c0.623-0.003,1.523,0.004,1.794,0.378     c0.277,0.383,0.038,1.247-0.167,1.833c-0.138,0.393-0.583,0.701-0.937,0.991c-3.117,2.55-6.197,5.147-9.394,7.594     C467.316,389.976,465.915,390.436,465.132,390.83z"/>
			<path d="M441.961,411.859c1.596-4.581,2.075-9.323,5.135-13.061c0.415-0.507,1.563-1.009,1.972-0.785     c0.596,0.327,1.171,1.33,1.14,2.017c-0.05,1.1-0.492,2.229-0.967,3.253c-1.4,3.017-2.857,6.009-4.394,8.958     c-0.276,0.53-1.077,1.149-1.573,1.099C442.806,413.293,442.421,412.418,441.961,411.859z"/>
			<path d="M447.884,371.253c0.369-0.51,0.814-1.124,1.258-1.738c0.612,0.491,1.576,0.869,1.776,1.493     c1.103,3.44,2.09,6.922,2.963,10.428c0.324,1.299,0.589,3.061-1.117,3.533c-1.826,0.505-2.323-1.316-2.621-2.556     C449.289,378.849,448.67,375.229,447.884,371.253z"/>
			<path d="M464.962,412.531c-0.413,0.48-0.721,1.13-1.204,1.307c-0.408,0.15-1.316-0.093-1.491-0.429     c-1.982-3.808-3.962-7.624-5.716-11.538c-0.549-1.225,0.467-1.949,1.792-1.389c0.667,0.282,1.344,0.715,1.818,1.254     C462.839,404.785,463.405,408.765,464.962,412.531z"/>
			<path d="M433.794,380.041c0.666,0.192,1.117,0.289,1.543,0.451c2.687,1.021,5.388,2.007,8.04,3.111     c0.936,0.39,1.89,0.947,2.565,1.678c0.44,0.477,0.685,1.514,0.466,2.093c-0.156,0.414-1.241,0.701-1.883,0.655     c-0.892-0.064-1.815-0.38-2.625-0.786c-2.826-1.417-5.639-2.866-8.379-4.438c-0.484-0.278-0.763-1.191-0.808-1.834     C432.692,380.67,433.456,380.315,433.794,380.041z"/>
			<path d="M443.166,392.022c0.536,0.406,1.552,0.793,1.68,1.375c0.135,0.614-0.413,1.596-0.96,2.087     c-0.65,0.584-1.588,0.904-2.451,1.185c-2.613,0.851-5.243,1.654-7.882,2.42c-0.902,0.262-2.132,0.757-2.462-0.542     c-0.137-0.537,0.683-1.64,1.335-1.997c2.358-1.291,4.809-2.422,7.268-3.515C440.674,392.601,441.766,392.421,443.166,392.022z"/>
			<path d="M475.869,399.88c0.482,0.192,0.984,1.265,0.858,1.779c-0.118,0.481-1.12,1.148-1.626,1.066     c-3.053-0.493-6.077-1.168-9.104-1.812c-0.321-0.068-0.712-0.256-0.878-0.514c-0.409-0.635-1.011-1.375-0.944-2.011     c0.047-0.448,1.034-0.854,1.658-1.162c0.334-0.165,0.79-0.085,1.191-0.115C467.067,396.996,473.005,398.739,475.869,399.88z"/>
			<path d="M457.687,384.113c0.235-1.139,0.322-1.948,0.572-2.704c1.118-3.375,2.231-6.755,3.479-10.083     c0.215-0.574,1.078-0.905,1.642-1.349c0.195,0.697,0.658,1.444,0.54,2.083c-0.532,2.875-1.165,5.737-1.894,8.569     c-0.354,1.375-0.884,2.738-1.565,3.98c-0.279,0.51-1.227,1.019-1.756,0.918C458.243,385.44,457.942,384.499,457.687,384.113z"/>
		</g>
		<g>
			<path d="M482.522,170.279c0.97,0.174,1.554,0.132,1.97,0.376c3.108,1.82,6.224,3.633,9.225,5.618     c0.493,0.326,0.737,1.59,0.522,2.227c-0.142,0.422-1.473,0.885-1.99,0.666c-3.58-1.52-7.128-3.133-10.578-4.926     c-0.61-0.317-1.113-1.717-0.932-2.43C480.915,171.117,482.035,170.665,482.522,170.279z"/>
			<path d="M468.524,174.15c0-0.058-0.56-2.61,1.112-3.035c1.265-0.322,2.411,0.49,2.853,2.358c0.393,1.658,0.503,3.395,0.614,5.105     c0.157,2.408,0.171,4.825,0.306,7.235c0.06,1.064,0.02,2.089-1.254,2.248c-1.207,0.15-1.733-0.751-1.902-1.804     C469.607,182.232,468.472,174.158,468.524,174.15z"/>
			<path d="M486.985,160.2c-0.754-0.467-1.939-0.783-2.25-1.485c-0.534-1.209,0.573-1.983,1.584-2.461     c0.874-0.413,1.81-0.793,2.756-0.933c2.951-0.435,5.917-0.769,8.883-1.098c0.961-0.106,2.073,0.04,2.041,1.232     c-0.018,0.646-0.74,1.672-1.337,1.838C494.915,158.342,491.113,159.197,486.985,160.2z"/>
			<path d="M489.109,141.127c-0.191,0.48-0.253,0.842-0.451,1.098c-1.853,2.406-3.673,4.84-5.622,7.166     c-0.911,1.087-2.018,2.048-3.175,2.87c-0.448,0.318-1.476,0.349-1.876,0.04c-0.335-0.259-0.388-1.329-0.136-1.82     c0.755-1.472,1.575-2.96,2.637-4.215c1.705-2.014,3.566-3.908,5.493-5.713c0.475-0.445,1.463-0.481,2.202-0.445     C488.514,140.125,488.814,140.783,489.109,141.127z"/>
			<path d="M458.727,169.459c2.025,0.056,2.785,1.303,1.983,2.523c-0.527,0.803-1.254,1.503-1.991,2.133     c-2.141,1.831-4.3,3.646-6.533,5.362c-0.439,0.338-1.5,0.496-1.812,0.218c-0.428-0.381-0.53-1.254-0.544-1.922     c-0.008-0.385,0.373-0.837,0.681-1.162c1.78-1.879,3.516-3.811,5.424-5.552C456.826,170.247,458.071,169.822,458.727,169.459z"/>
			<path d="M452.196,139.437c0.181,0.125,0.581,0.28,0.802,0.57c2.43,3.193,4.888,6.368,7.207,9.64     c0.665,0.938,1.845,2.315,0.446,3.319c-1.328,0.953-2.403-0.463-3.093-1.4c-2.238-3.042-4.378-6.163-6.414-9.344     C450.232,140.794,450.791,139.408,452.196,139.437z"/>
			<path d="M440.613,162.153c-0.366-1.543,1.251-1.667,2.3-1.915c2.735-0.648,5.497-1.183,8.253-1.742     c0.446-0.09,0.978-0.228,1.357-0.072c0.679,0.28,1.735,0.716,1.788,1.182c0.073,0.645-0.476,1.759-1.043,1.998     c-1.399,0.591-2.946,0.889-4.461,1.138c-1.809,0.296-3.646,0.418-5.471,0.615C443.248,163.484,440.776,162.837,440.613,162.153z"/>
			<path d="M468.033,140.95c0.174-2.256,0.203-4.104,0.52-5.9c0.103-0.583,0.962-1.032,1.476-1.543     c0.449,0.556,1.212,1.07,1.293,1.676c0.35,2.613,0.575,5.25,0.686,7.885c0.047,1.12-0.15,2.31-0.531,3.362     c-0.198,0.546-1.017,1.139-1.595,1.182c-0.417,0.031-1.211-0.759-1.296-1.272C468.268,144.429,468.174,142.481,468.033,140.95z"/>
		</g>
		<g>
			<path d="M361.086,87.656c1.616,0.044,2.302,1.087,1.701,2.202c-0.423,0.783-1.076,1.508-1.782,2.061     c-2.441,1.912-4.937,3.754-7.439,5.586c-0.74,0.542-1.642,1.161-2.442,0.209c-0.798-0.95-0.058-1.732,0.626-2.363     c2.364-2.181,4.727-4.365,7.162-6.465C359.622,88.273,360.572,87.939,361.086,87.656z"/>
			<path d="M377.075,90.731c1.101,0.562,2.411,0.913,3.269,1.735c1.778,1.704,3.379,3.61,4.904,5.549     c0.329,0.419,0.265,1.486-0.056,1.957c-0.214,0.314-1.437,0.383-1.808,0.077c-2.6-2.149-5.125-4.392-7.592-6.693     c-0.355-0.331-0.486-1.216-0.314-1.7C375.615,91.272,376.374,91.11,377.075,90.731z"/>
			<path d="M383.802,88.082c-0.789-0.56-1.858-0.977-1.859-1.397c-0.002-0.7,0.521-1.803,1.101-2.033     c2.544-1.006,5.182-1.779,7.8-2.592c0.704-0.218,1.464-0.402,2.186-0.364c0.485,0.025,1.25,0.383,1.349,0.741     c0.131,0.478-0.245,1.106-0.445,1.654c-0.049,0.135-0.246,0.251-0.4,0.309C390.338,85.616,387.14,86.822,383.802,88.082z"/>
			<path d="M371.231,76.093c-0.049,1.763-0.065,3.037-1.604,3.208c-1.535,0.17-2.001-1.068-2.107-2.218     c-0.278-3.026-0.435-6.066-0.519-9.104c-0.013-0.453,0.625-0.925,0.962-1.388c0.506,0.378,1.345,0.673,1.463,1.148     C370.156,70.685,370.725,73.672,371.231,76.093z"/>
			<path d="M367.319,97.495c0.116-0.601,0.224-1.756,0.595-2.819c0.189-0.542,0.836-1.257,1.304-1.279     c0.511-0.023,1.347,0.561,1.525,1.064c0.41,1.159,0.712,2.433,0.682,3.651c-0.041,1.704-0.306,3.43-0.72,5.085     c-0.167,0.668-0.978,1.176-1.496,1.757c-0.498-0.595-1.311-1.132-1.432-1.795C367.471,101.482,367.477,99.748,367.319,97.495z"/>
			<path d="M352.61,76.506c2.735,0.603,5.037,1.079,7.319,1.638c0.535,0.131,1.159,0.429,1.459,0.852     c0.387,0.546,0.77,1.367,0.624,1.932c-0.119,0.459-0.997,0.939-1.583,1.004c-0.762,0.084-1.591-0.158-2.351-0.392     c-1.867-0.574-3.713-1.215-5.562-1.846c-0.847-0.289-2.098-0.467-1.722-1.666C351.005,77.357,352.052,76.947,352.61,76.506z"/>
			<path d="M376.785,80.101c0.312-0.8,0.48-1.549,0.865-2.16c1.311-2.08,2.646-4.148,4.097-6.13c0.303-0.414,1.14-0.437,1.731-0.64     c0.158,0.508,0.609,1.188,0.428,1.499c-1.573,2.695-3.227,5.345-4.951,7.946c-0.245,0.37-0.998,0.527-1.518,0.533     C377.227,81.15,377.01,80.482,376.785,80.101z"/>
		</g>
	</g>
</g>















</svg>
