<?xml version="1.0" encoding="UTF-8"?>
<!-- Generator: Adobe Illustrator 25.2.0, SVG Export Plug-In . SVG Version: 6.00 Build 0)  -->
<svg xmlns="http://www.w3.org/2000/svg" xmlns:xlink="http://www.w3.org/1999/xlink" version="1.1" id="Capa_1" x="0px" y="0px" viewBox="0 0 500 500" style="enable-background:new 0 0 500 500;" xml:space="preserve" width="512" height="512">
<g>
	<g>
		<g>
			<g>
				<path d="M107.57,249.679c-6.008,0.311-11.773,0.679-17.543,0.892c-9.324,0.343-18.659,0.658-27.955-0.445      c-7.135-0.846-14.027-2.65-20.395-6.079c-1.739-0.937-3.423-2.066-4.913-3.359c-4.492-3.897-5.83-9.524-3.719-15.082      c1.558-4.101,4.026-7.608,7.655-10.055c3.734-2.519,7.673-4.743,11.583-6.991c1.888-1.085,3.73-0.721,5.376,0.727      c2.042,1.797,4.068,3.618,6.188,5.32c10.178,8.165,21.875,12.828,34.689,14.793c4.029,0.618,8.102,0.95,12.157,1.393      c0.765,0.084,1.541,0.076,2.346,0.113c1.296-4.203,2.593-8.318,3.834-12.45c6.608-21.99,13.097-44.017,19.84-65.966      c4.063-13.224,8.532-26.322,12.772-39.492c0.832-2.585,1.456-5.237,2.17-7.859c0.609-2.238,1.356-2.903,3.646-2.576      c4.119,0.59,8.324,0.987,12.288,2.159c5.949,1.758,8.019,5.21,8.588,11.413c0.84,9.157-1.238,17.897-3.485,26.585      c-5.252,20.309-11.855,40.215-18.301,60.167c-2.879,8.91-5.511,17.899-8.249,26.855c-0.068,0.222-0.065,0.467-0.11,0.822      c11.315,0.066,22.56-1.373,33.932,0.069c0.17-0.531,0.337-1.023,0.486-1.519c3.911-13.07,7.709-26.174,11.761-39.2      c4.152-13.349,8.56-26.618,12.832-39.929c0.518-1.616,0.876-3.282,1.323-4.921c0.365-1.336,1.229-2.105,2.641-2.037      c4.669,0.225,9.274,0.773,13.728,2.351c5.187,1.838,7.414,5.605,7.94,10.905c0.882,8.895-1.039,17.416-3.19,25.89      c-5.15,20.289-11.802,40.129-18.179,60.051c-6.08,18.993-11.961,38.05-18.081,57.03c-4.87,15.106-10.074,30.105-14.908,45.222      c-1.77,5.536-2.916,11.272-4.32,16.924c-0.375,1.507-1.217,2.211-2.746,1.852c-4.767-1.12-9.287-2.739-13.003-6.166      c-3.53-3.255-5.183-7.291-5.572-11.97c-0.412-4.954,0.574-9.775,1.331-14.619c2.459-15.74,7.153-30.897,11.884-46.055      c3.932-12.6,7.624-25.276,11.418-37.919c0.123-0.408,0.201-0.829,0.333-1.382c-3.466,0-6.816-0.163-10.146,0.033      c-8.001,0.469-15.992,1.114-23.989,1.66c-0.791,0.054-1.172,0.332-1.428,1.114c-6.103,18.686-12.321,37.335-18.31,56.057      c-1.756,5.49-2.896,11.178-4.28,16.784c-0.393,1.593-1.23,2.318-2.823,1.92c-4.205-1.049-8.276-2.36-11.768-5.154      c-4.177-3.343-6.307-7.632-6.742-12.889c-0.411-4.955,0.533-9.78,1.316-14.619c2.13-13.159,5.497-26.013,9.598-38.684      C107.233,250.864,107.37,250.358,107.57,249.679z"/>
				<path d="M350.345,263.684c-0.476-0.326-0.863-0.611-1.269-0.868c-7.015-4.44-11.098-10.79-11.443-19.075      c-0.352-8.437-0.331-16.901-0.138-25.346c0.583-25.51,1.008-51.017-0.087-76.522c-0.402-9.372-0.925-18.747-3.03-27.929      c-0.593-2.584-1.632-5.071-2.546-7.573c-0.414-1.134-0.847-2.222-0.011-3.302c0.851-1.099,2.044-0.981,3.211-0.715      c3.975,0.908,7.956,1.795,11.913,2.777c11.447,2.842,18.326,10.095,21.027,21.557c1.862,7.901,2.563,15.913,2.807,23.98      c0.566,18.76,0.017,37.509-0.709,56.255c-0.272,7.034-0.51,14.07-0.457,21.432c0.027-0.189,0.003-0.405,0.088-0.563      c9.825-18.146,20.211-35.998,28.944-54.718c4.268-9.149,8.314-18.403,12.445-27.616c1.171-2.612,2.045-3.133,4.756-2.352      c2.747,0.792,5.543,1.531,8.148,2.678c4.044,1.78,7.508,4.436,8.172,9.141c0.357,2.532,0.033,5.208-0.291,7.78      c-1.718,13.615-8.274,25.4-14.51,37.24c-15.818,30.033-31.845,59.955-47.757,89.939c-6.419,12.096-12.727,24.252-19.135,36.353      c-6.109,11.535-10.674,23.6-12.863,36.514c-0.275,1.623-0.683,3.232-1.161,4.808c-0.475,1.565-1.703,2.3-3.164,1.704      c-4.081-1.664-8.307-3.123-12.1-5.315c-7.463-4.314-10.221-10.884-8.825-19.398c1.232-7.512,4.031-14.527,7.345-21.267      c7.476-15.203,15.267-30.252,22.983-45.336c2.211-4.323,4.6-8.554,6.906-12.828C349.839,264.66,350.077,264.195,350.345,263.684      z"/>
				<path d="M285.239,180.667c-1.531,6.153-2.832,12.126-4.528,17.984c-1.696,5.861-3.788,11.607-5.764,17.58      c0.688-0.031,1.338-0.089,1.986-0.084c5.383,0.036,10.781-0.148,16.145,0.197c4.95,0.318,7.531,3.009,7.999,8.03      c0.286,3.073,0.029,6.199-0.025,9.3c-0.022,1.261-0.122,2.524-0.242,3.781c-0.187,1.958-1.128,2.89-3.098,2.976      c-1.112,0.048-2.23-0.109-3.347-0.12c-9.326-0.095-18.653-0.175-27.979-0.266c-0.81-0.008-1.442,0.061-1.845,1.001      c-4.837,11.291-9.72,22.562-14.588,33.84c-0.114,0.264-0.191,0.545-0.354,1.019c0.536,0.033,0.989,0.084,1.442,0.085      c6.947,0.004,13.895-0.026,20.842,0.018c2.132,0.013,4.276,0.117,6.393,0.363c6.479,0.753,10.046,4.069,10.864,10.589      c0.463,3.689,0.32,7.46,0.35,11.194c0.012,1.431-0.847,2.357-2.297,2.58c-0.764,0.117-1.545,0.144-2.319,0.165      c-12.722,0.337-25.443,0.686-38.165,0.981c-2.668,0.062-5.352,0.045-8.007-0.187c-1.404-0.123-2.854-0.601-4.119-1.243      c-4.112-2.086-7.549-4.995-10.638-8.467c-4.728-5.314-5.738-11.319-3.994-17.93c2.393-9.076,5.825-17.789,9.433-26.444      c6.388-15.322,12.652-30.695,18.975-46.044c4.695-11.398,9.376-22.802,14.125-34.177c1.008-2.413,2.237-4.738,3.459-7.054      c0.947-1.795,1.56-1.959,3.546-1.698c0.893,0.117,1.827-0.045,2.74-0.107c14.812-1,29.619,0.117,44.429,0.085      c8.046-0.018,10.996,4.591,11.833,11.457c0.322,2.642,0.297,5.333,0.325,8.002c0.026,2.545-0.9,3.321-3.483,3.272      c-13.161-0.247-26.323-0.475-39.485-0.706C285.559,180.634,285.273,180.666,285.239,180.667z"/>
			</g>
			<path d="M292.254,331.795c-0.183,1.296-0.24,2.625-0.571,3.881c-1.062,4.033-2.171,8.056-3.371,12.05     c-0.777,2.588-1.865,3.068-4.499,2.46c-9.563-2.206-19.27-2.522-28.973-1.585c-10.534,1.017-21.021,2.512-31.536,3.728     c-3.857,0.446-7.733,0.769-11.61,0.995c-1.877,0.11-3.801,0.036-5.659-0.249c-4.816-0.74-8.393-3.281-10.17-7.905     c-1.057-2.75-1.947-5.586-2.633-8.45c-0.465-1.939,0.307-2.246,2.316-2.141c2.504,0.131,5.035-0.169,7.55-0.335     c7.447-0.493,14.664-2.263,21.867-4.064c11.154-2.787,22.251-5.817,33.451-8.399c5.228-1.206,10.629-1.714,15.976-2.33     c3.245-0.374,6.51-0.061,9.644,0.99C289.243,322.189,292.198,326.337,292.254,331.795z"/>
		</g>
		<g>
			<path d="M401.893,300.13c0.377-5.717,2-11.732,4.125-17.567c5.894-16.184,11.989-32.295,17.997-48.438     c6.026-16.19,12.117-32.357,18.017-48.593c1.753-4.822,2.96-9.843,4.413-14.774c0.055-0.186,0.086-0.379,0.114-0.571     c0.475-3.334,1.226-3.785,4.424-2.584c1.499,0.563,2.976,1.182,4.457,1.793c5.249,2.166,8.685,6.357,11.551,10.944     c2.35,3.762,2.034,8.105,1.374,12.344c-1.639,10.527-5.311,20.462-8.978,30.388c-9.806,26.544-19.99,52.942-30.769,79.109     c-1.053,2.557-1.946,5.18-2.964,7.752c-0.499,1.261-1.059,2.506-1.69,3.707c-1.591,3.031-2.96,3.701-6.142,2.457     c-3.511-1.373-6.985-2.907-10.301-4.693C403.339,309.151,401.737,305.318,401.893,300.13z"/>
			<path d="M416.924,337.284c-0.233,3.237-1.245,5.578-3.021,7.536c-2.576,2.842-5.181,5.662-7.88,8.385     c-3.116,3.144-5.432,3.396-9.015,0.892c-2.741-1.916-5.414-3.958-7.94-6.147c-4.122-3.572-5.01-9.135-2.32-13.887     c2.755-4.868,6.99-8.273,11.586-11.252c0.596-0.386,1.716-0.514,2.341-0.222c5.843,2.739,11.481,5.805,14.942,11.603     C416.268,335.286,416.623,336.558,416.924,337.284z"/>
		</g>
	</g>
	<g>
		<path d="M84.295,136.044c-0.224-0.515-0.256-1.095-0.098-1.634c0.255-0.865,0.439-1.588,0.783-2.225    c4.613-8.545,8.919-17.234,12.58-26.234c0.163-0.401,0.386-0.789,0.644-1.137c1.365-1.841,3.726-1.69,4.717,0.375    c0.498,1.036,0.666,2.225,1.071,3.312c1.232,3.31,2.312,6.695,3.81,9.883c2.123,4.52,4.572,8.886,6.863,13.327    c0.331,0.642,0.752,1.332,0.773,2.011c0.019,0.614-0.332,1.339-0.735,1.843c-0.547,0.685-1.458,1.1-1.939,1.814    c-4.004,5.941-6.982,12.422-9.817,18.973c-0.269,0.622-0.514,1.263-0.853,1.847c-1.215,2.093-3.396,2.23-4.857,0.285    c-0.521-0.693-0.995-1.454-1.324-2.253c-2.553-6.199-6.274-11.698-10.089-17.156C85.167,138.138,84.731,137.046,84.295,136.044z"/>
		<path d="M75.805,348.757c0.075,0.271,0.044,0.567-0.09,0.814c-0.201,0.371-0.409,0.768-0.697,1.094    c-0.631,0.712-1.446,1.271-2.033,2.013c-3.969,5.017-6.406,10.825-8.571,16.77c-0.34,0.933-0.649,1.898-1.134,2.755    c-1.036,1.833-2.95,1.908-4.04,0.106c-0.493-0.815-0.8-1.766-1.067-2.692c-1.929-6.683-4.379-13.165-7.6-19.331    c-1.372-2.627-1.118-4.919,0.488-7.356c3.897-5.913,7.663-11.911,11.482-17.875c0.183-0.286,0.362-0.576,0.56-0.851    c0.776-1.078,1.728-1.898,3.156-1.684c1.417,0.213,2.175,1.212,2.537,2.51c0.455,1.635,0.778,3.307,1.271,4.93    c1.634,5.381,3.322,10.745,4.98,16.118C75.308,346.925,75.535,347.781,75.805,348.757z"/>
		<path d="M275.088,408.452c-0.179-0.536-0.181-1.118,0-1.654c0.199-0.59,0.389-1.156,0.682-1.663    c0.581-1.003,1.266-1.961,2.013-2.848c4.372-5.195,7.828-10.967,10.858-17.017c0.41-0.819,0.863-1.65,1.458-2.335    c1.34-1.541,3.392-1.216,4.293,0.617c0.169,0.344,0.304,0.722,0.371,1.098c1.02,5.742,3.431,10.998,5.667,16.316    c0.674,1.603,1.372,3.2,1.945,4.839c0.159,0.455-0.022,1.09-0.377,1.416c-5.718,5.246-9.271,11.971-12.853,18.682    c-0.489,0.916-0.955,1.865-1.578,2.686c-1.279,1.684-3.35,1.636-4.492-0.144c-0.421-0.657-0.648-1.438-0.942-2.171    c-2.127-5.302-4.256-10.604-6.369-15.912C275.517,409.74,275.306,409.102,275.088,408.452z"/>
		<path d="M452.683,377.069c0.067,0.256,0.058,0.526-0.022,0.778c-0.123,0.391-0.233,0.772-0.422,1.109    c-3.659,6.541-6.558,13.408-8.852,20.538c-0.455,1.413-0.68,3.098-2.637,3.216c-2.026,0.122-2.511-1.534-3.067-2.974    c-0.751-1.944-1.347-3.95-2.127-5.882c-1.704-4.222-3.396-8.453-5.265-12.603c-0.964-2.141-0.92-4.005,0.501-5.849    c0.148-0.192,0.268-0.41,0.435-0.583c3.964-4.127,6.456-9.182,8.978-14.219c0.347-0.693,0.616-1.519,1.171-1.989    c0.719-0.611,1.738-1.346,2.536-1.252c0.742,0.088,1.39,0.993,2.063,1.633c0.102,0.097,0.229,0.278,0.278,0.409    c1.929,5.125,3.867,10.245,5.775,15.378C452.301,375.511,452.475,376.28,452.683,377.069z"/>
		<path d="M298.066,113.661c0.096,0.347,0.071,0.719-0.072,1.049c-0.166,0.382-0.323,0.755-0.59,1.015    c-4.089,3.975-6.749,8.835-8.85,14.058c-0.35,0.871-0.731,1.75-1.234,2.537c-1.21,1.891-3.232,1.784-4.196-0.243    c-0.309-0.65-0.506-1.365-0.673-2.069c-1.378-5.799-3.597-11.271-6.588-16.408c-1.261-2.167-1.053-3.97,0.201-6.082    c3.141-5.291,6.074-10.705,9.086-16.072c0.332-0.592,0.618-1.21,0.959-1.797c0.597-1.027,1.397-1.792,2.693-1.581    c1.217,0.198,1.855,1.099,2.025,2.213c1.058,6.927,4.017,13.25,6.214,19.815C297.427,111.247,297.727,112.43,298.066,113.661z"/>
		<path d="M495.437,233.813c0.071,0.273,0.052,0.561-0.043,0.827c-0.192,0.539-0.348,1.064-0.641,1.494    c-3.758,5.507-6.121,11.673-8.517,17.828c-0.233,0.599-0.489,1.206-0.846,1.734c-1.203,1.775-3.132,1.528-4.03-0.418    c-0.397-0.859-0.636-1.806-0.868-2.73c-1.502-5.989-3.347-11.863-5.947-17.472c-0.955-2.06-0.745-3.868,0.457-5.765    c3.145-4.961,6.193-9.983,9.281-14.981c0.153-0.248,0.306-0.496,0.465-0.74c0.729-1.118,1.625-1.98,3.096-1.714    c1.503,0.271,2.053,1.458,2.204,2.749c0.607,5.17,2.508,9.957,4.198,14.814C494.738,230.853,495.054,232.329,495.437,233.813z"/>
		<path d="M466.441,111.327c1.198,0.053,1.986,0.722,2.352,1.826c0.319,0.963,0.363,2.031,0.762,2.951    c1.656,3.817,3.387,7.601,5.122,11.383c0.505,1.101,1.117,2.152,1.673,3.229c0.579,1.121,0.302,2.017-0.689,2.77    c-0.452,0.343-0.918,0.726-1.225,1.192c-3.122,4.736-6.214,9.491-9.307,14.246c-0.291,0.446-0.491,0.952-0.789,1.393    c-1.346,1.992-3.606,1.943-4.823-0.149c-0.483-0.831-0.798-1.766-1.141-2.672c-1.785-4.717-3.526-9.451-5.345-14.156    c-0.694-1.796-0.643-3.498,0.611-4.929c3.998-4.564,7.046-9.743,9.988-15.004C464.235,112.326,465.025,111.4,466.441,111.327z"/>
		<g>
			<path d="M146.394,409.92c1.413,0.01,2.017,1.005,1.406,1.972c-0.529,0.837-1.24,1.66-2.063,2.193     c-3.615,2.343-7.299,4.58-10.959,6.852c-0.493,0.306-0.969,0.728-1.507,0.848c-0.492,0.109-1.279,0.058-1.529-0.251     c-0.249-0.308-0.084-1.054,0.074-1.553c0.103-0.326,0.486-0.597,0.795-0.821c3.571-2.583,7.128-5.189,10.747-7.703     C144.373,410.751,145.581,410.323,146.394,409.92z"/>
			<path d="M169.134,385.392c-0.046,0.409-0.037,0.562-0.081,0.697c-1.479,4.506-2.944,9.017-4.468,13.508     c-0.211,0.622-0.624,1.256-1.121,1.674c-0.408,0.344-1.126,0.579-1.614,0.465c-0.269-0.063-0.558-0.985-0.469-1.449     c0.236-1.23,0.599-2.45,1.043-3.624c1.321-3.49,2.699-6.958,4.07-10.429c0.177-0.448,0.35-0.957,0.684-1.264     c0.307-0.281,0.881-0.518,1.242-0.421C168.762,384.639,168.978,385.192,169.134,385.392z"/>
			<path d="M155.272,400.256c-0.595,0.81-1.033,1.408-1.472,2.006c-0.546-0.467-1.413-0.839-1.584-1.417     c-0.892-3.005-1.648-6.054-2.368-9.107c-0.432-1.834-0.779-3.695-1.017-5.562c-0.061-0.478,0.435-1.028,0.675-1.545     c0.465,0.265,1.233,0.436,1.349,0.81C152.369,390.325,153.793,395.238,155.272,400.256z"/>
			<path d="M169.02,410.154c-0.381-0.284-1.255-0.612-1.342-1.085c-0.097-0.525,0.372-1.411,0.862-1.737     c1.075-0.714,2.294-1.233,3.498-1.727c2.729-1.121,5.459-2.251,8.244-3.217c0.801-0.278,1.791-0.01,2.694,0.008     c-0.489,0.757-0.801,1.848-1.496,2.214c-3.418,1.802-6.93,3.425-10.427,5.072C170.544,409.922,169.934,409.95,169.02,410.154z"/>
			<path d="M156.741,419.021c-0.488,2.762-0.988,5.568-1.476,8.377c-0.182,1.047-0.204,2.145-0.555,3.129     c-0.194,0.545-0.915,0.902-1.399,1.343c-0.391-0.523-1.167-1.09-1.113-1.563c0.537-4.698,1.192-9.383,1.882-14.062     c0.059-0.398,0.621-1.017,0.934-1.008c0.408,0.012,1.015,0.474,1.155,0.876C156.479,417.005,156.552,417.979,156.741,419.021z"/>
			<path d="M174.842,427.952c-0.588-0.355-1.209-0.58-1.625-1.005c-2.947-3.01-5.871-6.043-8.746-9.121     c-0.321-0.343-0.289-1.016-0.421-1.536c0.576-0.106,1.301-0.485,1.7-0.267c1.21,0.66,2.459,1.396,3.396,2.383     c2.299,2.425,4.449,4.992,6.606,7.547c0.251,0.297,0.323,0.93,0.19,1.305C175.837,427.553,175.288,427.689,174.842,427.952z"/>
			<path d="M145.175,405.019c-0.951-0.338-1.892-0.516-2.665-0.975c-3.128-1.856-6.231-3.758-9.27-5.755     c-0.444-0.292-0.495-1.183-0.729-1.796c0.558-0.122,1.259-0.524,1.652-0.323c3.493,1.786,6.943,3.659,10.376,5.559     c0.577,0.319,1.082,0.842,1.482,1.374c0.218,0.29,0.303,0.866,0.162,1.187C146.045,404.609,145.545,404.77,145.175,405.019z"/>
		</g>
		<g>
			<path d="M500,311.082c-0.835,0.624-1.584,1.48-2.521,1.828c-3.17,1.178-6.388,2.237-9.63,3.201     c-0.822,0.244-1.849,0.129-2.685-0.132c-0.506-0.158-1.085-0.881-1.146-1.407c-0.045-0.39,0.607-1.101,1.09-1.272     c1.867-0.661,3.788-1.171,5.693-1.721c2.185-0.631,4.366-1.281,6.568-1.849c0.907-0.234,1.918-0.57,2.631,0.477     C500,310.499,500,310.79,500,311.082z"/>
			<path d="M473.216,322.714c0.031-0.595,0.63-1.16,0.968-1.738c0.587,0.426,1.479,0.734,1.698,1.302     c0.46,1.194,0.801,2.53,0.772,3.799c-0.083,3.632-0.332,7.262-0.634,10.882c-0.042,0.508-0.751,0.961-1.152,1.439     c-0.489-0.438-1.354-0.835-1.406-1.32C473.191,334.53,473.1,324.935,473.216,322.714z"/>
			<path d="M453.045,326.289c0.408-0.572,0.68-1.163,1.129-1.551c3.19-2.756,6.385-5.508,9.653-8.17     c0.839-0.684,1.991-1.781,3.063-0.681c1.169,1.199-0.048,2.298-0.855,3.094c-1.338,1.319-2.831,2.49-4.319,3.646     c-2.065,1.605-4.163,3.17-6.301,4.673c-0.398,0.279-1.102,0.353-1.575,0.214C453.516,327.42,453.35,326.792,453.045,326.289z"/>
			<path d="M472.952,305.96c-0.088,0.454-0.073,0.987-0.299,1.382c-0.238,0.416-0.682,0.938-1.079,0.976     c-0.403,0.039-0.988-0.363-1.257-0.74c-0.352-0.494-0.514-1.142-0.687-1.743c-1.053-3.678-2.091-7.36-3.119-11.045     c-0.142-0.51-0.31-1.054-0.258-1.561c0.037-0.358,0.357-0.816,0.678-0.974c0.246-0.122,0.724,0.093,1.032,0.272     c0.228,0.133,0.41,0.428,0.51,0.689c1.402,3.66,2.798,7.322,4.16,10.997C472.832,304.747,472.846,305.35,472.952,305.96z"/>
			<path d="M451.812,305.529c4.109,0.978,8.062,1.912,12.009,2.87c0.317,0.077,0.694,0.249,0.869,0.498     c0.362,0.516,0.976,1.287,0.812,1.639c-0.236,0.506-1.037,0.887-1.664,1.031c-0.574,0.133-1.26-0.039-1.858-0.212     c-3.395-0.984-6.779-2.008-10.166-3.022c-0.138-0.042-0.323-0.074-0.393-0.175c-0.352-0.507-0.904-1.029-0.92-1.56     C450.492,306.269,451.31,305.914,451.812,305.529z"/>
			<path d="M485.997,291.402c-0.102,0.57-0.135,0.861-0.208,1.142c-1.062,4.132-2.101,8.271-3.22,12.388     c-0.223,0.82-0.663,1.634-1.193,2.298c-0.294,0.368-1.068,0.672-1.468,0.537c-0.333-0.112-0.623-0.915-0.6-1.397     c0.038-0.808,0.291-1.62,0.54-2.402c1.249-3.928,2.525-7.848,3.796-11.769c0.105-0.322,0.171-0.7,0.384-0.933     c0.296-0.324,0.774-0.799,1.065-0.732C485.486,290.624,485.774,291.168,485.997,291.402z"/>
			<path d="M483.854,323.575c1.215,1.025,2.264,1.623,2.909,2.514c1.387,1.919,2.57,3.986,3.827,5.999     c0.436,0.698,0.939,1.377,1.23,2.135c0.172,0.448,0.186,1.246-0.088,1.5c-0.306,0.285-1.029,0.213-1.549,0.139     c-0.283-0.04-0.573-0.366-0.769-0.631c-2.018-2.722-4.04-5.442-6.005-8.202c-0.348-0.489-0.625-1.168-0.597-1.743     C482.835,324.808,483.353,324.353,483.854,323.575z"/>
		</g>
		<g>
			<path d="M387.671,420.624c-0.786-0.09-1.254-0.011-1.54-0.204c-0.592-0.399-1.39-0.87-1.525-1.448     c-0.103-0.439,0.582-1.425,1.095-1.582c1.843-0.563,3.752-0.941,5.656-1.27c3.013-0.519,6.037-0.983,9.068-1.37     c0.612-0.078,1.281,0.294,1.923,0.458c-0.326,0.65-0.492,1.642-1.009,1.884c-1.521,0.711-3.153,1.236-4.792,1.63     C393.485,419.458,390.388,420.05,387.671,420.624z"/>
			<path d="M352.941,425.774c-0.272-0.16-0.806-0.291-0.933-0.594c-0.16-0.381-0.073-0.93,0.069-1.351     c0.095-0.28,0.44-0.525,0.73-0.68c3.631-1.954,7.259-3.916,10.923-5.806c0.714-0.369,1.578-0.584,2.379-0.602     c0.583-0.014,1.574,0.306,1.672,0.669c0.148,0.549-0.201,1.349-0.567,1.886c-0.302,0.444-0.903,0.734-1.428,0.968     c-3.942,1.76-7.897,3.492-11.851,5.224C353.673,425.602,353.381,425.65,352.941,425.774z"/>
			<path d="M374.207,425.387c-0.31,0.95-0.651,2.318-1.195,3.601c-1.305,3.077-2.664,6.133-4.107,9.147     c-0.225,0.471-1.003,0.677-1.525,1.006c-0.315-0.523-0.777-1.014-0.9-1.579c-0.102-0.47,0.136-1.048,0.322-1.541     c1.543-4.074,3.083-8.149,4.7-12.194c0.209-0.522,0.852-0.87,1.294-1.298c0.446,0.567,0.918,1.117,1.323,1.712     C374.237,424.411,374.165,424.712,374.207,425.387z"/>
			<path d="M389.341,393.138c-0.155,0.532-0.234,0.861-0.345,1.179c-1.486,4.25-2.944,8.511-4.488,12.74     c-0.411,1.124-0.979,2.234-1.696,3.184c-0.336,0.445-1.198,0.493-1.822,0.721c-0.106-0.609-0.464-1.313-0.277-1.813     c1.46-3.897,3.01-7.762,4.564-11.623c0.632-1.571,1.293-3.135,2.057-4.643c0.181-0.357,0.836-0.656,1.261-0.642     C388.875,392.249,389.133,392.869,389.341,393.138z"/>
			<path d="M382.146,426.074c0.597,0.264,1.211,0.392,1.627,0.749c0.985,0.845,2.076,1.669,2.766,2.734     c1.579,2.436,2.966,4.998,4.381,7.537c0.454,0.815,0.852,1.826-0.199,2.445c-0.955,0.563-1.635-0.167-2.163-0.915     c-2.348-3.327-4.715-6.641-6.994-10.014c-0.355-0.525-0.357-1.332-0.372-2.012C381.189,426.435,381.791,426.26,382.146,426.074z"/>
			<path d="M366.758,412.704c-1.288-0.345-2.29-0.452-3.139-0.871c-2.947-1.454-5.871-2.964-8.726-4.59     c-0.489-0.278-0.593-1.231-0.875-1.872c0.634-0.183,1.403-0.695,1.88-0.498c3.839,1.586,7.641,3.267,11.402,5.032     c0.5,0.234,1.091,1.242,0.947,1.644C368.052,412.094,367.189,412.399,366.758,412.704z"/>
			<path d="M374.389,408.529c-0.297-0.272-0.972-0.654-1.293-1.233c-0.58-1.047-1.032-2.186-1.388-3.333     c-0.847-2.727-1.647-5.47-2.366-8.233c-0.138-0.529,0.177-1.177,0.283-1.77c0.587,0.302,1.347,0.466,1.718,0.937     c0.523,0.664,0.803,1.538,1.106,2.352c1.182,3.175,2.341,6.358,3.488,9.546C376.374,408.013,375.902,408.689,374.389,408.529z"/>
		</g>
		<g>
			<path d="M416.256,99.342c-0.527-0.293-1.129-0.429-1.272-0.762c-0.144-0.335,0.041-0.975,0.308-1.29     c0.876-1.032,1.745-2.124,2.817-2.926c2.68-2.006,5.468-3.868,8.219-5.78c0.318-0.221,0.659-0.516,1.012-0.554     c0.753-0.079,1.86-0.323,2.211,0.061c0.714,0.778,0.039,1.632-0.684,2.2c-3.321,2.612-6.638,5.231-10.009,7.777     C418.113,98.632,417.153,98.913,416.256,99.342z"/>
			<path d="M387.985,92.023c3.281,0.24,6.034,0.408,8.779,0.665c0.767,0.072,1.819,0.071,1.867,1.2     c0.048,1.134-0.939,1.412-1.79,1.538c-1.092,0.161-2.224,0.258-3.319,0.161c-3.71-0.329-7.414-0.734-11.113-1.164     c-0.79-0.092-1.782-0.229-1.653-1.397c0.117-1.065,1.031-0.992,1.803-0.997C384.542,92.014,386.527,92.023,387.985,92.023z"/>
			<path d="M409.737,109.532c0.356-0.516,0.584-1.164,0.87-1.191c0.489-0.046,1.308,0.158,1.473,0.503     c0.573,1.201,1.092,2.479,1.324,3.782c0.39,2.186,0.498,4.42,0.823,6.619c0.102,0.691,0.612,4.068,0.05,4.528     c-0.84,0.689-1.704-0.079-1.905-1.032C411.449,118.347,410.607,113.936,409.737,109.532z"/>
			<path d="M420.447,107.609c0.358,0.171,1.022,0.375,1.555,0.76c2.865,2.07,5.7,4.183,8.54,6.288     c0.231,0.171,0.531,0.361,0.609,0.603c0.137,0.423,0.328,1.062,0.127,1.304c-0.265,0.319-1.031,0.613-1.331,0.452     c-3.485-1.868-7.179-3.438-9.924-6.439c-0.386-0.421-0.698-0.941-0.931-1.465C418.691,108.208,419.147,107.599,420.447,107.609z"/>
			<path d="M401.281,107.872c1.478-0.067,2.155,0.77,1.791,1.707c-0.206,0.528-0.573,1.011-0.937,1.458     c-2.138,2.635-4.295,5.255-6.45,7.875c-0.214,0.261-0.419,0.606-0.703,0.715c-0.37,0.142-0.915,0.247-1.199,0.07     c-0.274-0.171-0.438-0.727-0.42-1.102c0.02-0.407,0.249-0.84,0.487-1.195c1.725-2.576,3.413-5.181,5.25-7.676     C399.724,108.875,400.742,108.317,401.281,107.872z"/>
			<path d="M404.595,92.461c-0.231,0.404-0.515,0.9-0.798,1.396c-0.547-0.37-1.356-0.621-1.591-1.134     c-0.641-1.398-1.083-2.894-1.524-4.376c-0.826-2.779-1.632-5.565-2.354-8.371c-0.127-0.495,0.198-1.105,0.314-1.662     c0.517,0.242,1.336,0.355,1.504,0.747C401.977,83.324,403.695,87.635,404.595,92.461z"/>
			<path d="M384.398,106.907c-0.389-0.264-0.823-0.558-1.257-0.852c0.334-0.415,0.591-1.071,1.015-1.208     c3.962-1.281,7.94-2.517,11.948-3.64c0.567-0.159,1.323,0.36,1.992,0.565c-0.393,0.6-0.661,1.547-1.2,1.74     c-2.452,0.879-4.969,1.587-7.485,2.275C387.827,106.221,386.204,106.509,384.398,106.907z"/>
			<path d="M415.812,77.22c-0.032,0.342-0.024,0.444-0.053,0.535c-1.4,4.382-2.793,8.767-4.223,13.14     c-0.129,0.394-0.441,0.776-0.767,1.042c-0.266,0.218-0.8,0.45-1,0.326c-0.3-0.185-0.589-0.687-0.567-1.034     c0.052-0.814,0.19-1.653,0.472-2.415c1.396-3.774,2.849-7.527,4.285-11.286c0.069-0.18,0.111-0.415,0.246-0.517     c0.318-0.24,0.726-0.619,1.021-0.56C415.509,76.506,415.693,77.047,415.812,77.22z"/>
		</g>
		<g>
			<path d="M228.107,85.6c-0.075-0.668,0.467-1.636,1.046-2.088c0.728-0.567,1.738-0.834,2.667-1.072     c4.411-1.132,8.832-2.229,13.26-3.291c0.936-0.224,2.198-0.766,2.664,0.526c0.516,1.433-0.768,1.966-1.827,2.303     c-4.846,1.542-9.711,3.024-14.576,4.509c-0.411,0.126-0.862,0.118-1.295,0.172C229.984,86.741,228.163,86.094,228.107,85.6z"/>
			<path d="M215.04,91.59c-0.366,0.872-0.555,1.715-1.018,2.36c-2.885,4.014-5.808,8.003-8.796,11.941     c-0.302,0.398-1.121,0.404-1.7,0.592c-0.025-0.621-0.314-1.419-0.034-1.836c3.05-4.542,6.175-9.034,9.331-13.504     c0.249-0.353,0.898-0.619,1.331-0.581C214.462,90.589,214.72,91.194,215.04,91.59z"/>
			<path d="M219.561,95.499c0.113-0.169,0.287-0.7,0.636-0.866c0.283-0.135,0.928,0.042,1.143,0.303     c0.545,0.661,1.11,1.393,1.359,2.193c0.575,1.847,0.96,3.753,1.435,5.632c0.473,1.874,1.036,3.73,1.399,5.624     c0.114,0.595-0.084,1.583-0.501,1.876c-0.803,0.564-1.498-0.113-1.801-0.882C221.507,104.991,219.941,100.555,219.561,95.499z"/>
			<path d="M222.192,79.602c0.331-1.203,0.582-2.344,0.957-3.442c1.332-3.9,2.703-7.787,4.072-11.675     c0.16-0.455,0.302-0.976,0.623-1.296c0.288-0.288,0.84-0.507,1.22-0.44c0.248,0.044,0.403,0.65,0.58,1.014     c0.035,0.072-0.007,0.192-0.036,0.284c-1.505,4.809-2.985,9.626-4.552,14.415c-0.228,0.697-0.823,1.308-1.356,1.854     c-0.194,0.198-0.748,0.204-1.052,0.082C222.421,80.306,222.333,79.87,222.192,79.602z"/>
			<path d="M217.928,75.803c-0.37,0.465-0.733,1.38-1.325,1.566c-1.063,0.334-1.562-0.652-1.71-1.532     c-0.561-3.348-1.04-6.71-1.544-10.068c-0.209-1.391-0.464-2.778-0.575-4.177c-0.034-0.427,0.343-0.886,0.531-1.33     c0.465,0.328,1.214,0.568,1.346,0.998c0.597,1.943,1.06,3.931,1.497,5.919C216.752,69.927,217.289,72.69,217.928,75.803z"/>
			<path d="M206.716,83.703c0.354,0.231,1.011,0.427,1.119,0.788c0.138,0.46,0.016,1.278-0.315,1.546     c-0.884,0.716-1.875,1.405-2.938,1.772c-2.968,1.026-5.987,1.905-9.001,2.793c-0.751,0.222-1.731,0.656-2.159-0.404     c-0.425-1.05,0.531-1.46,1.261-1.781c3.186-1.401,6.387-2.77,9.603-4.102C204.99,84.025,205.775,83.933,206.716,83.703z"/>
			<path d="M210.404,78.756c-1.151-0.352-2.121-0.526-2.979-0.934c-3.152-1.499-6.27-3.069-9.391-4.63     c-0.671-0.336-1.669-0.664-1.156-1.618c0.187-0.348,1.348-0.491,1.89-0.28c4.154,1.615,8.275,3.317,12.374,5.067     c0.404,0.172,0.92,1.128,0.824,1.241C211.548,78.091,210.921,78.403,210.404,78.756z"/>
			<path d="M228.627,92.429c1.135,0.583,2.424,1,3.403,1.798c2.133,1.738,4.147,3.631,6.115,5.558     c0.369,0.362,0.299,1.173,0.431,1.777c-0.605-0.002-1.386,0.241-1.786-0.046c-2.708-1.947-5.344-3.995-7.981-6.04     c-0.451-0.35-0.869-0.797-1.158-1.284c-0.192-0.324-0.265-0.854-0.133-1.191C227.615,92.753,228.13,92.668,228.627,92.429z"/>
		</g>
		<g>
			<path d="M23.533,274.85c0-1.972-0.081-3.629,0.045-5.269c0.042-0.546,0.613-1.052,0.942-1.576     c0.546,0.378,1.515,0.702,1.571,1.142c0.518,4.075,0.93,8.166,1.245,12.263c0.072,0.931-0.469,1.877-1.632,1.867     c-1.077-0.009-1.474-0.865-1.571-1.786C23.89,279.177,23.71,276.857,23.533,274.85z"/>
			<path d="M14.913,296.393c-0.257,0.405-0.517,1.147-1.035,1.575c-3.139,2.589-6.316,5.134-9.546,7.608     c-0.349,0.267-1.256,0.173-1.644-0.11c-0.254-0.185-0.13-1.035-0.004-1.546c0.082-0.337,0.438-0.631,0.721-0.891     c2.427-2.231,4.835-4.484,7.318-6.651c0.713-0.622,1.608-1.099,2.497-1.439C14.171,294.575,14.813,295.015,14.913,296.393z"/>
			<path d="M37.158,293.687c-0.776-0.613-1.788-1.036-1.981-1.697c-0.133-0.456,0.749-1.624,1.38-1.819     c3.561-1.103,7.174-2.045,10.796-2.932c0.448-0.11,1.363,0.319,1.506,0.703c0.149,0.402-0.343,1.07-0.622,1.585     c-0.099,0.183-0.385,0.296-0.608,0.377C44.223,291.143,40.812,292.37,37.158,293.687z"/>
			<path d="M18.79,281.953c-0.224,0.363-0.383,0.937-0.667,1.008c-0.51,0.127-1.266,0.156-1.616-0.137     c-0.802-0.672-1.562-1.479-2.088-2.378c-1.568-2.677-3.051-5.407-4.472-8.165c-0.223-0.432,0.05-1.12,0.093-1.69     c0.579,0.05,1.166,0.062,1.734,0.171c0.2,0.038,0.393,0.288,0.524,0.485c1.935,2.897,3.879,5.789,5.766,8.717     C18.418,280.516,18.531,281.222,18.79,281.953z"/>
			<path d="M16.423,312.466c0.568-3.521,1.149-7.394,1.86-11.244c0.104-0.564,0.819-1.014,1.252-1.517     c0.442,0.552,1.217,1.08,1.259,1.662c0.101,1.379-0.057,2.797-0.271,4.175c-0.445,2.866-0.964,5.722-1.534,8.566     c-0.082,0.409-0.584,0.977-0.946,1.021c-0.376,0.046-0.957-0.366-1.196-0.74C16.583,313.974,16.604,313.377,16.423,312.466z"/>
			<path d="M1.065,288.327C0.63,288.219,0.351,287.48,0,287.033c0.523-0.351,1.062-1.024,1.565-0.998     c2.369,0.121,4.733,0.395,7.087,0.697c1.05,0.135,2.133,0.333,3.09,0.755c0.604,0.266,1.377,0.976,1.412,1.529     c0.067,1.047-0.994,1.114-1.822,1.213C11.093,290.258,4.214,289.104,1.065,288.327z"/>
			<path d="M31.643,284.977c0.344-0.916,0.519-1.751,0.94-2.436c1.372-2.229,2.79-4.433,4.301-6.569     c0.265-0.375,1.196-0.656,1.572-0.473c0.41,0.2,0.861,1.099,0.727,1.507c-1.102,3.345-2.674,6.454-5.281,8.908     c-0.313,0.294-1.051,0.428-1.44,0.267C32.086,286.024,31.906,285.393,31.643,284.977z"/>
			<path d="M27.81,301.995c0.482,0.35,1.389,0.706,1.816,1.371c1.725,2.689,3.326,5.461,4.901,8.242     c0.174,0.306,0.037,1.052-0.225,1.268c-0.266,0.219-0.865,0.042-1.317,0.019c-0.081-0.004-0.181-0.09-0.233-0.165     c-2.074-3.034-4.187-6.043-6.177-9.131C26.155,302.946,26.44,302.152,27.81,301.995z"/>
			<path d="M44.71,307.114c-0.454-0.121-0.725-0.126-0.913-0.254c-2.748-1.871-5.495-3.743-8.213-5.658     c-0.374-0.264-0.682-0.722-0.843-1.156c-0.134-0.36-0.16-0.946,0.048-1.196c0.204-0.244,0.812-0.339,1.16-0.233     c0.634,0.194,1.265,0.51,1.798,0.908c2.44,1.825,4.862,3.675,7.245,5.574c0.351,0.279,0.634,0.873,0.613,1.305     C45.592,306.681,44.962,306.928,44.71,307.114z"/>
		</g>
		<g>
			<path d="M34.551,158.298c-0.185,0.51-0.388,1.43-0.828,2.217c-1.982,3.55-4.026,7.065-6.063,10.584     c-0.19,0.329-0.429,0.704-0.744,0.866c-0.344,0.177-0.925,0.312-1.18,0.138c-0.326-0.221-0.46-0.759-0.611-1.184     c-0.053-0.148,0.06-0.381,0.145-0.55c2.207-4.355,4.407-8.713,6.656-13.046c0.224-0.432,0.705-0.843,1.161-1.017     C33.936,155.983,34.59,156.744,34.551,158.298z"/>
			<path d="M21.512,136.866c0.48,0.162,0.834,0.212,1.11,0.386c3.368,2.129,6.681,4.34,9.131,7.566     c0.613,0.807,1.632,1.834,0.59,2.804c-1.02,0.949-2.162,0.111-2.966-0.638c-2.092-1.95-4.074-4.017-6.133-6.004     c-0.731-0.706-1.61-1.262-2.31-1.994c-0.305-0.319-0.518-0.951-0.423-1.359C20.588,137.298,21.191,137.092,21.512,136.866z"/>
			<path d="M36.869,145.232c-0.579-0.481-1.514-0.863-1.68-1.459c-0.968-3.49-1.759-7.029-2.604-10.553     c-0.18-0.752-0.426-1.505-0.467-2.267c-0.021-0.39,0.26-1.032,0.557-1.14c0.319-0.116,0.881,0.181,1.216,0.449     c0.275,0.22,0.42,0.645,0.541,1.006c1.141,3.391,2.276,6.784,3.381,10.187c0.177,0.545,0.19,1.142,0.28,1.716     C38.184,143.256,37.368,144.63,36.869,145.232z"/>
			<path d="M42.047,146.729c0.193-1.008,0.245-1.647,0.44-2.239c1.111-3.363,2.221-6.727,3.429-10.055     c0.184-0.507,0.877-0.828,1.335-1.235c0.23,0.605,0.762,1.281,0.64,1.804c-0.846,3.638-1.823,7.246-2.774,10.859     c-0.098,0.371-0.215,0.797-0.468,1.056c-0.502,0.515-1.106,0.932-1.667,1.389C42.628,147.708,42.272,147.108,42.047,146.729z"/>
			<path d="M59.589,148.401c0.508,0.316,0.999,0.62,1.489,0.924c-0.377,0.503-0.654,1.29-1.146,1.463     c-3.424,1.205-6.875,2.343-10.364,3.34c-0.591,0.169-1.406-0.444-2.117-0.695c0.366-0.666,0.598-1.485,1.136-1.955     c0.548-0.48,1.376-0.698,2.117-0.889C53.608,149.841,56.527,149.149,59.589,148.401z"/>
			<path d="M44.108,174.16c-0.162,0.212-0.381,0.783-0.704,0.848c-0.354,0.072-0.867-0.25-1.188-0.537     c-0.265-0.238-0.417-0.659-0.507-1.027c-0.877-3.569-1.774-7.134-2.546-10.725c-0.123-0.571,0.347-1.269,0.543-1.908     c0.586,0.404,1.457,0.683,1.701,1.238c0.576,1.309,0.937,2.732,1.231,4.141C43.172,168.749,43.593,171.331,44.108,174.16z"/>
			<path d="M28.498,151.484c1.339-0.009,1.523,0.762,1.071,1.433c-0.488,0.723-1.243,1.424-2.039,1.755     c-2.995,1.244-6.045,2.36-9.1,3.449c-0.395,0.141-0.945-0.155-1.423-0.248c0.143-0.512,0.217-1.058,0.454-1.521     c0.135-0.264,0.514-0.437,0.817-0.578c2.677-1.246,5.35-2.502,8.052-3.692C27.073,151.754,27.91,151.64,28.498,151.484z"/>
			<path d="M55.121,166.742c-0.425-0.201-0.802-0.317-1.109-0.534c-1.936-1.366-3.877-2.727-5.77-4.153     c-0.526-0.396-1.022-0.945-1.294-1.533c-0.231-0.5-0.12-1.158-0.161-1.746c0.583,0.006,1.169-0.021,1.747,0.035     c0.217,0.021,0.438,0.207,0.618,0.364c2.115,1.84,4.245,3.663,6.306,5.561c0.314,0.289,0.383,0.933,0.396,1.418     C55.86,166.34,55.39,166.538,55.121,166.742z"/>
		</g>
	</g>
</g>















</svg>
