<?xml version="1.0" encoding="UTF-8"?>
<!-- Generator: Adobe Illustrator 25.2.0, SVG Export Plug-In . SVG Version: 6.00 Build 0)  -->
<svg xmlns="http://www.w3.org/2000/svg" xmlns:xlink="http://www.w3.org/1999/xlink" version="1.1" id="Capa_1" x="0px" y="0px" viewBox="0 0 500 500" style="enable-background:new 0 0 500 500;" xml:space="preserve" width="512" height="512">
<g>
	<g>
		<g>
			<g>
				<path d="M32.871,260.441c0.091-8.158,0.892-17.304,2.842-26.313c2.5-11.549,6.706-22.475,12.379-32.836      c5.304-9.687,11.133-19.038,17.771-27.878c5.961-7.938,12.362-15.474,20.188-21.65c5.722-4.516,11.536-8.931,18.323-11.815      c2.261-0.961,4.471-1.253,6.832-0.112c12.904,6.236,25.848,12.389,38.74,18.647c0.693,0.336,1.218,1.305,1.528,2.095      c2.271,5.781,3.203,11.861,3.811,17.998c1.486,14.999,0.038,29.808-3.303,44.429c-3.587,15.694-9.433,30.536-17.554,44.468      c-6.672,11.445-14.58,21.896-24.392,30.854c-7.798,7.119-16.39,13.009-26.332,16.716c-5.48,2.043-11.17,3.227-17.049,3.409      c-2.257,0.07-4.153-0.724-5.868-2.082c-4.971-3.939-9.93-7.893-14.903-11.829c-1.67-1.322-3.261-2.785-5.074-3.875      c-3.273-1.969-4.871-4.8-5.42-8.505C33.883,281.989,32.544,271.811,32.871,260.441z M127.829,163.714      c-0.457,0.217-0.88,0.382-1.268,0.607c-10.627,6.143-19.605,14.186-27.16,23.814c-3.868,4.929-6.996,10.349-9.681,16.004      c-3.407,7.176-7.021,14.276-9.984,21.635c-3.606,8.953-6.118,18.283-8.411,27.676c-2.915,11.942-4.5,24.08-5.984,36.245      c-0.138,1.134-0.134,2.286-0.212,3.715c0.637-0.371,1.012-0.547,1.34-0.787c1.677-1.233,3.334-2.493,5.011-3.726      c15.819-11.632,27.309-26.857,36.475-44c5.351-10.007,9.537-20.48,12.637-31.406c2.263-7.977,4.288-15.992,5.215-24.248      c0.691-6.159,1.414-12.315,1.988-18.485C128.006,168.485,127.829,166.175,127.829,163.714z"/>
				<path d="M263.28,275.754c-0.212,0.307-0.381,0.522-0.518,0.754c-4.767,8.069-9.7,16.046-14.231,24.244      c-2.69,4.866-4.813,10.053-7.058,15.155c-1.072,2.435-2.012,3.056-4.472,1.941c-2.491-1.129-4.988-2.311-7.293-3.77      c-4.986-3.156-6.47-7.866-5.152-13.435c0.595-2.511,1.461-5.019,2.608-7.328c3.957-7.963,8.073-15.849,12.166-23.744      c6.553-12.644,13.14-25.27,19.703-37.909c1.505-2.897,2.936-5.833,4.481-8.709c0.532-0.989,0.373-1.565-0.493-2.242      c-1.677-1.312-3.28-2.721-4.877-4.131c-1.099-0.97-2.218-1.938-3.184-3.034c-2.173-2.465-1.996-5.279,0.581-7.32      c1.467-1.162,3.135-2.124,4.826-2.942c8.47-4.098,17.459-6.799,26.474-9.314c6.318-1.762,12.799-2.973,19.246-4.225      c7.133-1.385,13.824,0.296,19.861,4.049c5.294,3.291,10.343,6.999,15.353,10.721c4.345,3.229,5.652,8.089,6.42,13.167      c1.372,9.078,0.001,17.803-3.8,26.052c-5.925,12.858-14.053,24.161-25.349,32.857c-9.718,7.482-20.688,11.38-33.141,9.982      c-8.311-0.933-15.591-4.13-21.488-10.196C263.753,276.183,263.547,276.004,263.28,275.754z M317.44,210.968      c-1.479,0.381-2.479,0.642-3.48,0.896c-6.599,1.675-13.202,3.329-19.786,5.058c-0.511,0.134-1.081,0.708-1.291,1.216      c-1.72,4.144-3.081,8.462-5.083,12.46c-4.596,9.18-9.487,18.213-14.28,27.294c-0.376,0.712-0.607,1.26-0.081,2.057      c2.635,3.991,5.755,7.497,9.673,10.286c0.937,0.667,1.687,0.686,2.721,0.256c6.248-2.6,11.148-6.845,15.321-12.091      c8.108-10.193,12.625-21.899,14.713-34.622C316.545,219.637,316.9,215.445,317.44,210.968z"/>
				<path d="M403.04,199.876c-9.535,3.694-15.295,10.223-16.962,20.29c-1.197,7.229-1.069,14.45-0.108,21.647      c1.384,10.362,3.076,20.683,4.528,31.036c1.382,9.853,1.907,19.694-1.006,29.419c-1.767,5.898-4.535,11.201-8.789,15.708      c-5.163,5.469-11.721,7.658-18.988,8.04c-8.8,0.463-17.251-1.157-25.25-4.874c-2.864-1.331-5.772-2.686-8.36-4.466      c-3.93-2.703-7.201-6.166-8.007-11.101c-0.373-2.284-0.271-4.756,0.171-7.035c0.645-3.326,1.482-6.684,2.785-9.799      c2.974-7.11,6.049-14.195,11.29-20.069c4.532-5.08,8.467-5.768,13.791-1.506c3.259,2.609,6.033,5.849,8.872,8.946      c1.336,1.458,1.155,2.936-0.283,4.767c-3.435,4.373-6.328,9.082-8.91,13.994c-1.992,3.788-3.768,7.678-4.178,11.986      c-0.334,3.509,0.19,6.89,2.461,9.806c0.609,0.782,1.196,1.002,2.18,0.702c3.784-1.154,6.787-3.271,8.784-6.739      c3.761-6.531,5.488-13.659,5.276-21.09c-0.226-7.893-1.102-15.767-1.682-23.651c-0.622-8.451-1.456-16.894-1.784-25.356      c-0.373-9.647,0.49-19.218,3.633-28.443c3.617-10.617,10.025-19.346,18.366-26.723c0.881-0.779,1.899-1.41,2.885-2.062      c2.018-1.335,4.227-1.683,6.517-0.931c9.728,3.195,18.92,7.483,27.06,13.775c3.66,2.829,6.314,6.503,8.066,10.806      c5.384,13.226,6.323,26.748,2.123,40.413c-1.179,3.834-3.27,7.448-5.331,10.933c-2.419,4.091-7.523,5.685-12.398,3.969      c-6.306-2.22-11.243-6.344-15.07-11.795c-1.073-1.528-0.971-3.115,0.098-4.633c1.608-2.284,3.217-4.567,4.84-6.84      c4.877-6.83,7.502-14.396,7.409-22.829C407.007,210.49,405.334,205.195,403.04,199.876z"/>
				<path d="M148.971,267.186c-0.373-13.643,4.333-27.606,12.439-40.6c5.707-9.148,11.82-17.97,20-25.118      c4.533-3.962,9.399-7.495,14.956-9.952c1.564-0.691,3.124-0.959,4.8-0.274c9.017,3.688,18.057,7.322,27.06,11.046      c0.691,0.286,1.371,1.026,1.689,1.722c2.025,4.449,2.956,9.205,3.257,14.033c1.767,28.42-7.593,52.729-27.482,72.962      c-6.343,6.452-13.833,11.366-22.633,13.898c-2.978,0.857-6.102,1.308-9.192,1.624c-1.252,0.128-2.786-0.299-3.858-0.991      c-5.484-3.542-10.89-7.21-16.242-10.95c-0.85-0.594-1.6-1.697-1.866-2.704C149.925,284.393,148.872,276.769,148.971,267.186z       M172.066,290.669c15.276-9.704,25.469-23.166,32.574-39.145c6.394-14.38,8.855-29.548,8.888-45.372      c-0.485,0.231-0.704,0.319-0.907,0.434c-7.264,4.097-13.59,9.354-18.666,15.949c-5.642,7.331-9.579,15.669-12.885,24.244      c-4.274,11.086-6.841,22.627-8.066,34.454C172.69,284.27,172.4,287.311,172.066,290.669z"/>
			</g>
			<path d="M300.887,352.032c-0.013,1.678-0.701,2.285-1.991,2.019c-15.679-3.233-31.554-3.759-47.472-3.163     c-13.667,0.511-27.317,1.431-40.979,2.091c-15.842,0.766-31.688,1.418-47.552,0.631c-10.419-0.517-20.59-2.246-30.3-6.21     c-4.017-1.64-7.777-3.734-10.889-6.802c-3.295-3.248-2.798-7.869,1.061-10.464c0.981-0.66,1.987-1.197,2.9,0.231     c0.242,0.378,0.88,0.515,1.348,0.735c5.761,2.711,11.913,3.972,18.161,4.861c10.839,1.542,21.714,1.157,32.6,0.684     c21.153-0.918,41.892-4.837,62.67-8.494c11.882-2.092,23.753-4.337,35.848-4.745c3.334-0.113,6.719,0.177,10.026,0.654     c4.565,0.659,7.71,3.418,9.595,7.58c2.104,4.646,3.216,9.582,4.064,14.584C300.325,348.277,300.623,350.337,300.887,352.032z"/>
		</g>
		<g>
			<path d="M499.969,193.85c-0.543,5.099-1.954,12.544-4.85,19.577c-5.097,12.375-10.278,24.722-15.746,36.937     c-7.382,16.492-15.105,32.832-22.601,49.274c-2.019,4.429-3.761,8.986-5.598,13.497c-1.185,2.91-2.194,3.415-4.959,2.049     c-2.624-1.295-5.267-2.609-7.706-4.213c-4.16-2.736-6.276-6.731-5.777-11.733c0.355-3.558,0.78-7.208,1.912-10.569     c2.609-7.744,5.533-15.39,8.569-22.979c8.063-20.155,16.267-40.254,24.388-60.386c3.926-9.733,7.819-19.479,11.671-29.241     c1.32-3.344,1.273-3.453,4.654-2.243c2.62,0.938,5.293,1.862,7.703,3.218C497.144,180.144,500.352,184.775,499.969,193.85z"/>
			<path d="M444.496,335.557c-0.344,1.466-0.582,2.968-1.053,4.392c-1.448,4.378-3.454,8.487-6.16,12.241     c-1.771,2.458-2.579,2.745-5.524,2.078c-3.637-0.824-7.02-2.22-10.143-4.253c-4.901-3.191-6.315-7.724-3.811-12.962     c1.831-3.833,3.899-7.554,5.905-11.301c0.374-0.699,0.922-1.318,1.453-1.918c0.847-0.959,1.86-1.152,3.074-0.65     c2.531,1.046,5.141,1.917,7.622,3.069c1.957,0.909,3.846,2.02,5.627,3.242C443.543,330.906,444.384,333.036,444.496,335.557z"/>
		</g>
	</g>
	<g>
		<path d="M195.788,140.24c-0.076-0.304-0.078-0.622,0.014-0.921c0.218-0.706,0.406-1.477,0.802-2.12    c3.982-6.474,7.183-13.303,9.678-20.483c0.282-0.811,1.163-1.632,1.969-1.991c1.141-0.507,2.39,0.44,2.777,1.951    c0.375,1.463,0.588,2.968,0.876,4.453c1.335,6.89,3.68,13.39,7.468,19.333c1.073,1.682,0.735,2.697-1.062,3.551    c-0.389,0.185-0.683,0.632-0.948,1.009c-3.906,5.563-6.477,11.733-8.257,18.259c-0.1,0.365-0.191,0.732-0.305,1.093    c-0.339,1.074-0.968,1.881-2.169,1.946c-1.261,0.067-2.055-0.68-2.444-1.793c-0.577-1.649-1.092-3.322-1.575-5.001    c-1.727-6.001-3.451-11.999-6.305-17.598C196.056,141.434,195.945,140.87,195.788,140.24z"/>
		<path d="M357.837,367.122c0.087,0.418,0.066,0.853-0.062,1.26c-0.225,0.716-0.439,1.5-0.88,2.12    c-4.159,5.846-6.912,12.367-9.349,19.05c-0.211,0.577-0.3,1.28-0.691,1.691c-0.604,0.634-1.426,1.478-2.145,1.468    c-0.725-0.011-1.659-0.816-2.098-1.524c-0.554-0.893-0.757-2.026-1.011-3.08c-1.332-5.533-3.695-10.637-6.639-15.457    c-1.653-2.707-1.402-4.926,0.278-7.588c3.228-5.115,6.073-10.472,9.076-15.728c0.305-0.534,0.568-1.096,0.915-1.601    c1.297-1.891,3.604-1.818,4.536,0.258c2.612,5.819,5.125,11.682,7.646,17.541C357.618,366.006,357.713,366.526,357.837,367.122z"/>
		<path d="M83.185,370.903c0.141,0.503,0.102,1.042-0.108,1.52c-0.239,0.543-0.486,1.101-0.876,1.53    c-4.54,4.993-7.541,10.838-9.699,17.168c-0.359,1.054-0.97,1.892-2.187,1.923c-1.197,0.031-1.908-0.752-2.363-1.748    c-0.787-1.719-1.433-3.507-2.292-5.187c-2.023-3.953-4.031-7.921-6.256-11.761c-1.234-2.13-1.422-4.081-0.096-6.109    c3.771-5.768,6.021-12.18,8.033-18.699c0.139-0.449,0.305-0.902,0.536-1.31c0.927-1.63,2.92-1.683,3.926-0.094    c0.273,0.432,0.467,0.935,0.601,1.431c1.613,5.971,4.511,11.305,8.014,16.351c0.834,1.202,1.598,2.458,2.313,3.734    C82.935,370.018,83.054,370.434,83.185,370.903z"/>
		<path d="M38.893,165.443c-0.57,0.525-1.442,0.562-2.053,0.084c-0.442-0.346-0.816-0.666-1.036-1.069    c-3.275-6.015-6.461-12.079-9.686-18.121c-0.843-1.579-0.959-3.199,0.348-4.466c4.063-3.939,5.539-9.148,7.237-14.258    c0.551-1.658,0.985-3.355,1.507-5.023c0.379-1.212,1.048-2.147,2.49-2.102c1.211,0.038,2.035,0.889,2.239,2.508    c0.945,7.52,4.3,13.924,9.016,19.714c1.349,1.655,1.262,2.865-0.18,4.369c-4.252,4.434-6.994,9.694-8.489,15.63    c-0.15,0.595-0.178,1.276-0.502,1.757C39.55,164.814,39.248,165.116,38.893,165.443z"/>
		<path d="M469.877,158.296c-1.277-0.069-2.076-0.816-2.635-1.881c-1.186-2.26-2.311-4.554-3.553-6.783    c-1.496-2.683-3.088-5.312-4.637-7.965c-1.024-1.754-0.952-3.024,0.29-4.571c3.254-4.051,6.517-8.096,9.778-12.142    c0.297-0.368,0.597-0.735,0.913-1.086c1.926-2.132,3.832-1.776,4.761,0.922c1.045,3.036,1.983,6.11,3.079,9.128    c0.676,1.861,1.526,3.662,2.371,5.456c0.248,0.526,0.682,1.017,1.145,1.378c0.941,0.734,0.875,1.503,0.211,2.314    c-0.688,0.84-1.406,1.659-2.16,2.439c-2.995,3.098-5.36,6.583-6.819,10.67C472.183,157.398,471.293,158.239,469.877,158.296z"/>
		<path d="M257.553,421.018c-0.642,0.682-1.711,0.906-2.491,0.387c-0.458-0.305-0.705-0.754-0.824-1.329    c-0.172-0.832-0.245-1.684-0.384-2.524c-0.476-2.888-1.534-5.545-3.186-7.964c-0.907-1.327-1.815-2.653-2.714-3.986    c-0.733-1.086-0.937-2.302-0.034-3.287c3.324-3.626,5.036-8.187,7.371-12.386c0.39-0.702,0.764-1.417,1.208-2.083    c0.62-0.928,1.556-1.672,2.614-1.194c0.788,0.356,1.54,1.225,1.878,2.043c0.534,1.293,0.657,2.749,1.045,4.111    c1.071,3.752,2.692,7.251,4.829,10.525c1.234,1.891,1.13,3.043-0.445,4.547c-3.74,3.571-6.949,7.462-8.486,12.534    C257.867,420.635,257.724,420.836,257.553,421.018z"/>
		<g>
			<path d="M193.721,395.726c-1.228-0.013-1.736-0.657-1.299-1.591c0.329-0.702,0.819-1.433,1.435-1.878     c2.826-2.041,5.692-4.032,8.622-5.919c0.482-0.31,1.356-0.012,2.049,0.006c-0.098,0.597,0.021,1.424-0.329,1.755     c-2.877,2.717-5.74,5.477-9.349,7.253C194.436,395.556,193.967,395.647,193.721,395.726z"/>
			<path d="M176.36,405.018c-0.494,1.271-0.824,2.466-1.398,3.53c-1.633,3.03-3.335,6.024-5.094,8.982     c-0.238,0.401-0.961,0.514-1.459,0.76c-0.205-0.521-0.447-1.032-0.596-1.568c-0.054-0.191,0.087-0.458,0.186-0.669     c1.583-3.371,3.159-6.744,4.774-10.1c0.304-0.631,0.676-1.288,1.187-1.742c0.391-0.348,1.1-0.612,1.572-0.502     C175.88,403.792,176.075,404.534,176.36,405.018z"/>
			<path d="M191.942,378.311c-0.112,0.607-0.123,0.952-0.24,1.256c-1.393,3.615-2.769,7.238-4.234,10.823     c-0.312,0.763-0.881,1.48-1.498,2.034c-0.331,0.297-1.088,0.388-1.509,0.218c-0.261-0.105-0.461-0.949-0.328-1.337     c0.596-1.741,1.262-3.464,2.014-5.144c1.196-2.674,2.452-5.322,3.76-7.943c0.196-0.393,0.811-0.79,1.23-0.788     C191.445,377.431,191.749,378.083,191.942,378.311z"/>
			<path d="M179.088,388.038c-0.075,1.728-0.683,2.796-1.66,2.721c-1.501-0.117-1.487-1.417-1.628-2.44     c-0.495-3.595-0.943-7.198-1.31-10.807c-0.045-0.446,0.501-0.952,0.774-1.431c0.462,0.315,1.223,0.545,1.34,0.958     C177.608,380.564,179.092,387.944,179.088,388.038z"/>
			<path d="M170.3,393.156c-1.102-0.443-2.077-0.693-2.9-1.192c-2.62-1.589-5.208-3.235-7.746-4.951     c-0.433-0.293-0.558-1.04-0.825-1.577c0.624-0.158,1.375-0.624,1.851-0.426c3.739,1.551,7.564,2.977,10.728,5.617     c0.366,0.305,0.773,1.192,0.633,1.354C171.607,392.484,170.919,392.768,170.3,393.156z"/>
			<path d="M165.171,398.892c0.787,0.499,1.779,0.774,2.009,1.352c0.426,1.07-0.511,1.809-1.419,2.103     c-1.564,0.506-3.181,0.885-4.803,1.163c-1.954,0.335-3.931,0.569-5.908,0.705c-0.452,0.031-0.944-0.518-1.417-0.799     c0.309-0.473,0.525-1.239,0.943-1.372C158.033,400.943,161.526,399.959,165.171,398.892z"/>
			<path d="M191.213,400.266c1.375,0.416,2.467,0.608,3.433,1.065c2.389,1.13,4.728,2.366,7.07,3.592     c0.691,0.362,1.442,0.944,0.89,1.753c-0.27,0.397-1.3,0.648-1.795,0.46c-3.431-1.305-6.828-2.704-10.193-4.173     c-0.581-0.254-0.955-0.983-1.424-1.493C189.911,401.043,190.626,400.616,191.213,400.266z"/>
			<path d="M189.528,417.161c-0.086,1.191-0.674,1.547-1.558,1.251c-0.405-0.136-0.832-0.518-1.032-0.902     c-1.484-2.847-2.959-5.7-4.331-8.602c-0.404-0.854-0.831-2.059,0.299-2.661c1.248-0.664,2.139,0.305,2.599,1.302     c1.104,2.395,2.041,4.867,3.049,7.307C188.895,415.678,189.246,416.494,189.528,417.161z"/>
		</g>
		<g>
			<path d="M279.058,147.504c1.717-0.011,2.405,1.088,1.643,2.281c-0.903,1.415-2.005,2.737-3.195,3.926     c-1.634,1.634-3.444,3.092-5.152,4.655c-0.552,0.505-0.95,1.201-1.55,1.621c-0.461,0.324-1.307,0.648-1.658,0.436     c-0.401-0.242-0.555-1.07-0.598-1.659c-0.026-0.356,0.299-0.797,0.572-1.106c2.593-2.939,5.173-5.89,7.843-8.758     C277.602,148.212,278.563,147.824,279.058,147.504z"/>
			<path d="M298.821,134.239c0.17-0.402,0.349-1.167,0.77-1.761c1.117-1.574,2.32-3.088,3.523-4.6     c1.262-1.587,2.514-3.189,3.88-4.683c0.356-0.389,1.194-0.648,1.677-0.508c0.362,0.106,0.617,0.928,0.716,1.468     c0.067,0.366-0.128,0.862-0.361,1.188c-2.246,3.141-4.504,6.275-6.818,9.366c-0.375,0.501-0.996,0.896-1.587,1.14     C299.617,136.266,298.829,135.652,298.821,134.239z"/>
			<path d="M304.318,147.058c-1.105-0.243-2.045-0.291-2.82-0.674c-0.537-0.266-1.126-0.972-1.165-1.52     c-0.03-0.417,0.691-1.108,1.215-1.296c1.055-0.378,2.193-0.576,3.313-0.706c2.725-0.318,5.46-0.562,8.191-0.822     c0.923-0.088,1.929-0.135,2.165,1.041c0.223,1.114-0.617,1.684-1.519,1.899C310.53,145.733,307.34,146.396,304.318,147.058z"/>
			<path d="M284.908,129.509c0.029,1.105-0.86,1.848-1.805,1.431c-0.741-0.327-1.531-0.869-1.953-1.535     c-2.119-3.349-4.148-6.756-6.134-10.184c-0.217-0.374,0.037-1.021,0.073-1.542c0.563,0.041,1.382-0.144,1.649,0.159     c3.031,3.43,6.017,6.907,7.993,11.1C284.83,129.147,284.87,129.384,284.908,129.509z"/>
			<path d="M291.333,128.083c0.583-3.682,1.178-7.651,1.881-11.6c0.08-0.447,0.766-0.786,1.171-1.175     c0.366,0.468,1.068,0.954,1.045,1.402c-0.225,4.386-0.555,8.767-0.904,13.145c-0.039,0.489-0.298,1.014-0.596,1.418     c-0.671,0.907-1.872,0.723-2.188-0.358C291.507,130.112,291.491,129.245,291.333,128.083z"/>
			<path d="M288.799,158.497c-0.556,3.482-1.048,6.847-1.678,10.186c-0.088,0.466-0.851,0.805-1.301,1.202     c-0.4-0.455-1.166-0.93-1.142-1.361c0.232-4.193,0.564-8.382,0.968-12.563c0.043-0.447,0.708-1.136,1.121-1.163     c0.459-0.031,1.201,0.466,1.391,0.915C288.534,156.599,288.613,157.611,288.799,158.497z"/>
			<path d="M270.196,137.623c0.974,0,2.542-0.087,4.094,0.029c1.1,0.083,2.712-0.123,2.712,1.544c0,1.513-1.521,1.506-2.6,1.576     c-1.693,0.109-3.401,0.053-5.1-0.002c-1.606-0.053-3.214-0.157-4.813-0.314c-0.787-0.078-1.733-0.191-1.714-1.293     c0.019-1.075,0.904-1.211,1.732-1.262C266.207,137.798,267.909,137.732,270.196,137.623z"/>
			<path d="M305.758,166.025c-0.537-0.264-1.08-0.395-1.434-0.728c-2.436-2.299-4.838-4.635-7.234-6.975     c-0.264-0.258-0.519-0.592-0.617-0.936c-0.105-0.37-0.171-0.915,0.025-1.161c0.199-0.249,0.839-0.424,1.112-0.286     c1.251,0.632,2.621,1.194,3.615,2.134c1.917,1.812,3.635,3.839,5.364,5.838c0.265,0.307,0.29,0.98,0.167,1.409     C306.673,165.612,306.137,165.775,305.758,166.025z"/>
		</g>
		<g>
			<path d="M389.87,384.65c-0.263,1.391,0.06,2.813-1.393,3.013c-1.461,0.2-1.736-1.15-1.862-2.206     c-0.438-3.658-0.809-7.327-1.093-11c-0.036-0.472,0.586-0.994,0.904-1.493c0.461,0.39,1.229,0.711,1.334,1.18     C388.557,377.741,389.226,381.366,389.87,384.65z"/>
			<path d="M393.391,387.43c0.183-0.421,0.401-1.214,0.833-1.864c1.307-1.963,2.714-3.858,4.045-5.806     c0.475-0.696,0.763-1.531,1.289-2.177c0.298-0.365,0.931-0.681,1.368-0.631c0.318,0.036,0.675,0.675,0.806,1.109     c0.111,0.368,0.04,0.891-0.149,1.235c-1.495,2.722-2.992,5.446-4.601,8.101c-0.39,0.643-1.136,1.146-1.826,1.513     C394.109,389.469,393.378,388.951,393.391,387.43z"/>
			<path d="M387.521,402.031c-0.584,1.967-1.038,3.597-1.555,5.207c-0.577,1.797-1.153,3.599-1.859,5.348     c-0.192,0.475-0.847,0.763-1.289,1.137c-0.288-0.528-0.839-1.071-0.81-1.581c0.072-1.262,0.371-2.517,0.65-3.759     c0.506-2.253,1.018-4.507,1.622-6.735c0.227-0.835,0.625-2.005,1.74-1.57C386.693,400.34,387.059,401.39,387.521,402.031z"/>
			<path d="M401.881,396.597c-1.567-0.211-2.97-0.044-3.169-1.403c-0.188-1.284,1.118-1.711,2.109-1.855     c3.124-0.454,6.267-0.782,9.411-1.082c0.345-0.033,0.988,0.386,1.048,0.685c0.081,0.403-0.214,0.926-0.457,1.332     c-0.121,0.203-0.472,0.313-0.74,0.378C407.197,395.347,404.308,396.024,401.881,396.597z"/>
			<path d="M394.815,401.656c0.795,0.481,1.711,0.79,2.265,1.417c1.523,1.725,2.909,3.573,4.321,5.394     c0.606,0.783,1.199,1.588,1.683,2.448c0.192,0.341,0.256,1.079,0.055,1.244c-0.318,0.262-0.907,0.24-1.382,0.245     c-0.194,0.002-0.432-0.204-0.58-0.375c-2.372-2.745-4.752-5.483-7.072-8.272c-0.28-0.337-0.324-0.967-0.273-1.44     C393.855,402.102,394.373,401.938,394.815,401.656z"/>
			<path d="M381.362,389.377c-0.811-0.177-1.393-0.221-1.908-0.429c-2.797-1.126-5.583-2.281-8.359-3.457     c-0.422-0.179-0.851-0.457-1.137-0.804c-0.201-0.244-0.313-0.749-0.195-1.018c0.115-0.26,0.563-0.399,0.89-0.529     c0.157-0.063,0.381-0.019,0.556,0.036c3.15,0.976,6.301,1.946,9.439,2.958c0.481,0.155,1.017,0.418,1.313,0.798     c0.362,0.465,0.744,1.154,0.647,1.656C382.537,388.955,381.708,389.175,381.362,389.377z"/>
			<path d="M377.023,395.762c1.416,0.026,2.041,1.036,1.325,1.939c-0.537,0.677-1.311,1.236-2.088,1.64     c-2.435,1.264-4.899,2.478-7.402,3.598c-0.586,0.262-1.715,0.366-1.998,0.034c-0.678-0.794,0.066-1.492,0.768-1.931     c2.525-1.58,5.064-3.141,7.631-4.652C375.854,396.038,376.582,395.913,377.023,395.762z"/>
		</g>
		<g>
			<path d="M410.781,141.922c-0.534-0.398-1.247-0.661-1.311-1.035c-0.105-0.613-0.003-1.506,0.391-1.914     c0.975-1.008,2.108-1.893,3.28-2.675c2.354-1.57,4.771-3.047,7.177-4.539c0.435-0.27,0.93-0.563,1.415-0.597     c0.45-0.031,1.164,0.145,1.327,0.457c0.206,0.393-0.003,1.022-0.092,1.538c-0.026,0.15-0.242,0.28-0.39,0.395     c-2.973,2.325-5.924,4.682-8.943,6.946C412.835,141.1,411.821,141.415,410.781,141.922z"/>
			<path d="M420.068,149.056c0.459,0.182,0.988,1.26,0.829,1.666c-0.205,0.521-1.149,1.182-1.644,1.089     c-2.995-0.563-5.968-1.266-8.914-2.05c-0.96-0.255-1.865-0.928-1.622-2.155c0.273-1.381,1.488-1.196,2.488-1.314     C411.253,146.169,417.199,147.919,420.068,149.056z"/>
			<path d="M403.323,135.021c1.14-3.468,2.225-6.871,3.415-10.236c0.123-0.349,0.874-0.477,1.334-0.707     c0.224,0.471,0.714,0.998,0.628,1.404c-0.651,3.086-1.405,6.151-2.157,9.215c-0.099,0.401-0.276,0.866-0.572,1.117     c-0.46,0.388-1.112,0.916-1.573,0.825C403.997,136.559,403.748,135.707,403.323,135.021z"/>
			<path d="M396.941,152.834c-0.264,1.042-0.378,1.851-0.673,2.588c-0.893,2.235-1.851,4.444-2.796,6.657     c-0.312,0.73-0.791,1.526-1.648,1.042c-0.391-0.221-0.615-1.22-0.496-1.777c0.453-2.12,1.022-4.22,1.66-6.293     c0.301-0.979,0.741-1.963,1.34-2.783c0.339-0.464,1.176-0.88,1.698-0.791C396.431,151.546,396.693,152.435,396.941,152.834z"/>
			<path d="M389.635,145.222c0.387,0.255,1.066,0.463,1.199,0.855c0.139,0.411-0.087,1.207-0.432,1.471     c-0.887,0.679-1.872,1.315-2.919,1.681c-2.183,0.764-4.418,1.393-6.661,1.961c-0.537,0.136-1.189-0.186-1.789-0.297     c0.352-0.536,0.581-1.302,1.078-1.568c2.208-1.179,4.476-2.249,6.757-3.283C387.674,145.678,388.578,145.528,389.635,145.222z"/>
			<path d="M391.295,140.518c-1.07-0.3-1.972-0.441-2.776-0.801c-2.062-0.923-4.112-1.886-6.096-2.962     c-0.494-0.268-0.721-1.028-1.071-1.563c0.596-0.127,1.243-0.471,1.778-0.345c2.243,0.529,4.469,1.148,6.667,1.842     c0.834,0.263,1.682,0.701,2.321,1.282c0.389,0.355,0.631,1.201,0.491,1.702C392.5,140.069,391.707,140.275,391.295,140.518z"/>
			<path d="M403.65,153.045c0.348,0.206,0.978,0.451,1.442,0.877c2.382,2.185,3.236,5.251,4.499,8.072     c0.115,0.257-0.141,0.902-0.399,1.041c-0.259,0.139-0.919-0.001-1.092-0.242c-1.83-2.561-3.67-5.121-5.348-7.782     C402.07,153.929,402.48,153.105,403.65,153.045z"/>
			<path d="M400.116,135.602c-0.2,0.275-0.469,1.014-0.878,1.103c-0.427,0.093-1.2-0.314-1.45-0.728     c-0.552-0.915-0.968-1.942-1.266-2.974c-0.678-2.351-1.276-4.726-1.846-7.106c-0.092-0.386,0.123-0.847,0.197-1.273     c0.375,0.202,0.955,0.313,1.094,0.621c1.369,3.047,2.671,6.125,3.974,9.201C400.047,134.697,400.03,135.001,400.116,135.602z"/>
		</g>
		<g>
			<path d="M124.534,99.835c-0.471-0.235-1.138-0.592-1.206-0.986c-0.085-0.485,0.25-1.157,0.608-1.572     c0.346-0.401,0.921-0.685,1.448-0.834c2.49-0.706,4.994-1.361,7.502-2c0.4-0.102,0.881-0.147,1.257-0.02     c0.447,0.151,1.077,0.452,1.164,0.803c0.109,0.44-0.13,1.101-0.446,1.473c-0.343,0.403-0.923,0.649-1.444,0.847     C130.92,98.495,124.894,100.015,124.534,99.835z"/>
			<path d="M119.394,92.454c0.531-1.078,0.947-2.143,1.545-3.095c1.535-2.444,3.114-4.863,4.765-7.229     c0.304-0.435,1.029-0.576,1.56-0.852c0.103,0.623,0.49,1.389,0.261,1.846c-1.437,2.875-2.973,5.704-4.567,8.495     c-0.406,0.712-1.087,1.312-1.757,1.807c-0.293,0.216-0.922,0.152-1.311-0.003C119.647,93.326,119.567,92.82,119.394,92.454z"/>
			<path d="M107.916,101.339c-0.289,0.365-0.572,0.956-1.04,1.272c-1.367,0.922-2.793,1.759-4.223,2.581     c-1.598,0.919-3.207,1.823-4.854,2.65c-0.379,0.19-0.929,0.039-1.4,0.044c0.044-0.477-0.1-1.183,0.16-1.395     c2.92-2.382,5.702-4.998,9.4-6.194C106.784,100.03,107.577,100.022,107.916,101.339z"/>
			<path d="M114.529,89.777c-0.027,0.565,0.043,1.159-0.113,1.685c-0.115,0.387-0.511,0.944-0.808,0.961     c-0.401,0.023-1.06-0.306-1.198-0.65c-0.382-0.95-0.689-1.974-0.779-2.99c-0.269-3.052-0.444-6.114-0.588-9.175     c-0.02-0.424,0.339-0.866,0.522-1.299c0.375,0.342,0.999,0.631,1.086,1.036C113.39,82.798,114.587,89.764,114.529,89.777z"/>
			<path d="M111.061,106.601c0.048-0.583,0.746-1.112,1.146-1.666c0.542,0.498,1.322,0.901,1.566,1.517     c0.315,0.794,0.341,1.773,0.244,2.645c-0.259,2.341-0.594,4.678-1.036,6.991c-0.092,0.483-0.777,0.853-1.188,1.275     c-0.276-0.48-0.745-0.943-0.79-1.444C110.889,114.657,110.911,108.425,111.061,106.601z"/>
			<path d="M121.9,104.859c0.6,0.239,1.146,0.338,1.546,0.634c2.341,1.738,4.686,3.476,6.932,5.333     c0.395,0.326,0.324,1.216,0.468,1.845c-0.615-0.101-1.319-0.045-1.83-0.332c-1.521-0.854-3.024-1.764-4.423-2.801     c-1.2-0.89-2.279-1.954-3.338-3.014c-0.236-0.236-0.297-0.815-0.195-1.165C121.128,105.124,121.623,105.011,121.9,104.859z"/>
			<path d="M105.186,94.913c-1.042-0.338-1.857-0.483-2.554-0.852c-1.798-0.951-3.574-1.953-5.287-3.045     c-0.402-0.256-0.523-0.954-0.774-1.449c0.513-0.088,1.1-0.381,1.528-0.229c2.577,0.912,5.144,1.867,7.649,2.956     c0.482,0.21,1.027,1.173,0.908,1.621C106.535,94.376,105.639,94.632,105.186,94.913z"/>
		</g>
		<g>
			<path d="M17.484,339.326c-0.431,0.536-0.803,1.427-1.377,1.585c-0.502,0.138-1.398-0.406-1.819-0.903     c-0.593-0.703-0.996-1.607-1.327-2.484c-1.149-3.048-2.232-6.121-3.337-9.186c-0.08-0.222-0.151-0.45-0.191-0.682     c-0.163-0.951-0.687-2.129,0.558-2.603c1.201-0.458,1.596,0.723,1.991,1.546c1.492,3.108,2.968,6.225,4.387,9.367     C16.811,336.944,17.055,338.011,17.484,339.326z"/>
			<path d="M23.354,324.382c0.145-0.792,0.472-1.672,1.557-1.428c0.999,0.225,0.876,1.101,0.794,1.855     c-0.428,3.94-0.857,7.879-1.326,11.814c-0.094,0.789-0.251,1.612-0.596,2.313c-0.225,0.459-0.84,0.727-1.28,1.08     c-0.333-0.452-0.821-0.862-0.959-1.367C21.377,338.035,22.608,328.459,23.354,324.382z"/>
			<path d="M30.797,343.25c-0.399-0.272-1.058-0.485-1.218-0.894c-0.163-0.415,0.031-1.118,0.315-1.522     c0.367-0.522,0.92-0.99,1.494-1.276c2.788-1.387,5.587-2.762,8.444-3.996c0.536-0.232,1.357,0.195,2.047,0.318     c-0.279,0.635-0.38,1.548-0.866,1.858c-2.664,1.702-5.411,3.277-8.159,4.843C32.296,342.9,31.611,342.994,30.797,343.25z"/>
			<path d="M3.36,361.063c-0.355-0.525-0.709-0.895-0.863-1.336c-0.086-0.247,0.073-0.687,0.27-0.908     c2.414-2.699,4.848-5.381,7.3-8.045c0.243-0.264,0.628-0.509,0.972-0.547c0.637-0.071,1.292,0.018,1.939,0.041     c-0.1,0.651,0.007,1.456-0.341,1.922c-0.812,1.087-1.812,2.041-2.79,2.993c-1.69,1.645-3.416,3.253-5.14,4.862     C4.378,360.352,3.986,360.594,3.36,361.063z"/>
			<path d="M35.945,358.912c-0.479-0.275-0.898-0.422-1.193-0.7c-2.332-2.199-4.643-4.421-6.951-6.645     c-0.2-0.193-0.417-0.435-0.481-0.69c-0.141-0.56-0.188-1.144-0.273-1.717c0.564,0.001,1.236-0.195,1.673,0.041     c1.235,0.668,2.518,1.363,3.518,2.322c1.629,1.564,3.09,3.312,4.526,5.062c0.318,0.388,0.378,1.132,0.278,1.659     C36.99,358.523,36.338,358.689,35.945,358.912z"/>
			<path d="M21.788,365.542c-0.042,0.054-0.289,0.675-0.636,0.738c-0.453,0.082-1.126-0.145-1.447-0.484     c-0.354-0.374-0.492-1.01-0.593-1.557c-0.523-2.83-1.008-5.667-1.496-8.503c-0.056-0.324-0.153-0.7-0.045-0.98     c0.201-0.521,0.449-1.279,0.843-1.401c0.435-0.134,1.331,0.184,1.544,0.571c0.557,1.008,1.067,2.135,1.205,3.263     C21.485,359.808,21.574,362.455,21.788,365.542z"/>
			<path d="M2.44,341.352c1.852,0.115,3.367,0.147,4.864,0.326c0.828,0.099,1.711,0.303,2.413,0.722     c0.551,0.329,0.862,1.06,1.279,1.612c-0.616,0.312-1.287,0.967-1.838,0.879c-2.788-0.45-5.553-1.06-8.304-1.709     c-0.352-0.083-0.573-0.717-0.855-1.095c0.362-0.245,0.695-0.614,1.092-0.703C1.631,341.26,2.218,341.352,2.44,341.352z"/>
		</g>
	</g>
</g>















</svg>
