<?xml version="1.0" encoding="UTF-8"?>
<!-- Generator: Adobe Illustrator 25.2.0, SVG Export Plug-In . SVG Version: 6.00 Build 0)  -->
<svg xmlns="http://www.w3.org/2000/svg" xmlns:xlink="http://www.w3.org/1999/xlink" version="1.1" id="Capa_1" x="0px" y="0px" viewBox="0 0 500 500" style="enable-background:new 0 0 500 500;" xml:space="preserve" width="512" height="512">
<g>
	<path d="M259.891,406.288c-0.479,0.507-0.685,0.699-0.861,0.916c-9.488,11.684-21.333,20.257-34.992,26.398   c-5.428,2.44-11.169,3.546-17.124,3.398c-1.111-0.028-1.532,0.363-1.927,1.396c-2.587,6.759-4.963,13.623-7.998,20.179   c-6.075,13.122-15.04,23.959-26.866,32.401c-6.156,4.394-13.049,6.717-20.381,8.172c-9.549,1.895-18.726,0.506-27.601-2.993   c-26.025-10.262-43.227-29.126-53.477-54.883c-10.34-25.983-10.133-52.242-2.922-78.84c3.531-13.026,8.396-25.449,15.562-36.944   c1.58-2.534,2.665-5.382,3.911-8.116c1.093-2.4,0.718-4.687-0.809-6.792c-2.397-3.305-4.955-6.503-7.197-9.91   c-3.699-5.621-7.355-11.282-10.75-17.09c-6.003-10.268-8.271-21.665-9.377-33.324c-1.076-11.343-1.474-22.719-0.949-34.112   c0.16-3.467,0.45-6.927,0.675-10.391c0.036-0.56,0.075-1.122,0.064-1.683c-0.048-2.287-0.364-2.689-2.553-3.352   c-3.465-1.049-6.94-2.064-10.39-3.161c-10.103-3.213-18.051-9.492-24.877-17.419c-8.568-9.951-14.445-21.272-16.924-34.161   c-1.87-9.723-0.548-19.358,2.506-28.695c6.398-19.562,16.441-36.881,32.138-50.519c8.596-7.468,17.829-13.949,28.856-17.503   c8.894-2.866,17.769-3.051,26.858-0.963c7.607,1.748,14.928,4.144,21.829,7.791c9.235,4.881,16.986,11.341,22.585,20.338   c4.298,6.905,8.63,13.752,10.981,21.619c0.946,3.167,1.76,6.374,2.646,9.604c2.59-0.672,5.22-1.437,7.888-2.027   c4.716-1.043,9.483-1.451,14.295-0.728c5.812,0.874,10.611,3.766,14.964,7.54c0.263,0.228,0.513,0.473,0.745,0.687   c11.439-7.462,24.354-10.705,37.311-13.804c12.617-3.019,25.445-4.857,38.26-6.786c9.027-1.359,18.01-3.013,27.01-4.551   c0.751-0.128,1.478-0.391,2.22-0.572c1.874-0.457,3.091-1.62,3.419-3.507c0.656-3.766,1.249-7.544,1.795-11.328   c1.315-9.101,2.747-18.163,6.703-26.601c10.385-22.147,27.931-35.681,51.118-42.295c3.293-0.939,6.837-1.12,10.285-1.374   c16.148-1.191,30.639,4.084,44.391,11.829c3.526,1.986,6.623,4.733,10.037,7.218c0.129-0.161,0.419-0.484,0.662-0.838   c2.854-4.169,5.556-8.453,8.604-12.475c1.829-2.413,4.099-4.524,6.351-6.573c1.684-1.531,3.793-1.754,6.044-1.164   c7.272,1.908,14.361,4.276,21.098,7.672c7.825,3.944,14.799,9.09,20.027,16.063c6.9,9.202,11.548,19.547,13.254,31.063   c1.063,7.179,1.764,14.382,1.723,21.649c-0.055,9.826-2.578,19.154-5.525,28.424c-3.526,11.089-8.642,21.491-13.864,31.811   c-6.954,13.742-14.053,27.426-22.259,40.489c-0.541,0.862-1.122,1.698-1.684,2.547c7.542,8.16,9.514,20.953,4.555,31.44   c-1.133,2.395-1.044,3.844,0.838,5.739c8.317,8.376,13.096,18.627,15.2,30.145c1.621,8.877,0.429,17.582-2.079,26.157   c-0.1,0.342-0.133,0.733-0.323,1.016c-1.667,2.476-0.709,4.64,0.643,6.865c4.791,7.88,7.86,16.431,9.91,25.4   c3.635,15.907,1.812,31.364-3.878,46.442c-8.553,22.667-24.523,38-46.895,46.943c-13.643,5.454-27.729,8.717-42.454,8.803   c-8.91,0.052-17.729-0.946-26.349-3.303c-1.008-0.276-1.348,0.113-1.779,0.828c-5.197,8.621-11.505,16.366-18.73,23.351   c-9.206,8.901-19.806,15.52-32.13,19.24c-10.092,3.046-20.088,3.105-29.987-0.853c-3.169-1.267-6.456-2.261-9.567-3.65   c-7.596-3.393-13.28-8.524-14.88-17.17c-0.997-5.385-0.55-10.669,0.947-15.899C258.898,409.908,259.334,408.296,259.891,406.288z    M141.039,114.458c-0.131-1.113-0.212-1.965-0.333-2.812c-0.281-1.965-0.419-3.968-0.902-5.883   c-1.76-6.979-4.924-13.402-8.292-19.7c-6.61-12.359-15.453-22.627-28.01-29.368c-12.699-6.817-25.701-8.004-39.223-2.623   c-9.204,3.662-17.088,9.338-24.442,15.79c-15.194,13.329-24.847,30.247-31.21,49.184c-2.864,8.525-4.18,17.358-2.517,26.26   c2.323,12.44,7.951,23.357,16.269,32.945c6.974,8.038,15.266,13.931,25.563,16.858c2.6,0.739,5.208,1.452,7.796,2.23   c3.375,1.015,4.683,2.732,4.745,6.237c0.023,1.273-0.073,2.551-0.156,3.823c-0.263,4.023-0.688,8.04-0.795,12.067   c-0.287,10.779,0.106,21.543,1.245,32.269c1.219,11.481,3.933,22.538,10.077,32.467c3.567,5.764,7.418,11.354,11.213,16.975   c1.826,2.705,3.892,5.249,5.716,7.955c1.892,2.807,2.267,5.909,0.967,9.055c-1.206,2.917-2.345,5.913-3.971,8.597   c-8.053,13.293-13.032,27.754-16.515,42.785c-4.982,21.5-5.158,42.853,1.963,64.021c4.339,12.898,10.125,24.958,19.275,35.181   c9.333,10.427,20.456,18.044,34.161,21.608c15.121,3.932,28.247,0.445,39.475-10.369c4.246-4.089,7.942-8.63,11.314-13.46   c6.694-9.589,11.121-20.275,15.232-31.124c0.976-2.574,1.995-5.133,3.056-7.674c1.371-3.285,3.891-4.863,7.441-4.83   c1.379,0.013,2.757-0.005,4.136,0.004c10.365,0.064,20.239-2.112,29.679-6.386c7.236-3.277,13.445-8.093,19.682-12.881   c1.861-1.429,3.707-2.901,5.698-4.129c2.496-1.54,4.583-0.32,4.718,2.613c0.028,0.608,0.01,1.237-0.115,1.828   c-0.485,2.293-0.961,4.591-1.554,6.857c-1.049,4.014-1.863,8.031-1.663,12.23c0.343,7.225,3.595,12.625,9.808,16.278   c3.704,2.178,7.702,3.539,11.957,4.019c8.982,1.013,17.37-1.029,25.175-5.41c13.841-7.77,25.645-18.001,35.403-30.475   c4.298-5.495,7.927-11.513,11.891-17.271c2.465-3.58,4.175-4.093,8.355-2.991c3.249,0.857,6.52,1.745,9.839,2.211   c14.087,1.979,27.986,0.744,41.765-2.623c12.046-2.944,23.251-7.701,33.132-15.243c14.313-10.925,22.823-25.643,27.109-42.896   c3.144-12.658,3.514-25.335-0.921-37.86c-2.448-6.913-5.84-13.368-9.535-19.664c-2.13-3.63-2.731-7.355-1.884-11.463   c1.499-7.265,2.57-14.553,1.357-22.022c-1.325-8.157-3.895-15.723-9.317-22.139c-1.58-1.87-3.021-3.858-4.501-5.811   c-1.397-1.843-1.438-3.712-0.518-5.879c1.311-3.085,2.43-6.271,3.374-9.489c1.744-5.95,0.509-11.403-3.209-16.32   c-0.862-1.14-1.752-2.259-2.647-3.373c-1.809-2.252-1.744-3.419-0.047-5.711c1.848-2.496,3.715-5.008,5.254-7.696   c3.067-5.357,5.991-10.799,8.841-16.275c9.788-18.807,16.657-38.785,23.246-58.851c3.691-11.239,6.268-22.771,5.496-34.726   c-0.622-9.638-3.018-18.774-9.511-26.299c-5.088-5.896-11.134-10.614-18.188-14.022c-6.323-3.055-12.961-5.178-19.67-7.169   c-2.165-0.643-3.828-0.371-5.192,1.316c-2.177,2.693-4.368,5.385-6.37,8.207c-4.193,5.909-8.255,11.91-12.398,17.854   c-1.103,1.583-2.619,1.837-4.255,0.784c-0.511-0.329-1.002-0.718-1.418-1.16c-6.32-6.713-13.76-12.082-21.514-16.882   c-9.808-6.071-20.594-9.211-32.19-6.655C342.723,11.045,328.79,19.7,317.838,32.88c-9.138,10.998-13.767,23.937-15.406,38.054   c-0.535,4.607-1.289,9.193-2.109,13.76c-0.617,3.438-2.802,5.637-6.187,6.467c-3.167,0.777-6.353,1.528-9.572,2.028   c-14.167,2.202-28.366,4.201-42.52,6.484c-12.951,2.089-25.816,4.687-38.179,9.19c-5.061,1.843-9.958,4.177-14.807,6.54   c-2.219,1.082-2.219,1.391-4.165-0.225c-7.162-5.946-15.427-7.451-24.419-6.2c-5.953,0.828-11.598,2.699-17.164,4.875   C142.636,114.117,141.903,114.233,141.039,114.458z"/>
	<g>
		<path d="M393.569,231.973c2.217-0.39,4.149-0.851,6.107-1.052c6.387-0.654,12.618-0.108,18.604,2.469    c7.91,3.406,11.841,9.688,12.111,17.957c0.491,15.04-6.195,26.318-19.256,33.692c-5.974,3.373-12.384,5.747-19.403,5.146    c-12.41-1.063-21.954-6.54-27.101-18.391c-1.96-4.512-3.38-9.185-4.087-14.452c-16.465,14.483-31.984,29.527-46.009,46.45    c19.114,8.911,30.732,23.306,32.91,45.011c2.621,0.037,5.403,0.214,8.173,0.093c19.464-0.851,36.115-8.433,50.2-21.634    c8.178-7.665,14.927-16.51,19.261-26.976c1.724-4.164,2.832-8.511,2.991-13.057c0.057-1.618,0.371-1.819,1.985-1.479    c1.796,0.378,3.621,0.638,5.395,1.096c9.753,2.518,16.327,8.406,18.749,18.339c1.271,5.212,0.158,10.296-2.184,15.015    c-5.965,12.016-15.299,20.503-27.605,25.747c-12.189,5.195-24.988,7.849-38.138,8.866c-12.371,0.957-24.692,0.036-36.984-1.397    c-0.699-0.081-1.401-0.139-1.983-0.196c-0.714,3.288-1.18,6.48-2.109,9.532c-3.861,12.681-11.807,22.23-22.982,29.147    c-9.198,5.693-19.365,8.545-30.033,9.73c-0.933,0.104-2.413-0.264-2.804-0.914c-0.449-0.747-0.306-2.247,0.171-3.081    c1.62-2.829,3.589-5.456,5.264-8.257c3.743-6.259,7.591-12.468,11.018-18.9c3.823-7.173,5.458-15.002,5.835-23.11    c0.052-1.116-0.303-1.49-1.313-1.746c-8.206-2.079-16.403-4.192-24.59-6.339c-1.074-0.281-1.748-0.076-2.49,0.785    c-7.777,9.017-15.838,17.761-25.002,25.413c-10.042,8.384-20.926,15.29-33.656,18.881c-5.638,1.591-11.322,2.061-17.082,0.571    c-11.779-3.048-18.507-15.543-14.544-27.096c2.607-7.601,7.597-13.317,14.184-17.726c11.396-7.63,23.986-11.346,37.682-11.354    c9.123-0.006,18.134,1.072,27.04,2.991c1.465,0.316,2.452,0.052,3.539-0.945c5.456-5.002,10.979-9.932,16.481-14.883    c0.452-0.407,0.929-0.785,1.747-1.474c-3.335-1.539-6.216-3.067-9.238-4.227c-11.299-4.338-22.989-7.197-35.041-8.259    c-9.674-0.853-19.378-0.533-29.067,0.171c-11.637,0.845-23.143,2.565-34.315,5.909c-5.789,1.733-11.31,4.355-16.969,6.529    c-1.283,0.493-1.532,1.289-1.442,2.587c0.724,10.49,1.586,20.976,1.991,31.479c0.488,12.659,0.376,25.324-1.619,37.893    c-1.689,10.636-4.37,20.991-9.274,30.63c-6.17,12.127-15.115,21.355-28.207,26.013c-8.088,2.877-16.319,3.599-24.679,1.321    c-13.304-3.624-22.344-14.225-23.95-28.17c-1.284-11.151,1.301-21.634,6.078-31.6c8.831-18.422,21.372-33.955,37.042-47.03    c8.562-7.144,17.569-13.653,27.006-19.576c0.861-0.541,1.276-1.097,1.272-2.174c-0.048-13.779-0.014-27.558-0.074-41.337    c-0.021-4.95-0.234-9.9-0.369-14.849c-0.025-0.916-0.1-1.83-0.381-2.82c-0.21,0.511-0.43,1.017-0.628,1.532    c-3.43,8.92-7.712,17.351-14.221,24.477c-4.121,4.511-8.707,8.431-14.145,11.338c-8.326,4.45-19.05,1.762-24.503-3.174    c-5.708-5.167-9.136-11.589-10.604-19.05c-2.08-10.574-2.01-21.219-0.483-31.852c3.777-26.299,9.896-52.09,16.764-77.729    c4.147-15.481,5.857-31.311,5.014-47.314c-0.467-8.865-2.171-17.578-7.575-25.001c-1.444-1.984-3.251-3.843-5.248-5.254    c-4.214-2.978-10.17-2.134-14.156,1.817c-4.459,4.42-6.986,9.853-8.005,16.026c-1,6.059-1.004,12.111,0.313,18.108    c1.049,4.781,3.731,8.8,6.514,12.714c1.297,1.825,2.781,3.527,4.273,5.203c3.977,4.464,8.996,7.111,14.818,8.296    c0.448,0.091,0.91,0.156,1.366,0.16c2.035,0.015,2.276,0.21,2.253,2.254c-0.088,7.83-3.633,14.05-9.336,19.065    c-6.598,5.801-14.448,8.612-23.215,8.21c-4.878-0.223-9.687-1.292-14.177-3.428c-10.151-4.83-15.929-12.975-17.854-23.888    c-2.291-12.988-0.337-25.585,3.799-37.969c3.582-10.727,9.329-20.041,17.673-27.698c4.952-4.545,10.683-7.706,17.326-8.943    c8.869-1.653,16.624,0.945,23.172,6.918c6.971,6.36,10.951,14.516,13.11,23.6c2.712,11.412,3.358,23.031,2.882,34.686    c-0.516,12.643-1.42,25.272-2.195,37.904c-0.932,15.188-1.996,30.39-0.878,45.594c0.492,6.686,1.701,13.356,3.087,19.928    c1.072,5.08,3.509,9.69,7.243,13.449c3.431,3.455,6.912,3.944,11.277,1.733c3.506-1.775,6.282-4.41,8.446-7.613    c2.31-3.419,4.397-6.992,6.501-10.546c0.358-0.604,0.477-1.461,0.423-2.179c-0.678-9.052-1.448-18.097-2.111-27.149    c-0.56-7.631-1.193-15.265-1.452-22.909c-0.2-5.906-0.05-11.851,1.364-17.652c1.968-8.071,8.557-12.492,16.384-13.001    c3.894-0.253,6.693,2.503,6.618,6.613c-0.101,5.549-0.284,11.132-0.995,16.627c-1.81,13.99-4.892,27.726-9.252,41.154    c-0.944,2.909-2.137,5.736-3.126,8.631c-0.286,0.837-0.443,1.801-0.351,2.673c1.881,17.666,3.794,35.328,5.73,52.987    c0.834,7.605,1.733,15.203,2.62,22.961c0.421-0.154,0.798-0.25,1.136-0.421c16.706-8.496,34.493-13.607,52.879-16.787    c11.232-1.943,22.525-3.274,33.966-2.899c17.787,0.583,34.877,4.403,51.376,10.97c1.135,0.452,1.784,0.346,2.634-0.514    c6.996-7.083,14.085-14.076,21.063-21.177c8.679-8.831,17.827-17.113,27.968-24.243c1.66-1.167,2.259-2.434,2.332-4.505    c0.602-17.215,3.454-34.079,8.178-50.644c3.048-10.688,6.085-21.383,8.847-32.147c1.462-5.697,2.136-11.573,0.862-17.444    c-1.378-6.351-5.799-8.864-12.031-6.994c-5.168,1.55-8.692,5.124-11.206,9.646c-5.991,10.776-9.3,22.503-11.543,34.535    c-0.448,2.404-0.044,4.989,0.125,7.48c0.53,7.836,0.755,15.712,2.758,23.375c0.258,0.987,0.57,1.959,0.823,2.947    c0.589,2.295-0.185,3.779-2.5,4.211c-5.97,1.115-14.572,0.267-17.989-8.471c-0.552-1.411-1.128-2.812-1.854-4.619    c-0.541,2.162-0.919,3.966-1.445,5.726c-2.648,8.86-6.659,16.913-14.039,22.851c-9.486,7.633-21.957,4.64-26.766-6.537    c-1.357-3.154-2.018-6.609-2.991-9.928c-0.107-0.366-0.17-0.744-0.302-1.331c-1.187,3.778-2.207,7.341-3.428,10.835    c-1.773,5.071-3.888,10.002-7.151,14.327c-2.611,3.461-5.732,6.349-10.238,6.947c-6.175,0.82-11.664-0.737-15.528-5.858    c-2.008-2.661-3.419-5.774-5.084-8.692c-0.274-0.48-0.469-1.004-0.855-1.844c-0.469,1.48-0.848,2.66-1.217,3.842    c-3.061,9.814-8.58,18.04-16.398,24.639c-8.216,6.934-19.338,7.542-29.231,2.112c-9.372-5.143-14.115-13.403-16.254-23.476    c-3.742-17.621-0.336-34.042,8.479-49.522c2.326-4.084,5.26-7.645,9.111-10.402c2.489-1.782,5.231-2.978,8.244-3.494    c6.014-1.03,10.825,1.093,14.59,5.757c3.41,4.224,5.046,9.212,5.726,14.485c0.841,6.526,0.242,12.957-2.311,19.088    c-2.245,5.392-5.937,9.493-11.33,11.895c-1.337,0.595-2.8,0.906-4.298,1.376c0.061,0.119,0.122,0.351,0.266,0.508    c4.937,5.408,12.548,7.199,19.061,3.657c4.356-2.369,7.695-5.814,10.935-9.457c1.442-1.621,1.975-3.159,1.566-5.346    c-2.362-12.629-0.371-24.922,3.379-36.982c2.619-8.423,7.704-15.29,14.655-20.672c7.241-5.606,16.34-5.081,23.079,1.148    c4.712,4.355,7.625,9.767,9.138,15.967c0.093,0.383,0.21,0.76,0.365,1.315c1.023-5.637,1.908-11.092,3.031-16.498    c0.725-3.488,1.677-6.942,2.742-10.344c1.798-5.743,4.648-7.702,10.666-7.51c3.059,0.097,5.948,0.932,8.571,2.524    c2.7,1.639,3.405,3.838,2.031,6.657c-0.662,1.359-1.564,2.635-2.531,3.806c-3.803,4.605-7.836,9.03-11.469,13.764    c-2.783,3.627-5.141,7.587-7.591,11.46c-1.231,1.945-0.612,4.173-0.135,6.124c1.087,4.441,2.257,8.909,3.96,13.138    c1.557,3.866,4.453,6.785,8.889,7.398c4.093,0.565,7.578-1.127,10.482-3.759c4.02-3.643,6.709-8.318,9.167-13.101    c0.258-0.501,0.21-1.199,0.185-1.801c-1.152-27.992-0.505-55.943,1.911-83.854c0.034-0.398,0.039-0.799,0.061-1.275    c-0.28,0.039-0.485,0.03-0.66,0.097c-14.324,5.517-28.721,10.857-42.947,16.618c-13.052,5.285-25.367,12.001-36.504,20.717    c-4.68,3.663-8.848,7.844-12.626,12.446c-3.081,3.752-4.466,7.879-3.463,12.659c0.356,1.695-0.31,2.787-1.718,3.283    c-2.194,0.773-4.45,1.496-6.74,1.851c-5.831,0.905-11.586,0.449-17.231-1.396c-11.791-3.853-16.649-17.54-9.876-27.915    c3.511-5.378,8.495-9.019,14.049-12.003c12.628-6.784,26.106-11.283,39.973-14.65c14.767-3.585,29.603-6.886,44.376-10.446    c11.064-2.667,21.925-6.028,32.567-10.088c1.244-0.475,1.694-1.131,1.811-2.41c1.261-13.82,4.482-27.166,10.158-39.848    c3.053-6.82,6.66-13.347,12.204-18.557c4.411-4.146,9.45-7.257,15.527-8.016c10.996-1.373,21.74,5.47,19.57,19.747    c-0.854,5.618-2.961,10.794-5.831,15.685c-7.362,12.545-17.431,22.441-29.624,30.232c-1.458,0.932-2.034,1.965-2.134,3.663    c-1.317,22.327-2.337,44.663-2.435,67.033c-0.003,0.803,0,1.607,0.201,2.43c0.964-3.093,1.811-6.229,2.914-9.272    c3.198-8.826,7.071-17.303,13.556-24.295c4.512-4.865,9.872-8.389,16.436-9.796c6.369-1.365,11.323,0.829,14.77,6.37    c2.654,4.267,3.55,9.036,3.539,13.922c-0.034,14.499-0.186,28.999-0.411,43.496c-0.157,10.111-0.562,20.217-0.741,30.328    C393.06,226.025,393.403,228.965,393.569,231.973z M153.102,324.754c-0.158-0.058-0.315-0.117-0.472-0.175    c-0.38,0.234-0.78,0.442-1.137,0.707c-9.662,7.187-19.33,14.362-27.915,22.868c-10.96,10.858-18.696,23.508-21.57,38.83    c-0.514,2.738-0.764,5.57-0.737,8.355c0.042,4.442,2.719,9.858,9.115,9.873c1.318,0.003,2.661-0.1,3.95-0.364    c6.858-1.405,12.193-5.275,16.57-10.56c5.635-6.803,9.252-14.727,12.529-22.84c3.962-9.812,6.089-20.077,7.605-30.488    C151.824,335.571,152.42,330.156,153.102,324.754z M346.451,91.448c0.398-0.075,0.509-0.069,0.591-0.115    c10.02-5.713,18.755-12.799,24.868-22.805c2.366-3.873,4.185-7.912,5.16-12.342c0.998-4.539,1.242-9.009-1.211-13.215    c-3.147-5.397-8.21-6.219-12.915-2.114c-2.779,2.425-4.683,5.469-6.29,8.757c-4.907,10.038-8.093,20.555-9.108,31.709    C347.241,84.664,346.827,87.996,346.451,91.448z M269.695,335.703c-0.493-0.19-0.71-0.313-0.941-0.357    c-10.677-1.988-21.395-3.122-32.274-1.947c-4.918,0.531-9.411,2.041-13.6,4.667c-2.952,1.85-4.936,4.409-6.142,7.586    c-2.072,5.458,0.868,9.968,7.013,10.977c4.862,0.798,9.561-0.007,14.185-1.402c8.134-2.453,15.17-6.961,21.915-11.966    C263.115,340.839,266.303,338.312,269.695,335.703z M257.062,195.948c0,0.714-0.065,1.435,0.011,2.141    c0.447,4.183,1.11,8.318,3.683,11.827c3.139,4.279,7.769,4.887,11.998,1.635c2.611-2.008,4.575-4.556,5.751-7.598    c1.245-3.223,2.304-6.525,3.278-9.842c0.498-1.695,1.063-3.552,0.847-5.24c-0.609-4.78-2.062-9.35-4.762-13.425    c-3.33-5.024-8.247-5.583-12.448-1.251C259.567,180.23,257.543,187.818,257.062,195.948z M196.461,215.679    c-0.192,4.97,0.52,9.518,2.229,13.916c0.391,1.007,0.987,1.325,1.98,1.112c2.624-0.563,5.055-1.46,7.062-3.383    c2.477-2.374,4.355-5.113,5.638-8.284c3.788-9.364,2.688-18.588-0.826-27.726c-0.302-0.787-0.868-1.508-1.434-2.151    c-2.323-2.643-4.79-2.761-6.938-0.002c-1.512,1.942-2.772,4.173-3.706,6.455C197.808,202.11,196.937,209,196.461,215.679z     M402.098,234.418c-2.268,0.402-4.537,0.803-6.808,1.191c-0.664,0.114-1.036,0.729-0.844,1.375c1,3.364,1.677,6.866,3.049,10.07    c2.759,6.443,7.407,10.96,14.373,12.911c7.403,2.073,15.116-5.387,14.441-11.56c-0.499-4.567-2.569-7.873-6.284-10.268    c-3.416-2.202-7.154-3.258-11.081-3.826C406.671,233.983,404.359,234.018,402.098,234.418z M300.477,319.994    c-4.392,5.15-8.677,10.174-13.063,15.317c8.096,2.083,15.958,4.105,23.983,6.17C310.731,332.771,306.778,325.949,300.477,319.994z    "/>
		<path d="M415.364,152.275c0.24-10.679,1.996-20.312,4.273-29.842c5.177-21.662,12.585-42.613,20.533-63.382    c2.569-6.714,5.276-13.375,7.835-20.092c0.905-2.375,1.6-4.833,2.312-7.276c0.54-1.853,1.511-2.343,3.144-1.358    c1.835,1.106,3.643,2.257,5.435,3.431c6.147,4.03,8.27,9.837,7.344,16.924c-1.017,7.782-4.118,14.911-7.064,22.079    c-7.54,18.345-15.271,36.613-22.614,55.037c-4.586,11.506-8.686,23.213-11.342,35.358c-0.249,1.137-0.243,2.331-0.506,3.463    c-0.17,0.733-0.446,1.742-0.981,2.005c-0.547,0.269-1.598-0.021-2.203-0.414c-3.672-2.382-5.121-6.099-5.72-10.203    C415.493,155.843,415.463,153.639,415.364,152.275z"/>
		<path d="M422.699,201.719c-5.953,0.041-10.212-3.598-11.017-8.781c-1.406-9.054,7.187-14.871,13.014-13.861    c8.114,1.406,11.616,11.064,6.505,17.864C428.879,200.031,425.739,201.6,422.699,201.719z"/>
	</g>
</g>















</svg>
