<?xml version="1.0" encoding="UTF-8"?>
<!-- Generator: Adobe Illustrator 25.2.0, SVG Export Plug-In . SVG Version: 6.00 Build 0)  -->
<svg xmlns="http://www.w3.org/2000/svg" xmlns:xlink="http://www.w3.org/1999/xlink" version="1.1" id="Capa_1" x="0px" y="0px" viewBox="0 0 500.043 500.043" style="enable-background:new 0 0 500.043 500.043;" xml:space="preserve" width="512" height="512">
<g>
	<g>
		<g>
			<path d="M37.435,316.812c0.973-0.817,1.619-1.334,2.237-1.883c8.676-7.717,16.446-16.251,23.227-25.686     c4.702-6.541,7.36-13.873,8.591-21.776c0.072-0.46,0.204-0.912,0.26-1.373c0.258-2.144,1.019-3.07,3.755-2.202     c3.044,0.965,5.949,2.413,8.835,3.814c1.364,0.662,2.617,1.617,3.795,2.592c4.742,3.926,5.543,9.229,5.126,14.956     c-0.715,9.819-5.409,17.755-11.616,25.039c-9.935,11.658-22.889,18.421-37.122,23.166c-2.324,0.775-4.478,0.694-6.728-0.477     c-7.81-4.067-15.678-8.025-23.543-11.985c-2.093-1.054-3.267-2.65-3.988-4.902c-3.368-10.516-5.437-21.226-5.026-32.306     c0.408-10.998,2.538-21.724,5.216-32.377c3.839-15.272,9.268-29.932,16.937-43.675c7.575-13.572,16.427-26.27,27.914-36.894     c6.853-6.338,14.329-11.797,23.38-14.685c0.886-0.283,1.792-0.524,2.706-0.691c1.648-0.301,3.19-0.134,4.68,0.821     c12.626,8.096,25.278,16.152,37.921,24.221c0.115,0.074,0.218,0.166,0.065,0.048c-2.504,12.383-4.971,24.606-7.447,36.827     c-1.486,7.336-3.635,14.485-6.833,21.245c-1.481,3.13-3.469,6.066-5.535,8.863c-2.207,2.988-4.389,3.429-7.882,2.173     c-5.408-1.945-10.25-4.888-14.732-8.447c-1.388-1.102-2.725-2.267-4.078-3.411c-1.243-1.05-1.396-1.757-0.524-3.14     c0.944-1.498,1.955-2.955,2.973-4.405c6.946-9.89,11.196-20.899,13.61-32.677c1.508-7.359,2.659-14.765,3.082-22.273     c0.01-0.184,0.001-0.368,0.001-0.817c-0.546,0.293-1.011,0.453-1.365,0.747c-3.22,2.68-6.584,5.214-9.598,8.111     c-9.178,8.825-16.089,19.299-21.828,30.607c-11.895,23.433-20.297,48.049-25.023,73.9c-1.284,7.024-2.007,14.129-1.967,21.281     C36.925,311.55,37.231,313.959,37.435,316.812z"/>
			<path d="M122.088,274.065c-0.308-15.062,4.364-31.647,13.424-47.099c6.531-11.139,13.734-21.764,22.69-31.118     c5.882-6.143,12.674-11.125,20-15.39c1.522-0.886,3.175-1.56,4.804-2.246c1.69-0.711,3.382-0.738,5.148-0.032     c8.219,3.286,16.477,6.476,24.694,9.769c3.455,1.384,6.865,2.889,10.24,4.458c0.629,0.292,1.146,1.079,1.458,1.756     c2.032,4.4,3.107,9.086,3.703,13.858c3.282,26.283-2.897,50.536-16.034,73.209c-7.312,12.62-16.676,23.471-28.683,31.891     c-7.773,5.451-16.235,9.308-25.706,10.692c-1.564,0.228-3.171,0.509-4.723,0.373c-1.471-0.129-3.104-0.455-4.31-1.241     c-6.911-4.506-13.724-9.161-20.549-13.799c-1.299-0.883-2.172-2.088-2.557-3.695     C123.444,296.079,122.039,286.609,122.088,274.065z M151.495,303.804c0.276-0.018,0.383,0.008,0.449-0.033     c0.593-0.37,1.19-0.733,1.764-1.131c11.64-8.059,21.332-17.971,29.052-29.884c9.674-14.928,15.961-31.158,18.874-48.64     c1.191-7.147,1.525-14.44,2.177-21.673c0.156-1.724,0.023-3.474,0.023-5.291c-0.352,0.106-0.491,0.127-0.609,0.188     c-0.415,0.211-0.833,0.42-1.232,0.658c-13.049,7.8-23.368,18.123-30.507,31.716c-6.408,12.203-11.499,24.833-14.742,38.226     c-2.374,9.805-3.838,19.749-4.82,29.774C151.727,299.73,151.637,301.756,151.495,303.804z"/>
			<path d="M228.435,273.932c-0.312-14.943,4.384-31.567,13.479-47.056c6.515-11.094,13.694-21.679,22.613-31.002     c5.879-6.145,12.683-11.106,19.983-15.417c0.321-0.189,0.667-0.336,0.983-0.532c3.83-2.375,7.586-2.645,11.894-0.77     c9.736,4.239,19.629,8.123,29.519,11.996c2.73,1.069,4.211,2.833,5.092,5.542c2.05,6.304,3.241,12.775,3.396,19.357     c0.796,33.847-10.553,63.059-34.044,87.428c-7.585,7.868-16.493,13.974-26.856,17.738c-4.888,1.776-9.933,2.947-15.15,2.967     c-1.4,0.006-3.001-0.454-4.172-1.218c-6.907-4.511-13.724-9.162-20.549-13.799c-1.298-0.882-2.19-2.073-2.576-3.682     C229.799,296.116,228.397,286.645,228.435,273.932z M257.766,304.124c0.849-0.539,1.418-0.837,1.914-1.225     c4.037-3.158,8.258-6.115,12.054-9.542c13.348-12.047,22.584-26.959,29.191-43.514c6.071-15.213,8.703-31.173,9.254-47.499     c0.057-1.696,0.008-3.396,0.008-5.083c-0.271,0-0.369-0.024-0.447,0.005c-0.174,0.065-0.343,0.146-0.505,0.238     c-10.14,5.785-19.046,13.091-25.592,22.777c-9.284,13.739-15.738,28.834-19.854,44.911c-2.535,9.904-4.293,19.944-5.251,30.122     C258.272,298.127,258.043,300.944,257.766,304.124z"/>
			<path d="M361.454,301.052c3.036-0.273,5.812-0.549,8.593-0.768c8.55-0.674,17.098-1.375,25.654-1.948     c1.935-0.13,3.913,0.128,5.852,0.366c4.291,0.528,7.716,2.628,10.368,6.014c4.686,5.981,7.262,12.872,8.638,20.259     c0.308,1.652-0.602,2.577-2.207,2.34c-6.866-1.013-13.755-0.795-20.66-0.59c-11.579,0.344-23.037,1.851-34.509,3.275     c-3.235,0.402-6.492,0.669-9.748,0.854c-2.917,0.166-5.597-0.377-8.134-2.178c-4.761-3.378-9.601-6.634-13.625-10.907     c-2.548-2.705-4.997-5.611-5.086-9.535c-0.056-2.473,0.245-5.055,0.944-7.423c1.199-4.06,2.653-8.069,4.316-11.964     c12.009-28.133,24.082-56.238,36.176-84.334c1.917-4.453,4.163-8.766,6.04-13.235c1.439-3.426,2.582-6.98,3.769-10.507     c0.529-1.572,1.161-2.203,2.738-1.84c5.226,1.202,10.486,2.363,15.217,5.028c1.57,0.885,3.068,1.968,4.412,3.169     c3.492,3.121,4.689,7.207,3.446,11.573c-1.438,5.05-3.324,9.996-5.341,14.852c-7.244,17.439-14.618,34.825-21.957,52.224     c-4.73,11.213-9.487,22.416-14.231,33.624C361.924,299.866,361.742,300.337,361.454,301.052z"/>
		</g>
		<g>
			<path d="M499.978,198.798c-0.016,0.18-0.036,0.358-0.058,0.535c-0.138,1.095-0.385,2.206-0.666,3.269     c-1.385,5.221-2.602,10.499-4.271,15.629c-6.491,19.949-15.226,38.978-23.88,58.049c-3.074,6.774-5.352,13.91-7.948,20.897     c-0.417,1.122-1.063,1.808-2.253,1.633c-4.759-0.696-9.513-1.493-13.815-3.802c-4.421-2.372-6.214-6.242-5.971-11.147     c0.225-4.54,1.633-8.808,3.313-12.956c7.789-19.231,15.663-38.428,23.513-57.634c3.157-7.726,6.407-15.415,9.446-23.187     c0.923-2.359,1.289-4.937,1.897-7.419c0.366-1.492,1.23-1.796,2.588-1.099c3.061,1.571,6.181,3.026,9.252,4.577     c1.74,0.878,3.505,1.741,5.126,2.811C499.431,191.054,500.307,195.201,499.978,198.798z"/>
			<path d="M431.14,321.416c0.265-1.062,0.529-3.136,1.297-5.002c1.947-4.73,4.066-9.393,6.228-14.03     c0.876-1.88,2.101-2.219,4.35-1.525c2.357,0.728,4.712,1.468,7.045,2.267c5.414,1.854,8.429,6.667,7.328,11.723     c-0.296,1.361-0.629,2.745-1.188,4.011c-1.898,4.302-3.871,8.572-5.886,12.821c-0.799,1.685-1.771,2.044-3.551,1.43     c-3.39-1.169-6.784-2.333-10.129-3.623C432.851,328.031,431.111,325.687,431.14,321.416z"/>
		</g>
	</g>
	<g>
		<path d="M204.423,370.126c-0.085-0.174-0.088-0.376-0.014-0.554c0.352-0.852,0.555-1.676,1.059-2.221    c4.582-4.957,7.258-11.023,10.052-17.024c0.079-0.169,0.151-0.341,0.223-0.512c0.453-1.069,0.979-2.113,2.379-1.953    c1.47,0.168,1.724,1.363,1.94,2.549c1.237,6.816,3.936,12.984,8.188,18.465c0.398,0.513,0.932,1.037,1.045,1.625    c0.121,0.63,0.065,1.649-0.336,1.971c-3.848,3.087-6.694,7.162-8.896,11.54c-0.821,1.632-1.538,3.303-2.248,4.985    c-0.083,0.197-0.167,0.396-0.279,0.579c-0.39,0.636-1.479,1.538-2.269,1.516c-0.705-0.019-1.545-0.731-2.033-1.365    c-0.452-0.588-0.578-1.461-0.741-2.232c-1.122-5.293-3.563-9.973-6.557-14.418C205.331,372.176,204.918,371.146,204.423,370.126z"/>
		<path d="M19.018,124.174c0.382-0.388,0.942-0.549,1.47-0.417c1.058,0.264,1.502,0.932,1.718,1.771    c0.487,1.891,0.92,3.799,1.302,5.714c0.874,4.379,2.679,8.312,5.495,11.781c0.293,0.361,0.571,0.739,0.818,1.132    c0.784,1.247,0.602,2.196-0.362,3.273c-1.979,2.212-3.852,4.518-5.833,6.727c-2.374,2.647-3.572,5.828-4.578,9.176    c-0.233,0.774-1.095,2.007-2.003,2.056c-0.611,0.033-1.499-0.549-1.845-1.118c-0.618-1.017-1.011-2.2-1.338-3.359    c-1.625-5.756-4.246-11.013-7.687-15.894c-1.649-2.34-1.227-3.37,1.187-4.934c1.452-0.941,2.888-2.155,3.836-3.576    c2.398-3.592,4.492-7.386,6.765-11.063C18.266,124.956,18.668,124.53,19.018,124.174z"/>
		<path d="M361.181,395.155c-0.375,0.304-0.917,0.304-1.291-0.001c-0.574-0.468-1.073-0.851-1.383-1.351    c-0.478-0.771-0.715-1.719-0.93-2.62c-1.268-5.296-3.348-10.265-5.937-15.038c-1.323-2.439-1.169-3.418,0.834-5.272    c4.375-4.049,7.608-8.919,10.265-14.208c0.586-1.166,1.192-2.322,1.803-3.476c0.502-0.949,1.239-1.553,2.373-1.295    c1.141,0.26,1.513,1.157,1.572,2.207c0.049,0.884,0.021,1.772,0.05,2.658c0.12,3.692,0.57,7.388,1.567,10.951    c0.498,1.778,1.131,3.518,1.907,5.193c0.583,1.256,1.947,2.62,1.762,4.11c-0.102,0.826-0.992,1.289-1.566,1.84    c-0.667,0.64-1.301,1.315-1.903,2.017c-2.371,2.767-4.209,5.938-5.833,9.186c-0.625,1.25-1.143,2.566-1.884,3.742    C362.27,394.299,361.764,394.682,361.181,395.155z"/>
		<path d="M455.388,156.452c0.111,0.264,0.103,0.561-0.012,0.823c-0.302,0.687-0.512,1.307-0.907,1.771    c-3.483,4.1-6.126,8.67-7.863,13.76c-0.365,1.069-0.822,2.053-2.114,2.108c-1.74,0.074-2.305-1.655-2.852-3.003    c-0.255-0.628-0.484-1.266-0.691-1.91c-1.457-4.537-3.629-8.725-6.181-12.739c-1.371-2.156-1.306-3.105,0.327-5.004    c3.49-4.057,5.438-8.988,7.803-13.684c0.493-0.98,1.009-1.902,1.987-2.476c0.302-0.178,0.654-0.291,1.003-0.254    c1.782,0.189,2.176,2.563,2.495,3.912c1.084,4.582,3.231,8.722,5.342,12.881C454.344,153.856,454.835,155.14,455.388,156.452z"/>
		<path d="M21.455,369.73c0.185,0.455,0.182,0.968-0.01,1.42c-0.239,0.561-0.443,1.071-0.78,1.468    c-3.482,4.101-6.125,8.671-7.861,13.761c-0.365,1.071-0.827,2.052-2.118,2.103c-1.739,0.069-2.302-1.663-2.848-3.011    c-0.255-0.629-0.485-1.268-0.692-1.913c-1.456-4.535-3.63-8.722-6.181-12.734c-1.369-2.154-1.302-3.099,0.335-5.003    c1.915-2.228,3.4-4.777,4.727-7.387c0.663-1.304,1.288-2.626,1.922-3.944c0.565-1.174,1.028-2.624,1.809-3.66    c1.329-1.762,3.664-2.062,4.354,0.315c0.207,0.714,0.301,1.46,0.473,2.186c1.104,4.676,3.321,8.886,5.467,13.131    C20.578,367.502,20.996,368.6,21.455,369.73z"/>
		<path d="M249.465,142.057c0.255,0.658,0.192,1.41-0.201,1.996c-0.074,0.111-0.155,0.211-0.249,0.298    c-4.007,3.716-6.787,8.26-9.036,13.18c-0.417,0.912-1.068,1.909-2.189,1.512c-0.688-0.243-1.493-1.1-1.632-1.802    c-1.011-5.132-3.586-9.455-6.632-13.58c-1.585-2.145-1.365-2.92,0.026-5.135c2.675-4.26,5.157-8.641,7.716-12.973    c0.522-0.883,0.913-1.879,1.586-2.624c0.498-0.553,1.435-1.176,2.029-1.053c0.676,0.14,1.465,0.976,1.713,1.683    c0.521,1.482,0.657,3.094,1.065,4.621c1.075,4.024,2.585,7.87,4.726,11.466C248.831,140.392,249.14,141.218,249.465,142.057z"/>
		<g>
			<path d="M341.642,116.395c-0.047,0.555,0.061,1.192-0.18,1.643c-0.292,0.546-0.855,1.262-1.344,1.296     c-0.472,0.033-1.268-0.615-1.444-1.128c-0.402-1.171-0.605-2.434-0.721-3.676c-0.248-2.636-0.397-5.281-0.569-7.924     c-0.055-0.851-0.111-1.825,1.039-1.938c1.018-0.1,1.279,0.771,1.432,1.571C340.499,109.612,341.678,116.385,341.642,116.395z"/>
			<path d="M333.483,132.768c-0.215,0.324-0.479,1.025-0.982,1.429c-2.897,2.323-5.833,4.599-8.81,6.818     c-0.332,0.247-1.21,0.237-1.469-0.021c-0.282-0.281-0.212-0.999-0.15-1.509c0.033-0.276,0.343-0.542,0.573-0.766     c1.896-1.849,3.74-3.758,5.732-5.498c0.958-0.837,2.148-1.472,3.329-1.971C332.791,130.79,333.526,131.381,333.483,132.768z"/>
			<path d="M345.202,119.958c0.566-1.355,1.009-2.627,1.615-3.816c1.077-2.112,2.225-4.191,3.415-6.241     c0.214-0.368,0.835-0.793,1.169-0.722c0.429,0.091,0.913,0.594,1.088,1.033c0.17,0.426,0.103,1.045-0.075,1.494     c-1.044,2.635-2.125,5.258-3.258,7.856c-0.252,0.578-0.673,1.186-1.185,1.517c-0.472,0.306-1.247,0.476-1.749,0.302     C345.796,121.234,345.571,120.51,345.202,119.958z"/>
			<path d="M323.607,126.371c-1.438,0-2.886,0.094-4.309-0.051c-0.497-0.051-0.933-0.693-1.397-1.065     c0.427-0.46,0.809-1.262,1.288-1.324c2.983-0.388,5.987-0.624,8.987-0.872c0.449-0.037,0.994-0.004,1.354,0.223     c0.526,0.331,1.276,0.861,1.282,1.315c0.007,0.497-0.64,1.304-1.15,1.447c-1.23,0.345-2.543,0.428-3.829,0.526     C325.098,126.625,323.607,126.402,323.607,126.371z"/>
			<path d="M332.56,119.051c-0.717-0.365-1.456-0.547-1.914-1.008c-2.065-2.075-4.083-4.199-6.03-6.385     c-0.301-0.338-0.376-1.269-0.125-1.592c0.239-0.308,1.261-0.446,1.559-0.199c2.533,2.095,5.013,4.261,7.417,6.503     c0.356,0.332,0.398,1.211,0.277,1.77C333.667,118.492,333.017,118.721,332.56,119.051z"/>
			<path d="M339.046,136.177c0.087-0.516,0.697-0.943,1.068-1.411c0.443,0.467,1.181,0.883,1.272,1.41     c0.25,1.456,0.335,2.962,0.292,4.443c-0.059,2.047-0.218,4.099-0.505,6.124c-0.074,0.523-0.788,0.955-1.209,1.429     c-0.343-0.473-0.92-0.916-0.987-1.426c-0.225-1.705-0.267-3.434-0.38-5.154C338.547,141.584,338.748,137.957,339.046,136.177z"/>
			<path d="M358.524,134.456c-1.62-0.207-3.658-0.381-5.654-0.775c-0.586-0.116-1.049-0.854-1.568-1.306     c0.583-0.413,1.116-1.063,1.758-1.2c3.1-0.662,6.095,0.177,9.06,0.95c0.484,0.126,0.812,0.854,1.212,1.304     c-0.486,0.342-0.938,0.892-1.467,0.982C360.918,134.572,359.923,134.456,358.524,134.456z"/>
			<path d="M347.662,135.048c0.351,0.159,1.169,0.346,1.744,0.825c1.896,1.575,3.739,3.218,5.514,4.927     c0.329,0.317,0.398,1.096,0.286,1.594c-0.052,0.229-0.983,0.552-1.259,0.391c-2.835-1.65-5.995-2.902-7.773-5.936     C345.521,135.734,345.911,135.084,347.662,135.048z"/>
			<path d="M350.74,126.82c-0.333-0.248-1.235-0.588-1.321-1.073c-0.093-0.525,0.45-1.562,0.933-1.723     c2.723-0.907,5.502-1.65,8.286-2.356c0.365-0.093,1.082,0.243,1.241,0.571c0.156,0.324-0.049,1.158-0.337,1.309     C356.874,124.947,354.221,126.428,350.74,126.82z"/>
		</g>
		<g>
			<path d="M144.001,120.885c0.827-3.413,1.554-6.631,2.435-9.807c0.13-0.468,0.989-0.734,1.51-1.093     c0.319,0.505,0.957,1.044,0.906,1.509c-0.309,2.861-0.749,5.709-1.208,8.551c-0.085,0.529-0.337,1.137-0.716,1.486     c-0.567,0.522-1.316,0.847-1.988,1.256C144.623,122.147,144.306,121.505,144.001,120.885z"/>
			<path d="M122.796,143.103c-0.652-0.487-1.425-0.775-1.524-1.215c-0.108-0.479,0.258-1.398,0.677-1.61     c2.564-1.294,5.18-2.493,7.829-3.606c0.855-0.36,1.809-0.12,2.233,0.87c0.416,0.971-0.004,1.885-0.856,2.253     C128.439,140.965,125.658,141.984,122.796,143.103z"/>
			<path d="M121.742,126.416c3.076,0.703,5.884,1.322,8.678,2.003c0.473,0.115,0.999,0.407,1.286,0.782     c0.3,0.392,0.539,1.028,0.435,1.471c-0.085,0.363-0.698,0.824-1.1,0.847c-0.909,0.053-1.871-0.007-2.744-0.256     c-2.277-0.651-4.521-1.42-6.771-2.161c-0.719-0.237-1.602-0.562-1.26-1.485C120.46,127.095,121.251,126.794,121.742,126.416z"/>
			<path d="M151.973,127.625c-1.404,0.023-1.937-0.789-1.192-1.878c0.593-0.867,1.365-1.652,2.185-2.315     c1.661-1.343,3.379-2.623,5.144-3.825c0.395-0.269,1.259-0.337,1.583-0.083c0.334,0.261,0.561,1.242,0.34,1.54     c-2.007,2.695-4.257,5.153-7.468,6.471C152.357,127.62,152.108,127.606,151.973,127.625z"/>
			<path d="M138.839,121.194c0.048,1.398-0.858,2.031-1.861,1.425c-0.771-0.466-1.5-1.141-2.003-1.888     c-1.533-2.275-2.974-4.614-4.381-6.97c-0.206-0.346-0.214-1.165,0.009-1.331c0.363-0.271,1.017-0.304,1.503-0.208     c0.355,0.069,0.696,0.462,0.944,0.786c1.725,2.252,3.441,4.512,5.119,6.799C138.516,120.28,138.691,120.878,138.839,121.194z"/>
			<path d="M144.754,140.963c0.272-0.435,0.45-1.087,0.804-1.202c0.552-0.18,1.374-0.218,1.809,0.081     c0.694,0.477,1.323,1.201,1.695,1.96c0.917,1.871,1.698,3.81,2.482,5.743c0.319,0.785,0.572,1.709-0.389,2.222     c-0.987,0.527-1.549-0.24-2.008-0.963c-1.118-1.762-2.239-3.525-3.292-5.327C145.416,142.728,145.148,141.879,144.754,140.963z"/>
			<path d="M140.744,141.114c-0.123,0.285-0.283,0.882-0.609,1.367c-1.452,2.156-2.898,4.322-4.476,6.384     c-0.35,0.458-1.225,0.515-1.859,0.756c-0.093-0.667-0.48-1.485-0.228-1.976c1.183-2.31,2.509-4.551,3.858-6.77     c0.321-0.527,0.867-0.999,1.419-1.285C139.855,139.067,140.732,139.681,140.744,141.114z"/>
			<path d="M155.704,136.662c-1.144-0.147-2.334-0.153-3.414-0.499c-0.587-0.188-0.989-0.955-1.475-1.461     c0.507-0.382,1.018-1.096,1.521-1.091c3.002,0.031,6.004,0.192,8.998,0.42c0.339,0.026,0.956,0.867,0.864,1.122     c-0.162,0.448-0.74,0.99-1.197,1.044C159.253,136.405,155.71,136.618,155.704,136.662z"/>
		</g>
		<g>
			<path d="M106.789,376.157c-0.157,0.304-0.324,0.934-0.719,1.346c-2.866,2.986-5.754,5.955-8.711,8.85     c-0.342,0.335-1.156,0.187-1.752,0.263c-0.001-0.63-0.267-1.475,0.04-1.858c2.476-3.081,5.039-6.093,7.632-9.078     c0.436-0.501,1.098-0.887,1.731-1.117C105.99,374.209,106.817,374.881,106.789,376.157z"/>
			<path d="M111.199,356.632c-0.075,0.459-0.037,0.983-0.255,1.361c-0.253,0.439-0.7,0.997-1.117,1.046     c-0.403,0.047-1.099-0.39-1.272-0.786c-0.501-1.144-0.918-2.351-1.16-3.575c-0.526-2.65-0.928-5.325-1.365-7.993     c-0.067-0.41-0.17-0.879-0.038-1.241c0.157-0.429,0.496-1.003,0.858-1.089c0.371-0.088,0.87,0.324,1.297,0.548     c0.106,0.055,0.183,0.221,0.219,0.35C109.415,349.013,111.3,356.6,111.199,356.632z"/>
			<path d="M139.827,368.118c0.829,0.19,1.636,0.703,1.29,1.611c-0.184,0.483-1.134,1.007-1.692,0.96     c-3.324-0.276-6.637-0.694-9.947-1.113c-0.584-0.074-1.229-0.261-1.683-0.609c-0.413-0.317-0.832-0.928-0.823-1.402     c0.008-0.402,0.551-0.973,0.985-1.145C128.576,366.174,136.578,367.376,139.827,368.118z"/>
			<path d="M116.028,389.725c-0.114,0.469-0.854,0.787-1.305,1.175c-0.326-0.426-0.966-0.88-0.93-1.272     c0.339-3.693,0.778-7.377,1.233-11.059c0.061-0.489,0.284-1.019,0.595-1.397c0.289-0.352,0.822-0.757,1.198-0.713     c0.39,0.045,0.899,0.54,1.039,0.947c0.22,0.639,0.174,1.369,0.241,2.061C118.158,379.485,116.848,386.341,116.028,389.725z"/>
			<path d="M118.415,347.85c0.14-0.491,0.951-0.791,1.452-1.179c0.301,0.505,0.915,1.053,0.852,1.507     c-0.491,3.532-1.112,7.046-1.696,10.565c-0.015,0.09-0.061,0.175-0.094,0.262c-0.317,0.805-0.47,1.909-1.615,1.783     c-1.298-0.143-1.021-1.332-1.111-2.217c-0.028-0.276-0.004-0.556-0.004-0.835C116.095,357.708,117.492,351.095,118.415,347.85z"/>
			<path d="M122.534,363.387c-0.385-0.261-0.993-0.456-1.104-0.807c-0.121-0.383,0.077-1.061,0.383-1.35     c1.415-1.337,2.85-2.672,4.407-3.834c1.296-0.968,2.758-1.722,4.177-2.516c0.472-0.264,1.04-0.491,1.561-0.486     c0.368,0.004,0.881,0.354,1.05,0.69c0.131,0.262-0.044,0.896-0.296,1.097c-2.757,2.2-5.542,4.367-8.357,6.491     C123.898,363.017,123.254,363.114,122.534,363.387z"/>
			<path d="M123.748,373.627c0.38,0.196,1.149,0.372,1.576,0.852c1.874,2.102,3.689,4.26,5.436,6.468     c0.511,0.646,0.58,1.65-0.304,2.044c-0.44,0.196-1.37-0.105-1.759-0.497c-1.924-1.942-3.753-3.978-5.583-6.011     c-0.333-0.37-0.569-0.856-0.748-1.327C122.008,374.209,122.482,373.577,123.748,373.627z"/>
			<path d="M95.934,356.086c0.333-0.388,0.6-0.919,1.022-1.112c0.273-0.125,0.875,0.137,1.153,0.408     c1.326,1.288,2.596,2.634,3.876,3.968c0.737,0.768,1.543,1.493,2.144,2.359c0.245,0.354,0.227,1.182-0.032,1.51     c-0.249,0.315-1.053,0.485-1.456,0.324c-0.931-0.373-1.926-0.831-2.608-1.532c-1.254-1.29-2.332-2.759-3.418-4.203     C96.3,357.387,96.206,356.798,95.934,356.086z"/>
			<path d="M92.379,372.425c-1.209,0-2.429,0.094-3.621-0.048c-0.463-0.055-0.863-0.643-1.292-0.989     c0.384-0.385,0.727-1.047,1.159-1.11c2.71-0.396,5.44-0.664,8.165-0.956c0.317-0.034,0.71-0.051,0.956,0.102     c0.462,0.29,1.147,0.688,1.175,1.082c0.031,0.435-0.479,1.151-0.918,1.325c-0.885,0.349-1.876,0.48-2.836,0.573     C94.245,372.495,93.308,372.425,92.379,372.425z"/>
		</g>
		<g>
			<path d="M296.869,365.431c-0.338,1.044,0.045,2.388-1.357,2.583c-1.427,0.199-1.678-1.135-1.847-2.173     c-0.571-3.487-1.079-6.986-1.544-10.489c-0.046-0.347,0.289-0.956,0.594-1.079c0.322-0.13,0.865,0.102,1.226,0.318     c0.242,0.145,0.406,0.522,0.481,0.826C295.252,358.752,296.057,362.092,296.869,365.431z"/>
			<path d="M318.749,363.9c-0.517,0.3-1.037,0.595-1.552,0.901c-2.679,1.59-5.317,3.257-8.055,4.736     c-0.976,0.527-2.185,0.669-3.31,0.843c-0.339,0.053-0.752-0.376-1.132-0.584c0.227-0.36,0.369-0.883,0.695-1.053     c3.542-1.85,7.099-3.675,10.69-5.428c0.622-0.304,1.424-0.241,2.142-0.347C318.401,363.279,318.575,363.589,318.749,363.9z"/>
			<path d="M286.916,373.101c0.371,0.024,0.798-0.06,1.101,0.097c0.453,0.235,1.072,0.589,1.15,0.984     c0.079,0.402-0.3,1.076-0.681,1.343c-0.548,0.385-1.262,0.602-1.936,0.729c-2.466,0.465-4.945,0.865-7.419,1.285     c-0.789,0.134-1.684,0.104-1.732-0.841c-0.023-0.465,0.658-1.243,1.173-1.411C281.303,374.401,286.893,373.025,286.916,373.101z"/>
			<path d="M298.54,367.993c0.468-1.215,0.767-2.302,1.284-3.272c1.072-2.008,2.207-3.988,3.439-5.901     c0.289-0.449,1.065-0.584,1.617-0.864c0.123,0.612,0.53,1.351,0.323,1.817c-1.283,2.883-2.664,5.727-4.122,8.526     c-0.233,0.448-1.005,0.792-1.552,0.828C299.234,369.147,298.887,368.415,298.54,367.993z"/>
			<path d="M290.929,368.319c-0.813,0.409-1.345,0.899-1.854,0.876c-0.591-0.026-1.234-0.41-1.728-0.799     c-1.897-1.492-3.757-3.031-5.601-4.589c-0.643-0.544-1.353-1.247-0.688-2.125c0.634-0.837,1.461-0.307,2.109,0.125     c2.044,1.363,4.094,2.723,6.057,4.197C289.84,366.467,290.188,367.286,290.929,368.319z"/>
			<path d="M299.062,379.407c0.763,0.449,1.617,0.729,2.152,1.306c1.576,1.701,3.076,3.48,4.483,5.323     c0.282,0.37,0.019,1.155,0.007,1.749c-0.557-0.027-1.322,0.172-1.636-0.118c-2.047-1.886-4.029-3.846-5.943-5.866     c-0.325-0.343-0.363-1.125-0.255-1.647C297.929,379.866,298.568,379.698,299.062,379.407z"/>
			<path d="M303.936,373.992c0.639,0.236,1.191,0.37,1.675,0.63c2.211,1.191,4.411,2.406,6.598,3.64     c0.649,0.366,1.478,0.866,0.904,1.692c-0.245,0.353-1.289,0.465-1.804,0.263c-2.334-0.916-4.619-1.96-6.895-3.014     c-0.533-0.247-1.077-0.635-1.403-1.106c-0.24-0.347-0.292-1-0.13-1.394C303.018,374.37,303.582,374.213,303.936,373.992z"/>
			<path d="M293.336,379.034c-1.12,2.679-2.156,5.245-3.296,7.764c-0.134,0.296-0.937,0.556-1.265,0.424     c-0.333-0.134-0.729-0.848-0.638-1.183c0.71-2.623,1.471-5.237,2.371-7.8c0.167-0.476,1.177-1.096,1.538-0.96     C292.562,377.475,292.839,378.304,293.336,379.034z"/>
		</g>
		<g>
			<path d="M434.745,357.834c-0.167,1.949-0.311,3.846-0.505,5.737c-0.046,0.453-0.148,0.981-0.421,1.31     c-0.347,0.418-0.927,0.957-1.348,0.91c-0.405-0.045-1.008-0.747-1.046-1.2c-0.107-1.286-0.084-2.608,0.096-3.886     c0.352-2.483,0.813-4.953,1.312-7.412c0.087-0.428,0.577-0.774,0.882-1.158c0.343,0.427,0.943,0.831,0.982,1.284     C434.824,354.895,434.745,356.389,434.745,357.834z"/>
			<path d="M428.833,365.682c-0.261,0.388-0.431,0.918-0.765,1.059c-0.347,0.147-0.971,0.064-1.265-0.176     c-0.715-0.583-1.452-1.227-1.924-2.002c-1.354-2.222-2.61-4.507-3.826-6.808c-0.183-0.347,0.055-0.917,0.098-1.384     c0.492,0.11,1.194,0.05,1.441,0.357c1.895,2.355,3.722,4.765,5.518,7.197C428.452,364.389,428.569,365.021,428.833,365.682z"/>
			<path d="M422.624,367.129c0.417,0.14,0.926,0.748,0.936,1.155c0.01,0.406-0.487,1.094-0.875,1.188     c-1.019,0.246-2.105,0.35-3.156,0.304c-1.805-0.08-3.616-0.235-5.395-0.534c-0.593-0.099-1.095-0.734-1.639-1.124     c0.562-0.368,1.105-1.01,1.691-1.052c1.89-0.136,3.796-0.051,5.696-0.051C419.887,366.895,421.76,366.838,422.624,367.129z"/>
			<path d="M432.993,384.258c-0.147,0.158-0.492,0.848-0.897,0.885c-0.435,0.04-1.28-0.479-1.336-0.848     c-0.456-2.976-0.793-5.971-1.087-8.968c-0.032-0.325,0.396-0.928,0.695-0.989c0.346-0.071,0.978,0.211,1.148,0.523     c0.436,0.804,0.865,1.688,0.973,2.578C432.747,379.564,432.818,381.712,432.993,384.258z"/>
			<path d="M440.288,363.129c-1.472,0.044-1.935-0.633-1.379-1.675c0.784-1.469,1.722-2.86,2.645-4.25     c0.616-0.928,1.264-1.849,2.018-2.663c0.276-0.298,0.947-0.453,1.343-0.34c0.275,0.078,0.491,0.715,0.54,1.124     c0.046,0.386-0.074,0.853-0.272,1.198c-1.018,1.769-2.012,3.56-3.17,5.236C441.55,362.429,440.688,362.823,440.288,363.129z"/>
			<path d="M442.976,367.775c1.343,0.092,2.696,0.113,4.023,0.313c0.484,0.073,0.903,0.574,1.351,0.88     c-0.313,0.458-0.592,1.284-0.944,1.316c-2.423,0.222-4.86,0.293-7.295,0.371c-0.295,0.009-0.67-0.157-0.882-0.368     c-0.335-0.334-0.793-0.789-0.769-1.165c0.022-0.354,0.553-0.877,0.944-0.968C440.566,367.882,442.968,367.724,442.976,367.775z"/>
			<path d="M425.624,373.462c-0.342,0.645-0.549,1.288-0.956,1.759c-1.665,1.931-3.361,3.838-5.127,5.677     c-0.276,0.288-0.97,0.175-1.471,0.248c-0.042-0.467-0.3-1.092-0.092-1.377c1.686-2.32,3.424-4.607,5.243-6.825     c0.294-0.358,1.066-0.444,1.61-0.424C425.087,372.53,425.323,373.085,425.624,373.462z"/>
			<path d="M436.023,373.927c1.403,0.767,2.532,1.183,3.405,1.908c1.355,1.125,2.602,2.402,3.751,3.739     c0.346,0.403,0.212,1.218,0.297,1.845c-0.586-0.1-1.276-0.037-1.74-0.331c-1.452-0.922-2.88-1.904-4.194-3.01     c-0.792-0.667-1.449-1.552-1.968-2.453C435.394,375.313,435.812,374.656,436.023,373.927z"/>
		</g>
	</g>
</g>















</svg>
