<?xml version="1.0" encoding="UTF-8"?>
<!-- Generator: Adobe Illustrator 25.2.0, SVG Export Plug-In . SVG Version: 6.00 Build 0)  -->
<svg xmlns="http://www.w3.org/2000/svg" xmlns:xlink="http://www.w3.org/1999/xlink" version="1.1" id="Capa_1" x="0px" y="0px" viewBox="0 0 500 500" style="enable-background:new 0 0 500 500;" xml:space="preserve" width="512" height="512">
<g>
	<path d="M439.631,196.463c0.136,0.128,0.265,0.284,0.425,0.397c19.856,13.99,32.264,33.181,38.794,56.289   c3.439,12.172,5.401,24.643,4.015,37.345c-1.37,12.56-4.746,24.578-10.664,35.832c-4.571,8.694-10.12,16.661-16.804,23.865   c-3.091,3.331-6.617,6.076-10.358,8.604c-0.529,0.358-1.083,1.139-1.096,1.735c-0.338,15.943-4.784,30.706-12.869,44.369   c-8.529,14.413-18.541,27.621-31.895,38.003c-12.956,10.073-27.603,15.975-43.948,17.364c-24.756,2.104-48.607-1.608-71.327-11.836   c-5.018-2.259-9.875-4.875-14.806-7.325c-0.179-0.089-0.368-0.16-0.659-0.285c-0.24,0.296-0.504,0.58-0.723,0.895   c-12.15,17.599-27.162,32.254-45.557,43.188c-17.264,10.261-35.964,15.704-56.218,15.043c-10.57-0.345-20.698-2.893-30.579-6.451   c-5.839-2.102-11.817-4.039-17.292-6.895c-20.091-10.481-37.452-24.219-49.238-43.996c-10.655-17.878-15.579-37.288-14.608-58.135   c0.179-3.839,0.325-7.68,0.493-11.52c0.177-4.045-1.025-7.605-3.371-10.927c-5.219-7.389-10.5-14.749-15.37-22.368   c-6.605-10.333-10.108-21.982-13.474-33.66c-7.905-27.428-7.34-54.932-0.782-82.481c5.193-21.816,12.263-42.968,22.907-62.79   c6.813-12.688,14.585-24.776,24.345-35.419c14.435-15.739,31.855-26.593,52.985-30.798c12.653-2.518,25.433-2.84,38.116-0.148   c3.407,0.723,6.615,2.407,9.893,3.705c0.643,0.255,1.373,0.634,1.742,1.174c1.245,1.828,2.906,1.601,4.794,1.483   c6.494-0.407,13.019-1.561,19.506-0.333c19.638,3.716,34.874,13.91,45.153,31.198c0.948,1.595,1.592,3.37,2.441,5.199   c0.504-0.256,0.984-0.496,1.46-0.744c4.128-2.139,8.217-4.36,12.392-6.403c8.952-4.381,18.431-6.59,28.409-6.621   c4.147-0.012,8.295,0.007,12.44-0.102c6.688-0.176,7.798-1.15,9.549-7.569c3.377-12.379,6.45-24.855,10.312-37.082   c5.088-16.106,12.523-31.123,23.085-44.443c5.491-6.925,11.699-13.15,18.715-18.529c13.095-10.04,27.772-15.648,44.426-15.276   c13.079,0.292,24.565,4.975,34.534,13.356c8.124,6.829,14.831,14.875,20.138,24.083c5.686,9.866,9.332,20.473,11.656,31.582   c5.326,25.461,3.344,50.403-4.616,75.102c-5.179,16.067-12.738,30.901-21.525,45.193   C443.072,191.78,441.304,194.065,439.631,196.463z M460.337,87.536c0.134-0.013,0.267-0.026,0.401-0.04   c-0.737-8.101-1.21-16.236-2.274-24.294c-1.509-11.426-4.902-22.38-10.898-32.251C436.295,12.398,419.822,3.297,397.902,5.21   c-11.805,1.03-22.441,5.476-32.004,12.392c-12.487,9.032-22.246,20.522-29.953,33.816c-7.972,13.749-13.338,28.541-17.53,43.794   c-2.129,7.746-4.122,15.53-6.088,23.319c-1.446,5.731-5.078,8.865-10.91,9.252c-4.687,0.311-9.395,0.461-14.093,0.441   c-10.319-0.044-20.043,2.269-29.224,6.941c-4.955,2.521-9.885,5.094-14.877,7.54c-2.125,1.041-4.33,1.977-6.587,2.68   c-4.144,1.29-6.946,0.117-9.042-3.652c-1.079-1.941-1.961-3.99-2.972-5.97c-5.729-11.223-13.25-20.765-24.74-26.673   c-3.791-1.949-7.73-3.199-11.968-3.582c-5.538-0.501-11.021,0.095-16.475,0.894c-3.181,0.466-5.925-0.199-8.669-1.825   c-2.417-1.432-5.004-2.678-7.66-3.589c-9.996-3.429-20.209-3.757-30.527-1.669c-20.983,4.247-38.062,15.139-52.096,30.997   c-8.31,9.391-15.006,19.957-21.107,30.879c-10.824,19.378-18.161,40.118-23.577,61.567c-7.075,28.016-7.889,55.97,0.094,84.07   c4.626,16.282,11.381,31.297,22.019,44.509c1.838,2.283,3.478,4.725,5.289,7.029c3.717,4.727,5.135,10.102,4.789,16.042   c-0.203,3.483-0.362,6.972-0.417,10.459c-0.465,29.539,9.413,54.861,30.88,75.416c6.967,6.671,14.663,12.418,22.878,17.447   c14.87,9.105,30.972,13.665,48.49,13.009c13.747-0.514,26.548-4.574,38.832-10.39c11.863-5.618,22.435-13.323,32.503-21.63   c7.401-6.107,14.28-12.846,21.413-19.281c1.349-1.217,2.737-2.407,4.208-3.469c2.605-1.88,5.537-2.507,8.638-1.577   c2.948,0.884,5.883,1.849,8.742,2.984c23.569,9.354,48.038,13.075,73.047,9.093c34.597-5.508,58.684-24.824,71.111-57.957   c2.905-7.746,4.351-15.869,5.757-23.985c0.846-4.884,2.95-8.926,7.358-11.452c5.812-3.33,10.364-8.008,14.537-13.145   c13.53-16.655,19.85-35.744,18.801-57.117c-0.514-10.468-3.562-20.494-7.191-30.277c-5.872-15.831-15.799-29.183-26.412-42.044   c-1.71-2.073-4.266-3.493-6.555-5.029c-1.755-1.177-3.751-1.988-5.559-3.095c-2.229-1.366-2.438-3.263-0.867-5.327   c2.57-3.377,5.176-6.736,7.573-10.235c8.694-12.689,16.709-25.752,21.878-40.363C456.385,127.382,460.508,107.851,460.337,87.536z"/>
	<path d="M354.083,214.906c-0.366,0.409-0.517,0.537-0.618,0.696c-5.277,8.27-12.775,14.115-20.995,19.149   c-1.049,0.642-1.517,1.362-1.722,2.583c-2.163,12.892-5.645,25.369-12.289,36.752c-3.409,5.84-7.373,11.279-13.07,15.16   c-9.04,6.158-18.451,7.297-28.278,1.896c-5.624-3.091-8.932-8.123-11.228-13.863c-2.5-6.253-4.688-15.877-3.134-25.157   c-0.263,0.168-0.465,0.247-0.601,0.39c-4.83,5.033-10.344,9.189-16.28,12.826c-0.578,0.354-1.106,1.173-1.218,1.849   c-1.928,11.583-4.981,22.827-10.319,33.334c-3.644,7.173-8.096,13.773-14.684,18.671c-9.192,6.834-20.188,7.499-29.563,1.757   c-5.309-3.252-8.431-8.228-10.588-13.838c-1.1-2.861-1.687-5.921-2.499-8.893c-0.127-0.465-0.218-0.939-0.4-1.733   c-1.517,2.021-2.854,3.779-4.166,5.555c-10.196,13.799-22.846,24.981-37.186,34.228c-12.396,7.993-25.956,10.164-40.283,6.504   c-12.407-3.17-21.048-10.977-26.612-22.367c-5.161-10.564-7.499-21.847-8.553-33.462c-1.087-11.973-0.034-23.848,1.676-35.682   c3.177-21.986,9.702-42.954,19.399-62.934c7.528-15.511,16.765-29.885,28.489-42.589c6.648-7.205,14.09-13.4,23.226-17.198   c3.766-1.565,7.706-2.786,11.659-3.806c5.975-1.541,11.423,0.152,16.027,3.967c3,2.485,5.471,5.609,8.298,8.571   c1.357-1.078,2.944-2.466,4.661-3.669c1.855-1.3,3.721-2.677,5.776-3.58c5.258-2.31,10.415-1.115,14.444,2.976   c3.925,3.985,5.459,8.916,5.628,14.328c0.425,13.645-4.199,25.495-13.166,35.651c-1.669,1.89-3.895,3.35-6.039,4.737   c-1.772,1.146-2.773,0.485-3.056-1.618c-1.051-7.812-1.978-15.644-3.198-23.43c-1.255-8.009-4.549-15.324-8.794-22.13   c-2.925-4.691-6.888-8.482-12.464-10.07c-2.628-0.748-5.196-0.426-7.741,0.475c-6.788,2.401-12.09,6.761-16.66,12.224   c-11.912,14.241-19.22,30.659-23.316,48.636c-3.643,15.987-6.092,32.094-4.989,48.564c0.998,14.91,4.584,29.047,12.806,41.729   c4.754,7.333,10.987,13.036,19.036,16.64c9.956,4.457,19.996,4.379,30.106,0.589c4.923-1.845,9.404-4.464,13.384-7.902   c0.476-0.411,0.981-1.13,0.979-1.704c-0.038-9.606,3.162-18.248,7.752-26.487c1.397-2.507,1.418-2.495-0.532-4.576   c-13.58-14.498-13.257-36.945,0.705-50.851c11.857-11.81,30.513-11.883,42.845-2.673c8.35,6.236,13.098,14.841,16.053,24.581   c2.631,8.671,3.079,17.593,2.778,26.582c-0.032,0.96-0.057,1.92-0.077,2.881c-0.002,0.095,0.054,0.192,0.094,0.323   c0.134-0.01,0.302,0.026,0.41-0.038c5.975-3.558,11.713-7.456,16.275-12.772c1.585-1.846,2.764-4.072,3.946-6.225   c1.531-2.788,2.791-5.727,4.35-8.499c0.665-1.182,0.596-1.805-0.344-2.805c-9.875-10.504-13.316-22.79-9.094-36.662   c3.695-12.141,11.762-20.526,24.29-23.333c13.086-2.932,24.454,1.014,33.395,11.099c6.842,7.717,10.331,17.037,12.01,27.096   c1.02,6.111,1.145,12.274,0.954,18.451c-0.017,0.552-0.002,1.104-0.002,1.761c0.282-0.089,0.522-0.128,0.726-0.234   c8.935-4.639,15.716-11.618,21.395-19.775c0.346-0.498,0.495-1.216,0.523-1.841c1.023-23.456,3.197-46.819,6.047-70.111   c1.65-13.493,3.591-26.965,5.913-40.357c1.543-8.898,3.814-17.685,6.083-26.438c2.322-8.959,6.379-17.116,12.395-24.247   c2.965-3.514,6.485-6.396,10.705-8.016c5.855-2.247,11.447-1.368,16.22,3.01c3.822,3.506,6.295,7.878,7.966,12.726   c4.657,13.505,5.719,27.356,3.803,41.459c-3.057,22.496-10.121,43.684-21.129,63.524c-6.663,12.01-14.742,22.966-25.041,32.177   c-0.493,0.441-0.902,1.286-0.889,1.934c0.097,4.645,0.185,9.296,0.517,13.929c0.992,13.84,2.861,27.571,6.061,41.075   c1.407,5.938,3.504,11.711,5.235,17.574c0.432,1.464,1.124,1.807,2.716,1.699c3.613-0.245,7.302-0.467,10.874-0.019   c9.996,1.253,17.234,6.888,21.77,15.616c2.814,5.415,3.523,11.44,1.792,17.535c-2.579,9.081-7.833,16.248-15.972,20.926   c-9.58,5.507-19.356,4.839-28.684-0.775c-9.768-5.879-16.221-14.604-20.333-25.126c-1.041-2.664-1.91-5.395-2.939-8.324   c-1.609,1.294-3.201,2.44-4.641,3.754c-7.057,6.443-14.081,12.923-21.103,19.404c-15.72,14.507-31.445,29.01-47.143,43.541   c-8.239,7.626-16.426,15.308-24.634,22.967c-0.178,0.166-0.326,0.363-0.759,0.852c2.952,0.612,5.626,1.3,8.342,1.704   c8.418,1.251,16.85,0.831,25.258-0.135c3.61-0.415,7.27-0.797,10.766-1.725c10.808-2.872,20.39-8.026,28.101-16.274   c3.954-4.229,7.03-9.035,8.233-14.799c0.811-3.887,0.661-7.604-2.245-10.826c-1.553-1.722-0.716-3.912,1.573-4.152   c14.151-1.484,27.21,0.736,37.395,11.775c7.228,7.834,10.194,17.049,7.809,27.571c-1.588,7.01-5.459,12.786-10.921,17.455   c-10.473,8.954-22.744,13.891-36.185,16.343c-11.772,2.148-23.248,0.772-34.659-2.279c-15.457-4.133-30.074-10.404-44.469-17.262   c-1.141-0.543-2.335-0.986-3.435-1.6c-1.054-0.589-1.766-0.373-2.677,0.392c-6.427,5.398-12.826,10.835-19.397,16.054   c-12.81,10.174-26.112,19.644-40.778,27.017c-14.614,7.347-30.01,12.057-46.407,13.023c-11.818,0.696-22.875-1.789-32.485-9.019   c-6.265-4.713-11.099-10.544-13.262-18.337c-2.326-8.383-0.661-15.861,3.598-23.374c3.614-6.376,8.957-10.766,14.471-15.018   c6.698-5.164,14.357-8.603,22.531-10.909c11.146-3.145,22.502-3.752,33.973-3.08c15.437,0.904,30.653,3.311,45.657,7.027   c3.969,0.983,7.889,2.197,11.772,3.484c1.559,0.517,2.691,0.404,4.01-0.616c14.038-10.857,28.237-21.511,42.161-32.513   c17.933-14.17,35.5-28.819,54.386-41.734c7.299-4.991,14.858-9.605,22.351-14.309c1.187-0.745,1.59-1.379,1.383-2.85   c-1.524-10.832-2.166-21.739-2.241-32.668c-0.061-9,0.14-18.001,0.224-27.001C354.089,216.67,354.083,215.967,354.083,214.906z    M227.652,374.148c-0.931-0.281-1.398-0.45-1.878-0.564c-13.384-3.178-26.865-5.852-40.516-7.594   c-12.363-1.578-24.688-1.679-36.942,1.103c-11.101,2.521-21.034,7.163-28.908,15.59c-3.893,4.166-6.89,8.866-7.546,14.717   c-0.899,8.016,3.25,14.022,11.146,15.422c3.786,0.671,7.76,0.819,11.602,0.544c11.479-0.821,22.478-3.936,33.257-7.809   c17.247-6.197,33.457-14.511,48.918-24.313C220.32,379.004,223.794,376.671,227.652,374.148z M377.011,183.476   c0.153,0.08,0.306,0.16,0.46,0.24c0.269-0.363,0.536-0.728,0.807-1.09c4.88-6.502,10.225-12.711,14.546-19.565   c9.285-14.728,15.414-30.909,20.068-47.624c3.348-12.027,5.471-24.274,4.644-36.843c-0.243-3.7-0.237-7.473-2.603-10.737   c-3.185-4.394-6.141-4.76-9.935-0.959c-0.925,0.927-1.888,1.884-2.544,2.997c-1.717,2.909-3.549,5.796-4.847,8.897   c-6.507,15.541-11.107,31.65-13.973,48.258c-2.72,15.76-4.424,31.64-5.775,47.564C377.608,177.571,377.296,180.522,377.011,183.476   z M200.857,245.021c0.432-0.193,0.877-0.415,1.338-0.594c3.77-1.462,7.49-3.02,11.726-2.067c2.583,0.581,2.971,1.227,1.754,3.583   c-1.344,2.599-2.633,5.228-3.851,7.888c-0.17,0.372,0.036,1.277,0.346,1.458c7.906,4.616,16.28,7.582,25.612,7.1   c0.993-0.051,1.298-0.478,1.375-1.372c0.221-2.567,0.506-5.128,0.74-7.693c0.869-9.549-0.153-18.866-3.484-27.891   c-2.256-6.111-5.153-11.813-10.854-15.474c-7.996-5.135-15.115-4.952-21.571,1.506c-2.783,2.785-4.957,5.963-6.738,9.46   C193.025,229.224,195.243,237.828,200.857,245.021z M287.072,214.731c1.26-0.594,2.423-1.208,3.635-1.7   c3.184-1.292,6.468-1.669,9.777-0.602c2.445,0.788,2.864,2.211,1.511,4.392c-1.224,1.974-2.425,3.963-3.639,5.943   c-0.769,1.254-0.673,2.165,0.85,2.796c3.865,1.603,7.651,3.407,11.555,4.908c4.331,1.667,8.784,1.631,13.265,0.422   c1.069-0.289,1.508-0.773,1.575-1.829c0.22-3.429,0.552-6.851,0.723-10.281c0.514-10.318-1.666-20.092-6.164-29.355   c-2.243-4.619-5.511-8.396-10.085-10.796c-7.51-3.94-13.625-3.439-19.571,2.293c-2.874,2.771-5.087,5.984-6.923,9.513   C279.251,198.757,281.396,207.439,287.072,214.731z M323.552,239.234c-9.781,3.748-19.781,4.864-30.263,2.806   c0.053,5.844,0.001,11.449,2.746,16.615c0.355,0.667,0.757,1.317,1.202,1.928c2.005,2.752,4.762,3.843,8.083,3.421   c3.184-0.404,5.848-2.009,8.069-4.207c5.58-5.52,8.434-12.488,10.243-19.968C323.663,239.701,323.598,239.55,323.552,239.234z    M237.648,269.389c-10.055,3.86-20.05,4.97-30.402,2.967c-0.08,0.545-0.215,0.938-0.182,1.316c0.312,3.564,0.381,7.18,1.084,10.668   c0.454,2.252,1.617,4.463,2.877,6.427c2.051,3.196,5.796,4.345,9.468,3.24c2.864-0.862,5.317-2.432,7.368-4.604   c3.967-4.2,6.436-9.257,8.257-14.664C236.674,273.086,237.082,271.383,237.648,269.389z M391.175,270.482   c3.003,6.605,6.667,12.299,12.416,16.333c1.532,1.075,3.412,1.781,5.236,2.268c1.3,0.347,2.833,0.297,4.158-0.017   c3.07-0.726,5.174-3.496,4.388-6.67c-0.882-3.565-4.18-6.07-7.173-7.844c-2.877-1.705-5.991-3.071-9.262-3.804   C397.64,270.008,394.501,270.306,391.175,270.482z"/>
</g>















</svg>
