<?xml version="1.0" encoding="UTF-8"?>
<!-- Generator: Adobe Illustrator 25.2.0, SVG Export Plug-In . SVG Version: 6.00 Build 0)  -->
<svg xmlns="http://www.w3.org/2000/svg" xmlns:xlink="http://www.w3.org/1999/xlink" version="1.1" id="Capa_1" x="0px" y="0px" viewBox="0 0 500 500" style="enable-background:new 0 0 500 500;" xml:space="preserve" width="512" height="512">
<g>
	<path d="M393.1,141.082c0.664,0.557,1.325,1.083,1.955,1.643c8.866,7.884,14.66,17.685,18.308,28.903   c3.607,11.092,4.976,22.459,4.242,34.039c-0.788,12.433-4.819,23.829-11.609,34.312c-4.534,6.999-9.697,13.395-16.082,18.773   c-1.443,1.216-2.943,2.364-4.589,3.682c7.721,3.431,12.492,9.502,15.96,16.771c0.451,0.945,1.016,0.712,1.739,0.485   c5.94-1.866,11.895-3.676,18.099-4.48c23.739-3.075,44.382,3.13,61.518,20.245c7.826,7.817,13.342,16.891,16.136,27.589   c1.412,5.405,1.379,10.926,0.999,16.446c-0.724,10.531-2.507,20.862-6.329,30.745c-5.097,13.181-13.431,23.921-24.557,32.627   c-12.697,9.935-27.051,15.772-42.893,18.343c-14.481,2.35-28.93,1.721-43.347-0.237c-7.001-0.951-13.927-2.484-20.856-3.905   c-2.405-0.493-3.937-0.348-5.594,2.004c-5.032,7.147-11.985,12.453-18.68,17.917c-16.931,13.816-35.432,25.173-55.57,33.635   c-23.926,10.054-48.904,16.119-74.856,17.646c-6.811,0.401-13.683-0.161-20.525-0.35c-13.112-0.363-26.06-2.152-38.807-5.14   c-8.642-2.026-17.148-4.571-25.189-8.527c-5.662-2.785-11.732-4.777-17.272-7.766c-19.283-10.404-35.042-24.724-45.808-43.933   c-10.983-19.594-14.703-40.779-12.143-63.08c0.69-6.014,1.881-11.918,3.702-17.696c0.65-2.063,0.614-2.07-1.251-2.991   c-3.494-1.725-6.964-3.502-10.483-5.174c-18.763-8.917-30.355-23.643-35.759-43.577c-2.931-10.81-4.526-21.662-2.927-32.845   c1.705-11.923,5.435-23.203,10.839-33.929c8.351-16.574,20.139-30.342,34.497-42.012c13.36-10.859,27.968-19.713,43.502-27.03   c24.193-11.395,49.341-20.128,75.376-26.229c12.549-2.941,25.288-4.903,38.086-6.406c8.402-0.987,16.812-2.105,25.25-2.517   c7.532-0.368,15.108,0.145,22.664,0.283c5.719,0.104,5.738,0.12,7.47-5.304c3.626-11.361,7.13-22.789,12.381-33.523   c3.608-7.374,7.658-14.547,11.823-21.627c4.247-7.221,10.376-12.856,16.69-18.231c15.401-13.111,32.617-22.806,52.541-27.113   c12.497-2.701,25.009-2.826,37.356,1.022c18.262,5.691,29.755,17.88,34.518,36.359c3.903,15.144,3.053,30.017-1.967,44.896   c-4.911,14.555-12.699,27.24-22.729,38.695C397.025,136.699,395.088,138.847,393.1,141.082z M239.177,122.724   c0,0.035,0,0.07,0,0.104c-3.803,0-7.629-0.27-11.404,0.055c-8.476,0.729-16.94,1.643-25.384,2.685   c-12.505,1.543-24.971,3.419-37.218,6.416c-22.995,5.627-45.225,13.521-66.842,23.147c-16.962,7.553-32.943,16.761-47.578,28.249   c-18.154,14.249-31.928,31.799-40.43,53.352c-3.468,8.793-6.156,17.754-6.589,27.302c-0.385,8.491,1.316,16.621,3.58,24.714   c5.314,18.998,16.579,32.972,34.565,41.37c3.057,1.427,6.048,2.996,9.077,4.482c5.174,2.538,5.56,3.432,4.122,9.028   c-4.178,16.262-5.193,32.612-1.56,49.143c2.787,12.683,7.283,24.663,14.974,35.174c12.337,16.863,27.836,30.049,47.143,38.328   c18.626,7.987,38.335,11.284,58.446,12.289c16.297,0.815,32.408-1.163,48.324-4.46c42.851-8.877,81.271-26.979,114.533-55.645   c4.611-3.974,9.221-7.949,13.846-11.906c2.664-2.279,5.591-3.203,9.114-2.083c11.205,3.564,22.707,5.499,34.45,6.059   c15.352,0.733,30.487-0.282,45.236-5.065c11.301-3.665,21.541-9.05,29.109-18.42c15.988-19.796,22.411-42.512,18.057-67.531   c-3.127-17.969-13.67-30.961-31.104-37.474c-11.613-4.338-23.713-5.076-35.834-2.721c-6.925,1.345-13.685,3.555-20.496,5.46   c-4.168,1.166-5.323,0.762-7.703-2.873c-4.76-7.268-10.501-13.468-18.51-17.309c-4.167-1.999-4.269-3.658-0.594-6.563   c5.557-4.393,11.214-8.658,16.742-13.086c7.055-5.65,12.239-12.785,15.51-21.159c1.945-4.979,3.532-10.152,4.705-15.367   c2.832-12.592,2.859-25.244-1.009-37.639c-3.146-10.079-8.021-19.238-16.546-25.933c-2.835-2.226-5.924-4.128-8.879-6.203   c-1.75-1.229-1.953-2.476-0.522-4.048c6.268-6.882,11.537-14.496,16.526-22.324c5.651-8.867,11.036-17.843,14.239-27.978   c3.28-10.38,5.532-20.871,4.352-31.826c-1.096-10.177-4.657-19.156-12.846-25.854c-3.157-2.582-6.586-4.675-10.29-6.33   c-13.713-6.128-27.924-6.447-42.323-3.279c-18.86,4.151-35.133,13.416-49.707,25.851c-5.723,4.884-11.282,9.977-15.516,16.264   c-5.636,8.37-10.937,16.991-14.558,26.427c-3.876,10.101-7.201,20.416-10.696,30.661c-2.05,6.007-3.65,7.239-9.969,7.052   C247.538,123.137,243.358,122.907,239.177,122.724z"/>
	<path d="M305.791,255.459c0.222,0.206,0.307,0.335,0.425,0.387c9.103,3.985,16.864,9.945,23.985,16.724   c5.126,4.88,9.995,10.042,14.803,15.242c11.364,12.291,22.605,24.695,33.937,37.014c2.677,2.91,2.75,2.832,6.316,1.329   c7.605-3.205,15.412-5.713,23.64-6.719c7.256-0.886,14.356-0.384,21.058,2.791c11.96,5.668,15.769,19.387,8.467,30.428   c-4.376,6.617-10.557,11.097-17.794,13.974c-12.895,5.129-26.213,5.749-39.607,2.366c-6.668-1.684-12.609-5.109-17.603-9.898   c-3.221-3.089-6.173-6.458-9.239-9.706c-0.417-0.442-0.801-0.916-1.263-1.446c-0.56,0.343-1.045,0.625-1.515,0.931   c-27.84,18.146-55.636,36.358-83.534,54.413c-13.531,8.757-27.296,17.14-41.915,24.015c-12.943,6.087-26.449,10.391-40.632,12.301   c-11.552,1.555-23.06,1.096-34.381-1.953c-13.825-3.724-24.313-12.177-32.908-23.296c-16.211-20.973-21.86-44.641-18.12-70.735   c1.156-8.067,2.842-15.982,6.141-23.643c-2.248-0.129-4.361-0.17-6.457-0.385c-10.3-1.056-20.004-3.78-28.084-10.645   c-8.512-7.232-13.659-16.441-16.326-27.279c-3.606-14.651-0.995-28.48,4.742-42.002c9.095-21.435,24.042-37.763,43.75-49.89   c19.397-11.936,40.377-20.181,62.39-25.618c18.487-4.565,37.2-8.207,55.782-12.395c17.101-3.855,34.161-7.887,51.236-11.857   c3.471-0.807,6.918-1.713,10.392-2.503c0.994-0.226,1.457-0.688,1.808-1.674c3.736-10.517,7.179-21.157,11.42-31.468   c5.33-12.96,12.173-25.174,20.934-36.181c5.259-6.607,11.115-12.664,18.597-16.859c7.368-4.131,15.151-6.638,23.729-5.59   c6.046,0.739,10.544,3.795,13.311,9.292c2.687,5.339,3.326,11.067,3.146,16.924c-0.317,10.333-3.965,19.588-9.505,28.143   c-9.528,14.713-22.799,25.087-38.413,32.657c-7.712,3.739-15.75,6.659-23.942,9.151c-1.078,0.328-1.608,0.857-1.937,1.939   c-6.242,20.514-10.372,41.465-13.037,62.721c-0.035,0.278-0.028,0.561,0.126,0.889c0.705-1.797,1.365-3.613,2.123-5.387   c7.454-17.447,19.175-31.266,35.356-41.197c8.032-4.93,16.777-6.573,26.035-4.563c12.783,2.776,19.716,11.333,22.44,23.624   c2.424,10.938-0.036,21.241-4.909,31.067c-5.142,10.369-12.976,18.473-22.044,25.434c-11.566,8.878-24.262,15.46-38.679,18.371   C308.686,254.967,307.326,255.184,305.791,255.459z M248.58,279.588c0.314,0,0.555,0.049,0.768-0.007   c4.359-1.155,8.401-3.019,12.128-5.545c0.344-0.234,0.599-0.842,0.613-1.286c0.378-11.884,0.983-23.754,2.578-35.544   c1.67-12.335,3.376-24.667,5.268-36.97c2.595-16.88,6.861-33.4,11.162-49.906c0.147-0.562,0.276-1.129,0.453-1.857   c-0.686,0.172-1.1,0.269-1.511,0.378c-16.936,4.512-33.858,9.074-50.81,13.526c-22.014,5.782-43.896,11.946-65.145,20.213   c-18.436,7.172-35.194,16.879-49.911,30.282c-17.134,15.604-23.656,41.816-19.593,60.191c2.405,10.875,6.966,20.366,15.586,27.633   c1.656,1.396,3.492,2.58,5.286,3.892c0.493-0.579,0.841-0.966,1.165-1.371c4.134-5.163,9.234-9.157,15.004-12.322   c2.845-1.56,5.879-2.413,9.165-2.19c3.605,0.245,6.928,3.515,7.234,7.116c0.247,2.906-0.416,5.573-2.071,7.976   c-2.04,2.963-4.469,5.537-7.48,7.553c-5.449,3.649-11.364,6.107-17.852,7.154c-2.347,0.378-2.305,0.398-2.6,2.773   c-0.874,7.05-0.429,14.031,0.843,21.003c1.801,9.871,4.835,19.301,10.399,27.702c7.416,11.198,17.478,19.373,29.827,24.611   c18.186,7.713,37.224,9.247,56.661,7.29c10.828-1.09,21.303-3.912,31.645-7.167c21.258-6.692,41.274-16.285,60.834-26.805   c13.976-7.517,27.642-15.609,41.444-23.45c0.105-0.06,0.171-0.19,0.265-0.298c-2.36-3.383-4.877-6.624-7-10.105   c-5.789-9.494-11.428-19.08-17.096-28.648c-4.65-7.85-9.099-15.825-13.943-23.552c-2.82-4.497-6.092-8.738-9.434-12.873   c-4.149-5.134-9.63-8.359-16.2-10.177c0,0.825,0.009,1.527-0.001,2.229c-0.166,10.571,0.554,21.097,1.475,31.62   c1.316,15.042,4.731,29.529,11.098,43.27c0.657,1.418,1.277,2.877,1.699,4.377c0.717,2.545,0.223,3.402-2.202,4.385   c-0.484,0.196-0.969,0.397-1.469,0.546c-11.141,3.328-21.267,0.553-26.579-11.326c-1.064-2.379-1.999-4.836-2.751-7.33   c-3.663-12.146-5.191-24.614-5.424-37.264c-0.021-1.158-0.003-2.317-0.003-3.697c-0.425,0.294-0.595,0.377-0.721,0.504   c-4.055,4.088-8.706,7.346-13.779,10.045c-0.507,0.27-0.959,1.049-1.043,1.646c-1.89,13.491-6.188,26.224-11.9,38.538   c-3.938,8.489-8.818,16.341-15.619,22.815c-9.098,8.661-19.96,12.481-32.51,10.883c-8.515-1.084-15.071-5.758-20.63-11.978   c-6.528-7.304-9.04-16.306-10.196-25.707c-1.361-11.076,0.256-21.936,3.626-32.497c1.479-4.636,3.603-9.065,5.527-13.817   c0.128,0.249,0.1,0.152,0.039,0.083c-0.282-0.322-0.579-0.63-0.86-0.953c-9.463-10.873-15.19-23.365-14.641-37.923   c0.842-22.29,11.757-38.759,31.002-49.561c9.527-5.347,19.842-5.512,30.11-1.9c10.148,3.569,17.559,10.593,23.502,19.315   c11.328,16.625,15.348,35.258,14.976,55.069C248.933,273.305,248.722,276.425,248.58,279.588z M209.886,271.947   c0.238,0.217,0.429,0.42,0.648,0.587c3.694,2.821,7.741,4.995,12.12,6.538c4.381,1.544,8.885,2.413,13.551,2.386   c0.921-0.005,1.343-0.241,1.384-1.271c0.084-2.086,0.426-4.163,0.488-6.249c0.376-12.643-0.585-25.156-3.618-37.48   c-1.515-6.155-3.174-12.239-6.455-17.739c-2.313-3.878-5.42-6.951-9.383-9.15c-4.351-2.414-8.618-2.285-12.821,0.353   c-5.309,3.332-8.743,8.183-10.708,13.994c-3.758,11.112-2.297,21.919,2.392,32.459c0.424,0.954,1.011,0.728,1.732,0.569   c5.55-1.229,11.139-2.065,16.815-1.06c0.87,0.154,1.913,0.745,2.374,1.458c0.654,1.012-0.206,1.916-0.928,2.731   C214.34,263.62,211.853,267.586,209.886,271.947z M306.734,130.041c0.128,0.1,0.256,0.2,0.384,0.3   c0.481-0.164,0.966-0.318,1.442-0.495c9.666-3.574,18.792-8.223,27.434-13.826c5.227-3.388,10.471-6.757,14.697-11.436   c7.448-8.246,12.203-17.806,14.148-28.764c0.78-4.394,1.803-8.748,1.145-13.271c-0.474-3.256-1.562-6.162-4.198-8.307   c-1.704-1.387-2.935-1.457-4.771-0.277c-0.639,0.411-1.271,0.837-1.935,1.205c-9.274,5.139-16.334,12.585-22.365,21.174   c-8.219,11.705-14.271,24.539-19.81,37.636C310.675,119.26,308.782,124.683,306.734,130.041z M286.863,245.104   c6.12-1.3,11.919-3.254,17.179-6.671c9.55-6.203,17.006-14.451,23.077-23.954c4.441-6.952,7.568-14.481,8.207-22.843   c0.303-3.966,0.228-7.905-1.534-11.593c-1.894-3.965-4.717-5.044-8.767-3.405c-2.916,1.18-5.321,3.09-7.544,5.276   c-10.963,10.78-19.088,23.501-25.386,37.424c-3.249,7.182-5.558,14.651-5.238,22.693   C286.897,243.014,286.863,244.001,286.863,245.104z M199.348,304.292c-0.161,1.731-0.365,3.23-0.429,4.736   c-0.261,6.109,0.271,12.042,3.548,17.463c3.692,6.109,10.882,7.688,16.737,3.581c2.983-2.092,5.246-4.808,6.957-7.992   c3.233-6.015,5.542-12.387,7.234-18.991c0.088-0.345,0.118-0.705,0.206-1.242C222.32,304.981,211.059,306.121,199.348,304.292z    M384.816,330.411c1.99,1.623,3.694,3.115,5.502,4.468c6.846,5.122,14.194,9.209,22.789,10.527   c4.598,0.706,9.031,0.371,12.832-2.747c3.848-3.156,4.345-8.305,1.205-12.128c-1.665-2.027-3.686-3.53-6.155-4.462   c-3.191-1.205-6.478-1.894-9.884-1.861c-7.596,0.072-14.864,1.838-21.958,4.419C387.783,329.123,386.458,329.731,384.816,330.411z    M121.645,307.422c6.474,3.361,16.505,1.416,21.036-4.127c1.07-1.309,1.879-2.994,2.299-4.636c0.828-3.24-2.166-7.468-6.296-6.227   c-1.704,0.512-3.356,1.315-4.905,2.206C128.504,297.669,124.517,301.957,121.645,307.422z"/>
</g>















</svg>
