<?xml version="1.0" encoding="UTF-8"?>
<!-- Generator: Adobe Illustrator 25.2.0, SVG Export Plug-In . SVG Version: 6.00 Build 0)  -->
<svg xmlns="http://www.w3.org/2000/svg" xmlns:xlink="http://www.w3.org/1999/xlink" version="1.1" id="Capa_1" x="0px" y="0px" viewBox="0 0 500 500" style="enable-background:new 0 0 500 500;" xml:space="preserve" width="512" height="512">
<g>
	<path d="M0,273.389c0.378-3.465,0.54-6.971,1.171-10.389c3.477-18.815,11.237-35.553,25.443-48.636   c11.37-10.471,24.685-17.598,40.188-20.002c2.965-0.46,5.98-0.644,8.979-0.811c1.581-0.088,2.545-0.707,3.318-2.101   c2.259-4.068,4.495-8.164,7.027-12.062c4.685-7.213,10.88-12.991,17.899-17.897c9.224-6.448,19.544-8.702,30.647-7.901   c3.87,0.279,7.74,0.619,11.616,0.768c3.787,0.146,3.202,0.567,4.536-3.106c2.016-5.553,3.778-11.239,6.288-16.566   c12.809-27.19,33.584-45.72,61.741-56.07c17.425-6.405,35.192-7.25,53.262-3.346c6.923,1.495,13.745,3.314,20.396,5.796   c2.617,0.976,5.463,1.319,8.133,2.174c16.742,5.359,31.121,14.293,42.149,28.197c0.656,0.827,1.218,0.652,2,0.428   c7.864-2.258,15.679-2.281,23.445,0.51c4.631,1.665,8.42,4.564,11.85,7.978c0.897,0.893,1.529,0.93,2.568,0.212   c2.668-1.843,5.315-3.773,8.181-5.264c9.801-5.097,20.212-5.814,31.013-4.281c15.744,2.235,28.107,10.34,38.646,21.693   c14.109,15.198,23.448,32.938,27.787,53.239c3.15,14.739,2.933,29.46-0.54,44.143c-2.177,9.204-4.591,18.331-7.866,27.216   c-0.161,0.436,0.054,1.237,0.387,1.595c2.668,2.861,4.817,6.054,6.636,9.514c4.067,7.736,7.827,15.557,9.922,24.134   c2.555,10.459,3.734,21.032,2.928,31.739c-1.077,14.307-4.982,27.827-12.432,40.194c-2.801,4.649-5.574,9.328-8.636,13.804   c-13.487,19.714-31.897,32.107-55.295,37.202c-11.862,2.583-23.826,3.77-35.934,3.959c-15.106,0.236-30.157-0.805-45.209-1.835   c-20.568-1.407-41.117-1.6-61.576,1.364c-11.805,1.71-23.584,3.619-35.339,5.644c-15.848,2.73-31.711,3.353-47.657,1.029   c-14.582-2.125-28.197-6.89-40.62-14.874c-1.865-1.198-3.485-2.771-5.263-4.113c-0.405-0.306-1.063-0.623-1.487-0.506   c-7.226,1.995-14.568,1.965-21.955,1.411c-12.757-0.956-25.101-3.806-37.064-8.257c-11.139-4.145-20.607-10.884-29.011-19.21   c-9.681-9.59-17.399-20.449-21.625-33.533c-0.935-2.894-1.598-5.898-2.103-8.9c-0.358-2.129-1.328-3.475-3.219-4.461   c-2.964-1.545-5.867-3.22-8.725-4.954c-13.832-8.392-21.619-20.951-24.826-36.538c-0.799-3.881-1.05-7.876-1.555-11.818   c-0.067-0.522-0.146-1.042-0.22-1.562C0,276.688,0,275.039,0,273.389z M383.308,401.539c9.741-0.006,21.245-0.872,32.576-3.291   c14.069-3.004,26.524-9.278,36.772-19.449c6.853-6.802,11.731-15.047,15.704-23.801c8.289-18.26,9.543-37.289,5.931-56.793   c-1.992-10.755-4.852-21.263-9.617-31.165c-1.241-2.578-1.459-4.79-0.032-7.623c7.578-15.042,10.978-31.282,13.01-47.863   c1.801-14.695-0.659-28.868-5.062-42.859c-4.089-12.998-9.614-25.109-18.909-35.353c-7.887-8.693-17.261-14.552-28.763-17.032   c-14.284-3.08-27.639-1.707-39.588,7.569c-3.799,2.95-4.971,2.765-8.585-0.55c-3.991-3.661-8.496-6.278-13.818-7.349   c-5.09-1.024-10.225-1.099-15.339-0.212c-2.718,0.471-5.403,1.145-8.087,1.794c-1.738,0.42-3.16,0.288-4.321-1.334   c-1.068-1.493-2.446-2.76-3.572-4.216c-6.435-8.323-14.749-14.408-23.657-19.735c-9.725-5.816-20.21-9.737-31.232-12.381   c-13.477-3.234-27.033-4.282-40.68-1.646c-24.783,4.786-45.039,17.377-61.142,36.624c-9.225,11.026-15.601,23.672-19.753,37.45   c-1.77,5.874-3.045,6.661-9.117,6.347c-4.843-0.251-9.684-0.606-14.53-0.73c-7.899-0.202-15.27,1.7-22.031,5.875   c-8.611,5.317-15.656,12.204-20.946,20.84c-1.924,3.142-3.719,6.364-5.531,9.572c-1.324,2.346-3.286,3.624-5.97,3.816   c-0.774,0.055-1.544,0.164-2.318,0.218c-18.716,1.296-34.041,9.747-47.358,22.437c-17.112,19.589-25.47,41.966-21.144,68.134   c2.703,16.351,10.867,29.183,25.706,37.292c2.255,1.232,4.487,2.506,6.743,3.737c2.321,1.267,3.712,3.184,4.224,5.78   c0.496,2.519,0.957,5.051,1.595,7.536c2.35,9.146,7.188,17.019,12.805,24.45c9.339,12.354,21.436,20.629,36.548,24.317   c12.772,3.117,25.727,4.17,38.844,3.31c3.194-0.21,6.391-0.392,9.589-0.504c3.213-0.112,5.999,0.994,8.296,3.251   c1.349,1.325,2.655,2.695,3.976,4.049c4.281,4.385,9.095,8.086,14.796,10.362c9.302,3.714,18.97,5.657,29.027,4.609   c16.946-1.766,33.696-4.778,50.331-8.419c16.391-3.588,32.789-7.106,49.484-9.015c16.926-1.936,33.868-2.353,50.824-0.455   C359.786,400.343,370.587,401.502,383.308,401.539z"/>
	<g>
		<path d="M138.191,323.701c-1.578,2.325-3.055,4.523-4.556,6.705c-3.091,4.492-6.576,8.649-10.625,12.311    c-3.426,3.099-7.274,5.483-11.772,6.701c-7.019,1.9-14.556-0.653-18.932-6.466c-3.699-4.913-5.567-10.579-6.76-16.544    c-2.335-11.674-1.563-23.283,0.757-34.826c3.57-17.76,8.653-35.086,15.425-51.901c0.175-0.434,0.313-0.881,0.555-1.568    c-0.473,0.238-0.721,0.337-0.942,0.478c-10.995,7.013-20.466,15.662-28.186,26.202c-5.498,7.506-9.35,15.723-10.92,24.947    c-0.646,3.794-0.56,7.522,0.829,11.164c0.325,0.852,0.124,1.242-0.881,1.672c-7.789,3.336-14.726,0.796-21.052-3.48    c-6.359-4.299-9.234-10.879-9.331-18.481c-0.06-4.685,1.569-9.04,3.821-13.131c4.8-8.72,11.539-15.491,20.234-20.368    c10.368-5.815,21.469-9.879,32.589-13.919c5.602-2.035,11.165-4.176,16.765-6.218c1.059-0.386,1.583-0.965,1.883-2.086    c2.902-10.815,7.464-20.892,13.696-30.2c3.028-4.523,6.734-8.361,11.362-11.313c3.147-2.007,6.635-2.5,10.174-2.354    c4.598,0.19,8.227,4.908,7.527,9.811c-0.364,2.552-1.052,5.179-2.192,7.475c-3.596,7.242-8.62,13.421-14.733,18.741    c-5.915,5.148-12.407,9.47-19.029,13.616c-1.059,0.663-1.646,1.465-1.971,2.688c-3.438,12.923-4.85,26.024-3.356,39.348    c0.845,7.533,2.602,14.836,7.29,21.039c1.329,1.758,2.925,3.388,4.655,4.754c3.237,2.555,6.959,2.907,10.893,1.804    c1.107-0.31,1.341-0.824,1.306-1.946c-0.428-13.57,1.277-26.808,6.437-39.466c1.381-3.388,3.183-6.542,5.826-9.139    c1.795-1.764,3.862-2.968,6.477-2.763c2.827,0.222,5.362,2.6,6.286,5.894c0.981,3.498,1.069,7.073,0.785,10.673    c-0.812,10.292-2.847,20.335-6.044,30.151c-0.145,0.445,0.016,1.169,0.31,1.551c3.955,5.138,8.873,8.745,15.479,9.688    c3.976,0.567,7.609-0.316,11.002-2.354c3.94-2.367,7.122-5.551,9.587-9.394c7.637-11.904,12.565-24.829,14.932-38.807    c1.748-10.322,0.901-20.598,0.276-30.901c-0.82-13.511-1.841-27.01-1.258-40.566c0.51-11.856,2.329-23.459,6.765-34.521    c6.036-15.054,15.736-27.016,30.261-34.63c9.385-4.92,19.38-8.034,30.068-6.809c16.19,1.856,28.337,9.888,35.282,24.971    c1.845,4.005,2.379,8.378,2.785,12.733c0.791,8.485-0.975,16.597-3.752,24.535c-0.211,0.604-0.999,1.343-1.568,1.387    c-0.555,0.043-1.473-0.595-1.716-1.157c-1.862-4.319-5.167-7.26-9.104-9.501c-9.255-5.268-19.209-7.614-29.878-6.841    c-18.226,1.321-31.141,10.851-40.096,26.215c-6.763,11.602-10.544,24.233-11.667,37.617c-0.579,6.905-1.176,13.823-1.339,20.745    c-0.147,6.248,0.319,12.509,0.458,18.765c0.411,18.497-1.009,36.81-5.197,54.888c-2.691,11.618-8.701,21.205-17.327,29.19    c-9.518,8.811-23.793,9.51-34.342,1.947c-6.205-4.448-10.458-10.436-13.588-17.303    C138.657,324.719,138.458,324.286,138.191,323.701z M147.294,284.278c0.169,0.022,2.043-2.941,2.727-4.482    c3.16-7.121,5.107-14.531,5.084-22.37c-0.006-2.205-0.458-4.358-1.869-6.153c-0.9-1.145-1.6-1.143-2.397,0.055    c-0.693,1.042-1.29,2.168-1.781,3.32c-3.042,7.129-3.761,14.612-3.107,22.245C146.163,279.375,146.833,281.817,147.294,284.278z     M116.229,221.535c0.12,0.078,0.239,0.156,0.359,0.234c1.496-0.847,3.014-1.656,4.483-2.546    c6.02-3.649,10.962-8.449,14.803-14.323c0.863-1.32,1.382-3.004,1.582-4.581c0.247-1.948-0.99-2.8-2.942-2.384    c-2.756,0.587-5.1,2.002-6.822,4.156c-2.413,3.017-4.826,6.085-6.78,9.401C119.044,214.66,117.766,218.173,116.229,221.535z"/>
		<path d="M305.385,249.142c-1.667,1.455-3.067,2.718-4.51,3.929c-4.552,3.822-9.452,7.123-14.872,9.586    c-1.161,0.527-1.633,1.25-1.884,2.447c-2.563,12.217-6.618,23.903-12.609,34.882c-2.856,5.234-6.641,9.681-11.554,13.081    c-13.99,9.682-27.809,2.787-33.513-7.922c-3.035-5.698-4.527-11.874-4.676-18.307c-0.243-10.435,1.774-20.445,6.204-29.925    c0.404-0.865,0.365-1.426-0.196-2.205c-7.682-10.689-11.298-22.585-10.051-35.743c0.86-9.079,3.801-17.545,9.091-25.02    c4.787-6.766,11.044-11.567,19.498-12.815c9.821-1.449,17.684,2.169,23.906,9.644c4.179,5.021,6.875,10.904,9.172,16.94    c4.772,12.541,7.216,25.534,7.057,38.982c-0.013,1.112-0.077,2.223-0.113,3.335c-0.001,0.037,0.056,0.076,0.309,0.395    c2.263-0.633,4.731-1.128,7.051-2.015c4.189-1.601,8.046-3.848,11.414-6.846c0.497-0.442,0.99-1.15,1.053-1.778    c1.398-13.817,4.797-27.191,8.956-40.386c1.542-4.89,3.224-9.75,5.144-14.502c1.513-3.745,3.766-7.127,6.766-9.905    c3.445-3.189,7.453-4.666,12.16-3.545c3.58,0.853,5.724,3.532,5.809,7.216c0.095,4.09-1.048,7.965-2.26,11.802    c-3.562,11.277-9.178,21.561-15.464,31.503c-0.812,1.284-1.201,2.544-1.196,4.071c0.023,7.54,1.159,14.875,3.743,21.974    c1.271,3.492,3.026,6.713,5.306,9.646c4.49,5.775,10.731,7.491,17.293,4.288c3.005-1.467,5.645-3.7,8.376-5.689    c0.409-0.298,0.599-1.179,0.56-1.769c-0.562-8.627-0.851-17.256-0.067-25.882c0.976-10.737,3.347-21.161,7.537-31.107    c1.04-2.469,2.495-4.834,4.125-6.968c2.156-2.822,5.033-4.738,8.818-3.795c3.978,0.99,6.124,3.934,7.105,7.736    c0.978,3.792,0.485,7.63-0.1,11.416c-2.052,13.285-5.955,26.065-10.754,38.586c-0.406,1.058-0.442,1.929,0.211,2.84    c1.269,1.771,2.4,3.657,3.809,5.307c5.951,6.965,13.51,8.438,21.879,5.655c9.882-3.286,16.991-10.071,21.623-19.237    c6.737-13.332,8.941-27.512,6.382-42.259c-1.364-7.856-4.404-15.147-8.889-21.796c-5.729-8.493-13.864-11.746-23.83-10.883    c-2.697,0.234-5.364,0.805-8.046,1.216c-0.527,0.081-1.057,0.2-1.585,0.198c-1.39-0.005-2.152-0.918-1.889-2.295    c0.097-0.508,0.295-1.054,0.609-1.455c3.078-3.925,5.956-8.043,9.356-11.67c3.817-4.071,8.723-6.572,14.393-6.803    c8.262-0.337,14.353,3.802,19.017,10.216c3.782,5.201,5.494,11.273,6.772,17.498c2.257,10.992,2.343,22.042,1.209,33.157    c-1.501,14.711-4.21,29.161-9.072,43.159c-4.11,11.831-9.204,23.157-17.121,33.02c-4.443,5.536-9.538,10.352-15.716,13.893    c-8.019,4.596-14.673,3.76-21.543-2.46c-4.997-4.524-8.139-10.179-10.26-16.482c-0.154-0.458-0.309-0.916-0.479-1.367    c-0.029-0.076-0.141-0.121-0.301-0.249c-0.424,0.717-0.841,1.42-1.254,2.125c-3.624,6.181-7.871,11.894-12.991,16.916    c-4.032,3.954-8.524,7.216-14.209,8.379c-3.4,0.696-6.765,0.497-9.998-0.835c-5.554-2.289-9.919-5.964-13.008-11.16    c-3.335-5.608-4.806-11.814-5.992-18.121c-1.268-6.746-1.807-13.552-1.652-20.414    C305.454,250.196,305.415,249.822,305.385,249.142z M276.183,250.342c0.12-0.769,0.238-1.333,0.292-1.903    c0.661-6.959,0.887-13.922,0.349-20.904c-0.687-8.921-2.25-17.679-5.021-26.186c-0.647-1.985-1.714-3.911-2.943-5.606    c-1.437-1.98-2.984-2.245-5.279-1.337c-0.975,0.386-1.925,0.939-2.746,1.591c-2.963,2.354-5.12,5.356-6.094,9.002    c-0.885,3.31-1.555,6.701-2.01,10.097c-0.746,5.565,0.087,10.996,1.926,16.228c1.813-0.114,3.553-0.404,5.266-0.29    c2.648,0.177,3.171,1.374,1.854,3.672c-0.818,1.428-1.643,2.856-2.365,4.333c-0.188,0.384-0.194,1.101,0.045,1.414    C263.645,245.939,269.176,249.189,276.183,250.342z M374.515,236.566c0.106,0.002,0.212,0.005,0.317,0.007    c0.237-0.466,0.512-0.917,0.705-1.401c2.594-6.519,5.409-12.963,7.692-19.59c1.959-5.685,3.042-11.642,2.682-17.709    c-0.098-1.659-0.636-3.504-1.562-4.86c-2.226-3.256-6.371-2.886-8.323,0.535c-1.653,2.895-2.679,6.015-3.147,9.3    c-1.297,9.088-1.088,18.164,0.406,27.212C373.644,232.237,374.103,234.398,374.515,236.566z M251.479,269.354    c0,2.239-0.157,4.373,0.033,6.476c0.394,4.36,1.123,8.677,3.312,12.562c2.118,3.761,5.212,4.274,8.558,1.528    c2.265-1.858,4.005-4.182,4.988-6.882c1.786-4.907,3.29-9.917,4.893-14.89c0.074-0.229-0.03-0.515-0.056-0.842    C266.019,269.192,258.849,270.154,251.479,269.354z M326.435,217.124c0.12,0.053,0.24,0.106,0.36,0.159    c1.429-2.451,2.892-4.882,4.28-7.356c4.494-8.012,8.255-16.316,9.906-25.434c0.38-2.101,0.631-4.224-0.147-6.304    c-0.823-2.2-1.971-2.528-3.559-0.777c-1.118,1.233-2.041,2.71-2.777,4.213c-2.488,5.074-3.913,10.507-5.127,16    C327.949,204.061,326.851,210.542,326.435,217.124z"/>
		<path d="M344.677,349.504c-15.43-1.026-35.07-2.501-54.732-3.591c-18.914-1.048-37.83-0.833-56.675,1.414    c-7.432,0.886-14.685,2.644-21.836,4.829c-3.738,1.142-6.906,3.263-9.764,5.875c-0.498,0.456-0.992,0.957-1.338,1.528    c-0.51,0.843-1.168,1.814-2.046,0.94c-0.519-0.516-0.551-1.886-0.298-2.72c0.531-1.752,1.912-2.939,3.042-4.283    c1.143-1.359,2.352-2.661,3.619-3.906c2.535-2.491,5.297-4.747,8.212-6.779c3.743-2.609,7.739-4.848,11.881-6.758    c7.247-3.342,14.911-5.69,22.667-7.521c2.491-0.588,4.983-1.094,7.494-1.496c5.032-0.805,10.113-1.293,15.205-1.478    c17.742-0.644,35.496-0.972,53.243-1.482c10.423-0.3,20.848-0.535,31.195-2.07c18.659-2.768,36.181-8.581,51.93-19.194    c5.813-3.917,11.139-8.421,15.978-13.498c0.802-0.841,1.624-1.679,2.531-2.4c1.874-1.489,4.097-1.221,5.453,0.745    c0.673,0.976,1.272,2.129,1.484,3.279c1.861,10.118,1.773,20.15-2.681,29.636c-5.469,11.649-14.706,19.293-26.616,23.844    c-6.483,2.477-13.261,3.656-20.125,4.339C371.328,349.869,360.121,349.755,344.677,349.504z"/>
	</g>
</g>















</svg>
