<?xml version="1.0" encoding="UTF-8"?>
<!-- Generator: Adobe Illustrator 25.2.0, SVG Export Plug-In . SVG Version: 6.00 Build 0)  -->
<svg xmlns="http://www.w3.org/2000/svg" xmlns:xlink="http://www.w3.org/1999/xlink" version="1.1" id="Capa_1" x="0px" y="0px" viewBox="0 0 500 500" style="enable-background:new 0 0 500 500;" xml:space="preserve" width="512" height="512">
<g>
	<g>
		<path d="M396.656,211.956c-0.31,0.512-0.456,0.699-0.545,0.91c-6.331,15.041-12.838,30.011-18.901,45.158    c-2.723,6.804-4.68,13.929-6.744,20.978c-1.066,3.641-1.111,7.472-0.512,11.237c0.178,1.12,0.697,2.26,1.321,3.22    c1.226,1.888,2.632,3.659,3.972,5.473c1.78,2.41,0.991,4.532-1.979,4.996c-1.539,0.24-3.136,0.294-4.694,0.206    c-10.41-0.59-20.788-0.259-31.152,0.849c-2.666,0.285-3.886-1.258-2.858-3.705c4.133-9.842,4.487-19.949,1.874-30.14    c-3.163-12.334-6.607-24.597-9.986-36.875c-1.014-3.683-2.215-7.315-3.338-10.968c-0.138-0.45-0.322-0.886-0.713-1.304    c-0.13,2.364-0.305,4.727-0.383,7.093c-0.623,18.825-1.305,37.65-1.813,56.478c-0.405,15.005-0.723,30.016-0.822,45.026    c-0.057,8.628,0.368,17.26,0.637,25.888c0.152,4.894,1.65,9.435,3.905,13.747c1,1.911,2.001,3.821,2.971,5.747    c0.554,1.099,0.823,2.258-0.037,3.322c-0.91,1.125-2.149,1.05-3.374,0.678c-0.935-0.284-1.88-0.591-2.747-1.033    c-11.199-5.709-23.176-9.269-35.175-12.768c-1.55-0.452-3.139-0.769-4.696-1.199c-1.908-0.527-2.317-1.469-1.306-3.12    c0.686-1.119,1.448-2.201,2.265-3.23c7.385-9.301,12.381-19.553,13.336-31.615c1.686-21.293,2.154-42.61,1.959-63.959    c-0.132-14.47,0.088-28.943,0.009-43.414c-0.086-15.845-0.331-31.69-0.516-47.535c-0.079-6.732-0.615-13.417-2.071-20.011    c-1.187-5.37-3.856-9.81-8.102-13.306c-0.832-0.685-1.688-1.358-2.428-2.137c-1.378-1.451-0.834-3.393,1.103-3.857    c0.939-0.225,1.952-0.27,2.921-0.219c6.71,0.353,13.413,0.923,20.126,1.079c4.592,0.107,9.206-0.234,13.794-0.579    c3.662-0.275,4.456,0.213,5.336,3.769c3.812,15.409,7.533,30.841,11.532,46.202c5.838,22.424,11.886,44.793,17.847,67.184    c0.048,0.179,0.135,0.348,0.312,0.793c0.319-0.651,0.551-1.091,0.756-1.544c5.749-12.706,10.223-25.899,14.452-39.151    c5.854-18.342,11.226-36.837,16.808-55.266c1.065-3.517,2.118-7.038,3.226-10.542c0.837-2.646,2.096-3.432,4.867-3.043    c12.692,1.78,25.42,1.824,38.172,0.834c0.147-0.011,0.293-0.033,0.44-0.037c1.363-0.042,2.788-0.041,3.302,1.54    c0.497,1.525-0.567,2.414-1.729,3.035c-3.428,1.831-5.312,4.884-6.082,8.459c-1.215,5.642-2.478,11.336-2.926,17.07    c-1.426,18.238-2.411,36.51-3.708,54.759c-1.124,15.801-2.282,31.603-3.713,47.378c-1.914,21.1-4.265,42.16-6.125,63.264    c-1.446,16.414-2.668,32.849-2.901,49.348c-0.101,7.153,1.146,13.788,4.709,20.041c1.418,2.488,2.286,5.293,3.354,7.973    c0.104,0.26-0.057,0.874-0.251,0.957c-0.629,0.27-1.392,0.631-1.995,0.492c-7.609-1.756-14.518-5.274-21.47-8.672    c-9.513-4.65-19.017-9.323-29.075-12.721c-2.738-0.925-5.537-1.666-8.284-2.565c-1.063-0.348-2.113-0.811-3.074-1.381    c-1.505-0.893-1.502-2.011-0.011-2.916c1.633-0.992,3.274-1.993,4.999-2.805c6.194-2.916,10.691-7.549,13.817-13.551    c4.64-8.908,7.363-18.452,9.163-28.284c2.723-14.875,4.307-29.896,5.615-44.946c1.21-13.925,2.321-27.859,3.389-41.795    c0.614-8.019,0.933-16.062,1.616-24.075c0.558-6.54,1.459-13.051,2.206-19.575C396.568,212.974,396.592,212.651,396.656,211.956z     M415.894,181.564c0.132-4.835,0.347-12.331,0.523-19.827c0.019-0.823-0.104-1.675-0.324-2.468    c-0.109-0.392-0.57-0.925-0.909-0.954c-0.435-0.037-1.09,0.253-1.322,0.613c-0.384,0.596-0.634,1.345-0.717,2.056    c-0.83,7.11-1.811,14.21-2.379,21.342c-2.584,32.467-4.815,64.963-8.224,97.363c-2.438,23.174-5.3,46.291-8.701,69.343    c-1.689,11.448-3.358,22.9-5.015,34.353c-0.161,1.113-0.333,2.268-0.194,3.364c0.028,0.221,0.111,0.434,0.224,0.644    c0.434,0.806,1.547,0.917,2.187,0.263c0.141-0.144,0.27-0.297,0.378-0.463c0.355-0.547,0.436-1.291,0.565-1.962    c1.044-5.438,1.975-10.899,3.119-16.316c5.151-24.4,8.728-49.061,11.518-73.812c1.971-17.488,2.875-35.096,4.292-52.647    C412.48,223.044,414.087,203.637,415.894,181.564z M315.542,158.962c-0.181,0.055,0.081,4.713,0.389,6.988    c1.502,11.124,5.282,21.696,8.038,32.51c2.465,9.672,5.715,19.147,8.699,28.685c4.887,15.624,9.793,31.242,14.784,46.832    c1.882,5.877,4,11.679,6.067,17.495c0.377,1.062,1.148,1.943,2.464,1.576c1.302-0.363,1.386-1.45,1.342-2.612    c-0.029-0.753-0.022-1.582,0.254-2.261c1.366-3.353,2.876-6.647,4.247-9.998c6.822-16.674,13.903-33.242,19.784-50.291    c5.669-16.434,11.56-32.791,17.265-49.213c1.461-4.205,2.609-8.521,3.832-12.805c0.124-0.434,0.129-1.329-0.362-1.51    c-0.507-0.187-1.032,0.528-1.294,0.949c-0.406,0.652-0.61,1.435-0.862,2.175c-3.338,9.832-6.677,19.663-9.999,29.5    c-9.81,29.047-20.425,57.791-32.325,86.052c-0.42,0.997-0.862,1.984-1.408,3.236c-0.205-0.635-0.316-0.953-0.41-1.276    c-2.02-6.916-3.74-13.937-6.106-20.732c-10.653-30.601-20.158-61.57-29.961-92.444    C318.608,167.499,317.026,163.246,315.542,158.962z M308.58,168.483c0.109,2.126,0.271,4.25,0.319,6.378    c0.225,10.003,0.431,20.007,0.618,30.01c0.145,7.749,0.369,15.499,0.347,23.248c-0.033,11.523-0.08,23.052-0.443,34.568    c-0.309,9.798-1.136,19.579-1.617,29.373c-0.462,9.403-0.765,18.814-1.156,28.22c-0.303,7.298-0.678,14.593-0.935,21.893    c-0.179,5.094-0.232,10.192-0.279,15.29c-0.004,0.467,0.161,1.403,0.688,1.406c0.557,0.003,0.702-0.971,0.745-1.482    c0.17-2,0.178-4.013,0.31-6.017c0.525-7.97,1.113-15.936,1.602-23.908c0.516-8.417,0.941-16.839,1.415-25.259    c0.512-9.106,1.079-18.208,1.54-27.316c0.513-10.137,1.243-20.276,1.318-30.418c0.091-12.405-0.36-24.815-0.65-37.222    c-0.213-9.119-0.564-18.235-0.816-27.354C311.475,175.876,310.28,172.145,308.58,168.483z"/>
		<path d="M125.072,261.101c-3.208,0.548-6.186,1.122-9.184,1.554c-4.712,0.679-9.389,0.439-14.003-0.795    c-8.473-2.266-12.896-8.601-12.164-17.441c0.085-1.026,0.034-2.097,0.328-3.061c0.199-0.654,0.795-1.441,1.391-1.644    c0.516-0.176,1.573,0.186,1.896,0.654c3.624,5.232,8.939,5.632,14.463,4.932c5.878-0.744,11.703-1.893,17.56-2.815    c0.997-0.157,0.964-0.82,1.011-1.49c0.228-3.228,0.47-6.455,0.648-9.687c0.777-14.101,1.586-28.201,2.268-42.307    c0.229-4.742,0.14-9.501,0.154-14.252c0.007-2.391-1.269-3.935-3.424-4.827c-0.407-0.168-0.814-0.345-1.2-0.555    c-1.795-0.972-1.867-2.787-0.105-3.789c3.109-1.767,6.161-3.667,9.395-5.173c10.084-4.693,20.208-9.31,30.802-12.778    c4.266-1.396,8.639-2.2,13.139-2.225c1.1-0.006,2.249,0.049,2.799,1.202c0.549,1.15-0.124,2.051-0.819,2.926    c-1.098,1.382-2.134,2.813-3.228,4.198c-4.285,5.418-5.969,11.44-4.598,18.32c1.676,8.41,3.236,16.844,4.751,25.285    c3.384,18.861,7.134,37.671,9.949,56.618c3.446,23.194,8.131,46.147,12.282,69.204c1.19,6.613,3.269,12.839,7.893,17.917    c1.681,1.846,3.59,3.484,5.289,5.315c0.813,0.876,1.501,1.922,2.026,2.998c0.651,1.336,0.188,2.094-1.327,2.057    c-2.145-0.053-4.293-0.279-6.422-0.562c-7.919-1.052-15.827-2.18-23.746-3.236c-7.529-1.005-15.068-1.938-22.596-2.956    c-0.841-0.114-1.701-0.461-2.436-0.896c-1.297-0.767-1.389-1.426-0.357-2.572c1.279-1.42,2.562-2.864,4.017-4.093    c3.54-2.988,5.035-6.879,4.925-11.336c-0.198-8.086-0.432-16.18-0.977-24.249c-0.992-14.694-3.174-29.244-5.798-43.73    c-0.239-1.322-0.803-1.892-2.09-2.158c-4.617-0.954-9.17-0.587-13.69,0.518c-0.376,0.092-0.832,0.791-0.859,1.232    c-0.451,7.244-0.702,14.503-1.273,21.737c-0.924,11.727-1.978,23.444-3.119,35.152c-0.53,5.439-1.08,10.857,0.217,16.235    c0.489,2.027,1.306,3.988,2.111,5.922c0.524,1.26,1.328,2.401,1.947,3.625c1.163,2.301,0.422,3.428-2.107,3.479    c-10.635,0.215-21.269,0.475-31.904,0.713c-1.317,0.029-2.636,0.054-3.953,0.018c-0.814-0.022-1.024-0.564-0.676-1.217    c0.245-0.46,0.661-0.836,1.025-1.226c4.258-4.555,8.651-9.038,10.779-15.086c2.856-8.12,4.802-16.471,5.658-25.039    c1.023-10.244,1.918-20.502,2.805-30.759C124.823,267.701,124.898,264.428,125.072,261.101z M184.531,331.041    c-0.841-9.721-1.475-19.464-2.529-29.161c-1.192-10.965-2.123-22.017-4.28-32.808c-5.234-26.187-10.021-52.488-17.139-78.266    c-1.955-7.079-4.053-14.119-6.133-21.162c-0.139-0.471-0.522-1.34-1.053-1.226c-0.513,0.11-0.362,0.992-0.452,1.504    c-0.057,0.324,0.029,0.685,0.097,1.019c1.889,9.365,3.771,18.731,5.681,28.092c2.245,10.995,4.577,21.973,6.756,32.98    c1.913,9.663,3.631,19.365,5.505,29.036c1.389,7.169,3.193,14.272,4.273,21.485c1.902,12.705,3.351,25.476,5.074,38.208    c0.735,5.435,1.643,10.849,2.583,16.253c0.127,0.732,0.561,2.075,1.383,2.022C185.094,338.966,184.696,332.944,184.531,331.041z     M157.967,248.566c-2.651-18.553-6.433-36.589-10.591-54.683c-0.092,0.245-0.194,0.404-0.209,0.571    c-0.616,7.229-1.312,14.453-1.809,21.69c-0.537,7.828-0.872,15.669-1.327,23.502c-0.148,2.557-0.198,2.57,2.261,3.334    C150.375,244.249,154.288,245.881,157.967,248.566z M139.194,180.636c0-0.733,0.089-1.293-0.028-1.805    c-0.092-0.402-0.242-1.054-0.675-1.113c-0.485-0.066-0.898,0.59-1.053,0.997c-0.256,0.671-0.318,1.433-0.376,2.163    c-0.68,8.594-1.416,17.184-1.993,25.784c-0.676,10.07-1.215,20.148-1.805,30.224c-0.252,4.304-0.443,8.613-0.732,12.914    c-0.431,6.403-0.926,12.801-1.39,19.201c-0.322,4.447-0.632,8.894-0.956,13.341c-0.46,6.303-0.91,12.607-1.401,18.908    c-0.408,5.225-0.863,10.446-1.311,15.668c-0.431,5.025-0.905,10.047-1.292,15.075c-0.05,0.65-0.206,1.912,0.476,1.997    c0.705,0.088,0.892-1.22,0.982-1.878c0.773-5.677,1.613-11.351,2.144-17.053c0.981-10.537,1.817-21.089,2.616-31.642    c0.592-7.818,1.025-15.648,1.538-23.472c0.644-9.828,1.328-19.654,1.938-29.484c0.48-7.728,0.805-15.466,1.323-23.191    C137.796,198.324,138.531,189.386,139.194,180.636z"/>
		<path d="M225.064,240.575c-0.061,0.405-0.16,0.783-0.169,1.164c-0.322,13.386-0.765,26.771-0.872,40.158    c-0.032,3.975,0.586,8.025,1.465,11.914c0.603,2.669,2.17,5.12,3.312,7.666c0.261,0.581,0.578,1.139,0.813,1.729    c0.853,2.147-0.272,3.679-2.577,3.401c-2.431-0.292-4.834-0.855-7.269-1.057c-4.441-0.368-8.897-0.558-13.347-0.821    c-0.783-0.046-1.579-0.007-2.348-0.137c-1.539-0.261-2.352-1.521-1.734-2.925c6.72-15.258,7.507-31.515,8.076-47.802    c0.13-3.716,0.019-7.44,0.019-11.348c-0.391,0.019-0.953,0.087-1.511,0.066c-2.295-0.085-4.614-0.016-6.877-0.335    c-4.827-0.682-8.134-3.525-10.019-7.927c-2.349-5.483-2.772-11.089-0.512-16.743c0.2-0.5,0.407-1,0.655-1.477    c0.601-1.157,1.274-2.3,2.791-2.276c1.511,0.024,1.96,1.257,2.471,2.387c2.64,5.844,7.641,8.52,13.621,10.174    c0.06-0.523,0.143-0.933,0.151-1.343c0.308-15.891,0.742-31.781,0.854-47.674c0.052-7.394-0.476-14.795-0.835-22.188    c-0.136-2.788-1.301-5.187-3.32-7.176c-0.904-0.89-1.72-1.887-2.472-2.912c-1.338-1.823-0.903-2.918,1.299-3.278    c5.172-0.848,10.385-1.482,15.519-2.514c8.068-1.621,16.057-3.645,24.135-5.209c4.751-0.92,9.608-1.297,14.422-1.875    c0.717-0.086,1.481-0.027,2.189,0.125c1.634,0.353,2.135,1.847,1.068,3.122c-0.405,0.485-0.928,0.87-1.388,1.312    c-6.722,6.457-10.441,14.104-8.86,23.613c1.591,9.567,3.523,19.078,5.124,28.643c2.039,12.184,3.946,24.39,5.817,36.6    c1.775,11.583,3.429,23.185,5.137,34.778c1.937,13.145,3.821,26.298,5.838,39.432c0.818,5.325,1.906,10.609,2.906,15.905    c0.496,2.628,1.755,4.853,3.666,6.74c1.118,1.104,2.333,2.281,1.642,4.087c-0.679,1.777-2.34,1.924-3.918,2.043    c-1.514,0.115-3.037,0.142-4.557,0.161c-10.741,0.132-21.483,0.255-32.224,0.373c-2.981,0.033-3.977-1.584-2.605-4.28    c0.777-1.528,1.552-3.073,2.498-4.498c3.123-4.704,4.546-9.947,4.345-15.483c-0.276-7.638-0.71-15.29-1.556-22.882    c-1.439-12.913-3.26-25.784-4.889-38.677c-0.107-0.848-0.42-1.286-1.233-1.564C235.013,240.127,230.113,239.97,225.064,240.575z     M263.913,313.835c-0.709-10.734-1.057-21.241-2.174-31.666c-1.707-15.937-3.477-31.896-6.096-47.7    c-2.361-14.247-5.888-28.301-8.923-42.435c-2.14-9.964-4.315-19.921-6.479-29.881c-0.769-3.54-1.51-7.088-2.375-10.605    c-0.121-0.493-0.746-1.391-1.345-1.237c-0.559,0.144-0.544,2.12-0.502,2.361c0.806,4.633,1.601,9.268,2.428,13.897    c1.422,7.956,2.985,15.89,4.268,23.868c1.55,9.632,2.761,19.318,4.314,28.949c2.405,14.907,5.204,29.753,7.412,44.687    c2.345,15.856,4.189,31.787,6.273,47.682c0.165,1.257,0.406,2.523,0.798,3.723c0.137,0.418,0.82,0.852,1.29,0.896    c0.287,0.027,0.773-0.626,0.934-1.061C263.933,314.782,263.882,314.159,263.913,313.835z M227.553,160.433    c-0.224,0.567-0.353,0.774-0.385,0.995c-0.51,3.436-1.257,6.86-1.457,10.316c-0.428,7.388-0.775,14.793-0.786,22.192    c-0.017,11.328,0.287,22.656,0.424,33.984c0.01,0.852,0.27,1.208,1.12,1.351c4.491,0.758,8.722,2.24,12.603,4.662    c0.098,0.061,0.259,0.022,0.823,0.055C235.786,209.505,231.701,185.157,227.553,160.433z M214.763,287.982    c0,2.108-0.06,3.681,0.031,5.245c0.035,0.595,0.018,1.729,0.643,1.753c0.627,0.024,0.827-1.994,0.835-2.141    c0.178-3.081,0.415-6.16,0.525-9.244c0.423-11.807,0.798-23.615,1.205-35.422c0.274-7.935,0.578-15.87,0.86-23.805    c0.404-11.366,0.804-22.731,1.199-34.097c0.315-9.064,0.625-18.128,0.923-27.192c0.119-3.626,0.23-7.253,0.257-10.88    c0.003-0.431-0.311-1.283-0.832-1.299c-0.518-0.016-0.849,0.796-0.905,1.241c-0.189,1.503-0.234,3.027-0.288,4.544    c-0.291,8.083-0.569,16.167-0.852,24.25c-0.404,11.561-0.816,23.122-1.208,34.684c-0.208,6.124-0.364,12.25-0.576,18.373    c-0.381,11.022-0.802,22.042-1.178,33.064C215.158,274.21,214.963,281.366,214.763,287.982z"/>
		<path d="M62.238,266.375c2.042-0.222,4.082-0.472,6.127-0.663c6.162-0.575,12.004,0.601,17.548,3.304    c5.916,2.884,11.244,6.585,15.733,11.438c11.634,12.576,12.593,31.366,2.45,45.173c-6.486,8.828-15.215,14.375-25.487,17.517    c-9.787,2.993-19.671,5.69-29.579,8.257c-9.293,2.408-18.673,4.479-28.018,6.685c-0.519,0.123-1.069,0.183-1.602,0.172    c-1.691-0.036-2.247-0.845-1.548-2.372c1.031-2.255,2.001-4.558,3.266-6.681c3.228-5.42,3.755-11.294,3.062-17.346    c-1.378-12.022-2.674-24.059-4.387-36.036c-1.955-13.671-4.301-27.286-6.537-40.915c-0.499-3.042-1.208-6.052-1.891-9.06    c-0.979-4.31-3.545-7.584-6.929-10.282c-1.15-0.916-2.359-1.757-3.532-2.645c-0.992-0.751-1.316-1.317-0.26-2.553    c7.828-9.159,17.127-16.534,27.38-22.729c10.001-6.043,20.706-9.726,32.605-9.316c9.193,0.317,15.716,4.506,20.033,12.623    c5.015,9.43,5.09,19.091,1.769,28.917c-3.071,9.086-8.504,16.615-15.941,22.683c-1.465,1.196-2.95,2.368-4.426,3.551    C62.129,266.19,62.184,266.283,62.238,266.375z M47.717,342.059c5.753-2.129,11.242-3.941,16.551-6.176    c8.273-3.483,11.897-10.247,12.434-18.898c0.342-5.511-0.239-10.976-1.212-16.393c-1.17-6.511-3.105-12.748-6.743-18.372    c-1.81-2.798-4.255-4.654-7.527-5.159c-7.216-1.113-14.038,0.224-20.437,3.697c-0.344,0.187-0.687,0.842-0.634,1.226    c0.932,6.847,1.99,13.678,2.889,20.529c1.212,9.232,2.333,18.475,3.448,27.719C46.937,333.971,47.27,337.723,47.717,342.059z     M37.721,265.826c2.278-1.135,4.302-2.234,6.398-3.173c7.811-3.499,12.468-9.625,14.631-17.721    c1.644-6.152,1.008-12.349-0.184-18.503c-0.762-3.937-2.037-7.682-4.509-10.905c-2.919-3.805-6.751-5.503-11.38-3.891    c-3.059,1.065-5.964,2.669-8.78,4.304c-2.883,1.674-2.766,1.815-2.329,5.07c1.251,9.323,2.449,18.653,3.716,27.973    C36.041,254.549,36.89,260.106,37.721,265.826z M38.432,339.02c-0.578-5.767-1.078-11.679-1.781-17.568    c-1.25-10.463-2.381-20.948-4.003-31.356c-2.579-16.552-5.471-33.056-8.342-49.561c-0.771-4.433-1.928-8.799-2.944-13.187    c-0.198-0.856-0.486-1.863-1.686-1.613c-1.197,0.249-0.99,1.308-0.931,2.166c0.064,0.927,0.216,1.849,0.366,2.768    c2.152,13.147,4.516,26.263,6.416,39.446c2.552,17.705,4.731,35.464,7.102,53.196c0.727,5.438,1.517,10.868,2.378,16.286    c0.175,1.102,0.536,2.579,2.107,2.342C38.643,341.708,38.207,340.215,38.432,339.02z M85.026,326.897    c0.416,0.871,2.394-0.475,3.17-1.261c1.786-1.81,3.649-3.604,5.104-5.67c3.778-5.364,6.186-11.211,5.508-17.991    c-0.594-5.941-2.565-11.428-5.188-16.743c-3.424-6.938-8.838-11.123-16.55-12.1c-1.6-0.203-3.273,0.092-4.902,0.252    c-0.328,0.032-0.933,0.358-0.919,0.762c0.016,0.444,0.675,0.664,1.074,0.775c1.073,0.297,2.244,0.314,3.264,0.722    c4.736,1.898,8.519,5.105,11.251,9.329c2.091,3.233,3.904,6.704,5.386,10.259c3.968,9.516,3.418,22.724-6.611,30.796    C85.374,326.22,84.886,326.511,85.026,326.897z M68.275,249.996c0.05,0.104,0.13,0.191,0.236,0.232    c0.311,0.12,0.612-0.18,0.811-0.447c0.718-0.963,1.321-1.891,1.841-2.977c0.726-1.518,1.415-3.054,2.07-4.604    c4.189-9.906,3.897-19.549-1.835-28.82c-1.231-1.99-2.835-3.891-4.844-5.173c-2.306-1.471-4.49-1.508-7.119-1.453    c-0.314,0.007-0.896,0.201-0.931,0.567c-0.037,0.396,0.531,0.671,0.874,0.801c3.82,1.448,6.541,4.034,8.177,7.77    c2.51,5.733,4.246,11.893,4.246,18.191c0,2.673-0.315,5.344-0.946,7.942c-0.288,1.183-0.615,2.39-1.047,3.529    c-0.466,1.23-1.062,2.402-1.484,3.652c-0.062,0.182-0.122,0.371-0.108,0.563C68.221,249.846,68.241,249.925,68.275,249.996z"/>
		<path d="M229.937,333.553c5.858-0.148,11.403,1.67,17.071,2.725c4.618,0.859,9.223,1.824,13.869,2.49    c6.186,0.888,12.069-0.392,17.728-2.959c0.739-0.335,2.069-0.521,2.493-0.115c0.563,0.54,0.794,1.771,0.665,2.63    c-0.703,4.686-3.171,8.385-6.854,11.267c-6.031,4.718-12.868,5.616-20.182,4.081c-5.567-1.169-10.676-3.452-15.655-6.16    c-4.249-2.312-8.58-4.521-13.038-6.384c-2.187-0.914-4.737-0.987-7.137-1.345c-0.857-0.128-1.884-0.113-1.939-1.114    c-0.037-0.668,0.452-1.595,1.002-2.025c2.765-2.157,6.028-2.952,9.477-3.086C228.27,333.525,229.104,333.553,229.937,333.553z"/>
		<g>
			<path d="M462.126,210.272c0-13.782,0.049-27.564-0.024-41.346c-0.028-5.412-0.673-10.77-2.551-15.901     c-1.021-2.791,0.098-4.282,3.302-3.547c7.469,1.713,14.985,2.556,22.617,2.14c3.508-0.192,7.004-0.712,10.485-1.218     c2.227-0.324,4.021,1.601,3.561,4.248c-0.838,4.826-1.665,9.663-2.754,14.436c-2.655,11.634-4.316,23.43-5.861,35.239     c-1.863,14.24-3.606,28.498-5.219,42.77c-2.016,17.831-3.84,35.683-5.758,53.526c-1.688,15.699-3.501,31.386-5.054,47.099     c-1.118,11.32-1.906,22.673-2.826,34.012c-0.392,4.837-0.74,9.678-1.117,14.516c-0.063,0.816-0.066,1.661-0.303,2.428     c-0.104,0.338-0.756,0.761-1.107,0.719c-0.912-0.11-1.805-0.424-2.687-0.716c-8.87-2.929-18.025-4.135-27.314-4.513     c-2.041-0.083-2.927-1.105-2.461-2.989c2.539-10.265,5.214-20.498,7.58-30.803c5.833-25.404,9.502-51.171,12.684-77.017     C460.308,259.084,462.019,234.734,462.126,210.272z"/>
			<path d="M463.313,418.542c-0.047,7.649-5.972,13.549-13.572,13.516c-7.645-0.033-13.889-6.517-13.787-14.318     c0.099-7.574,6.168-13.715,13.536-13.697C457.054,404.062,463.361,410.678,463.313,418.542z"/>
		</g>
	</g>
	<g>
		<g>
			<path d="M3.937,165.515c0.292-6.463,2.692-12.056,6.539-17.083c4.629-6.049,10.244-11.088,16.328-15.608     c10.859-8.068,22.721-14.251,35.464-18.794c13.527-4.822,27.147-9.392,41.147-12.59c19.873-4.54,39.946-7.568,60.447-7.322     c15.401,0.185,30.803,0.041,46.153,1.554c6.696,0.66,13.358,1.659,19.957,2.974c6.604,1.316,13.144,2.949,19.6,4.864     c6.405,1.901,12.8,4.008,18.995,6.517c1.681,0.681,3.319,1.464,4.913,2.327c1.513,0.82,2.489,1.643,3.289,3.194     c0.369,0.715,0.071,1.258-0.783,1.322c-0.384,0.029-0.792-0.006-1.163-0.109c-10.857-3.014-21.981-3.765-33.178-4.109     c-23.572-0.722-46.482,3.333-69.076,9.526c-35.51,9.732-69.658,22.999-102.314,40.035c-9.688,5.054-19.229,10.394-28.94,15.401     c-5.88,3.031-12.183,4.869-18.838,5.315c-6.06,0.406-11.225-1.248-15.022-6.292C4.947,173.308,4.148,169.49,3.937,165.515z"/>
			<path d="M320.74,114.932c-0.289,0.264-0.733,0.264-1.057,0.044c-0.533-0.361-1.087-0.732-1.626-1.122     c-10.605-7.669-22.695-12.231-35.047-16.134c-18.59-5.875-37.684-9.973-56.981-12.749c-8.951-1.288-17.877-2.774-26.776-4.38     c-4.003-0.723-7.621-2.517-10.548-5.486c-5.702-5.784-4.918-13.93,1.848-18.448c3.495-2.333,7.484-3.413,11.582-4.003     c8.721-1.256,17.315-0.078,25.853,1.635c14.599,2.929,28.094,8.837,41.333,15.426c14.185,7.06,27.1,15.984,38.828,26.614     c4.736,4.293,9.091,8.95,12.036,14.731c0.289,0.567,0.563,1.142,0.821,1.724C321.375,113.619,321.372,114.353,320.74,114.932z"/>
			<path d="M309.565,59.666c4.068,0.041,7.999,1.753,11.591,4.25c6.762,4.702,12.287,10.647,16.893,17.444     c6.551,9.668,11.928,19.921,15.238,31.178c0.219,0.746,0.426,1.515,0.476,2.284c0.023,0.348-0.281,0.926-0.569,1.028     c-0.297,0.106-0.858-0.138-1.121-0.408c-0.613-0.628-1.097-1.379-1.667-2.051c-8.283-9.769-18.483-17.191-29.238-23.948     c-4.605-2.893-9.229-5.772-13.662-8.914c-2.13-1.51-3.953-3.513-5.707-5.478c-2.711-3.038-3.489-6.629-1.765-10.379     C301.778,60.875,305.196,59.692,309.565,59.666z"/>
		</g>
		<g>
			<path d="M170.041,456.53c-14.256-2.077-26.976-8.681-40.223-13.71c-12.839-4.875-25.756-9.468-39.289-12.027     c-11.287-2.134-22.656-3.612-34.167-3.814c-5.506-0.096-10.796,1.178-16.118,2.31c-1.388,0.295-2.799,0.491-4.205,0.686     c-1.017,0.141-2.071,0.103-2.457-1.066c-0.418-1.268,0.517-1.845,1.461-2.367c10.07-5.566,20.869-9.214,31.987-11.936     c18.908-4.629,38.107-6.437,57.509-4.752c14.826,1.288,29.292,4.244,42.508,11.646c5.504,3.082,10.408,6.814,14.206,11.903     c1.782,2.387,3.112,4.988,3.734,7.916c1.551,7.298-3.202,13.889-10.726,14.906c-0.528,0.071-1.047,0.203-1.571,0.307     C171.807,456.53,170.924,456.53,170.041,456.53z"/>
			<path d="M200.909,366.929c16.948,0.509,37.515,1.602,57.869,5.114c21.127,3.646,41.54,9.555,60.534,19.732     c8.589,4.602,16.688,9.951,23.543,16.968c5.94,6.081,10.706,12.914,12.756,21.322c1.254,5.141,1.587,10.27-0.776,15.254     c-2.946,6.214-8.232,8.825-14.717,9.443c-8.28,0.79-16.178-1.17-23.953-3.699c-14.864-4.834-28.918-11.541-42.88-18.491     c-13.86-6.899-27.629-14.046-41.823-20.197c-27.254-11.811-55.778-18.731-85.527-20.318c-17.456-0.931-34.792,0.111-52.094,2.482     c-22.942,3.144-45.332,8.579-67.348,15.672c-1.333,0.43-2.778,0.661-4.175,0.681c-0.193,0.003-0.386-0.045-0.58-0.123     c-0.997-0.401-1.326-1.764-0.555-2.513c0.07-0.067,0.144-0.127,0.224-0.177c3.251-2.008,6.527-3.985,9.879-5.819     c11.097-6.072,23.025-10.11,34.883-14.377c21.685-7.804,44.075-12.566,66.76-16.158     C154.235,368.352,175.657,366.445,200.909,366.929z"/>
			<path d="M73.709,358.236c1.797,0.68,3.509,1.999,4.832,3.429c2.493,2.693,2.073,6.557-0.976,8.583     c-1.961,1.303-4.243,2.268-6.513,2.931c-6.486,1.894-13.051,3.518-19.566,5.316c-9.83,2.713-18.641,7.651-27.409,12.672     c-0.552,0.316-1.077,0.839-1.658,0.91c-0.79,0.095-2.017,0.128-2.337-0.323c-0.406-0.573-0.413-1.852-0.029-2.486     c1.393-2.3,2.91-4.546,4.581-6.654c7.087-8.944,15.494-16.376,25.651-21.673c4.923-2.567,10.181-4.086,15.814-3.974     C66.122,356.842,71.33,357.335,73.709,358.236z"/>
		</g>
		<g>
			<path d="M500,117.423c-0.691,1.918-1.047,4.054-2.131,5.714c-4.265,6.533-13.598,6.941-19.422,1.016     c-5.516-5.612-5.173-14.615,0.729-19.109c5.016-3.819,12.658-2.81,17.139,2.262c1.835,2.077,2.956,4.484,3.382,7.221     c0.075,0.479,0.201,0.95,0.303,1.424C500,116.442,500,116.932,500,117.423z"/>
			<path d="M408.242,92.928c0.028,10.399-8.844,19.121-19.501,19.174c-10.735,0.052-18.754-7.806-18.798-18.42     c-0.044-10.576,8.755-19.571,19.118-19.546C399.721,74.162,408.214,82.483,408.242,92.928z"/>
			<path d="M441.11,114.499c-8.318,0.029-14.891-6.464-14.931-14.749c-0.037-7.717,6.21-14.031,13.86-14.01     c8.372,0.023,15.185,6.794,15.219,15.124C455.288,108.508,449.102,114.471,441.11,114.499z"/>
			<path d="M106.75,54.332c5.861-0.006,11.025,5.245,11.007,11.192c-0.016,5.273-4.459,9.644-9.837,9.678     c-5.601,0.035-11.439-5.401-11.399-10.613C96.564,59.02,101.234,54.337,106.75,54.332z"/>
			<path d="M391.951,421.385c3.15,0.063,5.796,1.179,7.893,3.465c1.856,2.024,2.677,4.441,2.308,7.179     c-0.629,4.662-3.976,6.906-7.886,8.481c-3.51,1.414-6.795,0.64-9.597-1.789c-3.021-2.62-4.09-6.003-2.846-9.829     c1.38-4.242,4.458-6.678,8.862-7.412C391.116,421.408,391.561,421.412,391.951,421.385z"/>
			<path d="M221.093,428.125c6.419,0.247,10.172,3.739,9.953,9.262c-0.22,5.531-4.889,9.942-10.298,9.727     c-5.439-0.216-10.011-5.043-9.769-10.314C211.213,431.694,215.62,427.915,221.093,428.125z"/>
			<path d="M275.682,57.771c-3.977,0.016-7.18-3.115-7.187-7.026c-0.007-3.896,3.124-7.232,6.827-7.275     c3.591-0.041,7.189,3.714,7.231,7.547C282.595,54.772,279.559,57.756,275.682,57.771z"/>
			<path d="M145.175,62.209c-0.011,3.713-2.96,6.671-6.613,6.634c-3.724-0.037-6.297-2.987-6.294-7.214     c0.003-3.585,2.642-6.29,6.156-6.309C142.135,55.301,145.186,58.414,145.175,62.209z"/>
			<path d="M249.314,455.72c-3.435,0.018-6.086-2.606-6.08-6.018c0.007-3.526,2.925-6.37,6.538-6.372     c3.525-0.002,6.379,2.751,6.378,6.153C256.15,452.966,253.153,455.699,249.314,455.72z"/>
			<path d="M170.713,59.229c-0.005,3.231-2.639,5.786-5.963,5.786c-3.179-0.001-5.718-2.348-5.719-5.288     c0-3.213,2.916-6.227,6.024-6.224C168.197,53.505,170.718,56.057,170.713,59.229z"/>
			<path d="M423.028,443.214c0.026,3.058-2.583,5.631-5.749,5.669c-3.119,0.038-5.669-2.415-5.711-5.493     c-0.042-2.986,2.269-5.392,5.204-5.416C420.36,437.944,423.001,440.156,423.028,443.214z"/>
		</g>
	</g>
</g>















</svg>
