<?xml version="1.0" encoding="UTF-8"?>
<!-- Generator: Adobe Illustrator 25.2.0, SVG Export Plug-In . SVG Version: 6.00 Build 0)  -->
<svg xmlns="http://www.w3.org/2000/svg" xmlns:xlink="http://www.w3.org/1999/xlink" version="1.1" id="Capa_1" x="0px" y="0px" viewBox="0 0 500 500" style="enable-background:new 0 0 500 500;" xml:space="preserve" width="512" height="512">
<g>
	<g>
		<path d="M316.112,256.731c0,0.642,0,1.074,0,1.506c0.01,22.034-0.025,44.068,0.063,66.102c0.021,5.321,0.301,10.652,0.726,15.957    c0.601,7.502,3.319,14.385,6.746,21.003c1.891,3.653,1.024,5.135-3.12,4.979c-7.887-0.297-15.771-0.695-23.659-0.988    c-11.242-0.417-22.463-0.306-33.627,1.374c-1.995,0.3-4.063,0.299-6.084,0.193c-3.9-0.205-4.917-2.259-3.249-5.773    c3.484-7.338,6.992-14.672,10.207-22.129c4.491-10.413,5.826-21.526,6.673-32.712c1.588-20.971,2.423-41.971,1.84-62.997    c-0.303-10.936-1.109-21.858-1.677-32.786c-0.723-13.927-1.22-27.87-2.216-41.778c-0.863-12.044-4.202-23.403-11.264-33.423    c-1-1.419-2.12-2.762-3.27-4.066c-0.742-0.841-1.271-1.832-0.684-2.744c0.483-0.751,1.486-1.552,2.318-1.622    c2.352-0.198,4.74-0.129,7.103,0.008c17.161,0.992,34.312,2.201,51.483,2.973c8.74,0.393,17.514,0.018,26.273,0.011    c1.01-0.001,2.029,0.074,3.03,0.217c1.271,0.182,1.717,1.555,0.833,2.542c-2.1,2.341-4.152,4.733-6.362,6.966    c-3.365,3.4-6.205,7.153-8.488,11.359c-4.165,7.672-8.373,15.359-9.589,24.149c-0.974,7.042-1.782,14.131-2.156,21.225    c-0.719,13.635-1.079,27.288-1.585,40.934c-0.019,0.525-0.003,1.051-0.003,1.835c1.014-0.54,1.878-0.935,2.677-1.435    c16.138-10.107,30.002-22.575,40.033-38.942c6.615-10.795,11.131-22.423,13.241-34.937c1.673-9.926-0.209-19.301-4.885-28.082    c-1.874-3.519-0.755-5.487,3.181-5.506c5.18-0.024,10.362,0.039,15.541,0.155c11.627,0.26,23.256,0.417,34.809-1.178    c5.028-0.694,10.006-1.754,14.997-2.696c1.121-0.212,2.163-0.31,2.864,0.749c0.698,1.054,0.328,2.072-0.424,2.926    c-10.427,11.829-16.17,26.138-21.73,40.589c-3.054,7.938-6.27,15.851-10.02,23.477c-7.157,14.558-17.989,26.042-31.116,35.446    c-7.861,5.632-16.261,10.308-25.061,14.287c-0.525,0.238-1.05,0.476-1.884,0.853c0.745,0.229,1.208,0.387,1.678,0.514    c20.333,5.483,35.466,17.435,45.03,36.272c3.403,6.703,6.041,13.717,8.392,20.857c2.679,8.135,5.317,16.298,8.443,24.264    c2.094,5.336,4.788,10.475,7.621,15.471c2.647,4.669,6.13,8.828,11.151,11.113c2.962,1.348,6.233,2.015,9.352,3.028    c0.494,0.16,1.201,0.45,1.303,0.82c0.118,0.425-0.184,1.178-0.555,1.488c-1.403,1.172-2.777,2.494-4.396,3.274    c-10.001,4.82-20.48,7.379-31.648,5.855c-12.108-1.652-21.625-7.436-28.093-17.98c-4.484-7.31-7.567-15.237-10.425-23.27    c-4.069-11.439-8.088-22.895-12.221-34.311c-2.759-7.62-6.8-14.549-11.888-20.85c-4.789-5.93-10.349-10.871-17.792-13.245    C321.878,257.196,319.147,256.636,316.112,256.731z M296.923,240.618c0.009,0,0.017,0.001,0.025,0.001    c0.492-18.831,1.1-37.659,1.435-56.492c0.22-12.391,0.061-24.789,0.021-37.184c-0.004-1.238,0.176-2.801-1.581-3.177    c-1.011-0.217-1.654,0.854-1.876,2.965c-1.373,13.053-2.461,26.124-2.726,39.257c-0.595,29.532-1.37,59.061-1.827,88.595    c-0.354,22.901-0.34,45.807-0.482,68.711c-0.006,1.016-0.038,2.05,0.136,3.041c0.08,0.458,0.563,1.052,0.984,1.176    c0.307,0.091,1.022-0.397,1.185-0.783c0.371-0.879,0.655-1.843,0.727-2.792c0.675-8.83,1.592-17.655,1.881-26.499    C295.662,291.836,296.242,266.225,296.923,240.618z M350.121,257.494c-0.467,0.16-1.217,0.118-1.363,0.591    c-0.16,0.517,0.506,0.981,0.872,1.362c0.324,0.337,0.815,0.508,1.222,0.77c8.248,5.31,15.186,11.915,19.313,20.936    c2.469,5.397,4.469,11.028,6.394,16.651c2.304,6.727,4.136,13.615,6.479,20.327c2.23,6.387,4.567,12.739,7.162,18.987    c1.056,2.541,2.152,4.983,3.814,7.195c1.907,2.537,4.283,4.676,6.833,6.549c1.794,1.318,4.696,3.952,7.044,4.042    c0.63,0.024,1.363-0.12,1.887-0.451c0.693-0.437,0.864-1.067-0.177-1.439c-0.544-0.194-1.13-0.351-1.596-0.671    c-7.158-4.921-11.546-10.611-13.695-19.086c-1.691-6.67-3.161-13.371-4.914-20.008c-2.655-10.056-5.329-20.099-9.238-29.785    c-4.348-10.774-11.927-18.415-22.054-23.696C355.873,258.604,350.338,257.42,350.121,257.494z M401.305,143.545    c0-0.387,0.053-0.782-0.01-1.159c-0.166-0.987-0.436-2.025-1.674-2.016c-1.213,0.01-0.971,1.156-1.114,1.885    c-1.13,5.738-2.134,11.503-3.337,17.226c-3.577,17.027-10.755,32.319-22.109,45.591c-6.084,7.112-12.611,13.775-19.682,19.907    c-0.728,0.632-1.452,1.296-2.036,2.054c-0.294,0.381-0.727,1.113-0.392,1.522c0.311,0.38,1.078,0.138,1.457-0.076    c1.765-0.995,3.561-1.973,5.185-3.174c6.563-4.852,12.226-10.695,17.962-16.461c7.66-7.7,13.257-16.709,17.354-26.72    c3.063-7.484,4.742-15.316,6.08-23.245C399.85,153.782,401.39,143.557,401.305,143.545z"/>
		<path d="M104.982,248.047c0.28-22.289,3.623-46.685,12.445-70.121c4.785-12.711,11.017-24.649,19.768-35.145    c4.997-5.993,10.66-11.249,17.419-15.216c16.21-9.514,32.374-9.349,48.311,0.585c9.191,5.729,16.305,13.632,22.356,22.518    c9.241,13.571,15.162,28.602,19.104,44.438c5.592,22.464,7.203,45.262,5.31,68.321c-1.626,19.807-5.776,39.028-13.392,57.432    c-5.048,12.199-11.477,23.578-20.353,33.454c-5.119,5.696-10.874,10.636-17.677,14.222c-16.637,8.771-32.781,7.606-48.318-2.738    c-9.018-6.004-15.963-14.037-21.728-23.122c-8.36-13.173-13.78-27.565-17.491-42.647    C106.747,283.82,105.072,267.336,104.982,248.047z M154.536,250.5c-0.044,23.088,1.252,46.076,5.34,68.842    c1.533,8.538,3.465,16.996,6.981,24.966c1.336,3.028,2.996,5.999,4.992,8.631c3.284,4.33,6.836,4.35,10.335,0.208    c1.701-2.013,3.134-4.308,4.377-6.642c2.787-5.234,4.564-10.875,6.096-16.583c4.358-16.239,6.484-32.842,7.798-49.555    c2.356-29.97,2.031-59.897-1.976-89.73c-1.451-10.803-3.501-21.491-6.995-31.848c-1.657-4.913-3.483-9.776-6.733-13.915    c-3.722-4.74-7.36-4.752-11.147-0.089c-2.625,3.232-4.389,6.951-5.875,10.799c-5.108,13.23-7.645,27.072-9.626,41.035    C155.565,214.488,154.568,232.462,154.536,250.5z M232.558,241.918c0-1.791,0.046-3.583-0.007-5.373    c-0.473-15.923-2.082-31.685-6.717-47.016c-3.235-10.7-7.434-20.977-13.354-30.498c-2.556-4.11-5.867-7.56-9.557-10.656    c-0.32-0.269-0.906-0.704-1.27-0.438c-0.393,0.286-0.162,1.059,0.037,1.443c1.133,2.185,2.355,4.325,3.543,6.482    c2.38,4.315,5.123,8.476,7.048,12.985c2.692,6.307,5.053,12.789,7.059,19.347c5.025,16.424,6.554,33.392,7.231,50.46    c0.718,18.082-1.043,35.946-4.238,53.747c-3.265,18.192-8.519,35.634-17.412,51.904c-0.124,0.227-0.21,0.475-0.275,0.735    c-0.213,0.854,0.688,1.601,1.487,1.231c0.345-0.16,0.647-0.353,0.853-0.62c1.441-1.864,2.778-3.858,3.83-5.963    c5.825-11.66,10.866-23.6,14.047-36.323C229.913,283.173,233.428,262.828,232.558,241.918z M156.183,148.573    c-0.001-0.032-0.006-0.064-0.016-0.096c-0.383-1.224-3.648,2.202-4.005,2.598c-1.763,1.958-2.957,4.219-4.357,6.425    c-1.381,2.178-2.75,4.365-4.054,6.59c-0.855,1.459-1.682,2.935-2.466,4.434c-8.479,16.216-12.098,33.82-14.005,51.834    c-1.589,15.007-1.936,30.054-0.868,45.115c0.965,13.603,2.836,27.035,7.288,40.022c2.693,7.857,5.396,15.716,8.539,23.407    c1.428,3.495,2.865,7.063,4.628,10.396c0.857,1.621,1.548,3.326,2.436,4.932c0.234,0.422,2.847,4.576,3.398,3.216    c0.055-0.135,0.015-0.289-0.026-0.429c-1.172-4.013-2.977-7.796-4.638-11.621c-1.691-3.896-3.31-7.827-4.817-11.823    c-3.212-8.518-5.907-17.236-7.053-26.301c-1.063-8.404-1.827-16.85-2.572-25.29c-2.387-27.04-1.226-53.891,4.48-80.485    c2.675-12.466,6.566-24.491,13.079-35.533c1.444-2.449,3.405-4.536,4.873-6.964C156.107,148.871,156.188,148.721,156.183,148.573z    "/>
	</g>
	<g>
		<g>
			<g>
				<path d="M184.396,455.239c-0.446-0.153-0.89-0.315-1.338-0.459c-8.556-2.749-15.031-11.038-15.624-20.005      c-0.619-9.343,5.646-16.689,15.073-17.681c3.642-0.383,7.182-0.069,10.424,1.773c4.251,2.415,6.153,6.239,5.954,11.006      c-0.182,4.352-2.287,7.61-6.318,9.51c-2.095,0.988-4.189,0.843-6.141-0.205c-0.675-0.362-1.323-1.322-1.422-2.083      c-0.139-1.067,0.89-1.464,1.841-1.683c0.658-0.151,1.335-0.267,1.961-0.507c2.968-1.138,3.728-5.735,1.23-7.707      c-0.553-0.437-1.443-0.702-2.148-0.648c-3.276,0.246-6.076,1.519-7.535,4.631c-1.365,2.913-0.713,5.792,1.223,8.188      c4.241,5.25,9.897,6.975,16.464,6.095c0.048-0.006,0.094-0.023,0.142-0.029c6.644-0.82,11.168-4.356,13.347-10.685      c1.478-4.292,2.742-8.659,4.084-12.998c0.242-0.783,0.237-1.686,0.634-2.366c0.366-0.627,1.111-1.408,1.704-1.42      c0.606-0.013,1.555,0.708,1.778,1.318c0.454,1.243,0.826,2.66,0.689,3.948c-0.372,3.501-0.819,7.02-1.612,10.445      c-1.561,6.738-4.515,12.829-8.969,18.196c-6.753,8.136-15.204,12.97-25.818,14.028c-11.01,1.097-21.404-0.528-31.087-6.137      c-6.428-3.723-11.61-8.844-16.489-14.307c-2.351-2.632-4.411-5.522-6.653-8.254c-7.557-9.205-15.058-18.458-22.739-27.559      c-4.317-5.116-9.034-9.903-15.078-13.021c-2.208-1.139-4.622-2.092-7.051-2.547c-5.018-0.939-9.283,0.645-12.398,4.828      c-3.271,4.392-5.515,9.188-4.752,14.821c0.629,4.643,2.587,8.701,6.307,11.746c3.252,2.662,8.083,2.887,12.004,0.564      c3.716-2.201,5.924-6.746,5.206-10.716c-0.439-2.431-2.021-4.052-4.019-4.119c-2.277-0.076-4.613,1.647-5.202,3.84      c-0.063,0.234-0.089,0.477-0.159,0.708c-0.284,0.938-0.738,1.713-1.871,1.709c-1.152-0.004-1.827-0.728-2.062-1.724      c-0.573-2.436-0.442-4.806,1.051-6.954c3.674-5.288,10.795-6.179,15.652-1.949c1.916,1.669,3.222,3.736,3.876,6.185      c1.256,4.707,1.194,9.399-0.416,14.013c-2.719,7.79-9.937,12.402-18.693,11.779c-9.046-0.643-15.879-4.86-20.056-13.051      c-4.826-9.463-5.277-19.066-0.938-28.847c6.75-15.215,23.239-21.287,38.23-14.015c4.123,2,7.892,4.549,11.148,7.785      c10.251,10.191,19.767,20.995,27.944,32.963c5.858,8.573,12.472,16.546,20.181,23.557c6.189,5.628,13.283,8.956,21.833,8.598      c2.197-0.092,4.396-0.136,6.594-0.202C184.384,455.477,184.39,455.358,184.396,455.239z"/>
				<path d="M370.731,455.321c0.448,0.137,0.654,0.237,0.87,0.262c10.695,1.236,20.217-1.066,28.239-8.739      c8.094-7.742,15.005-16.408,21.396-25.567c8.086-11.59,17.373-22.19,27.693-31.835c5.216-4.876,11.387-8.274,18.577-9.268      c10.477-1.448,19.332,1.994,25.591,10.393c8.824,11.843,9.221,25.564,1.009,38.29c-4.953,7.676-15.356,11.579-24.238,9.421      c-7.654-1.859-12.541-7.295-13.646-15.171c-0.491-3.497-0.375-6.966,0.651-10.356c1.749-5.777,6.839-9.228,12.421-8.488      c4.807,0.637,8.541,4.979,8.36,9.742c-0.02,0.528-0.08,1.07-0.225,1.576c-0.299,1.047-0.88,1.858-2.099,1.874      c-1.213,0.016-1.726-0.831-1.902-1.835c-0.268-1.534-1.006-2.661-2.326-3.495c-3.09-1.954-6.207-0.682-6.989,2.894      c-0.945,4.32,1.69,9.407,5.914,11.416c4.596,2.186,9.188,1.507,12.593-2.26c4.679-5.177,6.511-11.213,4.061-17.983      c-0.925-2.555-2.325-5.01-3.884-7.248c-2.979-4.276-7.316-5.719-12.362-4.917c-5.036,0.8-9.353,3.292-13.024,6.658      c-3.913,3.587-7.697,7.375-11.107,11.437c-8.932,10.641-17.492,21.596-26.487,32.182c-3.678,4.329-7.775,8.441-12.245,11.93      c-9.596,7.489-20.672,10.81-32.888,9.864c-3.032-0.235-6.098-0.533-9.049-1.227c-11.821-2.781-19.716-10.533-25.295-20.851      c-3.159-5.843-4.746-12.269-5.347-18.884c-0.159-1.749,0.118-3.562,0.381-5.317c0.153-1.024,0.765-1.95,2.012-1.944      c1.285,0.006,1.669,1.022,1.94,2.022c0.934,3.454,1.728,6.95,2.766,10.371c1.1,3.625,2.584,7.132,4.963,10.114      c0.987,1.237,2.321,2.4,3.747,3.046c5.277,2.392,10.722,3.283,16.318,0.939c2.783-1.166,5.237-2.767,6.916-5.324      c1.664-2.534,2.31-5.291,0.841-8.108c-1.557-2.986-4.32-4.183-7.542-4.41c-1.33-0.094-2.295,0.563-2.893,1.79      c-1.578,3.24-0.19,6.182,3.334,6.967c1.186,0.264,2.596,0.334,2.621,1.953c0.025,1.561-1.281,2.008-2.515,2.397      c-3.656,1.154-6.504-0.361-8.777-2.989c-4.813-5.564-3.062-14.693,3.574-17.867c6.606-3.159,13.201-2.583,19.06,1.837      c5.763,4.347,7.272,10.477,5.64,17.29c-2.035,8.495-7.205,14.306-15.63,17.037C371.483,455.026,371.224,455.135,370.731,455.321      z"/>
			</g>
			<g>
				<path d="M183.787,59.06c-6.676-0.694-13.319-0.985-19.393,2.369c-2.86,1.58-5.653,3.429-8.095,5.587      c-8.245,7.29-15.044,15.86-21.265,24.9c-8.268,12.016-17.832,22.934-28.415,32.929c-5.566,5.257-12.207,8.808-19.967,9.565      c-9.902,0.966-18.322-2.448-24.285-10.313c-9.047-11.932-9.567-25.967-1.113-38.901c4.891-7.483,15.155-11.368,23.881-9.392      c8.372,1.896,13.541,7.948,14.248,16.717c0.255,3.162,0.086,6.298-0.91,9.336c-1.925,5.87-7.475,9.323-13.034,8.147      c-4.741-1.003-7.978-5.114-7.79-9.928c0.022-0.572,0.117-1.165,0.307-1.702c0.348-0.986,1.035-1.673,2.149-1.636      c1.083,0.036,1.648,0.782,1.845,1.755c0.278,1.377,0.794,2.531,2.011,3.38c3.314,2.314,6.669,0.909,7.284-3.102      c0.645-4.204-1.988-8.961-6-10.842c-4.515-2.117-8.934-1.451-12.376,2.151c-5.353,5.601-7.183,13.886-2.252,22.221      c1.606,2.715,3.35,5.319,6.377,6.757c3.915,1.859,7.911,1.78,11.666-0.01c3.333-1.588,6.694-3.43,9.451-5.837      c3.99-3.483,7.678-7.384,11.087-11.448c8.897-10.608,17.471-21.487,26.374-32.089c5.4-6.43,11.442-12.155,19.008-16.181      c9.826-5.228,20.211-6.51,31.009-4.966c16.158,2.31,25.98,12.337,31.719,26.94c1.986,5.054,3.215,10.36,3.212,15.851      c-0.001,1.187-0.176,2.457-0.638,3.531c-0.305,0.71-1.271,1.579-1.929,1.569c-0.636-0.009-1.587-0.945-1.823-1.663      c-0.708-2.152-1.074-4.412-1.682-6.601c-1.377-4.958-3.06-9.786-6.034-14.072c-1.062-1.53-2.399-2.613-4.111-3.312      c-5.328-2.176-10.693-3.049-16.21-0.666c-2.677,1.156-5.039,2.723-6.67,5.185c-1.646,2.487-2.286,5.208-0.862,7.971      c1.54,2.987,4.284,4.206,7.533,4.392c1.31,0.075,2.188-0.589,2.75-1.752c1.525-3.161,0.196-6.003-3.189-6.789      c-0.094-0.022-0.188-0.047-0.282-0.067c-1.143-0.25-2.441-0.401-2.507-1.929c-0.064-1.495,1.095-2.028,2.288-2.433      c3.255-1.103,6.677-0.05,9.109,2.792c4.823,5.636,3.225,14.783-3.422,18.056c-6.685,3.292-13.365,2.698-19.321-1.769      c-5.83-4.373-7.302-10.573-5.672-17.424c1.991-8.372,7.073-14.164,15.324-16.997C183.384,59.266,183.582,59.154,183.787,59.06z"/>
				<path d="M370.942,59.042c0.491,0.168,0.98,0.343,1.473,0.503c8.522,2.779,14.998,11.169,15.509,20.093      c0.533,9.308-5.689,16.555-15.067,17.549c-3.641,0.386-7.18,0.071-10.426-1.763c-4.203-2.375-6.117-6.145-5.974-10.854      c0.134-4.412,2.228-7.726,6.313-9.663c2.092-0.992,4.186-0.853,6.141,0.192c0.678,0.363,1.331,1.315,1.437,2.075      c0.148,1.068-0.875,1.48-1.828,1.692c-0.566,0.126-1.148,0.209-1.695,0.393c-3.137,1.054-4.111,5.512-1.623,7.717      c0.552,0.489,1.508,0.805,2.247,0.754c3.277-0.227,6.078-1.505,7.543-4.613c1.372-2.91,0.724-5.791-1.208-8.189      c-4.234-5.257-9.889-6.959-16.458-6.116c-6.67,0.855-11.307,4.297-13.499,10.709c-1.483,4.341-2.758,8.754-4.11,13.14      c-0.242,0.784-0.258,1.679-0.655,2.361c-0.343,0.588-1.07,1.289-1.647,1.307c-0.585,0.018-1.527-0.621-1.726-1.181      c-0.46-1.295-0.887-2.748-0.751-4.079c0.356-3.502,0.813-7.02,1.605-10.446c1.558-6.739,4.51-12.831,8.963-18.199      c6.751-8.138,15.199-12.978,25.813-14.038c11.009-1.099,21.404,0.521,31.089,6.128c6.43,3.722,11.613,8.841,16.492,14.304      c2.383,2.668,4.472,5.597,6.745,8.366c7.526,9.168,14.996,18.384,22.647,27.446c4.35,5.153,9.1,9.975,15.203,13.095      c2.212,1.131,4.633,2.071,7.064,2.508c4.966,0.892,9.184-0.704,12.262-4.837c3.302-4.435,5.559-9.275,4.745-14.962      c-0.655-4.584-2.601-8.596-6.279-11.609c-3.254-2.665-8.076-2.899-12.003-0.581c-3.72,2.195-5.934,6.737-5.222,10.708      c0.436,2.432,2.014,4.061,4.006,4.134c2.273,0.084,4.625-1.64,5.214-3.826c0.05-0.187,0.069-0.382,0.121-0.568      c0.274-0.985,0.685-1.859,1.897-1.862c1.22-0.003,1.887,0.787,2.114,1.846c0.513,2.391,0.38,4.713-1.079,6.818      c-3.667,5.291-10.789,6.194-15.65,1.97c-1.918-1.666-3.228-3.731-3.883-6.18c-1.26-4.706-1.2-9.399,0.406-14.014      c2.713-7.793,9.925-12.411,18.683-11.794c9.046,0.637,15.885,4.848,20.064,13.038c4.826,9.46,5.287,19.063,0.952,28.846      c-6.745,15.219-23.229,21.3-38.223,14.035c-4.124-1.998-7.894-4.545-11.151-7.781c-10.252-10.19-19.768-20.993-27.947-32.961      c-5.858-8.572-12.471-16.547-20.178-23.559c-6.188-5.629-13.278-8.964-21.829-8.609c-2.204,0.092-4.41,0.134-6.615,0.199      C370.957,58.803,370.95,58.923,370.942,59.042z"/>
			</g>
		</g>
		<g>
			<path d="M421.774,250.331c-4.593,0.062-12.034-0.645-19.265-2.914c-1.045-0.328-2.138-0.726-2.986-1.381     c-0.482-0.372-0.738-1.359-0.655-2.013c0.048-0.381,0.933-0.738,1.498-0.96c4.445-1.736,9.058-3.122,13.327-5.214     c9.474-4.644,17.562-11.242,25.047-18.635c4.887-4.827,9.845-9.595,14.968-14.167c4.29-3.828,9.396-6.306,15.044-7.482     c9.156-1.907,17.362,3.351,18.724,12.184c0.852,5.527-1.139,10.508-4.099,15.076c-4.307,6.645-10.145,11.678-17.074,15.402     C453.334,247.197,439.41,250.36,421.774,250.331z"/>
			<path d="M449.329,297.697c-0.138,3.572-0.995,8.121-4.154,11.841c-1.197,1.41-2.707,2.658-4.296,3.609     c-2.918,1.746-5.828,1.4-8.263-0.96c-1.407-1.363-2.633-2.976-3.67-4.645c-3.369-5.421-5.311-11.484-7.588-17.394     c-1.218-3.158-2.418-6.325-3.712-9.453c-2.584-6.245-5.761-12.151-10.157-17.342c-0.655-0.773-1.439-1.646-0.658-2.705     c0.765-1.039,1.913-1.152,3.145-0.924c1.23,0.228,2.497,0.267,3.72,0.522c13.546,2.835,24.552,9.451,31.771,21.583     C448.102,286.26,449.32,291.22,449.329,297.697z"/>
			<path d="M451.222,170.058c0.399,1.908,0.394,3.885,0.054,5.805c-0.999,5.634-2.992,10.873-6.195,15.607     c-5.203,7.69-11.424,14.409-19.676,18.993c-1.733,0.962-3.375,2.089-5.081,3.102c-0.533,0.316-1.133,0.695-1.713,0.713     c-0.246,0.008-0.494-0.017-0.742-0.061c-1.009-0.176-1.519-1.319-0.964-2.179l0.01-0.016c5.721-8.762,8.271-18.815,11.701-28.515     c1.529-4.325,3.209-8.604,5.002-12.826c0.988-2.326,2.528-4.355,4.636-5.859c5.339-3.81,11.061-1.806,12.793,4.51     C451.113,169.571,451.171,169.814,451.222,170.058z"/>
		</g>
		<g>
			<path d="M65.883,250.331c-17.649,0.029-31.572-3.135-44.543-10.105c-6.705-3.603-12.369-8.458-16.678-14.794     c-2.864-4.21-4.684-8.796-4.662-13.958c0.03-7.138,6.021-13.47,13.115-14.113c7.49-0.678,13.844,2.234,19.426,6.65     c5.069,4.009,9.75,8.555,14.31,13.153c5.405,5.45,11.098,10.52,17.378,14.922c4.235,2.969,8.741,5.558,13.482,7.632     c2.004,0.877,4.031,1.708,6.113,2.384c0.923,0.3,1.875,0.499,2.806,0.768c0.702,0.203,1.948,0.406,2.145,1.249     c0.081,0.347,0.005,0.715-0.134,1.043c-0.597,1.407-2.176,1.838-3.507,2.256C77.904,249.687,70.463,250.393,65.883,250.331z"/>
			<path d="M38.323,296.376c0.015-9.881,4.544-17.668,11.53-24.167c6.706-6.238,14.693-10.117,23.681-11.891     c2.303-0.455,5.111-1.327,7.117,0.35c0.085,0.071,0.169,0.147,0.228,0.242c0.112,0.18,0.12,0.407,0.088,0.616     c-0.07,0.456-0.184,0.994-0.49,1.354c-6.629,7.781-10.336,17.073-13.91,26.457c-1.927,5.059-3.93,10.097-6.149,15.031     c-1.04,2.311-2.476,4.515-4.076,6.489c-3.313,4.086-7.292,4.4-11.428,1.132c-4.804-3.797-6.317-9.073-6.589-14.887     C38.313,296.86,38.323,296.618,38.323,296.376z"/>
			<path d="M44.073,162.921c3.341,0.163,6.199,1.74,7.969,4.637c1.903,3.115,3.56,6.437,4.878,9.841     c1.936,5.001,3.482,10.154,5.185,15.245c2.292,6.849,4.8,13.596,8.806,19.684c0.936,1.422,0.507,2.118-1.22,2.035     c-0.737-0.036-1.534-0.308-2.17-0.695c-3.266-1.988-6.64-3.843-9.696-6.121c-10.547-7.859-18.373-17.676-21.323-30.82     c-0.752-3.351-0.647-6.647,1.02-9.747C38.885,164.45,40.946,162.955,44.073,162.921z"/>
		</g>
		<g>
			<path d="M263.519,55.296c-0.372-3.21-0.423-6.458-0.019-9.665c0.245-1.945,0.635-3.86,1.302-5.727     c1.699-4.754,4.725-8.243,10.017-8.991c3.552-0.502,6.455,0.932,8.68,3.666c2.425,2.98,3.724,6.455,3.899,10.275     c0.357,7.785-1.124,15.34-3.505,22.68c-2.712,8.364-5.775,16.615-8.718,24.903c-0.354,0.997-0.866,1.947-1.381,2.876     c-0.671,1.212-1.931,1.322-2.71,0.176c-0.508-0.747-0.912-1.635-1.102-2.517c-1.476-6.845-3.113-13.667-4.26-20.568     C264.781,66.736,264.181,61.011,263.519,55.296z"/>
			<path d="M233.215,55.198c2.304,0.102,4.622,0.825,6.376,2.481c2.057,1.942,4.063,4.039,5.637,6.374     c4.295,6.374,6.642,13.622,8.738,20.94c0.664,2.32,1.192,4.686,1.63,7.059c0.134,0.726-0.035,1.703-0.464,2.254     c-0.207,0.266-1.455,0.007-2.034-0.342c-8.779-5.303-16.6-11.735-22.806-19.962c-2.32-3.075-4.083-6.472-4.361-10.444     C225.591,58.684,228.586,55.175,233.215,55.198z"/>
			<path d="M320.1,70.191c-1.899,4.097-4.944,7.396-8.125,10.526c-5.19,5.108-10.784,9.725-17.146,13.332     c-0.532,0.301-1.621,0.57-1.807,0.338c-0.421-0.526-0.715-1.43-0.582-2.083c2.05-10.106,5.006-19.908,10.673-28.646     c1.4-2.158,3.273-4.07,5.186-5.813c1.133-1.032,2.701-1.737,4.194-2.195c5.426-1.664,9.761,1.695,9.682,7.363     C322.31,63.059,321.141,67.945,320.1,70.191z"/>
		</g>
		<g>
			<path d="M288.278,444.019c0.501,4.049,0.49,8.16-0.228,12.177c-0.227,1.269-0.522,2.527-0.913,3.773     c-0.945,3.006-2.693,5.447-5.23,7.293c-4.321,3.144-10.197,2.359-13.553-1.801c-2.4-2.975-3.669-6.426-3.893-10.226     c-0.38-6.451,0.571-12.812,2.451-18.909c2.974-9.646,6.46-19.134,9.761-28.677c0.345-0.999,0.863-1.946,1.373-2.878     c0.739-1.349,2.001-1.386,2.831-0.091c0.454,0.709,0.813,1.531,0.995,2.35c1.349,6.081,2.88,12.136,3.888,18.276     C286.777,431.515,287.505,437.771,288.278,444.019z"/>
			<path d="M325.95,436.862c0.038,5.847-4.229,9.103-9.622,7.591c-3.328-0.933-5.778-3.1-7.828-5.74     c-3.875-4.993-6.475-10.671-8.373-16.647c-1.461-4.601-2.609-9.301-3.871-13.963c-0.123-0.454-0.151-0.97-0.078-1.434     c0.173-1.098,0.806-1.526,1.86-0.995c0.906,0.457,1.824,0.912,2.663,1.478c7.091,4.786,13.737,10.095,19.21,16.733     c2.922,3.544,5.387,7.343,5.959,12.061C325.918,436.331,325.938,436.719,325.95,436.862z"/>
			<path d="M231.445,430.568c1.379-2.634,3.058-5.182,4.986-7.445c5.854-6.87,12.773-12.527,20.558-17.099     c0.547-0.321,1.566-0.565,1.932-0.283c0.43,0.332,0.637,1.329,0.512,1.95c-2.086,10.354-5.173,20.353-11.022,29.281     c-2.236,3.413-5.005,6.314-9.122,7.48c-5.327,1.508-9.566-1.693-9.602-7.223C229.563,437.191,230.396,432.572,231.445,430.568z"/>
		</g>
		<path d="M87.246,359.961c-4.8,0.027-8.683-3.723-8.72-8.422c-0.037-4.716,3.552-8.444,8.115-8.429    c5.089,0.017,9.364,3.812,9.423,8.366C96.125,356.153,92.197,359.933,87.246,359.961z"/>
		<path d="M403.665,398.077c-0.001,4.604-3.695,8.524-8.006,8.495c-3.936-0.027-7.138-3.286-7.153-7.28    c-0.016-4.344,3.732-8.063,8.081-8.017C400.487,391.316,403.665,394.37,403.665,398.077z"/>
		<path d="M413.085,107.598c0.29,1.313,0.222,2.676-0.042,3.994c-0.172,0.862-0.387,1.843-0.707,2.788    c-0.816,2.413-3.335,4.028-5.813,3.663c-3.339-0.493-5.656-2.534-6.837-5.609c-0.429-1.116-0.569-2.318-0.367-3.496    c0.935-5.469,6.108-7.815,10.02-6.035C411.422,103.852,412.595,105.382,413.085,107.598z"/>
		<path d="M456.199,336.436c-3.851-0.023-7.071-3.446-7.086-7.535c-0.015-4.24,3.304-7.458,7.629-7.398    c4.024,0.056,7.168,3.157,7.148,7.05C463.869,332.793,460.291,336.459,456.199,336.436z"/>
		<path d="M158.272,103.429c-0.037,4.38-3.262,7.776-7.373,7.764c-4.112-0.012-7.403-3.329-7.353-7.411    c0.05-4.1,3.584-7.48,7.764-7.424C155.247,96.411,158.305,99.517,158.272,103.429z"/>
		<path d="M215.797,405.558c-4.176,0.024-7.43-3.15-7.445-7.263c-0.015-4.018,3.251-7.322,7.25-7.334    c3.892-0.012,7.662,3.562,7.661,7.261C223.261,402.191,219.859,405.534,215.797,405.558z"/>
		<path d="M337.92,406.691c-4.176,0.012-7.637-3.056-7.619-6.754c0.021-4.176,3.905-7.547,8.683-7.536    c3.531,0.008,6.295,2.97,6.308,6.756C345.305,403.35,342.047,406.68,337.92,406.691z"/>
		<path d="M56.476,137.672c-0.005,4.066-3.255,7.316-7.29,7.292c-3.759-0.023-6.786-3.114-6.769-6.91    c0.018-3.928,3.545-7.515,7.396-7.522C53.576,130.525,56.481,133.638,56.476,137.672z"/>
		<path d="M89.779,170.522c-4.147,0.01-7.312-3.042-7.294-7.033c0.018-3.901,3.11-7.022,6.991-7.055    c3.968-0.033,7.275,2.943,7.292,6.562C96.785,166.753,93.293,170.514,89.779,170.522z"/>
		<path d="M154.253,396.616c0.001,4.107-3.045,7.543-6.731,7.443c-0.975-0.026-2.039-0.299-2.89-0.771    c-3.427-1.9-4.814-7.699-2.729-11.014c2.373-3.771,7.55-4.061,10.529-0.587C153.648,393.104,154.21,394.765,154.253,396.616z"/>
		<path d="M458.976,153.044c-3.496-0.009-6.24-2.95-6.225-6.672c0.016-3.683,2.92-6.734,6.415-6.74    c3.66-0.006,6.722,3.262,6.714,7.167C465.872,150.504,463.052,153.054,458.976,153.044z"/>
		<path d="M33.704,334.505c0.046-2.933,1.797-5.466,4.413-6.384c2.577-0.904,5.461-0.083,7.203,2.05    c1.899,2.324,1.813,5.472-0.221,7.678c-0.393,0.426-0.826,0.815-1.245,1.216c-1.889,1.808-4.052,2.402-6.521,1.371    C35.02,339.471,33.662,337.199,33.704,334.505z"/>
		<path d="M228.392,460.787c-0.023-3.714,2.795-6.632,6.409-6.635c3.507-0.003,6.368,2.838,6.386,6.342    c0.018,3.534-2.913,6.517-6.408,6.522C231.44,467.021,228.413,464.068,228.392,460.787z"/>
		<path d="M333.692,40.489c0.017,3.367-2.774,6.091-6.254,6.102c-3.465,0.012-6.295-2.686-6.339-6.042    c-0.044-3.359,2.8-6.699,5.74-6.741C330.039,33.762,333.676,37.307,333.692,40.489z"/>
		<path d="M317.685,467.996c-3.654-0.014-6.422-2.888-6.416-6.662c0.005-3.191,2.621-5.619,6.003-5.572    c3.694,0.052,6.738,2.864,6.755,6.24C324.044,465.368,321.248,468.01,317.685,467.996z"/>
		<path d="M476.75,363.079c-3.455-0.023-6.073-2.596-6.029-5.926c0.046-3.432,2.919-6.141,6.459-6.091    c3.333,0.048,5.899,2.581,5.841,5.767C482.955,360.49,480.332,363.103,476.75,363.079z"/>
		<path d="M110.958,83.29c-3.396,0.002-6.087-2.627-6.055-5.915c0.032-3.273,2.724-6.035,5.86-6.013    c3.361,0.023,6.348,2.89,6.377,6.119C117.169,80.685,114.398,83.288,110.958,83.29z"/>
		<path d="M470.527,264.266c3.262,0.031,5.84,2.662,5.841,5.96c0.001,3.354-2.66,6.019-5.972,5.98    c-3.326-0.039-5.84-2.605-5.822-5.943C464.592,266.877,467.216,264.234,470.527,264.266z"/>
		<path d="M450.351,77.429c0.004,3.197-2.713,5.804-6.015,5.772c-3.305-0.032-5.985-2.541-6.017-5.631    c-0.034-3.239,2.93-6.089,6.318-6.077C447.74,71.505,450.347,74.213,450.351,77.429z"/>
		<path d="M117.03,436.733c0.02,3.189-2.85,5.996-6.193,6.057c-3.162,0.057-5.848-2.682-5.839-5.955    c0.008-3.144,2.642-5.716,5.89-5.753C114.241,431.044,117.01,433.592,117.03,436.733z"/>
		<path d="M450.351,436.832c0.01,3.212-2.591,5.935-5.692,5.958c-3.386,0.025-6.36-2.815-6.34-6.054    c0.018-3.092,2.688-5.609,5.996-5.653C447.616,431.038,450.341,433.634,450.351,436.832z"/>
		<path d="M231.445,37.941c-0.021,3.213-2.638,5.723-5.913,5.67c-3.246-0.052-5.542-2.313-5.542-5.459    c-0.001-3.315,2.621-5.943,5.876-5.889C228.996,32.315,231.465,34.828,231.445,37.941z"/>
	</g>
</g>















</svg>
