<?xml version="1.0" encoding="UTF-8"?>
<!-- Generator: Adobe Illustrator 25.2.0, SVG Export Plug-In . SVG Version: 6.00 Build 0)  -->
<svg xmlns="http://www.w3.org/2000/svg" xmlns:xlink="http://www.w3.org/1999/xlink" version="1.1" id="Capa_1" x="0px" y="0px" viewBox="0 0 500 500" style="enable-background:new 0 0 500 500;" xml:space="preserve" width="512" height="512">
<g>
	<g>
		<path d="M151.559,253.807c-0.176,0.628-0.355,1.254-0.526,1.883c-2.535,9.294-6.33,17.935-13.188,24.927    c-4.61,4.701-9.862,8.46-16.517,9.55c-7.418,1.214-14.372-0.19-20.377-4.872c-8.369-6.524-13.068-15.281-15.147-25.592    c-3.161-15.681-4.484-31.544-4.639-47.504c-0.157-16.223-0.091-32.449-0.072-48.674c0.01-8.701-0.161-17.387-1.661-25.986    c-0.651-3.735-1.623-7.349-4.234-10.308c-0.848-0.961-0.562-2.061,0.633-2.601c0.913-0.413,1.903-0.722,2.891-0.896    c12.105-2.136,23.854-5.55,35.388-9.756c0.857-0.312,1.747-0.602,2.645-0.718c2.082-0.268,3.294,1.202,2.334,3.029    c-3.816,7.261-4.54,15.207-5.203,23.142c-1.325,15.861-0.975,31.756-0.464,47.634c0.561,17.421,1.341,34.837,2.213,52.246    c0.221,4.413,1.054,8.808,1.804,13.177c0.281,1.633,1.03,3.214,1.75,4.732c0.487,1.026,1.181,2.013,1.98,2.823    c3.799,3.849,7.184,3.838,10.5-0.389c1.85-2.358,3.393-5.071,4.538-7.846c3.973-9.622,6.443-19.698,8.402-29.9    c1.692-8.81,3.45-17.61,4.909-26.46c0.447-2.711,0.106-5.576-0.057-8.359c-0.409-6.986-0.74-13.985-1.443-20.944    c-0.795-7.866-1.951-15.695-2.977-23.537c-0.288-2.199-0.724-4.38-0.992-6.581c-0.244-1.999-0.02-2.211,1.973-2.535    c5.899-0.96,11.827-1.772,17.686-2.933c4.771-0.945,9.46-2.31,14.186-3.485c0.281-0.07,0.568-0.155,0.853-0.157    c3.304-0.026,4.071,0.75,3.268,3.64c-3.214,11.565-4.427,23.407-4.684,35.353c-0.157,7.285-0.039,14.577,0.039,21.865    c0.254,23.708,0.741,47.415,0.765,71.122c0.021,20.668-0.604,41.343-2.603,61.924c-1.979,20.374-6.436,40.199-14.923,58.956    c-5.288,11.685-12.455,22.034-21.621,31.082c-7.475,7.379-16.36,11.335-26.618,12.808c-9.83,1.411-19.09-0.262-28.061-4.321    c-14.285-6.463-25.064-16.662-32.551-30.364c-9.22-16.873-14.015-34.895-13.301-54.179c0.505-13.651,4.624-26.259,12.033-37.761    c3.597-5.584,8.298-9.888,14.546-12.359c5.329-2.108,10.664-2.098,15.936,0.137c8.042,3.41,13.721,9.206,16.96,17.313    c2.988,7.478,4.18,15.24,3.249,23.275c-0.116,0.998-0.306,2.016-0.655,2.953c-0.583,1.564-1.891,2.194-3.498,1.707    c-1.149-0.348-2.255-0.849-3.358-1.332c-2.189-0.959-4.218-0.661-6.177,0.637c-2.207,1.463-3.695,3.516-4.847,5.835    c-2.78,5.595-4.322,11.569-5.057,17.73c-1.255,10.524-0.737,20.965,2.808,31.021c1.382,3.921,3.302,7.745,5.539,11.257    c6.307,9.903,17.893,12.927,28.416,7.676c4.511-2.251,8.323-5.359,11.435-9.374c7.026-9.066,11.182-19.408,13.928-30.432    c3.496-14.038,5.402-28.329,7.171-42.659c2.695-21.828,4.138-43.74,4.866-65.71c0.01-0.287,0.001-0.575,0.001-0.863    C151.685,253.839,151.622,253.823,151.559,253.807z M140.017,394.289c0.141,0.157,0.339,0.04,0.391-0.007    c0.175-0.155,0.35-0.322,0.476-0.517c4.153-6.413,7.431-13.207,10.118-20.399c7.544-20.193,11.274-41.069,12.167-62.523    c0.456-10.949,0.953-21.898,1.26-32.852c0.484-17.229,1.109-34.461,1.154-51.693c0.056-21.628-0.403-43.258-0.664-64.887    c-0.052-4.296-0.197-8.59-0.326-12.885c-0.047-1.543-0.109-3.091-0.301-4.619c-0.059-0.468-0.351-1.301-0.885-1.315    c-0.565-0.014-0.827,0.842-1.01,1.347c-0.189,0.52-0.101,1.144-0.117,1.723c-0.067,2.461-0.147,4.922-0.189,7.383    c-0.345,20.179-0.906,40.356-0.971,60.536c-0.106,32.592-0.218,65.182-1.465,97.754c-0.31,8.093-1.016,16.182-1.853,24.241    c-1.075,10.35-3.748,20.37-6.818,30.297c-2.622,8.48-5.136,16.982-9.688,24.702c-0.507,0.86-0.81,1.843-1.168,2.785    C140.022,393.641,139.805,394.053,140.017,394.289z M128.109,274.957c-0.749-0.265-4.371,1.521-6.55,2.22    c-2.37,0.76-4.625,0.439-6.866-0.656c-3.465-1.692-5.813-4.36-7.423-7.804c-2.342-5.009-3.452-10.311-4.033-15.772    c-2.861-26.913-4.31-53.9-4.463-80.964c-0.055-9.801-0.225-19.604-0.545-29.399c-0.103-3.156-0.816-6.298-1.352-9.429    c-0.083-0.484-0.521-1.383-1.092-1.309c-0.557,0.072-0.694,0.999-0.715,1.512c-0.222,5.256-0.393,10.515-0.546,15.773    c-0.792,27.082-1.38,54.164,0.213,81.24c0.53,9.014,1.039,18.035,2.955,26.894c1.486,6.871,4.608,12.926,9.71,17.781    c5.55,5.28,12.771,5.885,19.293,1.894C127.444,276.479,129.043,275.497,128.109,274.957z M81.379,306.139    c0.913-0.316-0.199-1.502-0.83-1.974c-2.242-1.675-4.711-2.595-7.571-2.037c-3.175,0.62-5.456,2.6-7.406,4.991    c-2.838,3.48-4.93,7.412-6.148,11.721c-6.015,21.278-4.204,41.897,5.418,61.816c0.271,0.561,0.548,1.179,0.994,1.579    c0.399,0.358,1.127,1.029,1.567,0.663c0.373-0.31-0.099-0.993-0.294-1.423c-2.178-4.793-4.177-9.66-5.017-14.886    c-1.449-9.016-1.216-18.095-0.585-27.155c0.578-8.304,1.904-16.494,4.867-24.33c1.253-3.313,2.871-6.435,5.488-8.927    c1.679-1.6,3.662-2.454,5.942-1.841C79.043,304.67,80.978,306.206,81.379,306.139z"/>
		<path d="M374.197,270.255c-0.217,0.658-0.459,1.31-0.647,1.976c-2.777,9.87-6.72,19.214-12.546,27.7    c-4.575,6.665-10.381,11.77-18.215,14.307c-6.892,2.232-13.347,1.459-19.582-2.315c-10.261-6.211-16.052-15.521-18.881-26.863    c-2.044-8.196-2.468-16.62-2.675-25.018c-0.749-30.271-1.198-60.545-0.51-90.828c0.147-6.455-0.27-12.931-0.627-19.386    c-0.272-4.906-2.062-9.397-4.48-13.642c-0.286-0.502-0.593-1.004-0.789-1.542c-0.644-1.776,0.409-3.315,2.295-3.191    c9.361,0.615,18.618-0.441,27.86-1.685c3.2-0.431,6.369-1.1,9.55-1.669c1.015-0.182,2.038-0.174,2.457,0.92    c0.235,0.613,0.345,1.62,0.006,2.055c-3.857,4.947-4.306,10.826-4.776,16.72c-0.988,12.402-0.505,24.807-0.11,37.211    c0.7,22.01,1.433,44.018,2.125,66.028c0.276,8.788,0.529,17.574,2.398,26.214c0.488,2.258,1.291,4.343,3.135,5.89    c2.15,1.804,4.205,2.069,6.688,0.75c2.923-1.553,5.211-3.885,7.115-6.496c2.24-3.071,4.331-6.28,6.189-9.595    c6.147-10.968,10.195-22.767,13.665-34.807c1.336-4.636,2.055-9.247,2.024-14.085c-0.116-18.301,0.114-36.605-0.119-54.903    c-0.104-8.197-0.966-16.386-1.546-24.574c-0.257-3.623,0.907-5.175,4.545-4.958c3.597,0.214,7.19,0.773,10.743,1.41    c6.652,1.194,13.17,0.454,19.677-0.971c0.887-0.194,1.823-0.303,2.725-0.254c1.894,0.104,2.89,1.452,2.478,3.273    c-3.917,17.306-6.091,34.898-8.296,52.465c-2.604,20.742-4.683,41.55-6.991,62.329c-1.157,10.413-1.987,20.875-3.541,31.228    c-4.168,27.767-10.003,55.168-18.73,81.912c-5.791,17.748-15.852,32.858-28.102,46.683c-5.017,3.834-9.796,8.04-15.102,11.418    c-9.267,5.9-19.155,10.643-29.867,13.405c-16.848,4.344-33.676,4.922-50.4-0.615c-12.836-4.25-23.14-12.085-31.158-22.847    c-5.298-7.112-9.742-14.769-11.873-23.508c-2.335-9.575-2.381-19.257,0.501-28.643c3.469-11.297,11.003-19.214,22.101-23.531    c2.284-0.889,4.673-1.52,7.037-2.189c1.133-0.321,2.243-0.124,2.976,0.926c0.697,0.999,0.453,2.032-0.105,3.004    c-2.674,4.655-3.629,9.72-3.643,15.02c-0.025,9.179,2.004,17.82,6.82,25.703c6.348,10.391,15.457,17.504,26.858,21.416    c15.722,5.395,31.016,3.556,45.75-3.836c11.853-5.946,21.046-14.823,27.93-26.037c10.477-17.065,18.481-35.18,22.2-54.986    c2.873-15.299,4.495-30.759,5.765-46.261c0.018-0.219-0.032-0.444-0.05-0.666C374.366,270.297,374.281,270.276,374.197,270.255z     M346.131,296.425c-0.38-0.936-5.627,0.497-8.187,0.497c-3.34,0-6.151-1.378-8.465-3.803c-2.731-2.861-4.528-6.21-5.496-10.037    c-2.442-9.655-3.379-19.511-3.531-29.415c-0.324-21.047-0.323-42.098-0.622-63.146c-0.19-13.37-0.654-26.736-1.067-40.102    c-0.056-1.812-0.475-3.624-0.868-5.405c-0.09-0.41-0.652-1.105-1.178-1.028c-0.515,0.075-0.795,0.85-0.831,1.304    c-0.403,5.05-0.998,10.103-1.037,15.16c-0.225,28.821-0.406,57.642-0.398,86.463c0.003,10.382,0.737,20.745,3.152,30.912    c1.438,6.052,3.713,11.591,8.259,16.122c5.348,5.329,11.646,5.295,18.302,3.865C344.797,297.676,346.472,297.37,346.131,296.425z     M359.911,373.359c-0.009-0.027-0.024-0.051-0.046-0.071c-0.068-0.062-0.18-0.049-0.254,0.005    c-0.075,0.053-0.121,0.136-0.165,0.217c-1.433,2.617-2.491,5.409-3.899,8.037c-3.296,6.158-6.508,12.396-11.39,17.508    c-9.136,9.566-19.699,16.852-32.726,20.101c-9.193,2.293-18.56,2.993-27.997,2.961c-7.39-0.025-14.586-1.257-21.643-3.46    c-9.566-2.985-17.719-8.013-23.845-16.073c-4.308-5.667-7.479-11.932-9.703-18.674c-1.653-5.011-2.135-10.193-1.832-15.441    c0.091-1.582,0.46-3.148,0.691-4.723c0.146-0.994,0.52-2.17-0.642-2.714c-1.278-0.599-1.964,0.534-2.512,1.394    c-0.746,1.171-1.549,2.398-1.886,3.714c-0.547,2.13-0.949,4.344-1.037,6.537c-0.37,9.208,2.859,17.426,7.315,25.247    c5.933,10.413,13.973,18.547,25.347,22.955c6.155,2.385,12.551,3.826,19.114,4.454c9.131,0.873,18.227,0.299,27.294-0.902    c6.671-0.884,13.225-2.269,19.403-5.025c2.983-1.331,5.881-2.855,8.659-4.574c2.684-1.661,5.255-3.504,7.687-5.515    c2.384-1.972,4.634-4.104,6.737-6.373c2.099-2.265,4.05-4.664,5.855-7.169c1.827-2.536,3.504-5.18,5.041-7.902    c1.572-2.784,2.999-5.651,4.296-8.573c0.809-1.822,1.839-3.748,2.143-5.73C359.925,373.502,359.933,373.423,359.911,373.359z     M398.503,154.158c0-2.114,0.022-4.284-0.011-6.452c-0.012-0.815-0.049-1.886-1.139-1.799c-0.474,0.038-1.163,0.964-1.257,1.565    c-0.627,4-1.27,8.007-1.63,12.037c-1.718,19.276-3.366,38.559-5.003,57.843c-1.078,12.694-2.119,25.392-3.121,38.092    c-0.205,2.592-0.197,5.203-0.198,7.805c0,0.418,0.233,1.213,0.719,1.255c0.494,0.042,0.809-0.701,0.94-1.135    c0.363-1.195,0.69-2.422,0.834-3.659c1.457-12.505,3.046-24.999,4.258-37.528c1.343-13.881,2.335-27.796,3.473-41.697    C397.085,171.734,397.788,162.984,398.503,154.158z"/>
		<path d="M212.735,227.229c0.582-3.117,1.173-6.087,1.687-9.071c2.291-13.314,4.788-26.598,6.762-39.959    c1.423-9.634,2.204-19.365,3.147-29.065c0.461-4.744-0.494-9.315-2.322-13.716c-0.941-2.266-0.256-3.366,2.211-3.615    c6.719-0.679,13.466-1.143,20.153-2.05c5.152-0.698,10.232-1.932,15.342-2.943c1.178-0.233,2.364-0.416,3.171,0.711    c0.785,1.095,0.418,2.272-0.205,3.274c-3.189,5.135-3.564,10.785-3.315,16.619c0.38,8.915,2.036,17.648,3.681,26.372    c3.477,18.445,7.146,36.854,10.688,55.287c3.078,16.02,6.056,32.059,9.142,48.077c2.255,11.704,4.466,23.421,6.991,35.068    c1.224,5.644,3.069,11.159,4.739,16.701c1.424,4.727,3.906,8.91,6.98,12.753c0.784,0.98,1.595,1.941,2.348,2.944    c1.826,2.432,1.131,4.474-1.811,5.163c-2.206,0.517-4.44,0.925-6.671,1.325c-11.07,1.982-22.058,4.324-32.878,7.416    c-0.507,0.145-1.035,0.277-1.557,0.297c-1.466,0.057-2.361-0.871-2.297-2.335c0.015-0.335,0.049-0.688,0.169-0.995    c2.729-7.022,2.946-14.42,3.305-21.802c0.422-8.672-0.552-17.257-1.412-25.862c-1.561-15.621-3.447-31.188-6.588-46.586    c-0.352-1.725-1.107-2.818-2.594-3.699c-3.904-2.313-8.118-3.564-12.603-3.922c-2.887-0.23-5.788-0.277-8.677-0.488    c-1.048-0.077-1.451,0.263-1.582,1.297c-1.16,9.191-2.393,18.373-3.533,27.566c-0.748,6.034-1.332,12.088-2.077,18.123    c-0.564,4.564,0.152,8.941,1.571,13.255c0.376,1.145,0.746,2.298,1.013,3.471c0.59,2.595-0.593,4.128-3.248,3.954    c-2.352-0.154-4.68-0.644-7.024-0.938c-7.071-0.887-14.16-0.897-21.256-0.353c-0.77,0.059-1.542,0.138-2.313,0.133    c-1.873-0.01-2.743-1.434-1.745-3.043c4.185-6.75,6.572-14.267,9.254-21.648c3.541-9.745,5.367-19.922,7.239-30.077    c0.822-4.458,1.557-8.933,2.349-13.495c-0.401-0.158-0.734-0.334-1.089-0.423c-4.951-1.236-9.325-3.61-13.422-6.604    c-8.133-5.943-10.952-14.071-9.654-23.756c0.484-3.615,1.589-7.148,2.434-10.713c0.262-1.107,0.852-1.974,2.09-2.108    c1.241-0.134,1.956,0.635,2.51,1.613c2.517,4.444,5.48,8.521,9.517,11.738C204.741,223.818,208.484,225.824,212.735,227.229z     M243.64,150.463c0.227,1.601,0.423,3.426,0.75,5.228c4.494,24.784,8.884,49.588,13.543,74.341    c6.284,33.383,12.778,66.726,19.187,100.086c0.355,1.847,0.709,3.697,1.152,5.525c0.263,1.088,0.971,1.837,2.203,1.613    c1.243-0.225,1.538-1.183,1.482-2.297c-0.017-0.335-0.098-0.667-0.158-0.999c-1.675-9.308-3.324-18.621-5.033-27.923    c-4.481-24.395-8.903-48.801-13.509-73.172c-4.283-22.661-8.759-45.285-13.18-67.918c-0.989-5.063-2.065-10.11-3.202-15.141    c-0.235-1.042-0.478-2.57-2.068-2.313C243.236,147.747,243.837,149.216,243.64,150.463z M251.221,247.094    c-0.06-0.44-0.086-0.705-0.134-0.966c-2.411-13.237-4.96-26.452-7.188-39.72c-1.42-8.456-1.968-17.062-4.483-25.324    c-0.084-0.275-0.213-0.536-0.437-1.088c-0.803,5.831-1.571,11.321-2.315,16.814c-1.605,11.85-3.183,23.704-4.819,35.55    c-0.14,1.014,0.155,1.408,1.055,1.818c6.682,3.045,12.907,6.765,17.744,12.45C250.762,246.767,250.93,246.862,251.221,247.094z     M221.955,220.909c-0.109,0.794-0.07,1.607,0.165,2.374c0.144,0.471,0.347,0.893,0.628,0.932c0.624,0.087,0.983-0.915,1.163-1.472    c0.441-1.372,0.786-2.79,1.012-4.214c3.624-22.812,7.223-45.628,10.828-68.442c0.146-0.924,0.144-1.833-1.01-2.035    c-1.172-0.206-1.474,0.682-1.629,1.588c-0.623,3.659-1.243,7.319-1.835,10.984c-2.292,14.183-4.613,28.361-6.84,42.555    C223.512,209.073,222.767,214.996,221.955,220.909z M190.348,221.824c-0.177,0.385-0.247,0.818-0.189,1.238    c0.515,3.717,1.81,6.898,4.35,9.562c3.209,3.366,7.007,5.779,11.589,6.733c3.632,0.756,7.333,1.183,10.959,1.965    c4.095,0.884,8.135,2.026,12.215,2.987c0.514,0.121,1.517,0.272,1.691-0.276c0.147-0.465-0.681-0.698-1.028-1.041    c-0.105-0.104-0.305-0.224-0.446-0.268c-5.419-1.72-10.837-3.444-16.259-5.156c-1.15-0.363-2.309-0.698-3.47-1.02    c-7.904-2.195-13.862-6.585-16.723-14.595l-0.009-0.023C192.583,220.713,190.887,220.646,190.348,221.824L190.348,221.824z     M219.226,257.765c-1.763,0.734-1.638,2.159-1.835,3.308c-1.392,8.128-2.623,16.284-4.087,24.398    c-1.268,7.023-2.792,13.999-4.144,21.008c-0.104,0.538-0.168,1.558,0.404,1.753c0.592,0.203,1.208-0.677,1.431-1.183    c0.58-1.316,1.035-2.705,1.378-4.104c3.474-14.179,5.755-28.561,7.207-43.078C219.643,259.226,219.366,258.551,219.226,257.765z"/>
		<path d="M422.774,173.669c-0.439-15.346-0.81-30.694-1.357-46.035c-0.175-4.913-0.889-9.805-1.222-14.716    c-0.285-4.209-0.056-4.471,4.091-4.33c9.647,0.33,19.291,0.737,28.933,1.191c3.16,0.149,4.152,1.612,3.503,4.706    c-2.955,14.09-5.034,28.317-6.41,42.638c-2.84,29.552-5.714,59.101-8.264,88.678c-1.438,16.683-2.259,33.42-3.359,50.132    c-0.082,1.252-0.134,2.508-0.269,3.755c-0.212,1.957-0.726,2.424-2.711,2.317c-5.399-0.289-10.794-0.646-16.193-0.938    c-2.024-0.11-4.055-0.074-6.079-0.18c-3.492-0.183-4.526-1.613-3.775-5.005c4.077-18.43,7.706-36.943,9.876-55.707    C422.092,218.082,423.11,195.91,422.774,173.669z M440.285,146.664c0.214-5.308,0.455-9.167,0.5-13.028    c0.039-3.279-0.094-6.565-0.288-9.839c-0.012-0.196-0.125-0.385-0.284-0.572c-0.528-0.62-1.507-0.623-1.92,0.079    c-0.049,0.084-0.083,0.169-0.094,0.258c-0.458,3.588-0.94,7.182-1.156,10.789c-1.105,18.462-2.272,36.922-3.155,55.395    c-1.287,26.931-4.457,53.675-7.481,80.44c-0.579,5.126-0.867,10.285-1.239,15.433c-0.058,0.803,0.097,1.638,0.271,2.432    c0.066,0.301,0.456,0.726,0.712,0.737c0.283,0.011,0.743-0.334,0.842-0.621c0.249-0.722,0.388-1.493,0.484-2.255    c1.866-14.842,3.904-29.665,5.522-44.533c1.635-15.018,3.059-30.065,4.195-45.128C438.475,179.256,439.332,162.23,440.285,146.664    z"/>
		<path d="M437.057,328.804c-0.021,9.461-7.527,17.085-16.82,17.085c-9.365,0-16.979-7.804-16.917-17.34    c0.06-9.368,7.711-17.058,16.945-17.033C429.61,311.542,437.079,319.231,437.057,328.804z"/>
	</g>
	<g>
		<g>
			<path d="M325.035,62.338c0.384,0.168,0.764,0.343,1.151,0.502c5.707,2.34,10.337,6.018,13.628,11.25     c3.769,5.992,5.943,12.523,6.355,19.629c0.462,7.969-2.151,14.494-8.761,19.229c-6.264,4.486-13.084,7.071-20.907,5.854     c-12.521-1.947-20.491-16.165-15.35-27.287c1.641-3.551,4.183-6.254,7.832-7.776c7.421-3.096,14.422,0.981,15.368,8.959     c0.145,1.226,0.243,2.562-0.102,3.707c-0.246,0.817-1.182,1.795-1.974,1.974c-0.791,0.179-1.846-0.445-2.669-0.919     c-0.444-0.255-0.681-0.914-0.946-1.425c-0.332-0.642-0.595-1.319-0.891-1.98c-0.969-2.163-2.239-4.136-4.891-4.111     c-2.638,0.025-3.891,2.074-4.914,4.157c-0.941,1.914-0.871,3.952-0.287,5.943c0.336,1.148,0.799,2.286,1.381,3.331     c2.083,3.74,5.063,5.692,9.591,5.236c5.355-0.54,9.861-2.488,13.368-6.64c1.261-1.493,2.172-3.139,2.132-5.097     c-0.042-2.059,0.03-4.228-0.575-6.151c-3.346-10.631-10.533-16.453-21.027-16.925c-7.021-0.316-13.005,2.518-17.001,8.458     c-1.887,2.806-3.189,6.04-4.506,9.185c-1.376,3.285-2.337,6.744-3.697,10.036c-0.898,2.174-2.966,2.272-4.46,0.349     c-1.594-2.053-1.753-4.467-1.383-6.906c0.412-2.718,0.875-5.437,1.499-8.113c2.745-11.785,9.863-20.487,19.661-27.115     c10.775-7.288,22.905-9.655,35.717-9.171c5.536,0.209,10.914,1.309,16.203,2.927c12.259,3.751,24.142,8.439,35.751,13.879     c8.656,4.056,17.39,7.966,26.672,10.448c7.185,1.922,14.496,2.663,21.932,2.637c9.965-0.035,18.647-8.497,19.756-18.043     c0.139-1.198,0.225-2.402,0.343-3.602c0.851-8.688-8.363-15.347-15.586-14.471c-4.525,0.549-9.779,5.681-10.169,10.21     c-0.206,2.394,1.982,5.311,4.334,5.776c1.891,0.374,3.72-1.161,4.024-3.459c0.126-0.953,0.067-1.929,0.137-2.891     c0.087-1.193,0.532-2.191,1.802-2.513c1.321-0.335,2.301,0.314,2.909,1.391c3.057,5.41,1.405,14.271-7.375,15.32     c-7.228,0.864-16.379-5.499-14.487-16.028c1.149-6.398,4.497-11.468,9.582-15.362c4.189-3.208,9.037-3.471,14.092-2.761     c14.615,2.054,23.039,15.377,22.289,28.652c-0.961,17.009-15.023,29.58-30.633,30.393c-9.5,0.495-18.778-0.882-27.93-3.316     c-9.957-2.649-19.142-7.182-28.393-11.571c-6.846-3.248-13.69-6.511-20.635-9.537c-10.827-4.717-22.293-6.473-34.016-6.81     c-1.293-0.037-2.592,0.139-3.889,0.216C325.069,62.118,325.052,62.228,325.035,62.338z"/>
			<path d="M222.742,62.082c-3.79-0.554-7.515-0.215-11.255,0.068c-14.231,1.079-27.224,6.118-39.933,12.197     c-9.099,4.352-18.162,8.836-27.505,12.607c-11.396,4.599-23.414,6.598-35.734,6.09c-10.674-0.44-18.992-5.417-25.528-13.745     c-7.058-8.994-9.402-27.889,3.491-39.337c6.055-5.376,13.361-7.121,21.325-5.867c1.49,0.235,3.043,0.8,4.305,1.617     c6.904,4.47,11.103,10.714,11.399,19.077c0.298,8.41-8.379,15.25-16.31,13.04c-7.771-2.166-8.351-10.39-5.758-14.972     c0.61-1.077,1.567-1.758,2.887-1.452c1.346,0.312,1.784,1.369,1.865,2.616c0.056,0.867-0.004,1.745,0.106,2.603     c0.201,1.57,0.9,2.882,2.43,3.513c1.447,0.596,2.616-0.105,3.698-1.011c2.524-2.116,3.048-4.23,1.474-7.333     c-4.725-9.311-13.423-9.255-19.825-4.158c-3.817,3.039-5.508,6.985-5.158,11.951c0.555,7.89,3.912,14.003,10.666,18.218     c3.427,2.139,7.225,2.627,11.127,2.622c10.11-0.011,19.932-1.771,29.276-5.608c9.421-3.869,18.673-8.147,28.044-12.14     c10.314-4.395,20.722-8.707,31.739-10.88c17.384-3.43,33.828-0.856,48.292,9.965c8.608,6.439,14.4,14.983,16.782,25.627     c0.548,2.448,1.293,4.88,1.538,7.359c0.184,1.864-0.049,3.86-0.562,5.666c-0.282,0.993-1.382,1.993-2.365,2.496     c-1.597,0.817-2.409,0.263-3.009-1.46c-1.428-4.1-2.794-8.225-4.356-12.273c-0.812-2.103-1.809-4.182-3.031-6.073     c-8.561-13.256-26.728-11.337-34.348-0.886c-2.154,2.954-3.947,6.072-4.678,9.707c-1.236,6.146,0.599,10.521,5.916,13.846     c3.92,2.452,8.249,3.142,12.797,2.705c0.335-0.032,0.679-0.084,0.992-0.198c4.565-1.663,9.757-10.438,5.096-16.154     c-2.481-3.043-5.72-2.949-7.83,0.374c-0.411,0.647-0.689,1.379-1.029,2.071c-0.383,0.779-0.714,1.589-1.162,2.329     c-0.701,1.156-1.703,1.894-3.131,1.581c-1.348-0.296-1.995-1.303-2.181-2.595c-0.996-6.931,4.102-14.912,13.321-12.825     c6.257,1.416,11.103,7.452,11.531,14.209c0.892,14.093-12.337,24.745-26.289,21.136c-5.077-1.313-9.62-3.621-13.578-7.149     c-3.636-3.24-5.965-7.182-6.438-11.964c-1.124-11.361,2.165-21.393,9.847-29.867c2.723-3.003,6.15-5.115,9.934-6.608     c0.314-0.124,0.631-0.244,0.936-0.387C222.625,62.402,222.645,62.278,222.742,62.082z"/>
		</g>
		<g>
			<path d="M399.506,404.678c0.218,2.366,0.248,4.745,0.092,7.116c-0.893,13.577-3.168,25.897-8.385,37.591     c-2.632,5.899-6.163,11.154-11.413,15.07c-2.982,2.224-6.201,3.989-9.966,4.531c-9.503,1.37-17.707-6.726-16.882-16.291     c0.381-4.422,1.728-8.609,3.948-12.433c2.224-3.83,4.719-7.515,7.277-11.136c4.927-6.974,10.232-13.692,14.918-20.82     c5.445-8.282,8.901-17.502,11.32-27.111c0.171-0.68,0.834-1.634,1.377-1.713c0.563-0.082,1.513,0.6,1.856,1.199     c2.521,4.406,3.954,9.232,4.736,14.196C398.919,398.272,399.232,401.703,399.506,404.678z"/>
			<path d="M448.698,368.058c-9.84-0.02-18.522-3.119-26.27-9.032c-0.807-0.616-1.596-1.343-1.797-2.388     c-0.065-0.341-0.03-0.716,0.173-0.998c0.502-0.697,1.43-0.083,2.044,0.113c0.824,0.263,1.659,0.49,2.504,0.674     c1.56,0.34,3.153,0.534,4.75,0.552c2.947,0.034,5.866-0.55,8.601-1.637c5.601-2.226,10.271-6.299,14.498-10.495     c3.64-3.612,6.294-8.05,8.698-12.585c1.785-3.366,3.309-6.885,5.291-10.127c1.899-3.107,3.928-6.244,6.444-8.843     c6.154-6.357,14.651-6.103,20.711,0.347c4.561,4.854,5.964,10.842,5.601,17.265c-0.514,9.098-4.751,16.444-11.203,22.655     c-7.61,7.326-16.887,11.21-27.132,12.953C457.342,367.24,453.004,367.555,448.698,368.058z"/>
			<path d="M442.388,409.083c-8.268,0.008-15.798-2.583-22.731-6.827c-2.631-1.611-5.03-3.777-7.118-6.069     c-8.394-9.216-12.914-20.129-13.574-32.593c-0.033-0.625,0.421-1.647,0.894-1.823c0.467-0.173,1.549,0.316,1.843,0.818     c5.293,9.041,13.704,13.279,23.525,15.223c8.751,1.733,17.574,1.479,26.394,0.457c4.994-0.578,9.982-1.169,14.923,0.447     c2.993,0.979,5.668,2.425,7.832,4.747c3.278,3.519,3.876,7.491,1.563,11.709c-3.049,5.558-7.815,9.059-13.74,11.106     C455.771,408.501,449.111,409.055,442.388,409.083z"/>
		</g>
		<g>
			<path d="M111.133,482.124c-5.724-0.123-9.865-0.909-13.719-2.678c-8.498-3.9-12.37-14.113-8.241-22.502     c2.32-4.713,5.939-8.234,10.318-11.018c4.898-3.115,10.347-4.903,15.818-6.665c9.496-3.059,19.038-5.993,28.433-9.34     c7.143-2.545,13.948-5.922,20.029-10.557c5.049-3.848,9.126-8.581,12.447-13.978c1.289-2.095,2.54-4.216,3.892-6.271     c0.126-0.191,0.284-0.36,0.46-0.518c0.534-0.481,1.403-0.218,1.613,0.469c0.099,0.324,0.153,0.637,0.091,0.926     c-1.004,4.66-1.739,9.436-3.32,13.906c-7.275,20.566-18.731,38.451-35.127,52.983c-7.006,6.209-14.913,11.011-23.971,13.607     C116.545,481.438,113.057,481.776,111.133,482.124z"/>
			<path d="M187.893,427.553c0.115-5.974,0.944-11.776,2.79-17.427c0.19-0.583,0.419-1.239,0.839-1.644     c1.436-1.383,2.986-1.051,3.539,0.893c2.697,9.482,8.643,16.889,15.392,23.657c6.062,6.079,12.603,11.68,18.808,17.622     c2.744,2.627,5.377,5.424,7.699,8.422c2.261,2.919,3.529,6.402,2.828,10.185c-1.114,6.008-5.286,9.09-10.847,10.55     c-4.509,1.185-8.903,0.539-13.153-1.3c-5.852-2.533-10.562-6.532-14.605-11.374c-6.543-7.835-10.421-16.878-11.9-26.936     C188.666,436.008,188.347,431.77,187.893,427.553z"/>
		</g>
		<g>
			<path d="M70.335,195.73c-0.427,5.825-0.806,12.087-1.361,18.334c-0.977,10.999-0.335,21.887,1.962,32.68     c0.381,1.788,0.925,3.543,1.261,5.338c0.116,0.624,0.051,1.586-0.337,1.916c-0.404,0.344-1.456,0.377-1.952,0.084     c-2.155-1.272-4.414-2.483-6.269-4.129c-12.525-11.11-20.967-24.633-23.755-41.338c-1.338-8.018-1.042-15.976,1.622-23.741     c1.355-3.952,3.421-7.45,6.704-10.13c1.94-1.583,4.102-2.732,6.602-3.109c4.502-0.679,8.06,0.973,10.709,4.583     c2.704,3.685,3.863,7.958,4.364,12.421C70.133,190.843,70.174,193.068,70.335,195.73z"/>
			<path d="M41.284,258.848c8.931-0.009,17.273,2.237,25.014,6.656c1.278,0.729,2.483,1.695,3.486,2.771     c1.437,1.541,0.859,2.739-1.175,3.273c-5.445,1.429-10.94,2.736-16.273,4.515c-8.9,2.969-16.651,8.233-24.678,12.932     c-2.951,1.728-5.921,3.456-9.022,4.879c-1.984,0.91-4.189,1.525-6.356,1.816c-7.248,0.976-12.74-4.284-12.249-11.598     c0.264-3.927,1.814-7.371,4.259-10.419c4.267-5.319,9.874-8.722,16.166-11.057C27.163,260.129,34.125,258.913,41.284,258.848z"/>
		</g>
		<g>
			<path d="M272.65,68.351c-0.164,1.336-0.204,2.752-0.561,4.084c-0.162,0.604-0.873,1.309-1.477,1.487     c-0.926,0.273-1.587-0.37-1.935-1.31c-0.637-1.718-1.368-3.401-2-5.121c-2.388-6.508-7.007-10.974-12.964-14.218     c-1.228-0.669-2.503-1.252-3.728-1.926c-0.758-0.417-1.531-0.852-2.182-1.414c-2.071-1.787-3.653-3.938-2.815-6.809     c0.851-2.917,3.136-4.474,6.084-4.874c4.679-0.635,8.501,1.273,11.787,4.391c4.927,4.674,7.393,10.649,8.659,17.167     C272.06,62.596,272.276,65.447,272.65,68.351z"/>
			<path d="M300.24,38.538c4.038-0.013,7.023,2.59,7.42,6.445c0.145,1.407-0.532,2.776-1.748,3.5     c-1.874,1.115-3.77,2.218-5.75,3.122c-6.409,2.926-11.451,7.459-15.549,13.088c-2.072,2.846-3.929,5.847-5.964,8.721     c-0.05,0.07-0.108,0.134-0.172,0.194c-0.745,0.688-2.076,0.232-2.208-0.774c-0.011-0.085-0.012-0.169-0.001-0.252     c1.188-8.421,3.298-16.566,8.157-23.702c3.382-4.967,7.867-8.587,13.811-10.14c0.326-0.085,0.658-0.162,0.992-0.195     S299.902,38.538,300.24,38.538z"/>
			<path d="M282.953,27.442c0.058,7.28-1.586,14.263-3.716,21.157c-0.754,2.441-1.564,4.867-2.43,7.269     c-0.169,0.467-0.547,1.211-1.09,1.192c-0.539-0.019-0.884-0.786-0.995-1.257c-0.776-3.282-1.487-6.58-2.174-9.882     c-1.18-5.663-2.462-11.31-3.442-17.009c-0.628-3.652-0.428-7.33,1.526-10.684c0.999-1.715,2.387-2.898,4.406-3.196     c3.009-0.445,5.338,0.916,6.698,3.886C282.982,21.64,282.992,24.537,282.953,27.442z"/>
		</g>
		<g>
			<path d="M25.742,376.194c3.823,0.084,8.442,3.758,9.369,7.482c0.571,2.294,0.128,4.435-1.27,6.308     c-2.294,3.073-5.453,4.246-9.172,3.608c-3.745-0.643-6.494-2.712-7.641-6.447C15.313,381.561,19.734,376.062,25.742,376.194z"/>
			<path d="M21.304,239.986c-4.77-0.016-8.695-3.79-8.646-8.314c0.047-4.319,3.641-7.738,8.121-7.723     c4.824,0.016,8.662,3.721,8.61,8.31C29.338,236.635,25.817,240.001,21.304,239.986z"/>
			<path d="M183.036,477.146c-0.021,4.408-3.583,7.956-7.936,7.904c-4.358-0.052-8.159-3.871-8.147-8.186     c0.012-4.274,3.55-7.655,8.003-7.647C179.482,469.225,183.057,472.733,183.036,477.146z"/>
			<path d="M82.326,100.11c-0.016,4.19-3.606,7.5-8.147,7.51c-4.252,0.01-7.701-3.291-7.714-7.385     c-0.013-4.298,3.63-7.831,8.036-7.791C78.823,92.483,82.342,95.931,82.326,100.11z"/>
			<path d="M426.74,428.138c0.011,4.238-3.457,7.621-7.821,7.627c-4.233,0.006-7.715-3.302-7.757-7.369     c-0.043-4.152,3.614-7.786,7.885-7.837C423.265,420.51,426.728,423.922,426.74,428.138z"/>
			<path d="M468.405,297.074c0.018,4.126-3.122,7.371-7.122,7.36c-4.144-0.011-7.623-3.423-7.639-7.491     c-0.016-4.053,3.286-7.357,7.353-7.358C465.089,289.585,468.387,292.918,468.405,297.074z"/>
			<path d="M284.896,464.862c0.036,4.139-3.339,7.506-7.539,7.52c-3.994,0.013-7.242-3.055-7.284-6.879     c-0.041-3.781,3.821-7.44,7.919-7.502C281.784,457.943,284.863,461.003,284.896,464.862z"/>
			<path d="M176.416,100.61c-3.766-0.016-6.744-2.977-6.734-6.693c0.011-3.858,3.019-7.087,6.579-7.063     c3.415,0.023,7.14,3.817,7.169,7.302C183.459,97.629,180.203,100.626,176.416,100.61z"/>
			<path d="M370.866,100.609c-3.708-0.058-6.887-3.077-6.832-6.491c0.056-3.571,3.858-7.328,7.35-7.264     c3.537,0.065,6.498,3.418,6.395,7.244C377.678,97.824,374.659,100.668,370.866,100.609z"/>
			<path d="M66.199,148.287c0.029,3.639-2.777,6.521-6.343,6.515c-4.016-0.006-7.258-2.921-7.291-6.554     c-0.033-3.611,2.946-6.564,6.671-6.612C63.073,141.587,66.169,144.544,66.199,148.287z"/>
			<path d="M150.454,51.161c-0.013,3.68-2.985,6.603-6.679,6.571c-3.597-0.032-6.449-2.919-6.401-6.482     c0.049-3.603,3.139-6.657,6.706-6.626C147.623,44.653,150.467,47.571,150.454,51.161z"/>
			<path d="M43.896,411.813c-0.058,3.519-3.015,6.328-6.595,6.267c-3.611-0.061-6.506-3.116-6.442-6.798     c0.061-3.49,2.682-6.229,5.933-6.199C40.688,405.119,43.954,408.213,43.896,411.813z"/>
			<path d="M417.89,58.202c-0.049,3.621-3.021,6.493-6.648,6.423c-3.57-0.069-6.406-3-6.347-6.561c0.06-3.6,3.073-6.511,6.661-6.437     C415.124,51.701,417.938,54.622,417.89,58.202z"/>
			<path d="M21.424,326.3c-3.836,0.028-6.761-2.535-6.828-5.982c-0.066-3.409,2.761-6.21,6.261-6.203     c3.547,0.007,6.465,2.8,6.491,6.214C27.373,323.681,24.799,326.275,21.424,326.3z"/>
			<path d="M309.751,471.149c-3.419,0.01-6.187-2.753-6.166-6.153c0.021-3.291,2.597-5.847,5.906-5.858     c3.451-0.012,6.278,2.717,6.276,6.059C315.764,468.491,313.087,471.14,309.751,471.149z"/>
			<path d="M326.996,452.512c0.083-2.885,2.51-5.102,5.455-4.982c2.901,0.118,5.176,2.548,5.071,5.416     c-0.107,2.904-2.518,5.109-5.457,4.989C329.172,457.817,326.913,455.4,326.996,452.512z"/>
			<path d="M175.939,42.177c-0.036,2.758-2.347,4.937-5.205,4.91c-2.982-0.028-5.343-2.433-5.274-5.374     c0.066-2.82,2.34-4.994,5.168-4.94C173.542,36.828,175.977,39.305,175.939,42.177z"/>
			<path d="M395,114.889c0.004,3.164-1.893,5.305-4.704,5.306c-2.804,0.001-5.131-2.382-5.107-5.229     c0.025-2.856,2.324-5.183,5.147-5.209C393.147,109.731,394.996,111.766,395,114.889z"/>
			<path d="M56.515,431.053c-0.022,2.948-2.153,5.142-4.95,5.097c-2.729-0.043-4.889-2.287-4.869-5.059     c0.02-2.809,2.302-5.065,5.078-5.019C54.474,426.117,56.536,428.283,56.515,431.053z"/>
			<path d="M69.502,447.961c-2.47-0.022-4.399-1.985-4.354-4.431c0.043-2.354,1.912-4.2,4.251-4.2c2.593,0,4.869,1.951,4.861,4.165     C74.252,445.881,72.012,447.983,69.502,447.961z"/>
			<path d="M390.966,46.567c2.114-0.024,3.767,1.618,3.754,3.729c-0.013,2.037-1.607,3.668-3.642,3.725     c-2.094,0.059-3.808-1.576-3.84-3.663C387.207,48.288,388.875,46.591,390.966,46.567z"/>
		</g>
	</g>
</g>















</svg>
