<?xml version="1.0" encoding="UTF-8"?>
<!-- Generator: Adobe Illustrator 25.2.0, SVG Export Plug-In . SVG Version: 6.00 Build 0)  -->
<svg xmlns="http://www.w3.org/2000/svg" xmlns:xlink="http://www.w3.org/1999/xlink" version="1.1" id="Capa_1" x="0px" y="0px" viewBox="0 0 500 500" style="enable-background:new 0 0 500 500;" xml:space="preserve" width="512" height="512">
<g>
	<g>
		<g>
			<path d="M212.687,73.292c-5.575-0.94-11.075-0.596-16.481,1.188c-5.095,1.681-9.888,3.962-14.475,6.738     c-11.78,7.129-22.998,15.081-34.064,23.25c-6.294,4.646-13.065,8.411-20.284,11.378c-3.879,1.594-7.925,2.435-12.137,1.954     c-9.175-1.048-16.546-7.886-18.829-17.542c-1.53-6.471-1.625-13.039,0.32-19.386c2.674-8.724,9.108-13.638,17.866-15.084     c14.229-2.349,21.587,9.795,21.091,19.329c-0.105,2.027-0.521,4.151-1.316,6.007c-2.252,5.254-8.533,7.261-13.317,4.464     c-2.102-1.229-3.598-3.248-3.938-5.681c-0.171-1.227-0.056-2.482,0.259-3.677c0.329-1.249,1.249-2.116,2.356-2.725     c0.173-0.095,0.354-0.183,0.549-0.21c2.077-0.282,2.739,3.075,3.776,4.227c0.243,0.27,0.593,0.469,0.955,0.443     c0.345-0.025,0.651-0.252,0.846-0.538c0.194-0.286,0.291-0.627,0.361-0.965c0.533-2.588-0.529-5.28-1.898-7.448     c-1.697-2.688-4.745-3.79-7.722-2.708c-10.795,3.924-13.62,14.174-10.053,21.827c2.565,5.504,8.225,8.611,14.72,8.051     c4.121-0.355,7.713-2.081,11.093-4.263c5.873-3.791,11.705-7.649,17.484-11.58c4.487-3.052,8.807-6.351,13.309-9.379     c9.827-6.611,19.887-12.8,31.382-16.19c9.615-2.836,19.211-2.38,28.452,1.156c8.239,3.152,14.587,8.806,18.496,16.913     c1.918,3.979,2.575,8.148,1.721,12.484c-0.214,1.086-0.704,2.224-1.384,3.088c-1.176,1.495-3.091,1.206-3.92-0.514     c-0.474-0.984-0.672-2.096-1.074-3.12c-0.937-2.388-1.675-4.898-2.933-7.108c-3.35-5.881-11.659-7.957-17.544-4.571     c-3.257,1.874-4.743,4.795-4.759,8.467c-0.014,3.232,4.847,7.051,7.96,6.173c0.898-0.253,1.844-1.091,2.322-1.919     c0.866-1.5-0.353-3.239-2.095-3.244c-0.456-0.001-0.913,0.091-1.369,0.148c-1.165,0.144-2.228-0.045-2.941-1.074     c-0.739-1.068-0.576-2.185,0.001-3.264c1.254-2.345,4.046-3.545,6.715-2.909c5.901,1.407,9.13,8.689,6.257,14.112     c-2.477,4.675-8.418,7.324-13.812,5.992c-6.162-1.522-10.395-5.245-11.51-11.623c-1.111-6.357,1.453-11.516,6.591-15.197     c2.081-1.491,4.69-2.248,7.066-3.321c0.352-0.159,0.747-0.222,1.122-0.329C217.919,74.982,214.47,73.592,212.687,73.292z"/>
			<path d="M288.716,75.739c0.153,0.081,0.302,0.174,0.461,0.24c6.972,2.896,10.988,10.026,9.827,17.454     c-0.723,4.626-5.346,9.828-9.601,10.802c-4.912,1.124-10.82-1.15-13.661-5.258c-2.88-4.165-2.048-9.862,1.904-13.042     c3.144-2.529,8.002-1.594,9.854,2.005c0.341,0.663,0.389,1.829,0.018,2.409c-0.371,0.58-1.412,0.891-2.204,1.001     c-0.839,0.116-1.728-0.185-2.599-0.229c-1.727-0.088-2.849,1.507-2.252,3.129c0.846,2.303,5.056,4.177,7.331,2.316     c2.029-1.661,3.757-3.315,3.284-6.331c-0.568-3.623-2.456-6.043-5.843-7.374c-7.484-2.942-15.205,1.064-18.501,7.354     c-0.932,1.778-1.535,3.729-2.27,5.609c-0.183,0.469-0.177,1.056-0.464,1.43c-0.442,0.576-1.034,1.368-1.616,1.416     c-0.596,0.049-1.472-0.542-1.848-1.106c-1.164-1.743-1.539-3.799-1.208-5.82c0.36-2.202,0.815-4.466,1.712-6.488     c3.149-7.103,8.431-12.161,15.464-15.444c8.777-4.096,18.004-4.912,27.509-3.974c13.932,1.375,26.145,7.02,37.156,15.324     c6.122,4.617,11.783,9.844,17.706,14.73c5.989,4.94,12.793,8.294,20.381,9.966c3.906,0.86,7.706,0.344,11.249-1.538     c1.038-0.551,2.173-1.221,2.825-2.146c3.536-5.01,5.008-10.451,3.095-16.534c-1.425-4.531-8.898-10.466-14.303-9.709     c-4.039,0.566-7.151,4.832-6.034,8.807c0.32,1.141,1.229,1.571,2.192,1.516c0.55-0.032,1.236-0.643,1.544-1.176     c0.397-0.687,0.397-1.592,0.716-2.34c0.303-0.71,0.678-1.736,1.238-1.905c0.737-0.222,1.914-0.011,2.5,0.487     c1.556,1.322,2.405,3.131,2.354,5.233c-0.114,4.612-3.583,8.061-8.194,8.196c-6.273,0.183-10.446-3.416-11.263-9.714     c-1.036-7.983,5.222-16.501,13.137-17.772c1.343-0.216,2.82-0.355,4.11-0.031c9.221,2.313,16.453,7.073,19.442,16.653     c1.525,4.885,1.748,9.848,0.268,14.817c-3.264,10.954-12.312,17.444-23.746,16.864c-9.374-0.476-17.805-3.601-25.074-9.594     c-3.477-2.866-6.806-5.911-10.209-8.867c-8.339-7.242-17.175-13.716-27.484-17.954c-8.634-3.549-17.561-5.016-26.864-3.997     C290.076,75.223,288.722,75.646,288.716,75.739z"/>
		</g>
		<g>
			<path d="M284.563,427.386c0.988,0.346,1.956,0.774,2.968,1.023c5.693,1.4,11.395,1.444,17.047-0.175     c5.647-1.618,10.916-4.091,15.954-7.12c12.08-7.262,23.46-15.549,34.926-23.71c6.133-4.365,12.558-8.193,19.547-11.016     c4.881-1.971,9.932-2.882,15.114-1.447c8.76,2.425,13.735,8.566,15.907,17.081c1.631,6.393,1.62,12.938-0.29,19.246     c-2.647,8.74-9.062,13.73-17.819,15.126c-14.418,2.298-21.389-9.275-21.097-19.707c0.059-2.091,0.635-4.331,1.57-6.203     c2.617-5.239,9.37-6.707,13.913-3.259c3.284,2.492,3.7,6.394,2.521,9.708c-0.825,2.319-2.843,2.645-4.417,0.81     c-0.68-0.793-1.12-1.787-1.746-2.634c-0.295-0.398-0.857-0.99-1.145-0.914c-0.481,0.127-1.103,0.666-1.197,1.127     c-0.216,1.058-0.381,2.227-0.141,3.252c0.34,1.453,0.898,2.913,1.656,4.198c1.793,3.04,5.036,4.345,8.326,3.113     c10.119-3.79,13.387-12.761,10.331-20.97c-2.283-6.131-8.186-9.51-15.102-8.884c-4.202,0.38-7.951,1.994-11.369,4.304     c-9.791,6.617-19.515,13.335-29.25,20.036c-10.227,7.04-20.813,13.394-32.796,17.033c-9.594,2.914-19.204,2.418-28.45-1.099     c-8.294-3.155-14.675-8.837-18.589-17.002c-1.888-3.938-2.541-8.066-1.7-12.354c0.221-1.127,0.733-2.31,1.444-3.203     c1.141-1.435,3.021-1.144,3.836,0.503c0.483,0.978,0.702,2.084,1.088,3.114c0.803,2.147,1.436,4.389,2.497,6.403     c3.584,6.803,11.627,8.306,17.673,5.618c3.693-1.642,5.351-4.799,5.358-8.77c0.006-3.424-5.179-7.22-8.385-6.086     c-0.887,0.314-1.79,1.181-2.229,2.031c-0.736,1.423,0.454,3.027,2.064,3.072c0.365,0.01,0.737-0.026,1.097-0.09     c1.357-0.242,2.592-0.114,3.406,1.169c0.676,1.065,0.428,2.555-0.586,3.84c-1.894,2.401-4.869,3.015-7.838,1.619     c-6.657-3.132-7.708-12.144-1.948-16.889c2.72-2.241,5.896-3.211,9.384-2.899c8.963,0.802,15.54,9.298,12.935,18.181     c-1.97,6.718-6.79,10.363-13.266,12.189c-0.39,0.11-0.783,0.209-1.174,0.312C284.584,427.171,284.574,427.278,284.563,427.386z"/>
			<path d="M214.071,426.606c-0.567-0.258-0.802-0.375-1.045-0.474c-6.845-2.782-10.894-10.392-9.314-17.639     c0.773-3.545,2.688-6.492,5.511-8.689c3.844-2.991,8.153-2.574,12.31-0.81c3.82,1.62,6.387,4.51,6.883,8.802     c0.486,4.205-2.648,8.952-6.294,9.753c-2.786,0.612-5.88-0.709-7.154-3.253c-0.338-0.675-0.43-1.865-0.049-2.404     c0.425-0.602,1.493-0.89,2.328-1.021c0.789-0.124,1.636,0.166,2.461,0.213c1.794,0.101,2.915-1.552,2.246-3.224     c-0.802-2.004-4.762-4.186-7.227-2.078c-2.022,1.729-3.593,3.463-3.041,6.44c0.632,3.405,2.326,5.833,5.577,7.126     c7.498,2.983,15.361-1.148,18.63-7.613c0.967-1.913,1.576-4.011,2.289-6.046c0.357-1.021,0.61-2.15,1.916-2.223     c1.259-0.07,1.833,0.918,2.261,1.916c1.245,2.902,1.088,5.886,0.128,8.779c-2.804,8.454-8.444,14.406-16.446,18.19     c-8.802,4.162-18.082,4.966-27.637,4.018c-13.883-1.378-26.07-6.986-37.038-15.268c-6.229-4.703-11.974-10.045-17.972-15.057     c-5.865-4.901-12.593-8.092-20.04-9.711c-4.007-0.871-7.901-0.29-11.474,1.756c-1.172,0.671-2.383,1.535-3.148,2.615     c-5.062,7.149-4.99,16.93,2.907,22.495c2.685,1.892,5.425,3.396,8.905,3.058c3.905-0.379,7.176-5.263,5.701-8.928     c-0.265-0.659-1.342-1.191-2.132-1.356c-0.414-0.086-1.192,0.657-1.497,1.2c-0.39,0.693-0.381,1.599-0.704,2.344     c-0.307,0.706-0.695,1.682-1.275,1.884c-0.68,0.237-1.817,0.021-2.386-0.448c-1.583-1.304-2.441-3.104-2.424-5.2     c0.038-4.59,3.507-8.114,8.101-8.287c6.694-0.253,11.454,4.295,11.73,11.206c0.335,8.395-7.726,16.653-16.105,16.447     c-1.136-0.028-2.315-0.179-3.391-0.528c-11.591-3.768-19.484-12.449-18.45-25.787c0.967-12.477,8.552-20.149,19.674-21.913     c6.144-0.974,12.098,0.347,17.853,2.486c4.87,1.81,9.238,4.486,13.197,7.885c6.036,5.182,12.006,10.461,18.298,15.32     c8.605,6.644,18.128,11.591,28.904,13.764c5.354,1.08,10.76,1.386,16.199,0.702c0.456-0.057,0.91-0.134,1.363-0.212     C213.373,426.805,213.543,426.746,214.071,426.606z"/>
		</g>
	</g>
	<path d="M63.704,81.693c0.111-4.44,0.827-9.285,3.144-13.756c1.704-3.288,4.142-5.883,7.731-7.104   c5.755-1.959,11.808,1.027,13.753,6.84c1.55,4.634,1.838,9.457,1.57,14.303c-0.348,6.283-0.904,12.555-1.154,18.841   c-0.252,6.31,1.494,12.166,4.604,17.647c0.105,0.186,0.187,0.385,0.254,0.593c0.332,1.029-0.367,2.131-1.445,2.219   c-0.284,0.023-0.563,0.021-0.834-0.029c-3.25-0.598-6.004-2.344-8.49-4.378c-7.952-6.505-13.947-14.464-17.409-24.22   C64.231,89.276,63.721,85.791,63.704,81.693z"/>
	<g>
		<path d="M62.315,267.545c-16.498,0.022-29.638-2.976-41.89-9.511c-6.419-3.424-11.848-8.054-15.975-14.11    c-2.724-3.998-4.463-8.35-4.45-13.253c0.018-6.851,5.721-12.853,12.558-13.45c7.063-0.616,13.059,2.139,18.325,6.299    c4.818,3.806,9.266,8.122,13.598,12.491c5.166,5.211,10.609,10.058,16.617,14.26c6.408,4.482,13.319,7.954,20.851,10.136    c0.664,0.192,1.7,0.228,2.193,0.794c0.389,0.447,0.267,1.667-0.213,2.038c-0.877,0.678-1.949,1.188-3.017,1.524    C74.002,266.939,66.886,267.615,62.315,267.545z"/>
		<path d="M36.408,311.338c-0.001-9.443,4.331-16.874,11.016-23.07c6.345-5.88,13.893-9.545,22.384-11.226    c1.48-0.293,2.987-0.615,4.48-0.611c0.799,0.002,2.359,0.487,2.597,1.374c0.126,0.47-0.089,1.248-0.406,1.619    c-6.548,7.684-10.101,16.901-13.61,26.162c-1.692,4.465-3.478,8.902-5.45,13.249c-0.977,2.154-2.297,4.212-3.771,6.068    c-3.198,4.026-7.039,4.361-11.05,1.161c-4.504-3.594-5.912-8.572-6.189-14.038C36.397,311.797,36.407,311.566,36.408,311.338z"/>
		<path d="M41.865,184.507c3.172,0.152,5.888,1.649,7.57,4.4c1.809,2.959,3.384,6.114,4.636,9.348    c1.855,4.794,3.344,9.731,4.974,14.612c2.159,6.465,4.537,12.826,8.316,18.57c0.893,1.357,0.49,2.015-1.15,1.939    c-0.7-0.033-1.459-0.29-2.062-0.657c-3.102-1.888-6.308-3.651-9.212-5.814c-10.022-7.463-17.455-16.79-20.26-29.275    c-0.715-3.183-0.617-6.315,0.965-9.26C36.936,185.964,38.892,184.541,41.865,184.507z"/>
	</g>
	<g>
		<path d="M437.32,267.546c-4.279,0.057-11.349-0.606-18.217-2.769c-1.033-0.325-2.101-0.748-2.937-1.402    c-0.437-0.342-0.589-1.308-0.506-1.944c0.042-0.322,0.872-0.594,1.384-0.792c4.226-1.641,8.609-2.958,12.663-4.945    c9-4.411,16.685-10.677,23.797-17.701c4.643-4.586,9.352-9.115,14.219-13.459c4.074-3.637,8.925-5.992,14.29-7.112    c8.7-1.816,16.493,3.169,17.796,11.561c0.816,5.251-1.077,9.984-3.887,14.323c-4.089,6.315-9.634,11.096-16.217,14.635    C467.386,264.565,454.158,267.571,437.32,267.546z"/>
		<path d="M463.596,311.852c-0.158,4.08-0.97,8.402-3.971,11.937c-1.137,1.34-2.571,2.525-4.08,3.429    c-2.772,1.659-5.536,1.333-7.851-0.908c-1.337-1.295-2.502-2.827-3.487-4.412c-3.201-5.15-5.045-10.91-7.21-16.523    c-1.173-3.043-2.329-6.095-3.579-9.107c-2.444-5.887-5.449-11.453-9.595-16.349c-0.622-0.734-1.368-1.563-0.629-2.57    c0.725-0.989,1.816-1.097,2.987-0.881c1.169,0.216,2.372,0.254,3.534,0.497c12.875,2.685,23.31,8.989,30.189,20.498    C462.47,301.754,463.487,306.478,463.596,311.852z"/>
		<path d="M465.368,191.284c0.379,1.812,0.375,3.69,0.052,5.513c-0.948,5.353-2.841,10.331-5.884,14.828    c-4.943,7.306-10.853,13.689-18.692,18.044c-1.646,0.914-3.206,1.984-4.827,2.947c-0.506,0.301-1.076,0.66-1.627,0.678    c-0.235,0.008-0.472-0.016-0.709-0.058c-0.957-0.167-1.442-1.251-0.915-2.067l0.01-0.015c5.435-8.324,7.858-17.874,11.116-27.089    c1.453-4.109,3.048-8.173,4.752-12.185c0.938-2.21,2.401-4.138,4.403-5.567c5.072-3.62,10.508-1.719,12.155,4.281    C465.265,190.822,465.319,191.052,465.368,191.284z"/>
	</g>
	<g>
		<g>
			<path d="M140.609,340.878c7.835,0.109,15.546-0.017,23.161-1.579c15.412-3.161,30.653-6.947,45.317-12.75     c11.859-4.693,23.179-10.518,34.367-16.609c1.047-0.57,2.123-1.118,3.243-1.515c1.701-0.603,2.467-0.034,2.999,1.702     c1.092,3.57,0.266,7.136-0.027,10.668c-0.891,10.77-2.162,21.511-2.937,32.288c-0.477,6.64-0.316,13.326-0.441,19.991     c-0.002,0.092,0.007,0.184,0.011,0.276c0.184,4.48-0.783,5.306-5.245,5.103c-16.449-0.746-32.899-1.842-49.355-1.973     c-14.843-0.118-29.698,0.782-44.542,1.37c-9.053,0.359-18.107,0.828-27.14,1.52c-9.166,0.702-18.304,1.755-27.458,2.618     c-3.018,0.285-6.043,0.509-9.07,0.662c-1.695,0.086-1.782-0.1-1.247-1.686c2.201-6.531,4.377-13.071,6.629-19.585     c4.278-12.372,5.978-25.201,6.734-38.183c1.97-33.859,1.398-67.692-1.382-101.485c-2.068-25.136-5.397-50.117-9.733-74.963     c-0.308-1.766-0.667-3.523-1.026-5.279c-0.646-3.162,0.519-4.762,3.77-4.955c1.602-0.095,3.218,0,4.826,0.057     c12.832,0.456,25.663,0.772,38.476-0.398c3.618-0.33,7.22-0.834,10.834-1.208c3.277-0.34,4.805,1.446,3.855,4.626     c-1.21,4.047-2.796,7.993-3.802,12.086c-2.382,9.685-3.076,19.609-3.731,29.529c-1.747,26.472-1.552,52.969-0.897,79.464     c0.44,17.796,1.046,35.591,1.79,53.378c0.303,7.254,1.178,14.484,1.769,21.727C140.489,337.421,140.522,339.073,140.609,340.878z      M115.175,251.419c0.586,19.723,1.275,36.043,1.497,52.369c0.212,15.591-0.067,31.188-0.114,46.782     c-0.003,1.054,0.066,2.117,0.22,3.158c0.053,0.359,0.308,0.968,0.722,0.992c0.429,0.025,0.785-0.578,0.86-0.934     c0.228-1.075,0.376-2.181,0.413-3.279c0.374-11.123,0.848-22.244,1.042-33.371c0.275-15.729,0.304-31.462,0.497-47.193     c0.339-27.702-0.694-55.378-1.664-83.052c-0.309-8.82-1.041-17.626-1.601-26.437c-0.096-1.51-0.255-3.02-0.489-4.513     c-0.057-0.364-0.374-0.995-0.806-0.993c-0.47,0.002-0.791,0.685-0.866,1.088c-0.185,0.987-0.244,2.01-0.238,3.018     c0.035,5.612,0.195,11.224,0.147,16.835C114.572,202.202,114.326,228.514,115.175,251.419z M198.245,351.355     c-5.429,0.214-10.022,0.46-14.619,0.566c-15.222,0.35-30.236,2.355-45.097,5.581c-2.151,0.467-4.276,1.073-6.383,1.713     c-0.429,0.13-1.177,0.576-1.077,1.08c0.095,0.478,0.898,0.57,1.339,0.559c2.341-0.061,4.682-0.19,7.019-0.349     c14.313-0.969,28.622-1.993,42.938-2.918c13.903-0.899,27.814-1.688,41.719-2.561c1.46-0.092,2.924-0.338,4.346-0.679     c0.473-0.113,1.173-0.776,1.142-1.134c-0.044-0.512-0.569-1.199-1.059-1.406c-0.774-0.327-1.69-0.432-2.547-0.435     C216.447,351.345,206.929,351.355,198.245,351.355z"/>
			<path d="M322.869,330.988c4.308-0.504,8.483-0.796,12.587-1.505c19.88-3.436,38.828-9.744,56.896-18.721     c2.092-1.039,4.27-1.944,6.481-2.694c2.356-0.799,3.292,0.168,3.938,2.536c1.272,4.659-0.097,9.132-0.725,13.601     c-2.05,14.583-2.946,29.187-1.857,43.891c0.085,1.142,0.105,2.309-0.033,3.442c-0.254,2.09-1.565,3.095-3.652,2.779     c-1.586-0.24-3.155-0.628-4.709-1.036c-16.036-4.21-32.342-5.478-48.847-4.4c-17.821,1.164-35.554,3.149-53.176,6.06     c-4.168,0.688-8.257,1.856-12.427,2.524c-2.052,0.329-4.226,0.199-6.31-0.038c-3.06-0.348-3.977-2.078-2.902-4.981     c4.615-12.463,8.835-25.064,11.578-38.075c2.066-9.801,3.774-19.691,5.263-29.598c1.906-12.685,3.702-25.399,5.051-38.153     c1.637-15.475,1.642-31.048,1.762-46.597c0.183-23.648,0.116-47.295-1.442-70.907c-0.415-6.282-0.919-12.575-2.848-18.637     c-0.256-0.805,0.044-1.077,0.854-1.321c4.768-1.433,9.711-1.414,14.594-1.766c12.525-0.904,25.069-1.567,37.508-3.411     c2.502-0.371,4.995-0.797,7.498-1.157c1.12-0.161,2.14,0.102,2.732,1.17c0.553,0.998,0.342,1.995-0.331,2.841     c-5.247,6.592-7.855,14.406-10.205,22.302c-4.043,13.585-6.15,27.548-7.47,41.618c-1.632,17.403-2.975,34.834-4.5,52.247     c-1.1,12.554-2.371,25.094-3.427,37.652c-1.369,16.276-2.383,32.573-2.017,48.924     C322.742,329.89,322.792,330.201,322.869,330.988z M310.628,135.531c-0.18-0.116-0.487-0.076-0.638,0.076     c-0.581,0.583-0.259,1.633-0.275,2.452c-0.183,9.242-0.256,18.488-0.528,27.727c-0.789,26.897-1.645,53.793-2.494,80.689     c-0.547,17.332-1.027,34.667-1.727,51.992c-0.468,11.578-1.26,23.142-1.927,34.711c-0.317,5.505-0.684,11.008-1.02,16.512     c-0.117,1.926-0.248,3.852-0.284,5.779c-0.007,0.401,0.135,1.157,0.585,1.213c0.457,0.057,0.623-0.681,0.902-1.046     c0.104-0.136,0.135-0.342,0.159-0.522c0.49-3.735,1.086-7.461,1.435-11.209c0.524-5.628,0.82-11.277,1.313-16.909     c0.586-6.686,1.391-13.355,1.901-20.046c1.049-13.757,2.146-27.513,2.89-41.288c0.93-17.222,1.695-34.457,2.221-51.695     c0.69-22.588-0.662-45.155-1.175-67.731c-0.062-2.707-0.292-5.415-0.552-8.112C311.327,137.243,311.388,136.022,310.628,135.531z      M376.571,341.377c-1.177,0-2.473-0.098-3.749,0.017c-6.224,0.561-12.458,1.052-18.659,1.803c-11.617,1.407-23.026,3.777-34,7.96     c-1.071,0.408-2.154,0.822-3.147,1.383c-0.432,0.244-1.132,0.791-0.968,1.316c0.164,0.522,1.042,0.566,1.537,0.524     c1.137-0.094,2.267-0.354,3.384-0.614c5.633-1.313,11.215-2.912,16.901-3.923c16.099-2.864,32.358-4.19,48.704-4.478     c0.777-0.014,1.584-0.04,2.314-0.264c0.448-0.138,1.061-0.645,1.087-1.022c0.033-0.481-0.329-1.193-0.742-1.451     c-0.591-0.368-1.374-0.525-2.089-0.578C383.66,341.793,380.173,341.6,376.571,341.377z"/>
			<path d="M160.263,206.968c0.068-14.402,2.757-32.96,10.08-50.658c4.059-9.81,9.288-18.898,16.916-26.434     c3.324-3.284,6.986-6.126,11.164-8.25c10.812-5.496,21.509-5.242,32.011,0.817c7.627,4.4,13.366,10.739,18.052,18.087     c7.102,11.137,11.65,23.329,14.431,36.169c5.888,27.191,4.737,54.09-3.969,80.565c-3.516,10.692-8.556,20.624-15.773,29.348     c-4.08,4.932-8.769,9.182-14.433,12.242c-10.717,5.791-21.447,5.76-32.132-0.096c-7.609-4.17-13.345-10.324-18.144-17.414     c-7.245-10.702-11.582-22.623-14.474-35.123C161.358,234.831,160.254,223.27,160.263,206.968z M224.518,201.657     c0-3.586,0.094-7.176-0.017-10.759c-0.391-12.649-1.131-25.277-3.689-37.705c-0.727-3.532-1.968-6.968-3.135-10.393     c-0.292-0.857-1.213-1.499-1.845-2.24c-0.633,0.723-1.511,1.346-1.853,2.188c-0.948,2.332-1.856,4.711-2.455,7.151     c-3.071,12.507-4.235,25.279-5.002,38.09c-1.106,18.478-1.063,36.953,0.526,55.407c0.667,7.744,1.521,15.47,3.631,22.981     c0.616,2.194,1.477,4.346,2.467,6.4c0.753,1.562,1.587,1.567,2.449,0.035c0.985-1.748,1.859-3.6,2.48-5.504     c2.161-6.622,3.257-13.482,4.106-20.37C224.038,231.904,224.715,216.798,224.518,201.657z M228.924,276.059     c1.745-0.64,2.441-1.12,3.538-3.293c3.105-6.148,6.429-12.218,9.03-18.58c4.692-11.476,6.917-23.615,8.379-35.876     c1.877-15.734,0.081-31.207-3.779-46.481c-2.247-8.892-5.269-17.506-9.799-25.536c-1.658-2.939-3.79-5.432-6.679-7.196     c-0.634-0.387-1.485-0.42-2.235-0.616c0.272,0.712,0.365,1.591,0.846,2.109c3.304,3.56,5.221,7.866,6.784,12.358     c1.193,3.427,2.333,6.874,3.383,10.347c4.893,16.195,7.645,32.729,6.316,49.654c-0.754,9.602-2.515,19.128-3.9,28.677     c-1.172,8.08-3.042,15.973-6.706,23.348c-1.43,2.878-2.793,5.789-4.172,8.692C229.611,274.334,229.353,275.031,228.924,276.059z      M203.502,134.801c-0.096-0.156-0.191-0.312-0.287-0.469c-0.663,0.373-1.456,0.619-1.965,1.142     c-1.985,2.039-4.055,4.033-5.779,6.283c-8.814,11.504-13.561,24.786-16.254,38.825c-2.49,12.981-2.807,26.125-2.024,39.312     c1.167,19.649,7.418,37.578,18.056,54.049c0.621,0.961,1.316,1.9,2.117,2.71c0.467,0.472,1.214,0.667,1.835,0.986     c0.11-0.15,0.22-0.301,0.331-0.452c-0.314-0.532-0.608-1.077-0.946-1.592c-6.849-10.439-11.676-21.777-13.536-34.095     c-2.604-17.248-2.952-34.644-1.316-52.02c1.233-13.101,4.135-25.878,9.016-38.123c2.388-5.991,5.367-11.713,10.465-15.989     C203.365,135.243,203.409,134.993,203.502,134.801z"/>
		</g>
		<g>
			<path d="M375.839,263.934c-4.657,0.064-6.313-1.679-5.833-5.284c5.164-38.795,6.647-77.794,6.507-116.884     c-0.015-4.278-0.013-8.556-0.01-12.834c0-0.782,0.009-1.566,0.075-2.344c0.243-2.892,1.512-3.767,4.376-3.555     c8.067,0.598,16.145,1.045,24.215,1.599c1.391,0.095,2.777,0.368,4.145,0.659c1.219,0.259,1.576,1.233,1.449,2.328     c-0.369,3.194-0.732,6.392-1.231,9.567c-2.094,13.306-4.611,26.559-6.274,39.917c-2.511,20.17-4.664,40.394-5.555,60.718     c-0.225,5.142-0.049,10.301-0.076,15.452c-0.008,1.517-0.034,3.037-0.141,4.55c-0.186,2.631-1.235,3.695-3.858,3.957     c-3.798,0.38-7.606,0.666-11.396,1.112C379.771,263.183,377.335,263.685,375.839,263.934z M382.765,251.179     c0.046-0.001,0.09-0.025,0.129-0.05c0.658-0.41,1.193-1.008,1.547-1.696c0.385-0.748,0.457-1.535,0.55-2.356     c0.078-0.688,0.127-1.379,0.186-2.069c0.088-1.027,0.21-2.047,0.307-3.072c0.246-2.607,0.479-5.215,0.707-7.824     c1.422-16.302,2.853-32.604,4.226-48.91c1.13-13.422,2.193-26.849,3.256-40.277c0.149-1.875,0.173-3.764,0.147-5.644     c-0.005-0.396-0.274-1.128-0.742-1.178c-0.461-0.05-0.747,0.598-0.975,0.983c-0.225,0.381-0.311,0.866-0.372,1.317     c-0.956,7.007-2.09,13.996-2.809,21.027c-2.811,27.494-4.771,55.055-6.26,82.65c-0.063,1.172-0.169,2.342-0.215,3.515     c-0.045,1.121-0.029,2.244,0.149,3.353C382.611,251.045,382.649,251.164,382.765,251.179z"/>
			<path d="M382.75,299.304c-7.036-0.009-12.906-5.913-12.899-12.974c0.006-6.638,5.789-12.361,12.501-12.373     c7.052-0.012,12.936,5.947,12.94,13.105C395.296,293.796,389.644,299.313,382.75,299.304z"/>
		</g>
	</g>
	<g>
		<path d="M249.847,27.928c5.431,1.559,7.214,5.905,8.276,10.813c1.46,6.746,0.874,13.465-0.638,20.074    c-1.388,6.065-3.216,12.03-4.901,18.025c-0.186,0.663-0.565,1.515-1.102,1.785c-1.049,0.528-1.983,0.001-2.445-1.087    c-0.7-1.647-1.404-3.298-1.987-4.988c-2.486-7.204-5.18-14.352-6.467-21.906c-0.848-4.974-1.088-9.97,0.182-14.912    c0.778-3.026,2.203-5.668,5.222-7.063c0.7-0.323,1.468-0.498,2.205-0.742C248.743,27.928,249.295,27.928,249.847,27.928z"/>
		<path d="M285.586,45.013c1.672,0.463,3.009,1.216,4.152,2.432c3.244,3.452,1.979,7.74-2.507,9.26    c-2.406,0.815-4.904,1.363-7.316,2.167c-5.504,1.835-10.905,3.926-15.511,7.588c-0.84,0.668-1.601,1.425-2.37,2.172    c-0.696,0.675-1.384,1.449-2.289,1.842c-0.136,0.059-0.29,0.111-0.43,0.06c-0.081-0.029-0.146-0.09-0.206-0.152    c-0.769-0.803-0.73-1.812-0.427-2.797c0.316-1.031,0.611-2.064,0.98-3.079c0.712-1.957,1.585-3.857,2.627-5.661    c2.052-3.551,4.764-6.692,7.975-9.243c1.37-1.088,2.825-2.07,4.34-2.945c1.412-0.816,3.027-1.28,4.452-1.638    C281.199,44.479,283.457,44.423,285.586,45.013z"/>
		<path d="M219.41,42.784c5.531,0.424,10.124,2.782,13.325,7.277c4.129,5.799,6.886,12.224,7.545,19.42    c0.084,0.912,0.174,1.831-0.874,2.203c-1.049,0.373-1.6-0.366-2.062-1.161c-3.218-5.534-7.895-9.344-13.78-11.771    c-2.333-0.962-4.608-2.063-6.907-3.109c-0.375-0.171-0.738-0.372-1.098-0.575c-3.193-1.808-4.631-4.336-3.978-6.981    c0.702-2.842,3.706-5.118,7.002-5.301C218.858,42.771,219.134,42.784,219.41,42.784z"/>
	</g>
	<g>
		<path d="M251.78,472.072c-5.432-1.559-7.214-5.905-8.276-10.813c-1.46-6.745-0.874-13.465,0.638-20.074    c1.388-6.065,3.216-12.03,4.901-18.025c0.186-0.663,0.565-1.515,1.102-1.785c1.049-0.528,1.983-0.001,2.445,1.087    c0.7,1.647,1.404,3.298,1.987,4.988c2.486,7.204,5.18,14.352,6.467,21.906c0.848,4.974,1.088,9.969-0.182,14.912    c-0.778,3.026-2.202,5.668-5.222,7.063c-0.7,0.323-1.468,0.499-2.205,0.742C252.884,472.072,252.332,472.072,251.78,472.072z"/>
		<path d="M219.183,455.539c-2.676-0.174-5.035-0.831-6.936-2.621c-3.51-3.305-2.525-8.042,2.029-9.586    c4.214-1.429,8.506-2.636,12.686-4.152c4.164-1.511,8.042-3.626,11.422-6.539c0.969-0.835,1.776-1.855,2.722-2.72    c0.315-0.288,0.948-0.6,1.228-0.467c0.396,0.189,0.849,0.791,0.834,1.2c-0.035,0.991-0.227,2.005-0.529,2.953    c-2.592,8.124-7.437,14.548-14.59,19.222C225.308,454.62,222.22,455.197,219.183,455.539z"/>
		<path d="M282.193,457.224c-5.526-0.448-10.119-2.803-13.315-7.305c-4.122-5.805-6.878-12.228-7.533-19.425    c-0.083-0.918-0.154-1.833,0.9-2.188c1.051-0.354,1.592,0.4,2.053,1.192c3.195,5.488,7.831,9.281,13.663,11.706    c2.373,0.987,4.692,2.102,7.033,3.164c0.334,0.152,0.658,0.328,0.978,0.507c3.275,1.828,4.743,4.381,4.067,7.062    c-0.729,2.891-3.772,5.14-7.157,5.287C282.653,457.233,282.422,457.224,282.193,457.224z"/>
	</g>
	<g>
		<path d="M445.369,428.775c-0.088,3.864-0.766,8.339-2.667,12.565c-1.257,2.797-3.108,5.133-5.715,6.845    c-6.021,3.955-14.003,1.076-16.273-5.761c-1.532-4.613-1.806-9.417-1.531-14.243c0.356-6.236,0.899-12.464,1.15-18.703    c0.256-6.358-1.491-12.258-4.629-17.78c-0.004-0.007-0.008-0.014-0.012-0.022c-0.725-1.309,0.475-2.92,1.959-2.726    c0.053,0.007,0.105,0.015,0.157,0.025c3.288,0.636,6.072,2.413,8.589,4.487c7.628,6.284,13.445,13.931,16.954,23.243    C444.729,420.363,445.379,424.145,445.369,428.775z"/>
		<path d="M437.631,389.642c-3.699-0.202-7.599-0.724-10.99-3.061c-0.745-0.514-1.457-1.139-2.016-1.846    c-0.762-0.962-0.449-1.942,0.646-2.487c0.163-0.081,0.338-0.15,0.515-0.189c5.215-1.148,9.709-3.804,14.116-6.674    c1.612-1.05,3.306-2.013,5.065-2.781c1.188-0.518,2.561-0.889,3.842-0.865c3.734,0.072,6.178,2.853,6.01,6.618    c-0.163,3.652-1.926,6.368-5.04,8.194C446.126,388.694,442.129,389.598,437.631,389.642z"/>
	</g>
	<g>
		<path d="M441.381,67.948c0.285,2.327,0.329,4.686-0.019,7.004c-1.043,6.955-4.151,13.115-8.233,18.844    c-3.989,5.598-8.555,10.742-14.745,14.07c-1.596,0.858-3.372,1.422-5.12,1.933c-0.597,0.174-1.648-0.01-1.965-0.429    c-0.29-0.383-0.049-1.406,0.27-1.972c2.253-4.001,4.215-8.167,4.536-12.763c0.316-4.518,0.192-9.086-0.024-13.618    c-0.284-5.958-1.31-11.895-0.584-17.875c0.281-2.314,0.641-4.665,1.354-6.873c2.397-7.417,10.918-9.972,17.123-5.237    c3.757,2.867,5.587,6.898,6.548,11.344C440.919,64.21,441.152,66.079,441.381,67.948z"/>
		<path d="M450.965,120.499c0.034,4.558-4.006,7.596-8.407,6.052c-2.355-0.826-4.6-2.097-6.714-3.45    c-4.356-2.786-8.78-5.335-13.878-6.554c-1.846-0.441-2.156-1.797-0.812-3.177c2.206-2.265,5.046-3.257,8.071-3.86    c5.712-1.139,11.166-0.424,16.298,2.335C449.054,113.743,450.938,116.848,450.965,120.499z"/>
	</g>
	<path d="M54.252,131.973c0.111-3.026,1.335-5.501,3.701-7.392c6.1-4.878,18.065-5.345,24.506-0.937   c0.711,0.487,1.394,1.072,1.935,1.738c0.856,1.054,0.519,2.112-0.725,2.659c-0.084,0.037-0.171,0.069-0.261,0.088   c-5.461,1.168-10.09,4.06-14.724,6.99c-1.89,1.195-3.902,2.308-6.005,3.029C58.204,139.679,54.145,136.599,54.252,131.973z"/>
	<g>
		<path d="M60.835,447.852c-1.97-9.116-0.344-18.69,4.347-26.75c0.981-1.686,2.064-3.33,3.223-4.94    c3.962-5.502,8.482-10.564,14.594-13.837c1.558-0.834,3.284-1.403,4.992-1.886c0.637-0.181,1.638,0.019,2.097,0.448    c0.277,0.259,0,1.389-0.322,1.962c-2.253,4.001-4.202,8.171-4.525,12.767c-0.315,4.473-0.207,8.996,0.016,13.482    c0.296,5.958,1.327,11.893,0.603,17.874c-0.285,2.36-0.641,4.759-1.37,7.009c-2.381,7.35-10.847,9.911-17.03,5.261    c-3.778-2.841-5.631-6.861-6.605-11.307C60.846,447.907,60.841,447.88,60.835,447.852z"/>
		<path d="M67.811,401.242c-4.784-0.068-8.735-0.971-12.351-3.082c-2.966-1.731-4.734-4.288-5.037-7.768    c-0.429-4.931,3.687-8.352,8.38-6.727c2.314,0.802,4.515,2.06,6.594,3.383c4.399,2.798,8.85,5.399,13.998,6.621    c1.841,0.437,2.142,1.8,0.796,3.182c-2.352,2.416-5.405,3.398-8.615,3.956C70.133,401.059,68.661,401.148,67.811,401.242z"/>
	</g>
	<path d="M446.32,160.449c0.025-3.826,2.815-6.751,6.401-6.712c3.652,0.039,6.971,3.484,6.955,7.216   c-0.016,3.6-2.926,6.507-6.501,6.494C449.343,167.433,446.295,164.321,446.32,160.449z"/>
	<path d="M53.651,160.526c-0.007,3.862-3.098,6.948-6.932,6.921c-3.57-0.025-6.444-2.964-6.424-6.571   c0.02-3.732,3.373-7.136,7.032-7.139C50.902,153.733,53.659,156.693,53.651,160.526z"/>
	<path d="M32.018,347.5c0.047-2.785,1.714-5.19,4.201-6.058c2.403-0.839,5.084-0.104,6.751,1.852   c1.888,2.214,1.838,5.266-0.133,7.399c-0.373,0.404-0.785,0.774-1.183,1.155c-1.797,1.716-3.853,2.276-6.196,1.293   C33.262,352.22,31.975,350.06,32.018,347.5z"/>
	<path d="M467.972,347.715c-0.109,2.501-1.16,4.436-3.524,5.444c-2.278,0.972-4.311,0.402-6.08-1.262   c-0.167-0.157-0.333-0.316-0.499-0.475c-2.279-2.177-2.845-4.531-1.664-6.921c1.186-2.401,3.85-3.751,6.545-3.315   c2.648,0.428,4.75,2.641,5.137,5.42C467.938,346.968,467.944,347.337,467.972,347.715z"/>
	<path d="M355.268,65.372c3.114-0.029,5.559,2.062,5.546,4.742c-0.013,2.863-2.415,5.32-5.232,5.352   c-3.077,0.035-5.89-2.445-5.9-5.2C349.671,67.519,352.088,65.402,355.268,65.372z"/>
	<path d="M352.392,427.286c2.682,0.019,5.515,3.037,5.522,5.882c0.006,2.65-2.149,4.729-4.888,4.717   c-3.01-0.013-5.708-2.685-5.67-5.615C347.392,429.542,349.69,427.267,352.392,427.286z"/>
	<path d="M148.127,433.514c-2.584,0.054-4.491-1.684-4.543-4.14c-0.059-2.783,2.774-5.713,5.602-5.793   c2.614-0.074,4.753,1.974,4.83,4.624C154.108,431.337,151.777,433.438,148.127,433.514z"/>
	<path d="M183.067,400.09c2.741-0.025,4.997,1.962,5.02,4.421c0.023,2.543-2.347,5.003-4.861,5.045   c-2.673,0.045-5.157-2.294-5.171-4.868C178.041,402.132,180.237,400.116,183.067,400.09z"/>
	<path d="M144.953,67.057c0.043-2.657,2.22-4.715,4.944-4.675c2.662,0.039,4.747,2.17,4.666,4.769   c-0.082,2.654-2.375,4.839-5.055,4.819C146.985,71.951,144.909,69.713,144.953,67.057z"/>
	<path d="M309.967,407.952c-0.028-2.651,2.132-4.791,4.821-4.777c2.612,0.014,4.307,1.981,4.307,5.002c0,2.435-1.89,4.36-4.34,4.421   C312.155,412.663,309.994,410.566,309.967,407.952z"/>
	<path d="M316.052,91.369c2.485-0.004,4.581,1.881,4.618,4.153c0.037,2.336-2.402,4.628-4.912,4.614   c-2.436-0.014-4.374-1.856-4.395-4.177C311.341,93.479,313.494,91.372,316.052,91.369z"/>
	<path d="M181.341,95.579c-0.025-2.504,1.932-4.507,4.405-4.508c2.292-0.001,4.158,1.807,4.195,4.064   c0.044,2.636-1.892,4.854-4.249,4.868C183.321,100.018,181.365,98.028,181.341,95.579z"/>
</g>















</svg>
