<?xml version="1.0" encoding="UTF-8"?>
<!-- Generator: Adobe Illustrator 25.2.0, SVG Export Plug-In . SVG Version: 6.00 Build 0)  -->
<svg xmlns="http://www.w3.org/2000/svg" xmlns:xlink="http://www.w3.org/1999/xlink" version="1.1" id="Capa_1" x="0px" y="0px" viewBox="0 0 500 500" style="enable-background:new 0 0 500 500;" xml:space="preserve" width="512" height="512">
<g>
	<g>
		<path d="M472.935,195.935c0.454,0.894,0.465,1.97-0.033,2.84c-0.057,0.1-0.117,0.196-0.182,0.288    c-5.1,7.244-8.102,15.368-10.078,23.927c-0.23,0.998-1.081,2.647-2.211,2.846c-0.754,0.133-1.824-0.488-2.471-1.086    c-0.649-0.599-1.015-1.547-1.388-2.394c-3.286-7.47-7.708-14.173-13.319-20.111c-2.17-2.296-2.174-3.863-0.381-6.408    c5.011-7.111,8.462-14.982,11.298-23.155c0.304-0.876,0.607-1.775,1.071-2.569c1.018-1.739,3.469-1.753,4.446,0.01    c0.434,0.783,0.699,1.678,0.92,2.554c2.063,8.181,5.972,15.381,11.414,21.798C472.387,194.91,472.671,195.415,472.935,195.935z"/>
		<path d="M30.735,167.494c-0.357-0.685-0.402-1.494-0.125-2.215c0.228-0.593,0.446-1.125,0.812-1.522    c5.505-5.963,7.807-13.481,10.296-20.914c0.342-1.021,0.506-2.154,1.07-3.032c0.475-0.739,1.395-1.613,2.146-1.64    c0.829-0.03,1.83,0.697,2.493,1.359c0.549,0.547,0.756,1.462,1.044,2.241c2.429,6.568,5.957,12.442,10.889,17.45    c0.888,0.902,1.773,1.834,2.484,2.872c0.328,0.479,0.293,1.233-0.068,1.688c-5.497,6.93-7.764,15.142-9.474,23.584    c-0.049,0.24-0.121,0.475-0.172,0.714c-0.261,1.22-0.514,2.472-2.009,2.761c-1.621,0.314-2.385-0.815-3.104-1.968    c-4.416-7.083-9.076-13.973-15.19-19.761C31.369,168.677,31.049,168.097,30.735,167.494z"/>
		<path d="M288.253,397.788c-0.407-0.782-0.486-1.698-0.212-2.536c0.155-0.475,0.311-0.894,0.555-1.253    c4.4-6.489,6.991-13.758,9.258-21.175c0.271-0.886,0.475-1.871,1.015-2.575c0.507-0.662,1.425-1.4,2.152-1.391    c0.727,0.01,1.767,0.749,2.1,1.442c0.906,1.888,1.58,3.897,2.221,5.899c1.802,5.629,4.387,10.886,7.412,15.942    c0.327,0.546,0.625,1.109,0.936,1.664c0.941,1.68,1.015,3.094-0.376,4.789c-4.461,5.435-6.522,11.975-8.055,18.711    c-0.206,0.906-0.302,1.885-0.732,2.676c-0.328,0.603-1.075,1.28-1.692,1.34c-0.619,0.06-1.35-0.546-1.947-0.977    c-0.278-0.201-0.376-0.672-0.52-1.035c-2.746-6.914-6.464-13.278-10.809-19.3C289.054,399.311,288.647,398.544,288.253,397.788z"/>
		<path d="M54.869,328.043c-0.345,1.023-0.575,2.036-1.013,2.948c-2.95,6.134-4.812,12.619-6.324,19.223    c-0.077,0.334-0.167,0.665-0.266,0.994c-0.334,1.11-0.958,1.951-2.18,2.123c-1.294,0.182-2.138-0.527-2.757-1.56    c-0.301-0.503-0.593-1.024-0.798-1.571c-2.324-6.207-5.763-11.796-9.651-17.107c-1.878-2.565-2.066-4.967-0.556-7.767    c3.12-5.782,4.928-12.035,6.224-18.45c0.164-0.812,0.365-1.64,0.71-2.387c0.867-1.876,3.059-2.118,4.274-0.441    c0.594,0.819,1.039,1.785,1.375,2.746c2.414,6.901,5.977,13.192,10.054,19.222C54.359,326.604,54.555,327.328,54.869,328.043z"/>
		<path d="M274.256,102.05c-0.237-0.462-0.285-0.998-0.144-1.497c0.175-0.622,0.296-1.107,0.55-1.507    c3.231-5.08,5.239-10.718,7.502-16.241c0.342-0.835,0.695-1.69,1.191-2.435c1.199-1.8,3.403-1.929,4.693-0.193    c0.56,0.754,0.837,1.693,1.301,2.516c2.285,4.049,4.585,8.09,6.893,12.127c0.896,1.567,1.857,3.099,2.714,4.688    c0.175,0.324,0.115,0.862-0.012,1.242c-0.199,0.597-0.486,1.187-0.842,1.706c-3.509,5.109-5.197,10.92-6.551,16.863    c-0.135,0.592-0.249,1.205-0.522,1.741c-0.867,1.705-3.257,1.73-4.448,0.232c-0.379-0.476-0.692-1.024-0.946-1.571    c-2.573-5.55-5.922-10.581-9.9-15.222C275.106,103.765,274.673,102.863,274.256,102.05z"/>
		<path d="M8.318,303.828c-4.666-0.043-8.37-3.826-8.318-8.495c0.053-4.792,4.002-8.641,8.808-8.586    c4.687,0.053,8.446,3.805,8.433,8.417C17.227,299.931,13.169,303.872,8.318,303.828z"/>
		<path d="M434.489,125.551c-0.037,4.656-3.782,8.331-8.477,8.321c-4.736-0.011-8.582-3.789-8.575-8.426    c0.007-4.68,3.823-8.415,8.578-8.396C430.746,117.069,434.526,120.862,434.489,125.551z"/>
		<path d="M245.816,415.442c-4.755,0.022-8.628-3.621-8.671-8.156c-0.045-4.707,3.689-8.4,8.525-8.431    c4.716-0.03,8.471,3.654,8.471,8.307C254.141,411.789,250.489,415.421,245.816,415.442z"/>
		<path d="M223.983,100.493c-0.032,4.626-3.739,8.302-8.361,8.292c-4.646-0.01-8.365-3.812-8.315-8.5    c0.049-4.582,3.844-8.279,8.441-8.222C220.346,92.12,224.015,95.875,223.983,100.493z"/>
		<path d="M110.772,122.754c0.033,4.411-3.463,7.98-7.86,8.027c-4.654,0.049-8.719-3.729-8.755-8.135    c-0.036-4.415,3.648-8.06,8.182-8.094C106.965,114.517,110.738,118.186,110.772,122.754z"/>
		<path d="M498.055,230.129c-0.011,4.101-3.307,7.357-7.405,7.313c-4.043-0.043-7.262-3.295-7.248-7.323    c0.014-4.082,3.336-7.362,7.415-7.322C494.852,222.837,498.067,226.092,498.055,230.129z"/>
		<path d="M396.221,325.82c-4.038-0.018-7.229-3.283-7.2-7.368c0.029-4.076,3.236-7.29,7.288-7.302    c4.053-0.011,7.271,3.211,7.282,7.289C403.601,322.555,400.323,325.838,396.221,325.82z"/>
		<path d="M170.106,413.64c-4.122,0.02-7.534-3.367-7.517-7.46c0.016-3.912,3.189-7.076,7.134-7.116    c4.121-0.042,7.512,3.337,7.49,7.465C177.191,410.497,174.07,413.621,170.106,413.64z"/>
		<path d="M355.64,393.433c-0.005,3.992-3.18,7.168-7.18,7.181c-4.018,0.014-7.281-3.244-7.283-7.272    c-0.002-3.976,3.204-7.176,7.188-7.175C352.419,386.169,355.645,389.39,355.64,393.433z"/>
		<path d="M425.917,162.281c-0.034-3.611,2.849-6.568,6.465-6.632c3.633-0.064,6.584,2.814,6.611,6.445    c0.026,3.627-2.845,6.576-6.46,6.635C428.905,168.789,425.951,165.91,425.917,162.281z"/>
		<path d="M479.473,328.913c3.432,0.002,6.159,2.747,6.123,6.163c-0.036,3.411-2.811,6.12-6.227,6.08    c-3.351-0.039-6.04-2.747-6.057-6.099C473.294,331.663,476.054,328.911,479.473,328.913z"/>
		<path d="M41.343,389.125c-3.391,0.008-5.935-2.41-5.907-5.615c0.028-3.302,2.814-6.041,6.156-6.051    c3.301-0.01,5.942,2.608,5.908,5.855C47.465,386.579,44.776,389.117,41.343,389.125z"/>
		<path d="M163.368,111.198c-0.036,3.047-2.541,5.428-5.64,5.362c-3.062-0.065-5.472-2.558-5.425-5.61    c0.046-3.002,2.473-5.387,5.479-5.383C160.873,105.57,163.405,108.122,163.368,111.198z"/>
	</g>
	<g>
		<path d="M100.462,433.51c-1.297-0.236-2.603-0.435-3.891-0.714c-7.266-1.577-12.467-6.134-16.837-11.817    c-5.286-6.874-7.347-14.892-7.739-23.357c-0.524-11.333,1.792-22.2,5.921-32.728c6.009-15.325,15.458-28.232,27.686-39.114    c4.051-3.605,8.525-6.741,12.856-10.024c0.722-0.547,1.031-1.007,0.888-1.912c-1.06-6.725-2.08-13.456-3.113-20.185    c-0.074-0.483-0.151-0.965-0.47-1.535c-0.166,0.545-0.326,1.093-0.5,1.636c-3.301,10.323-9.676,17.92-20.024,21.57    c-8.206,2.895-16.031,1.434-22.951-3.758c-6.541-4.908-10.604-11.695-13.541-19.223c-3.089-7.917-4.524-16.202-5.612-24.574    c-1.245-9.572-2.543-19.14-5.29-28.428c-0.622-2.103-1.405-4.187-2.365-6.157c-3.919-8.046-12.946-8.281-18.434-2.505    c-5.457,5.743-7.467,12.618-6.659,20.4c0.182,1.753,0.511,3.49,0.723,5.239c0.243,1.998-0.228,2.686-2.225,3.07    c-3.607,0.692-7.223,1.336-10.843,1.954c-1.617,0.276-2.194-0.15-2.801-2.065c-1.969-6.217-2.865-12.594-2.781-19.113    c0.209-16.253,11.798-30.201,28.982-32.939c6.373-1.016,12.479-0.743,18.116,2.922c3.784,2.46,6.664,5.742,9.191,9.394    c5.071,7.329,8.114,15.521,10.001,24.151c1.882,8.61,3.513,17.275,5.328,25.9c1.124,5.343,2.831,10.487,5.563,15.26    c1.385,2.42,3.107,4.509,5.327,6.198c2.155,1.64,4.548,2.027,7.091,1.255c4.574-1.389,7.423-4.593,9.045-8.964    c1.36-3.663,1.935-7.495,2.03-11.381c0.366-15.119-2.174-29.855-5.945-44.425c-0.637-2.463-1.228-4.943-1.707-7.441    c-0.343-1.788,0.272-2.794,1.988-3.409c4.284-1.535,8.59-3.011,12.894-4.491c0.552-0.19,1.139-0.292,1.717-0.393    c2.84-0.496,3.822,0.143,4.56,2.928c1.443,5.443,2.892,10.885,4.339,16.328c4.302,16.189,8.879,32.312,12.835,48.585    c4.676,19.233,8.474,38.661,11.053,58.305c1.883,14.342,2.574,28.731,0.855,43.119c-1.493,12.502-5.063,24.368-12.562,34.728    c-5.629,7.778-12.619,13.816-22.123,16.369c-2.211,0.594-4.499,0.904-6.751,1.345C103.011,433.511,101.736,433.51,100.462,433.51z     M105.018,222.226c-0.241,0.054-0.481,0.108-0.722,0.161c-0.062,0.542-0.226,1.096-0.165,1.624    c0.163,1.409,0.306,2.837,0.663,4.204c1.915,7.34,3.938,14.653,5.832,21.998c1.043,4.043,2.644,7.997,1.922,12.349    c-1.161,6.996-1.873,14.086-3.41,20.995c-1.638,7.363-5.011,13.963-10.72,19.212c-6.402,5.885-14.483,4.571-19.723-0.756    c-4.845-4.925-7.802-10.89-9.586-17.455c-1.335-4.912-2.457-9.885-3.572-14.854c-2.23-9.934-3.738-20.041-7.071-29.708    c-1.689-4.901-3.169-9.918-5.372-14.587c-2.945-6.24-8.263-9.955-15.044-11.053c-8.113-1.314-14.349,2.58-19.589,8.225    c-4.239,4.566-6.042,10.32-7.111,16.352c-0.729,4.108-0.934,8.176,0.367,12.197c0.15,0.464,0.557,1.281,1.091,1.187    c0.522-0.092,0.597-0.967,0.609-1.458c0.074-2.932-0.173-5.89,0.127-8.794c0.643-6.223,2.691-11.954,7.037-16.629    c3.159-3.397,6.837-6.188,11.502-6.947c7.607-1.237,16.731,1.915,19.786,11.843c2.159,7.019,4.488,14.002,6.252,21.122    c2.496,10.071,4.509,20.262,6.793,30.387c1.885,8.355,5.233,15.963,11.272,22.261c5.962,6.218,15.763,7.865,23.456,0.962    c5.827-5.229,9.347-11.787,11.429-19.17c1.869-6.631,2.883-13.438,3.462-20.689c0.231,0.669,0.36,0.971,0.441,1.287    c2.568,10.056,5.253,20.085,7.655,30.181c1.812,7.617,3.264,15.32,4.864,22.988c0.146,0.698,0.368,1.355-0.583,1.844    c-5.508,2.828-10.133,6.887-14.665,10.997c-12.781,11.592-22.336,25.406-28.26,41.679c-3.12,8.572-5.46,17.29-5.293,26.498    c0.128,7.05,2.025,13.559,6.526,19.113c3.854,4.755,8.921,7.184,15.043,6.901c5.972-0.276,11.376-2.507,16.259-5.847    c6.092-4.167,9.757-10.254,12.444-16.93c3.667-9.113,5.611-18.633,6.321-28.429c0.718-9.903,0.93-19.826-0.484-29.646    c-1.779-12.355-3.807-24.69-6.244-36.931c-4.594-23.065-10.442-45.828-17.531-68.264c-1.519-4.809-2.847-9.678-4.338-14.497    C106.268,224.8,105.581,223.532,105.018,222.226z"/>
		<path d="M225.507,269.822c-1.692,3.179-3.383,6.215-4.943,9.317c-4.428,8.808-11.63,14.484-20.486,18.328    c-16.393,7.116-31.567,4.908-45.509-6.082c-6.482-5.109-10.678-11.951-13.089-19.686c-5.411-17.355-5.691-34.95-0.869-52.47    c2.112-7.674,6.02-14.575,11.613-20.372c4.703-4.875,10.336-8.092,17.131-8.909c8.925-1.073,16.163,2.311,21.893,8.963    c12.49,14.499,10.752,35.936-3.699,48.518c-7.382,6.427-15.675,8.463-25.281,5.995c0.041,0.408,0.046,0.876,0.139,1.326    c1.028,4.96,2.687,9.675,4.87,14.274c3.896,8.209,13.138,11.812,21.163,9.932c9.647-2.26,16.541-8.074,21.316-16.49    c1.897-3.344,3.257-7.004,4.714-10.58c0.285-0.701,0.037-1.726-0.214-2.523c-5.602-17.821-5.31-35.544,1.067-53.091    c2.807-7.723,7.163-14.498,13.732-19.632c5.749-4.493,12.228-7.052,19.615-6.63c7.006,0.4,13.032,3.347,18.39,7.733    c4.375,3.581,7.82,7.956,10.652,12.83c0.246,0.423,0.49,0.848,0.746,1.265c0.043,0.07,0.142,0.106,0.427,0.306    c-0.274-3.054-0.586-5.939-0.776-8.832c-0.199-3.03-0.345-6.068-0.388-9.104c-0.027-1.902,0.457-2.33,2.274-2.868    c4.645-1.374,9.28-2.782,13.92-4.173c0.563-0.169,1.128-0.33,1.698-0.474c2.71-0.684,3.948,0.281,4.197,3.066    c1.416,15.862,2.723,31.736,4.389,47.573c0.55,5.23,1.969,10.381,3.184,15.522c0.421,1.781,1.365,3.452,2.171,5.125    c2.739,5.684,8.955,5.329,12.249,2.343c1.998-1.81,3.798-4.015,5.12-6.361c4.842-8.59,8.045-17.776,8.55-27.694    c0.155-3.042-0.403-6.144-0.845-9.189c-2.108-14.503-4.289-28.996-6.447-43.492c-0.085-0.572-0.211-1.139-0.335-1.798    c-0.347,0-0.631-0.024-0.91,0.003c-15.879,1.549-31.733,0.646-47.6-0.325c-17.174-1.051-34.353-2.19-51.547-2.71    c-15.54-0.471-31.094,0.16-46.517,2.404c-26.569,3.866-51.378,12.388-73.354,28.215c-7.417,5.341-14.519,11.013-20.03,18.461    c-2.725,3.683-4.561,7.752-6.146,11.981c-0.515,1.374-1.005,2.758-1.482,4.146c-0.38,1.105-1.224,1.477-2.285,1.463    c-0.433-0.006-0.884-0.109-1.292-0.262c-4.494-1.681-8.982-3.377-13.467-5.082c-0.455-0.173-0.888-0.415-1.313-0.656    c-1.945-1.103-2.567-2.372-1.642-4.395c1.484-3.243,3.12-6.428,4.873-9.535c7.788-13.797,19.397-23.844,32.205-32.73    c20.792-14.426,43.599-23.912,68.448-28.772c19.112-3.738,38.329-5.465,57.758-4.275c11.685,0.716,23.349,1.792,35.014,2.802    c20,1.731,40.014,2.618,60.077,1.286c2.189-0.145,4.368-0.433,6.702-0.67c-0.362-3.077-0.718-6.03-1.055-8.985    c-1.099-9.666-1.778-19.343-0.427-29.04c0.933-6.697,2.582-13.154,6.28-18.961c6.975-10.953,17.798-11.858,27.931-6.391    c3.955,2.133,7.37,5.088,10.047,8.715c7.171,9.716,11.311,20.478,10.478,32.745c-1.067,15.73-9.08,26.752-23.178,33.487    c-2.071,0.989-4.272,1.714-6.433,2.506c-0.686,0.251-1.078,0.502-0.933,1.343c1.684,9.75,3.342,19.504,5.013,29.256    c0.013,0.076,0.112,0.138,0.294,0.351c0.457-1.667,0.769-3.275,1.339-4.785c1.587-4.208,2.85-8.617,5.02-12.512    c5.194-9.318,12.846-15.616,23.77-17.091c4.878-0.658,9.179,0.788,12.924,4.024c4.251,3.673,7.063,8.359,9.577,13.265    c4.141,8.082,6.335,16.764,7.564,25.686c2.82,20.465,7.306,40.591,12.078,60.663c0.111,0.467,0.269,0.923,0.37,1.263    c4.788-0.77,9.45-1.679,14.154-2.247c12.813-1.546,25.226-0.09,37.06,5.324c8.976,4.107,15.533,10.783,19.863,19.496    c3.271,6.582,3.741,13.686,1.7,20.781c-0.915,3.181-2.147,6.317-3.613,9.286c-5.804,11.757-15.676,17.52-28.447,18.678    c-13.94,1.263-26.169-3.223-37.187-11.481c-5.985-4.486-11.575-9.361-15.762-15.692c-2.229-3.369-4.298-6.784-5.67-10.595    c-0.13-0.361-0.306-0.706-0.559-1.281c-31.253,17.022-62.487,33.885-92.903,52.511c0.337,0.125,0.61,0.271,0.901,0.328    c25.03,4.969,50.23,8.759,75.72,10.265c19.539,1.154,38.645-1.289,57.141-7.913c1.844-0.661,3.706-1.277,5.585-1.83    c2.045-0.602,2.603-0.201,3.081,1.824c1.09,4.621,2.205,9.236,3.349,13.844c0.379,1.528-0.034,2.73-1.296,3.601    c-2.212,1.527-4.356,3.195-6.711,4.465c-9.393,5.066-19.564,7.568-30.06,9.161c-21.777,3.305-43.491,2.116-65.261-0.135    c-20.511-2.121-40.523-6.505-60.313-12.114c-3.534-1.002-7.128-1.789-10.677-2.742c-1.039-0.279-1.851-0.095-2.754,0.46    c-10.185,6.263-20.298,12.657-31.14,17.765c-13.614,6.413-27.744,11.297-42.476,14.448c-8.002,1.711-15.749,0.969-23.161-2.326    c-10.767-4.787-17.256-13.175-18.945-24.789c-1.85-12.72,3.199-22.716,13.529-30.065c8.83-6.282,18.92-9.083,29.585-10.026    c17.099-1.513,33.97-0.058,50.652,3.932c7.241,1.732,14.531,3.261,21.785,4.941c1.044,0.242,1.844,0.121,2.744-0.456    c14.895-9.545,29.785-19.099,44.726-28.572c19.453-12.335,38.972-24.564,59.57-34.95c3.105-1.566,6.238-3.076,9.37-4.587    c0.629-0.303,0.981-0.559,0.839-1.414c-3.51-21.099-5.558-42.376-7.836-63.629c-0.571-5.327-1.812-10.621-3.218-15.802    c-0.653-2.407-2.176-4.717-3.772-6.694c-2.209-2.735-5.378-2.888-8.067-0.601c-1.315,1.118-2.419,2.57-3.349,4.04    c-3.333,5.27-4.873,11.176-5.912,17.257c-2.036,11.916-1.841,23.93-1.608,35.94c0.153,7.887,0.472,15.77,0.735,23.655    c0.038,1.147-0.535,1.868-1.492,2.304c-1.068,0.487-2.147,0.992-3.273,1.301c-4.345,1.191-8.692,2.387-13.074,3.427    c-3.911,0.928-5.634-0.258-6.367-4.16c-0.506-2.697-0.94-5.408-1.41-8.111c-0.081-0.466-0.181-0.928-0.339-1.724    c-0.713,1.384-1.235,2.483-1.83,3.54c-6.303,11.201-15.949,17.012-28.741,16.842c-7.727-0.102-14.257-3.48-18.716-10.023    c-2.112-3.099-3.804-6.485-5.687-9.743c-0.164,0.698-0.369,1.557-0.569,2.418c-2.243,9.654-6.089,18.514-12.956,25.841    c-4.894,5.221-10.745,8.823-17.894,9.98c-7.662,1.239-14.621-0.817-20.881-5.143c-2.72-1.879-5.056-4.315-7.554-6.51    C226.211,270.626,225.876,270.211,225.507,269.822z M335.77,140.786c-3.566,0.419-6.952,1.025-10.359,1.18    c-13.832,0.63-27.624-0.411-41.418-1.222c-7.826-0.46-15.652-0.939-23.479-1.387c-7.828-0.448-15.653-0.973-23.486-1.273    c-8.373-0.32-16.756-0.603-25.132-0.553c-7.002,0.041-14.003,0.555-21.001,0.914c-8.079,0.415-16.119,1.134-24.067,2.766    c-26.204,5.383-49.939,15.965-70.4,33.405c-7.322,6.241-14.427,12.738-19.561,21.01c-1.405,2.264-2.385,4.794-3.508,7.227    c-0.12,0.26-0.132,0.867,0.183,1.03c0.31,0.161,0.753-0.197,0.938-0.441c0.738-0.975,1.356-2.041,2.094-3.016    c3.34-4.411,6.314-9.183,10.141-13.125c9.45-9.736,19.945-18.201,31.822-24.956c15.831-9.004,32.604-15.34,50.503-18.557    c5.718-1.027,11.565-1.415,17.372-1.847c8.842-0.658,17.697-1.438,26.554-1.54c9.597-0.112,19.203,0.45,28.803,0.802    c6.513,0.239,13.022,0.599,19.53,0.951c8.172,0.442,16.34,0.96,24.513,1.391c7.192,0.379,14.386,0.867,21.584,0.97    c7.389,0.106,14.785-0.137,22.174-0.356c2.129-0.063,4.245-0.567,6.418-0.877c0.07,0.3,0.144,0.527,0.175,0.761    c1.049,7.812,1.91,15.656,3.19,23.43c1.44,8.743,3.292,17.417,4.89,26.135c0.475,2.591,1.216,5.283,0.946,7.835    c-1.186,11.218-4.122,21.994-8.861,32.274c-2.441,5.295-5.294,10.285-9.4,14.465c-7.07,7.199-16.842,7.132-23.856-0.083    c-2.459-2.53-4.326-5.407-5.711-8.654c-3.017-7.075-4.341-14.525-5.059-22.114c-0.929-9.812-1.665-19.634-1.096-29.502    c0.198-3.423,0.482-6.841,0.622-10.266c0.033-0.806,0.555-2.121-0.801-2.246c-0.368-0.034-1.091,1.309-1.273,2.106    c-1.409,6.2-1.841,12.511-1.594,18.842c0.287,7.341,0.698,14.681,1.276,22.004c0.463,5.862,1.431,11.662,3.193,17.304    c1.896,6.073,4.536,11.666,9.463,15.964c6.519,5.685,14.624,6.44,22.025,2.026c4.226-2.521,7.113-6.282,9.689-10.291    c4.981-7.753,7.709-16.466,10.272-25.212c0.975-3.327,1.542-6.775,2.324-10.301c0.115,0.511,0.22,0.888,0.284,1.272    c1.888,11.451,3.76,22.905,5.666,34.353c0.321,1.928,0.714,3.852,1.238,5.733c0.115,0.413,0.862,1.095,1.422,0.94    c0.463-0.128,0.609-0.85,0.621-1.283c0.033-1.171-0.208-2.353-0.139-3.519c0.33-5.573,0.639-11.15,1.118-16.711    c0.787-9.124,1.745-18.232,2.55-27.354c1.002-11.368,4.257-22.086,9.116-32.36c1.885-3.985,4.639-7.29,8.181-9.858    c3.341-2.423,6.968-2.937,10.781-0.937c3.339,1.751,5.634,4.464,6.893,7.916c1.541,4.224,3.238,8.473,4.053,12.863    c2.486,13.38,4.646,26.822,6.809,40.26c1.955,12.139,3.886,24.277,7.089,36.168c0.81,3.007,1.673,5.999,2.528,9.054    c-0.528,0.181-0.987,0.341-1.448,0.495c-8.62,2.874-17.04,6.28-24.906,10.812c-13.711,7.901-27.317,15.99-40.849,24.195    c-21.074,12.777-42.047,25.722-63.086,38.557c-0.63,0.384-1.582,0.588-2.292,0.44c-13.181-2.75-26.328-5.673-39.526-8.336    c-10.591-2.137-21.289-3.63-32.133-2.711c-4.03,0.342-8.11,0.923-11.99,2.022c-5.77,1.635-11.035,4.505-14.976,9.151    c-5.752,6.781-6.774,14.72-4.728,23.121c1.79,7.349,6.441,12.147,13.668,14.448c6.034,1.921,12.145,2.073,18.29,0.741    c7.751-1.68,15.104-4.589,22.236-7.95c16.454-7.756,32.313-16.648,48.014-25.817c1.083-0.633,2.031-0.866,3.296-0.56    c6.282,1.52,12.569,3.038,18.895,4.36c12.029,2.513,24.051,5.089,36.143,7.264c9.249,1.664,18.588,2.866,27.914,4.057    c7.574,0.967,15.174,1.869,22.79,2.336c9.711,0.595,19.387-0.337,29.01-1.707c11.358-1.617,22.017-5.124,31.519-11.728    c0.417-0.29,1.025-0.583,1.095-1.095c0.029-0.21-0.111-0.477-0.307-0.558c-0.896-0.369-1.905,0.447-2.781,0.84    c-4.241,1.902-8.328,4.239-12.705,5.734c-13.317,4.551-27.161,5.829-41.145,5.714c-8.833-0.072-17.589-1.191-26.32-2.491    c-9.835-1.465-19.694-2.769-29.516-4.311c-14.82-2.328-29.377-5.921-43.953-9.413c-2.597-0.622-5.194-1.247-8.018-1.925    c0.408-0.311,0.586-0.469,0.785-0.594c4.183-2.645,8.269-5.46,12.569-7.9c25.408-14.418,50.001-30.184,75.014-45.254    c12.409-7.476,25.18-14.2,39.043-18.631c0.491-0.157,0.985-0.309,1.491-0.467c1.308,3.196,2.463,6.269,3.806,9.257    c6.798,15.128,17.578,26.572,32.661,33.433c11.766,5.352,23.096,3.437,32.647-5.239c6.792-6.17,9.159-14.496,7.503-23.482    c-1.525-8.274-7.056-13.795-14.264-17.713c-6.323-3.438-13.206-4.899-20.301-5.393c-10.856-0.756-21.511,0.777-32.064,3.167    c-2.71,0.613-5.376,1.417-8.163,2.16c-0.198-0.565-0.41-1.057-0.544-1.569c-1.632-6.254-3.649-12.439-4.8-18.781    c-2.972-16.383-5.584-32.833-8.292-49.263c-1.475-8.948-2.897-17.913-6.243-26.401c-0.997-2.528-2.195-5.076-3.8-7.245    c-4.467-6.036-12.609-7.48-18.45-3.446c-3.256,2.249-6.16,4.974-8.08,8.437c-4.271,7.703-7.712,15.785-9.044,24.555    c-0.948,6.237-1.538,12.533-2.13,18.818c-0.597,6.335-1.005,12.688-1.485,19.034c-0.186,2.461-0.34,4.924-0.509,7.387    c-0.848-3.575-1.446-7.147-2.031-10.721c-2.208-13.485-4.164-27.018-6.687-40.444c-2.48-13.194-5.14-26.342-6.367-39.733    c-0.112-1.218,0.295-1.512,1.325-1.886c4.318-1.569,8.645-3.14,12.863-4.955c6.362-2.737,10.769-7.564,13.737-13.73    c1.103-2.29,2.093-4.647,2.943-7.042c2.118-5.961,3.003-12.044,1.61-18.341c-2.467-11.151-8.938-18.954-19.438-23.407    c-2.27-0.963-4.68-1.181-7.065-0.584c-5.496,1.375-8.717,5.233-10.164,10.414c-0.951,3.407-1.447,7.029-1.538,10.57    c-0.164,6.455,0.014,12.925,0.258,19.382c0.192,5.088,0.662,10.167,1.076,15.245C334.973,133.224,335.378,136.82,335.77,140.786z     M153.126,243.873c0.568,0.187,0.714,0.215,0.841,0.28c8.741,4.449,17.337,3.724,25.14-1.795    c9.062-6.41,13.315-15.512,12.282-26.707c-0.547-5.924-2.715-11.233-7.47-15.152c-2.809-2.314-6.006-3.139-9.623-2.372    c-3.98,0.843-7.028,3.15-9.696,6.036c-11.329,12.254-14.936,27.219-14.387,43.305c0.232,6.798,1.812,13.577,3.092,20.306    c1.076,5.656,3.502,10.738,7.382,15.139c9.815,11.133,24.872,13.989,38.072,7.237c5.647-2.889,10.08-7.104,13.909-12.004    c6.161-7.885,10.336-16.823,13.498-26.267c0.22-0.656,0.456-1.305,0.721-2.061c1.281,2.679,2.373,5.245,3.701,7.683    c2.825,5.187,6.404,9.746,11.508,12.92c6.834,4.25,14.468,3.95,20.905-0.866c4.934-3.691,8.193-8.672,10.529-14.262    c4.212-10.078,5.683-20.634,5.09-31.495c-0.581-10.639-2.828-20.821-8.336-30.119c-2.188-3.694-4.59-7.184-7.882-9.985    c-4.827-4.107-10.301-6.004-16.622-4.553c-4.509,1.035-8.067,3.693-11.122,7.061c-4.549,5.015-7.307,10.999-9.082,17.442    c-3.755,13.63-3.629,27.296-0.131,40.966c0.199,0.777,0.46,1.72,0.204,2.402c-2.025,5.405-3.941,10.868-6.327,16.116    c-3.709,8.161-8.712,15.505-15.861,21.063c-6.921,5.38-14.735,8.012-23.644,6.515c-9.498-1.596-20.86-10.096-23.368-23.829    c-0.801-4.384-1.626-8.767-2.283-13.174C153.694,250.527,153.48,247.31,153.126,243.873z"/>
		<path d="M128.287,323.338c0.64,3.795,1.292,7.298,1.812,10.82c1.268,8.577,2.455,17.156,2.551,25.859    c0.154,13.899-0.953,27.596-5.675,40.815c-1.785,4.997-4.243,9.608-7.709,13.603c-5.133,5.917-11.772,9.129-19.535,9.498    c-4.771,0.227-8.858-1.924-11.983-5.595c-4.317-5.071-6.103-11.102-6.334-17.639c-0.39-11,2.916-21.139,7.257-31.057    c5.112-11.68,12.17-22.033,21.105-31.077C115.324,332.949,121.356,327.867,128.287,323.338z M121.433,338.857    c-1.377,0.943-2.54,1.587-3.526,2.437c-15.832,13.647-24.764,30.97-27.252,51.641c-0.522,4.339-0.386,8.735,0.941,12.969    c2.052,6.547,9.171,9.351,15.009,5.798c1.974-1.201,3.778-2.804,5.356-4.505c2.557-2.756,4.218-6.117,5.572-9.612    c2.967-7.656,3.816-15.72,4.018-23.8c0.27-10.824,0.044-21.661,0.023-32.492C121.574,340.615,121.498,339.937,121.433,338.857z"/>
		<path d="M278.808,341.679c-1.742,1.016-3.142,1.898-4.598,2.673c-14.01,7.45-27.943,15.051-42.082,22.248    c-6.972,3.549-14.318,6.389-22.064,7.922c-5.154,1.02-10.281,1.057-15.418-0.377c-7.932-2.213-12.65-7.662-13.483-15.883    c-0.625-6.17,0.628-11.844,4.795-16.587c3.518-4.004,8.061-6.662,13.112-8.024c4.267-1.151,8.744-1.688,13.164-2.068    c9.104-0.782,18.118,0.382,27.038,2.083c12.597,2.403,25.154,5.021,37.727,7.552C277.477,341.315,277.945,341.458,278.808,341.679    z M254.908,344.59c-0.149-0.158-0.204-0.275-0.28-0.29c-1.967-0.394-3.927-0.83-5.905-1.153    c-13.706-2.239-27.435-3.117-41.238-0.8c-5.085,0.854-9.554,2.78-13.082,6.659c-2.395,2.633-2.856,5.434-1.341,8.659    c1.846,3.933,5.337,5.437,9.272,6.155c5.156,0.94,10.144-0.161,15.043-1.634c13.23-3.979,25.172-10.737,37.17-17.365    C254.671,344.751,254.788,344.666,254.908,344.59z"/>
		<path d="M418.464,266.021c4.654-1.099,8.995-2.279,13.401-3.13c8.093-1.563,16.26-2.578,24.53-2.171    c7.468,0.368,14.682,1.868,21.264,5.578c6.437,3.628,11.34,8.753,12.303,16.281c1.036,8.094-1.278,15.526-7.739,20.848    c-8.23,6.779-17.768,8.08-27.483,3.951c-15.126-6.43-25.796-17.643-32.602-32.552C420.88,272.07,419.799,269.234,418.464,266.021z     M433.612,270.429c4.213,9.25,9.841,17.096,18.537,22.404c2.719,1.66,5.693,2.569,8.843,2.954c2.919,0.357,5.621-0.264,7.823-2.2    c1.714-1.507,3.401-3.144,4.699-5.003c3.349-4.795,2.883-10.093-1.443-14.054c-2.195-2.01-4.838-3.686-7.539-4.964    C454.204,264.675,443.985,267.202,433.612,270.429z"/>
		<path d="M338.636,139.845c-0.599-6.81-1.21-13.437-1.755-20.07c-0.369-4.491-0.761-8.985-0.937-13.485    c-0.264-6.772,0.078-13.523,1.499-20.173c0.282-1.32,0.782-2.65,1.449-3.824c3.42-6.014,8.521-7.715,14.666-4.594    c9.182,4.663,14.564,12.214,16.207,22.406c1.161,7.206-1.179,13.691-3.916,20.168c-4.08,9.657-11.901,14.727-21.332,17.939    c-1.667,0.568-3.373,1.021-5.064,1.52C339.276,139.784,339.083,139.785,338.636,139.845z M344.949,128.242    c3.55-1.199,7.417-4.29,9.499-7.68c5.814-9.467,5.614-19.469,2.386-29.654c-0.835-2.634-2.992-4.205-5.493-5.174    c-2.906-1.127-6.124,0.296-6.915,3.292c-0.741,2.807-1.384,5.743-1.383,8.622c0.003,6.26,0.364,12.525,0.738,18.779    C344.015,120.324,344.54,124.205,344.949,128.242z"/>
		<path d="M226.128,225.587c0.001-11.876,1.676-21.349,5.963-30.264c1.644-3.418,3.671-6.59,6.377-9.285    c6.532-6.505,14.725-7.014,21.98-1.32c5.32,4.175,8.677,9.709,11.072,15.954c3.942,10.279,5.33,20.906,4.694,31.847    c-0.53,9.116-2.591,17.808-7.138,25.806c-1.956,3.441-4.39,6.49-7.603,8.858c-5.567,4.102-11.881,4.344-17.7,0.595    c-4.445-2.863-7.577-6.925-10.009-11.53C228.363,246.02,226.115,235.039,226.128,225.587z M236.199,221.987    c0.146,1.691,0.262,4.094,0.577,6.47c0.847,6.374,2.49,12.535,6.191,17.879c1.474,2.129,3.379,4.114,5.477,5.623    c3.373,2.427,7.111,1.938,10.261-0.795c2.198-1.907,3.762-4.294,4.767-6.975c5.486-14.623,4.222-28.737-3.568-42.22    c-1.073-1.857-2.707-3.514-4.402-4.861c-3.821-3.035-8.448-2.746-11.764,0.833c-1.731,1.868-3.17,4.129-4.265,6.437    C236.949,209.697,236.344,215.458,236.199,221.987z"/>
		<path d="M189.463,217.696c-0.017,9.269-3.459,16.049-9.539,21.492c-6.942,6.214-17.446,7.326-25.838,2.931    c-0.333-0.174-0.698-0.716-0.68-1.069c0.705-14.577,5.253-27.555,16.056-37.83c4.921-4.681,10.919-4.275,15.291,0.914    c0.813,0.964,1.521,2.052,2.096,3.176C188.659,210.846,189.497,214.688,189.463,217.696z M162.592,233.647    c1.118-0.111,2.046-0.022,2.831-0.315c2.508-0.936,5.157-1.703,7.397-3.103c4.375-2.733,7.433-6.626,8.479-11.831    c0.457-2.276-0.564-4.958-2.13-5.889c-1.644-0.977-3.667-0.561-5.783,1.191c-0.151,0.125-0.296,0.256-0.439,0.39    C167.316,219.331,164.441,226.033,162.592,233.647z"/>
	</g>
</g>















</svg>
